<svg width="26" height="26" viewBox="0 0 26 26" fill="none" xmlns="http://www.w3.org/2000/svg">
<g clip-path="url(#clip0_859_2421)">
<path d="M8.32852 10.1417C8.73581 10.549 8.73581 11.2084 8.32852 11.6146C7.92123 12.0219 7.26186 12.0219 6.85561 11.6146C6.44831 11.2074 6.44831 10.548 6.85561 10.1417C7.2629 9.73444 7.92227 9.73444 8.32852 10.1417ZM22.7577 16.4803L22.1691 17.0688C22.141 18.3532 21.6431 19.6282 20.6744 20.6094L17.3754 23.9511C16.3931 24.9459 15.0827 25.4959 13.6848 25.5001H13.6671C12.2764 25.5001 10.9691 24.9584 9.98581 23.9751L2.26081 16.3157C1.58373 15.6396 1.25665 14.7094 1.36081 13.7605L2.15769 6.55632C2.21081 6.08132 2.57852 5.70319 3.05144 5.63861L10.2275 4.65736C11.1983 4.52819 12.1754 4.8584 12.8608 5.54382L20.6473 13.2646C21.0504 13.6678 21.3733 14.1219 21.6171 14.6063C22.4629 13.3917 22.3441 11.6949 21.2608 10.6115L13.3535 2.89798C13.115 2.65944 12.7858 2.54902 12.4671 2.59382L5.29102 3.57507C4.71915 3.65215 4.19519 3.25319 4.11706 2.68444C4.03998 2.11465 4.43894 1.58965 5.00769 1.51152L12.1848 0.529233C13.1441 0.392774 14.1316 0.728191 14.8181 1.41673L22.7233 9.13027C24.7504 11.1563 24.7619 14.4501 22.7566 16.4813L22.7577 16.4803ZM19.1764 14.7407L11.39 7.01986C11.1577 6.78757 10.8316 6.68027 10.5077 6.7209L4.1379 7.59277L3.43061 13.9886C3.39623 14.3042 3.50456 14.6146 3.72956 14.8386L11.4546 22.498C12.0473 23.0917 12.8316 23.4157 13.666 23.4157H13.6764C14.516 23.4136 15.3025 23.0834 15.891 22.4855L19.19 19.1438C20.3931 17.9251 20.3869 15.949 19.1754 14.7386L19.1764 14.7407Z" fill="#007AFF"/>
</g>
<defs>
<clipPath id="clip0_859_2421">
<rect width="25" height="25" fill="white" transform="translate(0.300781 0.5)"/>
</clipPath>
</defs>
</svg>
