<svg width="25" height="26" viewBox="0 0 25 26" fill="none" xmlns="http://www.w3.org/2000/svg">
<path d="M25.0003 4.66667V6.75C25.0003 7.32604 24.5346 7.79167 23.9586 7.79167C23.3826 7.79167 22.9169 7.32604 22.9169 6.75V4.66667C22.9169 3.51771 21.9826 2.58333 20.8336 2.58333H18.7503C18.1742 2.58333 17.7086 2.11771 17.7086 1.54167C17.7086 0.965625 18.1742 0.5 18.7503 0.5H20.8336C23.1315 0.5 25.0003 2.36875 25.0003 4.66667ZM23.9586 13C23.3826 13 22.9169 13.4656 22.9169 14.0417V16.125C22.9169 17.274 21.9826 18.2083 20.8336 18.2083H18.7503C18.1742 18.2083 17.7086 18.674 17.7086 19.25C17.7086 19.826 18.1742 20.2917 18.7503 20.2917H20.8336C23.1315 20.2917 25.0003 18.4229 25.0003 16.125V14.0417C25.0003 13.4656 24.5346 13 23.9586 13ZM6.25026 7.79167C6.8263 7.79167 7.29193 7.32604 7.29193 6.75V4.66667C7.29193 3.51771 8.2263 2.58333 9.37526 2.58333H11.4586C12.0346 2.58333 12.5003 2.11771 12.5003 1.54167C12.5003 0.965625 12.0346 0.5 11.4586 0.5H9.37526C7.07734 0.5 5.20859 2.36875 5.20859 4.66667V6.75C5.20859 7.32604 5.67422 7.79167 6.25026 7.79167ZM19.7023 13.825C19.8711 13.4615 19.7951 13.0302 19.5117 12.7458L17.4846 10.7188L18.7805 7.9875C18.9461 7.625 18.869 7.19687 18.5867 6.91458C18.3044 6.63229 17.8763 6.55521 17.5138 6.72083L14.7826 8.01667L12.7555 5.98958C12.4721 5.70625 12.0419 5.63021 11.6784 5.79792C11.3148 5.96562 11.0951 6.34271 11.1273 6.74271L11.4263 9.65625L8.75234 11.0583C8.39297 11.2458 8.19089 11.6396 8.24818 12.0417C8.27839 12.251 8.37526 12.4385 8.51797 12.5812C8.64922 12.7125 8.81797 12.8052 9.00755 12.8427L10.8221 13.2021L0.305469 23.7219C-0.101823 24.1292 -0.101823 24.7875 0.305469 25.1948C0.508594 25.3979 0.77526 25.5 1.04193 25.5C1.30859 25.5 1.57526 25.3979 1.77839 25.1948L12.319 14.6542L12.7128 16.5208C12.7971 16.9167 13.1221 17.2177 13.5253 17.2708C13.9284 17.3229 14.3201 17.1156 14.5023 16.7521L15.8544 14.0771L18.7544 14.3729C19.1544 14.4073 19.5336 14.1885 19.7023 13.825Z" fill="#007AFF"/>
</svg>
