<svg width="26" height="26" viewBox="0 0 26 26" fill="none" xmlns="http://www.w3.org/2000/svg">
<g clip-path="url(#clip0_859_428)">
<path d="M20.4629 20.2915C20.4629 21.154 19.7629 21.854 18.9004 21.854C18.0379 21.854 17.3379 21.154 17.3379 20.2915C17.3379 19.429 18.0379 18.729 18.9004 18.729C19.7629 18.729 20.4629 19.429 20.4629 20.2915ZM25.1504 19.2499V21.3332C25.1504 23.6311 23.2816 25.4999 20.9837 25.4999H16.8171C14.5191 25.4999 12.6504 23.6311 12.6504 21.3332V19.2499C12.6504 17.7145 13.4941 16.3853 14.7337 15.6624V14.0415C14.7337 11.7436 16.6025 9.87487 18.9004 9.87487C21.1983 9.87487 23.0671 11.7436 23.0671 14.0415V15.6624C24.3066 16.3853 25.1504 17.7145 25.1504 19.2499ZM16.8171 15.0832H20.9837V14.0415C20.9837 12.8926 20.0494 11.9582 18.9004 11.9582C17.7514 11.9582 16.8171 12.8926 16.8171 14.0415V15.0832ZM23.0671 19.2499C23.0671 18.1009 22.1327 17.1665 20.9837 17.1665H16.8171C15.6681 17.1665 14.7337 18.1009 14.7337 19.2499V21.3332C14.7337 22.4822 15.6681 23.4165 16.8171 23.4165H20.9837C22.1327 23.4165 23.0671 22.4822 23.0671 21.3332V19.2499ZM11.591 24.4582C11.4889 25.027 10.9306 25.3999 10.3785 25.2947C4.45248 24.2051 0.150393 19.0342 0.150393 12.9999C0.146226 6.08529 5.87956 0.501953 12.7066 0.501953C17.8723 0.501953 22.4181 3.6405 24.2983 8.45404C24.5077 8.99049 24.2421 9.59362 23.7066 9.80299C23.1848 10.0113 22.5671 9.75299 22.3577 9.21133C21.1233 6.04987 18.5066 3.77279 15.3473 2.93841C16.0639 3.82695 16.865 4.94466 17.5702 6.25612C17.8431 6.76237 17.6525 7.39466 17.1462 7.66654C16.6504 7.93737 16.0087 7.75404 15.7358 7.24362C14.7077 5.33216 13.4285 3.83633 12.6525 3.01445C11.8066 3.91237 10.3619 5.62174 9.29518 7.79154H13.6931C14.2691 7.79154 14.7348 8.2582 14.7348 8.8332C14.7348 9.4082 14.2691 9.87487 13.6931 9.87487H8.45456C8.15039 10.8676 7.96289 11.9176 7.96289 12.9999C7.96289 14.0207 8.13477 15.0645 8.45873 16.1249H9.52539C10.1014 16.1249 10.5671 16.5915 10.5671 17.1665C10.5671 17.7415 10.1014 18.2082 9.52539 18.2082H9.28685C9.61706 18.879 10.0035 19.5551 10.4556 20.2342C10.7754 20.7124 10.6462 21.3603 10.1671 21.679C9.69414 21.9957 9.0431 21.8728 8.72227 21.3905C8.01393 20.327 7.43581 19.2655 6.99102 18.2082H3.62643C5.10977 20.7801 7.6681 22.678 10.7556 23.2447C11.3212 23.3488 11.6952 23.8915 11.5921 24.4572L11.591 24.4582ZM3.6431 7.79154H7.00248C7.82227 5.83841 8.95039 4.17174 9.92956 2.95612C7.25352 3.68216 5.00456 5.4457 3.6431 7.79154ZM2.72123 16.1249H6.28581C6.01602 15.0738 5.87956 14.0311 5.87956 12.9999C5.87956 11.9145 6.0431 10.8707 6.29935 9.87487H2.71393C2.40248 10.8624 2.23373 11.9113 2.23373 12.9999C2.23373 14.0884 2.40977 15.1332 2.72123 16.1249Z" fill="#007AFF"/>
</g>
<defs>
<clipPath id="clip0_859_428">
<rect width="25" height="25" fill="white" transform="translate(0.150391 0.5)"/>
</clipPath>
</defs>
</svg>
