<svg width="26" height="26" viewBox="0 0 26 26" fill="none" xmlns="http://www.w3.org/2000/svg">
<g clip-path="url(#clip0_859_446)">
<path d="M15.0326 10.9167C15.0326 11.9782 14.7117 12.9626 14.1659 13.7855L11.1711 10.7907C10.9753 10.5949 10.8659 10.3303 10.8659 10.0542V5.81362C13.243 6.29591 15.0326 8.39696 15.0326 10.9167ZM8.78255 10.4855V5.81362C6.1263 6.35321 4.20339 8.91362 4.69193 11.8209C5.03047 13.8355 6.58776 15.5115 8.5763 15.9792C10.1076 16.3386 11.5555 16.0136 12.693 15.2595L9.39193 11.9584C9.0013 11.5678 8.78255 11.0376 8.78255 10.4855ZM20.2409 5.70841H18.1576C17.5815 5.70841 17.1159 6.17508 17.1159 6.75008C17.1159 7.32508 17.5815 7.79175 18.1576 7.79175H20.2409C20.8169 7.79175 21.2826 7.32508 21.2826 6.75008C21.2826 6.17508 20.8169 5.70841 20.2409 5.70841ZM20.2409 9.87508H18.1576C17.5815 9.87508 17.1159 10.3417 17.1159 10.9167C17.1159 11.4917 17.5815 11.9584 18.1576 11.9584H20.2409C20.8169 11.9584 21.2826 11.4917 21.2826 10.9167C21.2826 10.3417 20.8169 9.87508 20.2409 9.87508ZM20.2409 14.0417H18.1576C17.5815 14.0417 17.1159 14.5084 17.1159 15.0834C17.1159 15.6584 17.5815 16.1251 18.1576 16.1251H20.2409C20.8169 16.1251 21.2826 15.6584 21.2826 15.0834C21.2826 14.5084 20.8169 14.0417 20.2409 14.0417ZM25.4492 6.75008V15.0834C25.4492 17.9553 23.1128 20.2917 20.2409 20.2917H13.9909V22.3751H18.1576C18.7336 22.3751 19.1992 22.8417 19.1992 23.4167C19.1992 23.9917 18.7336 24.4584 18.1576 24.4584H7.74089C7.16484 24.4584 6.69922 23.9917 6.69922 23.4167C6.69922 22.8417 7.16484 22.3751 7.74089 22.3751H11.9076V20.2917H5.65755C2.78568 20.2917 0.449219 17.9553 0.449219 15.0834V6.75008C0.449219 3.87821 2.78568 1.54175 5.65755 1.54175H20.2409C23.1128 1.54175 25.4492 3.87821 25.4492 6.75008ZM23.3659 6.75008C23.3659 5.02716 21.9638 3.62508 20.2409 3.62508H5.65755C3.93464 3.62508 2.53255 5.02716 2.53255 6.75008V15.0834C2.53255 16.8063 3.93464 18.2084 5.65755 18.2084H20.2409C21.9638 18.2084 23.3659 16.8063 23.3659 15.0834V6.75008Z" fill="#007AFF"/>
</g>
<defs>
<clipPath id="clip0_859_446">
<rect width="25" height="25" fill="white" transform="translate(0.449219 0.5)"/>
</clipPath>
</defs>
</svg>
