<svg width="26" height="26" viewBox="0 0 26 26" fill="none" xmlns="http://www.w3.org/2000/svg">
<g clip-path="url(#clip0_524_2868)">
<path d="M20.3918 25.5H18.3085C17.7335 25.5 17.2668 25.0333 17.2668 24.4583C17.2668 23.8833 17.7335 23.4167 18.3085 23.4167H20.3918C20.9668 23.4167 21.4335 23.8833 21.4335 24.4583C21.4335 25.0333 20.9668 25.5 20.3918 25.5ZM14.1418 25.5H12.0585C11.4835 25.5 11.0168 25.0333 11.0168 24.4583C11.0168 23.8833 11.4835 23.4167 12.0585 23.4167H14.1418C14.7168 23.4167 15.1835 23.8833 15.1835 24.4583C15.1835 25.0333 14.7168 25.5 14.1418 25.5ZM23.9783 23.826C23.7845 23.826 23.5897 23.7729 23.4147 23.6594C22.9314 23.3479 22.7918 22.7031 23.1043 22.2198C23.3741 21.8021 23.5168 21.3146 23.5168 20.8125C23.5168 20.2375 23.9835 19.7708 24.5585 19.7708C25.1345 19.7708 25.6001 20.2375 25.6001 20.8125C25.6001 21.7167 25.3418 22.5927 24.8553 23.3479C24.6564 23.6562 24.321 23.825 23.9793 23.825L23.9783 23.826ZM22.4272 18.5375C22.2824 18.5375 22.1345 18.5073 21.9939 18.4427C21.6543 18.2875 21.2897 18.2083 20.9105 18.2083H20.3908C19.8158 18.2083 19.3491 17.7417 19.3491 17.1667C19.3491 16.5917 19.8158 16.125 20.3908 16.125H20.9116C21.5918 16.125 22.247 16.2677 22.8605 16.549C23.3835 16.7875 23.6137 17.4062 23.3741 17.9292C23.1991 18.3115 22.821 18.5375 22.4262 18.5375H22.4272ZM16.2251 18.2083C15.2939 18.2083 14.3793 17.8917 13.6491 17.3167C13.197 16.9604 13.1189 16.3052 13.4751 15.8542C13.8314 15.4021 14.4876 15.324 14.9376 15.6802C15.3074 15.9708 15.7522 16.125 16.2241 16.125C16.7991 16.125 17.2658 16.5917 17.2658 17.1667C17.2658 17.7417 16.8001 18.2083 16.2241 18.2083H16.2251ZM13.3814 13.7854C13.2366 13.7854 13.0897 13.7552 12.9491 13.6906C12.4262 13.4521 12.1949 12.8333 12.4345 12.3104C12.6553 11.8271 12.9637 11.3948 13.3501 11.026C13.7647 10.6302 14.4262 10.6448 14.823 11.0615C15.2199 11.4771 15.2043 12.1365 14.7876 12.5344C14.5939 12.7188 14.4408 12.9354 14.3303 13.1771C14.1553 13.5604 13.7772 13.7865 13.3824 13.7865L13.3814 13.7854ZM24.0751 2.025C23.0908 1.04167 21.7824 0.5 20.3918 0.5C19.0012 0.5 17.6928 1.04167 16.7085 2.025C14.6783 4.05625 14.6783 7.36042 16.7168 9.39896L18.5928 11.2333C19.0887 11.7187 19.7408 11.9615 20.3918 11.9615C21.0428 11.9615 21.6949 11.7187 22.1908 11.2333L24.0751 9.39062C26.1053 7.35937 26.1053 4.05521 24.0751 2.025ZM20.3918 7.27083C19.5293 7.27083 18.8293 6.57083 18.8293 5.70833C18.8293 4.84583 19.5293 4.14583 20.3918 4.14583C21.2543 4.14583 21.9543 4.84583 21.9543 5.70833C21.9543 6.57083 21.2543 7.27083 20.3918 7.27083ZM9.49076 15.5667C8.50742 14.5833 7.19909 14.0417 5.80847 14.0417C4.41784 14.0417 3.10951 14.5833 2.12513 15.5667C0.0949235 17.5979 0.0949235 20.9021 2.13347 22.9406L4.00951 24.775C4.50534 25.2604 5.15742 25.5031 5.80847 25.5031C6.45951 25.5031 7.11159 25.2604 7.60742 24.775L9.49076 22.9323C11.522 20.901 11.522 17.5969 9.49076 15.5667ZM5.80847 20.8125C4.94597 20.8125 4.24597 20.1125 4.24597 19.25C4.24597 18.3875 4.94597 17.6875 5.80847 17.6875C6.67097 17.6875 7.37097 18.3875 7.37097 19.25C7.37097 20.1125 6.67097 20.8125 5.80847 20.8125Z" fill="#007AFF"/>
</g>
<defs>
<clipPath id="clip0_524_2868">
<rect width="25" height="25" fill="white" transform="translate(0.599609 0.5)"/>
</clipPath>
</defs>
</svg>
