<svg width="105" height="76" viewBox="0 0 105 76" fill="none" xmlns="http://www.w3.org/2000/svg">
<path d="M75.6368 64.3941C91.809 61.5588 102.6 46.0306 99.7385 29.711C96.8773 13.3914 81.4477 2.46018 65.2755 5.29552C49.1033 8.13086 38.3126 23.659 41.1738 39.9786C44.035 56.2983 59.4646 67.2295 75.6368 64.3941Z" fill="#1D83F7"/>
<path d="M65.3761 5.8692C81.4535 3.05048 96.79 13.8371 99.782 29.999C99.7649 29.9014 99.7554 29.8076 99.7385 29.711C96.8754 13.3917 81.4476 2.46019 65.2755 5.29552C49.1034 8.13085 38.3126 23.6591 41.1738 39.9786C41.1909 40.0762 41.2148 40.1726 41.2318 40.2641C38.5467 24.0505 49.2997 8.68775 65.3761 5.8692Z" fill="#1038FE"/>
<path d="M88.9138 47.9209C96.0429 37.662 93.5584 23.4909 83.3646 16.2691C73.1707 9.04718 59.1277 11.5092 51.9987 21.7682C44.8696 32.0272 47.3541 46.1982 57.5479 53.4201C67.7418 60.6419 81.7848 58.1799 88.9138 47.9209Z" fill="#46ABFE"/>
<path d="M72.8764 48.6502C80.432 47.3255 85.4733 40.0708 84.1366 32.4463C82.7999 24.8218 75.5912 19.7148 68.0356 21.0395C60.48 22.3641 55.4386 29.6189 56.7754 37.2433C58.1121 44.8678 65.3208 49.9748 72.8764 48.6502Z" fill="#1D83F7"/>
<path d="M63.5895 36.0486C63.8297 37.4187 64.4671 38.6874 65.4211 39.6943C66.3751 40.7012 67.6028 41.4011 68.949 41.7055C70.2953 42.0099 71.6995 41.9051 72.9843 41.4043C74.269 40.9036 75.3765 40.0294 76.1666 38.8923C76.9568 37.7553 77.3942 36.4063 77.4235 35.0162C77.4527 33.626 77.0726 32.2571 76.3311 31.0824C75.5897 29.9077 74.5202 28.9801 73.2579 28.4169C71.9956 27.8536 70.5971 27.6801 69.2395 27.9181C67.4189 28.2373 65.8009 29.2732 64.7413 30.798C63.6817 32.3228 63.2674 34.2115 63.5895 36.0486Z" fill="#A3D7FC"/>
<path d="M70.9742 37.802C72.5927 37.5183 73.6725 35.9643 73.3862 34.3311C73.0999 32.6979 71.5557 31.6039 69.9373 31.8877C68.3188 32.1714 67.239 33.7254 67.5253 35.3586C67.8116 36.9918 69.3558 38.0858 70.9742 37.802Z" fill="#7AA9FF"/>
<path d="M27.9228 42.6699C27.7147 42.7061 27.5014 42.7006 27.2951 42.6536C27.0889 42.6066 26.8937 42.519 26.7208 42.3959L19.0922 36.9956C18.7447 36.746 18.5088 36.3683 18.4359 35.9448C18.363 35.5213 18.4591 35.0864 18.7031 34.7351C18.9472 34.3837 19.3194 34.1444 19.7386 34.0694C20.1577 33.9943 20.5898 34.0896 20.9406 34.3345L28.5654 39.7414C28.8249 39.9274 29.0244 40.1864 29.1389 40.4859C29.2534 40.7854 29.2777 41.112 29.2089 41.4248C29.14 41.7376 28.9811 42.0227 28.7519 42.2443C28.5228 42.4658 28.2337 42.614 27.9209 42.6702L27.9228 42.6699Z" fill="#A8D1F7"/>
<path d="M20.6157 43.951C20.4071 43.9877 20.1933 43.9825 19.9865 43.9355C19.7797 43.8886 19.584 43.8009 19.4107 43.6775L11.7811 38.2774C11.4305 38.029 11.1916 37.6505 11.117 37.2253C11.0425 36.8001 11.1384 36.3629 11.3836 36.01C11.6289 35.6571 12.0034 35.4173 12.4247 35.3435C12.8461 35.2696 13.2799 35.3676 13.6305 35.6161L21.2602 41.0222C21.5197 41.2082 21.7192 41.4672 21.8337 41.7667C21.9481 42.0662 21.9725 42.3928 21.9036 42.7056C21.8348 43.0184 21.6758 43.3035 21.4467 43.525C21.2176 43.7466 20.9285 43.8948 20.6157 43.951Z" fill="#A8D1F7"/>
<path d="M13.314 45.2311C13.1053 45.2678 12.8913 45.2625 12.6844 45.2156C12.4774 45.1687 12.2816 45.0811 12.1081 44.9578L4.48427 39.5567C4.13359 39.3082 3.8947 38.9298 3.82015 38.5046C3.7456 38.0793 3.8415 37.6422 4.08674 37.2893C4.33199 36.9364 4.70649 36.6966 5.12787 36.6227C5.54924 36.5488 5.98298 36.6469 6.33365 36.8953L13.9576 42.2974C14.2171 42.4835 14.4166 42.7425 14.5311 43.0419C14.6456 43.3414 14.6699 43.668 14.6011 43.9809C14.5322 44.2937 14.3733 44.5787 14.1442 44.8003C13.915 45.0218 13.6259 45.17 13.3131 45.2262L13.314 45.2311Z" fill="#A8D1F7"/>
<path d="M27.8577 42.2981C27.6496 42.3346 27.4509 42.4122 27.2729 42.5264C27.0949 42.6406 26.9411 42.7892 26.8203 42.9637L21.4848 50.6429C21.2507 50.996 21.1633 51.4279 21.2413 51.8462C21.3193 52.2644 21.5565 52.6357 21.9021 52.8806C22.2477 53.1254 22.6743 53.2243 23.0903 53.1561C23.5064 53.0879 23.8789 52.8579 24.1281 52.5155L29.459 44.8382C29.6402 44.575 29.7401 44.2635 29.7461 43.9428C29.7521 43.622 29.6639 43.3063 29.4927 43.0354C29.3214 42.7645 29.0747 42.5505 28.7836 42.4202C28.4925 42.2899 28.17 42.2493 27.8566 42.3033L27.8577 42.2981Z" fill="#A8D1F7"/>
<path d="M20.5504 43.5792C20.3418 43.6154 20.1425 43.6929 19.964 43.8072C19.7854 43.9216 19.6312 44.0704 19.5102 44.2453L14.1766 51.9242C14.0535 52.0988 13.966 52.2964 13.919 52.5056C13.8721 52.7147 13.8667 52.9313 13.9031 53.1428C13.9395 53.3544 14.017 53.5567 14.1312 53.7381C14.2453 53.9195 14.3939 54.0765 14.5682 54.2C14.7426 54.3235 14.9394 54.411 15.1472 54.4576C15.355 54.5042 15.5698 54.5089 15.7792 54.4714C15.9886 54.4339 16.1884 54.355 16.3672 54.2392C16.5459 54.1234 16.7001 53.973 16.8208 53.7967L22.1565 46.1184C22.3378 45.8553 22.4377 45.5438 22.4437 45.223C22.4497 44.9023 22.3615 44.5866 22.1902 44.3157C22.019 44.0448 21.7723 43.8307 21.4812 43.7005C21.1901 43.5702 20.8675 43.5296 20.5541 43.5836L20.5504 43.5792Z" fill="#A8D1F7"/>
<path d="M13.2491 44.8594C13.0404 44.8956 12.841 44.9731 12.6623 45.0875C12.4836 45.2018 12.3292 45.3507 12.2079 45.5256L6.87725 53.204C6.63557 53.557 6.54242 53.9925 6.61813 54.4155C6.69384 54.8385 6.93227 55.2146 7.28138 55.4618C7.6305 55.7091 8.06196 55.8073 8.48163 55.7351C8.90131 55.6629 9.27512 55.4261 9.52151 55.0764L14.8524 47.3991C15.0336 47.136 15.1335 46.8244 15.1395 46.5037C15.1455 46.1829 15.0573 45.8672 14.8861 45.5963C14.7148 45.3254 14.4681 45.1114 14.177 44.9811C13.8859 44.8508 13.5634 44.8102 13.25 44.8642L13.2491 44.8594Z" fill="#A8D1F7"/>
<path d="M68.7734 37.9807L14.8805 47.4293C14.1522 47.557 13.4026 47.3875 12.7966 46.9581C12.1906 46.5288 11.7777 45.8747 11.6489 45.1399C11.52 44.405 11.6858 43.6495 12.1096 43.0396C12.5334 42.4297 13.1806 42.0153 13.9089 41.8877L67.8018 32.439C68.5301 32.3114 69.2796 32.4808 69.8857 32.9102C70.4917 33.3395 70.9046 33.9936 71.0334 34.7285C71.1623 35.4633 70.9965 36.2188 70.5727 36.8287C70.1489 37.4386 69.5016 37.853 68.7734 37.9807Z" fill="#ACD5FB"/>
<path d="M13.9987 42.3999L67.8916 32.9513C68.5743 32.833 69.2768 32.9764 69.8615 33.3534C70.4463 33.7303 70.8709 34.3135 71.0521 34.9887C71.045 34.9024 71.0488 34.8163 71.0334 34.7285C70.9043 33.9937 70.4914 33.3399 69.8855 32.9105C69.2795 32.4812 68.53 32.3117 67.8018 32.4391L13.9089 41.8877C13.1809 42.0156 12.5339 42.43 12.1103 43.0399C11.6867 43.6497 11.521 44.405 11.6498 45.1397C11.6652 45.2275 11.6972 45.3074 11.7198 45.3909C11.6608 44.6944 11.8618 44.0016 12.2833 43.4483C12.7049 42.895 13.3167 42.5211 13.9987 42.3999Z" fill="#E8F8FF"/>
<path d="M63.3815 45.7352C62.8388 45.8287 62.2804 45.7579 61.7766 45.5318C61.2728 45.3056 60.8463 44.9343 60.5507 44.4647C60.2552 43.995 60.1039 43.448 60.116 42.8926C60.1281 42.3373 60.3029 41.7985 60.6185 41.3443L64.4098 35.8898L58.9889 32.0493C58.3941 31.6155 57.9918 30.9634 57.8692 30.2341C57.7465 29.5049 57.9134 28.7571 58.3336 28.1527C58.7539 27.5483 59.3937 27.1358 60.1147 27.0045C60.8356 26.8732 61.5797 27.0337 62.1859 27.4512L69.8905 32.9096C70.4964 33.3389 70.9092 33.9929 71.038 34.7277C71.1668 35.4625 71.0012 36.2179 70.5774 36.8277L65.1892 44.5816C64.9789 44.8851 64.7108 45.1434 64.4005 45.3414C64.0902 45.5395 63.7438 45.6733 63.3815 45.7352Z" fill="#A8D1F7"/>
</svg>
