<svg width="76" height="83" viewBox="0 0 76 83" fill="none" xmlns="http://www.w3.org/2000/svg">
<path d="M67.0175 32.2318L37.4653 20.6846C35.6337 19.9689 33.5705 20.869 32.8571 22.6949L16.3355 64.9778C15.622 66.8038 16.5284 68.8642 18.3599 69.5799L47.9122 81.1271C49.7437 81.8428 51.8069 80.9427 52.5204 79.1167L69.042 36.8338C69.7554 35.0079 68.8491 32.9474 67.0175 32.2318Z" fill="#1D74F7"/>
<path d="M37.5541 20.7193C36.651 20.3664 35.6451 20.3856 34.7578 20.7727C33.8704 21.1599 33.1743 21.8832 32.8225 22.7835L16.3701 64.8893C16.236 65.231 16.1546 65.5912 16.1286 65.9574L41.2917 75.7896C42.4697 76.2499 43.7818 76.2248 44.9393 75.7199C46.0968 75.2149 47.0048 74.2714 47.4637 73.097L63.9064 31.0162L37.5541 20.7193Z" fill="#207CF5"/>
<path d="M66.9287 32.1971L37.5541 20.7193C36.651 20.3664 35.6451 20.3856 34.7578 20.7727C33.8704 21.1599 33.1743 21.8832 32.8225 22.7835L32.6911 23.1197C32.8652 22.6738 33.1258 22.2667 33.4578 21.9216C33.7899 21.5765 34.1869 21.3002 34.6263 21.1084C35.0657 20.9167 35.5389 20.8133 36.0187 20.8041C36.4986 20.7949 36.9757 20.8801 37.423 21.0548L66.7976 32.5326C67.2447 32.7073 67.6532 32.9682 67.9996 33.3002C68.346 33.6322 68.6237 34.0289 68.8166 34.4677C69.0096 34.9065 69.1141 35.3787 69.1242 35.8574C69.1344 36.3361 69.0499 36.8119 68.8756 37.2577L69.007 36.9215C69.3587 36.0213 69.3374 35.0179 68.9476 34.1319C68.5578 33.2459 67.8316 32.5499 66.9287 32.1971Z" fill="#326CFE"/>
<path d="M28.8261 1.73558C27.648 1.27528 26.3359 1.30037 25.1785 1.80534C24.021 2.31032 23.1129 3.2538 22.654 4.42825L3.25523 54.0745C2.79632 55.2489 2.82419 56.5581 3.33269 57.7141C3.8412 58.87 4.78868 59.778 5.96672 60.2383L40.3749 73.683C41.5529 74.1433 42.865 74.1182 44.0225 73.6132C45.18 73.1082 46.0881 72.1648 46.547 70.9903L62.0709 31.2608L53.2915 11.2952L28.8261 1.73558Z" fill="#4690FE"/>
<path d="M53.2922 11.2955L28.8261 1.73558C27.648 1.27528 26.3359 1.30037 25.1785 1.80534C24.021 2.31032 23.1129 3.2538 22.654 4.42825L22.5524 4.68833C23.0113 3.51388 23.9193 2.5704 25.0768 2.06542C26.2343 1.56045 27.5464 1.53536 28.7244 1.99566L53.1905 11.5555L61.9717 31.5147L62.0733 31.2546L53.2922 11.2955Z" fill="#83A5FA"/>
<path d="M56.8911 31.5303L22.4028 18.0543L21.6361 20.0165L56.1244 33.4924L56.8911 31.5303Z" fill="#A3CAFC"/>
<path d="M55 36.3701L20.5117 22.8942L19.745 24.8563L54.2333 38.3322L55 36.3701Z" fill="#A3CAFC"/>
<path d="M52.9941 41.5038L18.5059 28.0278L17.7392 29.99L52.2274 43.4659L52.9941 41.5038Z" fill="#A3CAFC"/>
<path d="M50.9883 46.6374L16.5 33.1615L15.7333 35.1237L50.2216 48.5996L50.9883 46.6374Z" fill="#A3CAFC"/>
<path d="M48.9824 51.771L14.4941 38.2951L13.7275 40.2573L48.2157 53.7332L48.9824 51.771Z" fill="#A3CAFC"/>
<path d="M46.9761 56.9047L12.4878 43.4288L11.7211 45.3909L46.2094 58.8669L46.9761 56.9047Z" fill="#A3CAFC"/>
<path d="M44.9702 62.0384L10.4819 48.5624L9.71524 50.5246L44.2035 64.0005L44.9702 62.0384Z" fill="#A3CAFC"/>
<path d="M42.9643 67.172L8.47607 53.6961L7.70938 55.6583L42.1977 69.1342L42.9643 67.172Z" fill="#A3CAFC"/>
<path d="M44.569 16.6464L25.8159 9.31879L23.9406 14.1181L42.6937 21.4457L44.569 16.6464Z" fill="#1D74F7"/>
<path d="M62.0734 31.2546L51.0137 28.1668C48.0287 27.3333 46.6961 24.323 48.0937 21.5621L53.2922 11.2955L62.0734 31.2546Z" fill="#4665FF"/>
<path d="M62.0735 31.2546L52.1265 27.3679C50.9493 26.907 50.0027 25.9989 49.4949 24.8433C48.987 23.6877 48.9594 22.3792 49.4181 21.2053L53.2905 11.2947L62.0735 31.2546Z" fill="#7AA7FB"/>
<path d="M52.5261 27.1949C51.348 26.7346 50.4005 25.8266 49.892 24.6707C49.3835 23.5147 49.3557 22.2055 49.8146 21.0311L53.4638 11.6919L53.292 11.2955L49.4186 21.2085C48.9599 22.3824 48.9875 23.691 49.4954 24.8466C50.0032 26.0021 50.9498 26.9102 52.1269 27.3711L62.0722 31.2571L61.8979 30.8597L52.5261 27.1949Z" fill="#C5D2FC"/>
</svg>
