<svg width="211" height="210" viewBox="0 0 211 210" fill="none" xmlns="http://www.w3.org/2000/svg">
<g clip-path="url(#clip0_453_8578)">
<path d="M189.458 167.367H175.547V167.472H189.458V167.367Z" fill="#EBEBEB"/>
<path d="M139.612 168.507H135.961V168.612H139.612V168.507Z" fill="#EBEBEB"/>
<path d="M175.127 163.467H167.066V163.572H175.127V163.467Z" fill="#EBEBEB"/>
<path d="M40.6723 164.173H22.5312V164.278H40.6723V164.173Z" fill="#EBEBEB"/>
<path d="M47.0739 164.173H44.4141V164.278H47.0739V164.173Z" fill="#EBEBEB"/>
<path d="M95.0627 165.947H55.7188V166.052H95.0627V165.947Z" fill="#EBEBEB"/>
<path d="M100.046 141.876H18.9442C17.6225 141.876 16.5469 140.8 16.5469 139.479V25.4772C16.5469 24.1555 17.6225 23.0798 18.9442 23.0798H100.046C101.367 23.0798 102.443 24.1555 102.443 25.4772V139.479C102.443 140.8 101.367 141.876 100.046 141.876ZM18.9442 23.1853C17.68 23.1853 16.6519 24.2134 16.6519 25.4776V139.479C16.6519 140.743 17.68 141.771 18.9442 141.771H100.046C101.31 141.771 102.338 140.743 102.338 139.479V25.4772C102.338 24.2134 101.31 23.1848 100.046 23.1848L18.9442 23.1853Z" fill="#EBEBEB"/>
<path d="M190.889 141.876H109.788C108.466 141.876 107.391 140.8 107.391 139.479V25.4772C107.391 24.1555 108.466 23.0798 109.788 23.0798H190.889C192.211 23.0798 193.286 24.1555 193.286 25.4772V139.479C193.287 140.8 192.211 141.876 190.889 141.876ZM109.788 23.1853C108.524 23.1853 107.496 24.2134 107.496 25.4776V139.479C107.496 140.743 108.524 141.771 109.788 141.771H190.889C192.153 141.771 193.181 140.743 193.181 139.479V25.4772C193.181 24.2134 192.153 23.1848 190.889 23.1848L109.788 23.1853Z" fill="#EBEBEB"/>
<path d="M210.5 160.607H0.5V160.712H210.5V160.607Z" fill="#EBEBEB"/>
<path d="M35.4073 137.863C35.4073 137.863 33.4531 115.902 23.25 94.8105C23.25 94.8105 38.3125 108.87 38.8404 137.863H35.4073Z" fill="#F5F5F5"/>
<path d="M47.726 139.58C47.726 139.58 49.6803 117.618 59.8834 96.5271C59.8834 96.5271 44.8209 110.587 44.293 139.58H47.726Z" fill="#F5F5F5"/>
<path d="M37.7835 141.264C37.7835 141.264 29.5877 103.03 31.0446 82.7842C31.0446 82.7842 42.0092 105.322 41.4808 139.391L37.7835 141.264Z" fill="#E6E6E6"/>
<path d="M43.8398 138.85C43.8398 138.85 44.621 113.89 48.6283 101.562C48.6283 101.562 51.9702 117.216 46.4191 138.256L43.8398 138.85Z" fill="#F0F0F0"/>
<path d="M41.4819 139.391C41.4819 139.391 38.841 106.107 46.2355 91.1892C46.2355 91.1892 47.0276 121.432 45.1792 139.391H41.4819Z" fill="#F5F5F5"/>
<path d="M49.9239 160.677H33.2075L30.8164 136.01H52.3145L49.9239 160.677Z" fill="#F0F0F0"/>
<path d="M100.881 160.677H99.2012L98.7812 115.286H101.301L100.881 160.677Z" fill="#EBEBEB"/>
<path d="M167.709 160.677H166.029L165.609 115.286H168.129L167.709 160.677Z" fill="#EBEBEB"/>
<path d="M173.23 116.356H93.6833C92.501 116.356 91.543 115.398 91.543 114.216H175.37C175.37 115.398 174.411 116.356 173.23 116.356Z" fill="#F0F0F0"/>
<path d="M140.577 153.757V132.648H136.216V153.757L123.262 154.835V156.935L138.396 156.095L153.531 156.935V154.835L140.577 153.757Z" fill="#EBEBEB"/>
<path d="M124.994 158.946C124.994 159.902 124.218 160.677 123.262 160.677C122.306 160.677 121.531 159.902 121.531 158.946C121.531 157.989 122.307 157.215 123.262 157.215C124.218 157.214 124.994 157.989 124.994 158.946Z" fill="#E0E0E0"/>
<path d="M155.263 158.946C155.263 159.902 154.488 160.677 153.532 160.677C152.576 160.677 151.801 159.902 151.801 158.946C151.801 157.989 152.576 157.215 153.532 157.215C154.488 157.214 155.263 157.989 155.263 158.946Z" fill="#E0E0E0"/>
<path d="M140.127 158.946C140.127 159.902 139.351 160.677 138.395 160.677C137.439 160.677 136.664 159.902 136.664 158.946C136.664 157.989 137.439 157.215 138.395 157.215C139.351 157.215 140.127 157.989 140.127 158.946Z" fill="#E0E0E0"/>
<path d="M126.235 130.915L125.46 105.75C125.424 104.562 124.45 103.618 123.262 103.618V131.687C123.262 132.902 124.247 133.887 125.462 133.887H153.531C153.531 132.699 152.587 131.726 151.399 131.689L126.235 130.915Z" fill="#E6E6E6"/>
<path d="M145.04 107.944C145.029 107.299 144.503 106.78 143.858 106.78H136.805C136.159 106.78 135.633 107.299 135.623 107.944C135.622 107.974 135.622 108.002 135.621 108.031C135.363 107.948 135.096 107.901 134.836 107.901C133.679 107.901 132.902 108.804 132.902 110.149C132.902 111.435 134.254 112.396 135.463 112.396C135.59 112.396 135.71 112.381 135.828 112.36C136.112 113.233 136.632 113.999 137.316 114.581H143.347C144.405 113.682 145.079 112.346 145.079 110.848C145.078 110.382 145.062 109.289 145.04 107.944ZM135.462 111.643C134.643 111.643 133.655 110.976 133.655 110.148C133.655 109.798 133.74 108.654 134.835 108.654C135.088 108.654 135.356 108.718 135.608 108.83C135.593 109.759 135.584 110.49 135.584 110.848C135.584 111.115 135.613 111.375 135.654 111.63C135.594 111.639 135.53 111.643 135.462 111.643Z" fill="#F5F5F5"/>
<path d="M103.476 177.96C148.451 177.96 184.91 175.831 184.91 173.204C184.91 170.578 148.451 168.448 103.476 168.448C58.5019 168.448 22.043 170.578 22.043 173.204C22.043 175.831 58.5019 177.96 103.476 177.96Z" fill="#F5F5F5"/>
<path d="M109.632 146.956C107.065 146.956 104.485 146.784 101.962 146.443L102.004 146.13C108.555 147.016 115.375 146.74 121.823 145.322L121.89 145.63C117.89 146.51 113.766 146.956 109.632 146.956ZM97.0312 145.554C95.1354 145.124 93.2424 144.591 91.4041 143.968L91.5049 143.669C93.3327 144.289 95.2152 144.819 97.1005 145.246L97.0312 145.554ZM126.731 144.336L126.636 144.036C129.795 143.04 132.887 141.753 135.827 140.211L135.974 140.49C133.018 142.04 129.908 143.335 126.731 144.336ZM86.7328 142.149C83.6832 140.804 80.7331 139.177 77.9641 137.312L78.1401 137.051C80.8936 138.905 83.8273 140.524 86.8597 141.861L86.7328 142.149ZM140.303 137.968L140.133 137.703C141.756 136.66 143.345 135.519 144.855 134.313L145.051 134.559C143.533 135.772 141.936 136.919 140.303 137.968ZM73.9338 134.335C68.7039 130.102 64.3053 125.033 60.86 119.27L61.1305 119.109C64.5568 124.84 68.9311 129.88 74.132 134.09L73.9338 134.335ZM148.825 131.262L148.608 131.034C153.453 126.411 157.402 121.031 160.345 115.042L160.628 115.18C157.668 121.203 153.697 126.613 148.825 131.262ZM58.4815 114.861C57.6352 113.112 56.8717 111.3 56.2123 109.475L56.5084 109.367C57.1644 111.182 57.9238 112.985 58.7646 114.724L58.4815 114.861ZM162.636 110.589L162.342 110.475C163.534 107.382 164.457 104.162 165.084 100.904L165.393 100.964C164.763 104.239 163.835 107.477 162.636 110.589ZM54.7204 104.691C53.8725 101.475 53.305 98.1553 53.035 94.8235L53.3487 94.7978C53.6175 98.1108 54.1816 101.412 55.0254 104.611L54.7204 104.691ZM166.122 96.007L165.808 95.9751C166.004 94.0595 166.103 92.1069 166.103 90.1707V90.0531H166.418V90.1707C166.418 92.1174 166.318 94.0809 166.122 96.007ZM53.1627 89.8187L52.8477 89.8166C52.8888 83.0643 54.1039 76.4636 56.4592 70.1963L56.7541 70.3072C54.4122 76.5392 53.2038 83.1038 53.1627 89.8187ZM165.876 85.0752C165.28 78.4077 163.523 71.9704 160.655 65.9422L160.94 65.8069C163.824 71.8692 165.59 78.3427 166.19 85.0475L165.876 85.0752ZM58.7134 65.7238L58.4295 65.5873C59.2707 63.838 60.214 62.1122 61.2321 60.457L61.5005 60.622C60.4879 62.2676 59.55 63.9841 58.7134 65.7238ZM158.318 61.5427C156.637 58.6887 154.689 55.9638 152.529 53.4434L152.768 53.2384C154.94 55.7727 156.899 58.5128 158.59 61.3826L158.318 61.5427ZM64.2969 56.4955L64.044 56.3078C66.0336 53.6336 68.2734 51.1178 70.7023 48.8297L70.9186 49.059C68.5032 51.3346 66.2751 53.8365 64.2969 56.4955ZM149.123 49.8053C147.742 48.4542 146.276 47.1597 144.765 45.9577L144.962 45.7112C146.48 46.9199 147.955 48.2215 149.343 49.5802L149.123 49.8053ZM74.6923 45.8044L74.497 45.557C79.7877 41.3848 85.7051 38.2192 92.0845 36.1486L92.1819 36.4481C85.8378 38.5073 79.9536 41.6552 74.6923 45.8044ZM140.733 43.0286C135.146 39.3356 129.017 36.6933 122.517 35.1767L122.589 34.8701C129.126 36.3956 135.289 39.0525 140.907 42.7661L140.733 43.0286ZM96.9846 35.1217L96.9145 34.8147C98.8041 34.3825 100.741 34.0436 102.672 33.8075L102.71 34.12C100.79 34.3544 98.8641 34.6916 96.9846 35.1217ZM117.619 34.2607C114.993 33.889 112.306 33.7 109.632 33.7C109.627 33.7 109.621 33.7 109.615 33.7C108.971 33.7 108.319 33.7109 107.677 33.7332L107.666 33.4182C108.318 33.3959 108.967 33.3817 109.632 33.385C112.321 33.385 115.023 33.5749 117.664 33.9487L117.619 34.2607Z" fill="#407BFF"/>
<g opacity="0.4">
<path d="M109.632 146.956C107.065 146.956 104.485 146.784 101.962 146.443L102.004 146.13C108.555 147.016 115.375 146.74 121.823 145.322L121.89 145.63C117.89 146.51 113.766 146.956 109.632 146.956ZM97.0312 145.554C95.1354 145.124 93.2424 144.591 91.4041 143.968L91.5049 143.669C93.3327 144.289 95.2152 144.819 97.1005 145.246L97.0312 145.554ZM126.731 144.336L126.636 144.036C129.795 143.04 132.887 141.753 135.827 140.211L135.974 140.49C133.018 142.04 129.908 143.335 126.731 144.336ZM86.7328 142.149C83.6832 140.804 80.7331 139.177 77.9641 137.312L78.1401 137.051C80.8936 138.905 83.8273 140.524 86.8597 141.861L86.7328 142.149ZM140.303 137.968L140.133 137.703C141.756 136.66 143.345 135.519 144.855 134.313L145.051 134.559C143.533 135.772 141.936 136.919 140.303 137.968ZM73.9338 134.335C68.7039 130.102 64.3053 125.033 60.86 119.27L61.1305 119.109C64.5568 124.84 68.9311 129.88 74.132 134.09L73.9338 134.335ZM148.825 131.262L148.608 131.034C153.453 126.411 157.402 121.031 160.345 115.042L160.628 115.18C157.668 121.203 153.697 126.613 148.825 131.262ZM58.4815 114.861C57.6352 113.112 56.8717 111.3 56.2123 109.475L56.5084 109.367C57.1644 111.182 57.9238 112.985 58.7646 114.724L58.4815 114.861ZM162.636 110.589L162.342 110.475C163.534 107.382 164.457 104.162 165.084 100.904L165.393 100.964C164.763 104.239 163.835 107.477 162.636 110.589ZM54.7204 104.691C53.8725 101.475 53.305 98.1553 53.035 94.8235L53.3487 94.7978C53.6175 98.1108 54.1816 101.412 55.0254 104.611L54.7204 104.691ZM166.122 96.007L165.808 95.9751C166.004 94.0595 166.103 92.1069 166.103 90.1707V90.0531H166.418V90.1707C166.418 92.1174 166.318 94.0809 166.122 96.007ZM53.1627 89.8187L52.8477 89.8166C52.8888 83.0643 54.1039 76.4636 56.4592 70.1963L56.7541 70.3072C54.4122 76.5392 53.2038 83.1038 53.1627 89.8187ZM165.876 85.0752C165.28 78.4077 163.523 71.9704 160.655 65.9422L160.94 65.8069C163.824 71.8692 165.59 78.3427 166.19 85.0475L165.876 85.0752ZM58.7134 65.7238L58.4295 65.5873C59.2707 63.838 60.214 62.1122 61.2321 60.457L61.5005 60.622C60.4879 62.2676 59.55 63.9841 58.7134 65.7238ZM158.318 61.5427C156.637 58.6887 154.689 55.9638 152.529 53.4434L152.768 53.2384C154.94 55.7727 156.899 58.5128 158.59 61.3826L158.318 61.5427ZM64.2969 56.4955L64.044 56.3078C66.0336 53.6336 68.2734 51.1178 70.7023 48.8297L70.9186 49.059C68.5032 51.3346 66.2751 53.8365 64.2969 56.4955ZM149.123 49.8053C147.742 48.4542 146.276 47.1597 144.765 45.9577L144.962 45.7112C146.48 46.9199 147.955 48.2215 149.343 49.5802L149.123 49.8053ZM74.6923 45.8044L74.497 45.557C79.7877 41.3848 85.7051 38.2192 92.0845 36.1486L92.1819 36.4481C85.8378 38.5073 79.9536 41.6552 74.6923 45.8044ZM140.733 43.0286C135.146 39.3356 129.017 36.6933 122.517 35.1767L122.589 34.8701C129.126 36.3956 135.289 39.0525 140.907 42.7661L140.733 43.0286ZM96.9846 35.1217L96.9145 34.8147C98.8041 34.3825 100.741 34.0436 102.672 33.8075L102.71 34.12C100.79 34.3544 98.8641 34.6916 96.9846 35.1217ZM117.619 34.2607C114.993 33.889 112.306 33.7 109.632 33.7C109.627 33.7 109.621 33.7 109.615 33.7C108.971 33.7 108.319 33.7109 107.677 33.7332L107.666 33.4182C108.318 33.3959 108.967 33.3817 109.632 33.385C112.321 33.385 115.023 33.5749 117.664 33.9487L117.619 34.2607Z" fill="white"/>
</g>
<path d="M74.4363 49.3298L40.207 52.9265L43.3101 82.4576L77.5394 78.8609L74.4363 49.3298Z" fill="#407BFF"/>
<path opacity="0.6" d="M74.4363 49.3298L40.207 52.9265L43.3101 82.4576L77.5394 78.8609L74.4363 49.3298Z" fill="white"/>
<path d="M73.8543 43.8046L39.625 47.4014L40.2056 52.9266L74.4349 49.3298L73.8543 43.8046Z" fill="#407BFF"/>
<path d="M44.6573 45.0283C44.6044 44.5247 44.1529 44.1589 43.6493 44.2122C43.1457 44.2651 42.7803 44.7166 42.8332 45.2202C42.8672 45.5428 43.1827 48.5462 43.2167 48.8687C43.2696 49.3723 43.7211 49.7377 44.2247 49.6848C44.7287 49.6319 45.0941 49.1804 45.0412 48.6768C45.0134 48.4185 44.6842 45.2866 44.6573 45.0283Z" fill="#407BFF"/>
<path d="M51.2471 44.3355C51.1942 43.8319 50.7431 43.4661 50.2391 43.519C49.7355 43.5719 49.3701 44.0234 49.4231 44.527C49.4571 44.8496 49.7725 47.853 49.8065 48.1755C49.8594 48.6791 50.3109 49.0449 50.8145 48.9916C51.3185 48.9387 51.6839 48.4872 51.6306 47.9836C51.6037 47.7257 51.2744 44.5938 51.2471 44.3355Z" fill="#407BFF"/>
<path d="M57.8331 43.6429C57.7801 43.1394 57.3286 42.774 56.8251 42.8269C56.3215 42.8798 55.9561 43.3313 56.009 43.8349C56.043 44.1574 56.3584 47.1609 56.3925 47.4834C56.4454 47.987 56.8969 48.3528 57.4005 48.2995C57.9045 48.2466 58.2699 47.7951 58.2169 47.2915C58.1892 47.0336 57.8599 43.9012 57.8331 43.6429Z" fill="#407BFF"/>
<path d="M64.4229 42.9507C64.37 42.4471 63.9185 42.0813 63.4149 42.1342C62.9113 42.1872 62.5459 42.6387 62.5988 43.1422C62.6329 43.4648 62.9483 46.4682 62.9823 46.7908C63.0352 47.2944 63.4867 47.6598 63.9903 47.6068C64.4943 47.5539 64.8597 47.1024 64.8068 46.5988C64.7795 46.341 64.4502 43.2086 64.4229 42.9507Z" fill="#407BFF"/>
<path d="M71.0088 42.2582C70.9559 41.7547 70.5044 41.3888 70.0008 41.4422C69.4973 41.4951 69.1319 41.9466 69.1848 42.4502C69.2188 42.7727 69.5342 45.7762 69.5682 46.0987C69.6212 46.6023 70.0727 46.9681 70.5762 46.9152C71.0802 46.8623 71.4456 46.4108 71.3927 45.9072C71.365 45.6485 71.0357 42.5165 71.0088 42.2582Z" fill="#407BFF"/>
<g opacity="0.7">
<path d="M44.6573 45.0283C44.6044 44.5247 44.1529 44.1589 43.6493 44.2122C43.1457 44.2651 42.7803 44.7166 42.8332 45.2202C42.8672 45.5428 43.1827 48.5462 43.2167 48.8687C43.2696 49.3723 43.7211 49.7377 44.2247 49.6848C44.7287 49.6319 45.0941 49.1804 45.0412 48.6768C45.0134 48.4185 44.6842 45.2866 44.6573 45.0283Z" fill="white"/>
<path d="M51.2471 44.3355C51.1942 43.8319 50.7431 43.4661 50.2391 43.519C49.7355 43.5719 49.3701 44.0234 49.4231 44.527C49.4571 44.8496 49.7725 47.853 49.8065 48.1755C49.8594 48.6791 50.3109 49.0449 50.8145 48.9916C51.3185 48.9387 51.6839 48.4872 51.6306 47.9836C51.6037 47.7257 51.2744 44.5938 51.2471 44.3355Z" fill="white"/>
<path d="M57.8331 43.6429C57.7801 43.1394 57.3286 42.774 56.8251 42.8269C56.3215 42.8798 55.9561 43.3313 56.009 43.8349C56.043 44.1574 56.3584 47.1609 56.3925 47.4834C56.4454 47.987 56.8969 48.3528 57.4005 48.2995C57.9045 48.2466 58.2699 47.7951 58.2169 47.2915C58.1892 47.0336 57.8599 43.9012 57.8331 43.6429Z" fill="white"/>
<path d="M64.4229 42.9507C64.37 42.4471 63.9185 42.0813 63.4149 42.1342C62.9113 42.1872 62.5459 42.6387 62.5988 43.1422C62.6329 43.4648 62.9483 46.4682 62.9823 46.7908C63.0352 47.2944 63.4867 47.6598 63.9903 47.6068C64.4943 47.5539 64.8597 47.1024 64.8068 46.5988C64.7795 46.341 64.4502 43.2086 64.4229 42.9507Z" fill="white"/>
<path d="M71.0088 42.2582C70.9559 41.7547 70.5044 41.3888 70.0008 41.4422C69.4973 41.4951 69.1319 41.9466 69.1848 42.4502C69.2188 42.7727 69.5342 45.7762 69.5682 46.0987C69.6212 46.6023 70.0727 46.9681 70.5762 46.9152C71.0802 46.8623 71.4456 46.4108 71.3927 45.9072C71.365 45.6485 71.0357 42.5165 71.0088 42.2582Z" fill="white"/>
</g>
<path d="M78.4564 77.9283L44.2264 81.5261L40.207 52.9266L74.437 49.3289L78.4564 77.9283Z" fill="#407BFF"/>
<path opacity="0.8" d="M78.4564 77.9283L44.2264 81.5261L40.207 52.9266L74.437 49.3289L78.4564 77.9283Z" fill="white"/>
<path d="M67.5307 57.1847L50.5862 58.9654L49.8789 53.9322L66.8234 52.1514L67.5307 57.1847Z" fill="#407BFF"/>
<path opacity="0.6" d="M67.5307 57.1847L50.5862 58.9654L49.8789 53.9322L66.8234 52.1514L67.5307 57.1847Z" fill="white"/>
<path d="M48.6476 65.7665L44.1216 66.2424L43.4883 61.7332L48.0138 61.2578L48.6476 65.7665Z" fill="white"/>
<path d="M55.0659 65.0919L50.54 65.5673L49.9062 61.0582L54.4322 60.5828L55.0659 65.0919Z" fill="white"/>
<path d="M49.503 71.8485L44.9775 72.3239L44.3438 67.8152L48.8693 67.3394L49.503 71.8485Z" fill="#407BFF"/>
<path d="M50.3546 77.9305L45.8291 78.4059L45.1953 73.8968L49.7208 73.4214L50.3546 77.9305Z" fill="#407BFF"/>
<path d="M55.921 71.1735L51.3951 71.6494L50.7617 67.1402L55.2872 66.6648L55.921 71.1735Z" fill="#407BFF"/>
<path opacity="0.2" d="M55.921 71.1735L51.3951 71.6494L50.7617 67.1402L55.2872 66.6648L55.921 71.1735Z" fill="white"/>
<path d="M62.3429 70.4991L57.8174 70.9745L57.1836 66.4654L61.7095 65.99L62.3429 70.4991Z" fill="#407BFF"/>
<path opacity="0.2" d="M62.3429 70.4991L57.8174 70.9745L57.1836 66.4654L61.7095 65.99L62.3429 70.4991Z" fill="white"/>
<path d="M68.7608 69.8241L64.2353 70.2999L63.6016 65.7908L68.1275 65.3149L68.7608 69.8241Z" fill="#407BFF"/>
<path opacity="0.2" d="M68.7608 69.8241L64.2353 70.2999L63.6016 65.7908L68.1275 65.3149L68.7608 69.8241Z" fill="white"/>
<path d="M75.1827 69.1491L70.6572 69.6249L70.0234 65.1158L74.5489 64.6404L75.1827 69.1491Z" fill="#407BFF"/>
<path opacity="0.2" d="M75.1827 69.1491L70.6572 69.6249L70.0234 65.1158L74.5489 64.6404L75.1827 69.1491Z" fill="white"/>
<path d="M56.7765 77.2555L52.251 77.7309L51.6172 73.2222L56.1427 72.7463L56.7765 77.2555Z" fill="#407BFF"/>
<path opacity="0.2" d="M56.7765 77.2555L52.251 77.7309L51.6172 73.2222L56.1427 72.7463L56.7765 77.2555Z" fill="white"/>
<path d="M63.1983 76.5807L58.6724 77.0566L58.0391 72.5475L62.5646 72.072L63.1983 76.5807Z" fill="#407BFF"/>
<path opacity="0.2" d="M63.1983 76.5807L58.6724 77.0566L58.0391 72.5475L62.5646 72.072L63.1983 76.5807Z" fill="white"/>
<path d="M69.6163 75.9061L65.0908 76.3815L64.457 71.8728L68.983 71.397L69.6163 75.9061Z" fill="#407BFF"/>
<path opacity="0.2" d="M69.6163 75.9061L65.0908 76.3815L64.457 71.8728L68.983 71.397L69.6163 75.9061Z" fill="white"/>
<path d="M61.4874 64.4171L56.9619 64.8929L56.3281 60.3838L60.854 59.908L61.4874 64.4171Z" fill="#407BFF"/>
<path opacity="0.2" d="M61.4874 64.4171L56.9619 64.8929L56.3281 60.3838L60.854 59.908L61.4874 64.4171Z" fill="white"/>
<path d="M67.9054 63.7421L63.3799 64.218L62.7461 59.7088L67.2716 59.2334L67.9054 63.7421Z" fill="#407BFF"/>
<path opacity="0.2" d="M67.9054 63.7421L63.3799 64.218L62.7461 59.7088L67.2716 59.2334L67.9054 63.7421Z" fill="white"/>
<path d="M74.3272 63.0675L69.8017 63.5429L69.168 59.0342L73.6935 58.5583L74.3272 63.0675Z" fill="#407BFF"/>
<path opacity="0.2" d="M74.3272 63.0675L69.8017 63.5429L69.168 59.0342L73.6935 58.5583L74.3272 63.0675Z" fill="white"/>
<path d="M76.0382 75.2311L71.5127 75.707L70.8789 71.1979L75.4048 70.7224L76.0382 75.2311Z" fill="white"/>
<path d="M87.909 33.1712C88.0157 33.6143 87.7427 34.0603 87.2996 34.1666C86.8565 34.2732 86.4108 34.0002 86.3042 33.5571C86.279 33.4534 86.1782 33.0334 86.0568 32.5294L81.8647 33.5374C81.9891 34.0544 82.0916 34.4816 82.1121 34.5651C82.2188 35.0082 81.9458 35.4543 81.5027 35.5605C81.0596 35.6672 80.614 35.3942 80.5073 34.9511C80.4821 34.8474 80.3813 34.4274 80.2599 33.9234L76.0683 34.9314C76.1927 35.4484 76.2955 35.8755 76.3157 35.9591C76.4224 36.4022 76.1494 36.8483 75.7059 36.9545C75.2628 37.0612 74.8167 36.7882 74.7105 36.3451C74.6853 36.2414 74.5845 35.8214 74.4631 35.3174L70.2715 36.3254C70.3958 36.8424 70.4987 37.2695 70.5189 37.3531C70.6256 37.7962 70.3526 38.2422 69.9095 38.3485C69.4664 38.4552 69.0203 38.1822 68.9141 37.7391C68.8893 37.6353 68.7881 37.2153 68.6667 36.7113L64.4746 37.7193C64.599 38.2364 64.7015 38.6635 64.722 38.7471C64.8287 39.1902 64.5557 39.6362 64.1126 39.7425C63.6695 39.8492 63.2239 39.5762 63.1172 39.1331C63.0924 39.0293 62.9912 38.6093 62.8698 38.1053L60.207 38.7458L66.8061 66.1853L96.9243 58.9424L90.3252 31.5029L87.6624 32.1434C87.7859 32.6604 87.8888 33.0876 87.909 33.1712Z" fill="#407BFF"/>
<path opacity="0.8" d="M87.909 33.1712C88.0157 33.6143 87.7427 34.0603 87.2996 34.1666C86.8565 34.2732 86.4108 34.0002 86.3042 33.5571C86.279 33.4534 86.1782 33.0334 86.0568 32.5294L81.8647 33.5374C81.9891 34.0544 82.0916 34.4816 82.1121 34.5651C82.2188 35.0082 81.9458 35.4543 81.5027 35.5605C81.0596 35.6672 80.614 35.3942 80.5073 34.9511C80.4821 34.8474 80.3813 34.4274 80.2599 33.9234L76.0683 34.9314C76.1927 35.4484 76.2955 35.8755 76.3157 35.9591C76.4224 36.4022 76.1494 36.8483 75.7059 36.9545C75.2628 37.0612 74.8167 36.7882 74.7105 36.3451C74.6853 36.2414 74.5845 35.8214 74.4631 35.3174L70.2715 36.3254C70.3958 36.8424 70.4987 37.2695 70.5189 37.3531C70.6256 37.7962 70.3526 38.2422 69.9095 38.3485C69.4664 38.4552 69.0203 38.1822 68.9141 37.7391C68.8893 37.6353 68.7881 37.2153 68.6667 36.7113L64.4746 37.7193C64.599 38.2364 64.7015 38.6635 64.722 38.7471C64.8287 39.1902 64.5557 39.6362 64.1126 39.7425C63.6695 39.8492 63.2239 39.5762 63.1172 39.1331C63.0924 39.0293 62.9912 38.6093 62.8698 38.1053L60.207 38.7458L66.8061 66.1853L96.9243 58.9424L90.3252 31.5029L87.6624 32.1434C87.7859 32.6604 87.8888 33.0876 87.909 33.1712Z" fill="white"/>
<path d="M84.3274 37.1192L69.418 40.7043L70.4868 45.1494L85.3963 41.5643L84.3274 37.1192Z" fill="#407BFF"/>
<path opacity="0.6" d="M84.3274 37.1192L69.418 40.7043L70.4868 45.1494L85.3963 41.5643L84.3274 37.1192Z" fill="white"/>
<path d="M68.3999 47.5125L64.418 48.47L65.3755 52.4519L69.3575 51.4944L68.3999 47.5125Z" fill="white"/>
<path d="M74.0484 46.1538L70.0664 47.1113L71.0239 51.0933L75.0059 50.1358L74.0484 46.1538Z" fill="#407BFF"/>
<path d="M79.6968 44.7957L75.7148 45.7532L76.6724 49.7352L80.6543 48.7776L79.6968 44.7957Z" fill="#407BFF"/>
<path d="M85.3453 43.4368L81.3633 44.3943L82.3208 48.3763L86.3028 47.4188L85.3453 43.4368Z" fill="#407BFF"/>
<path d="M90.9937 42.0786L87.0117 43.0361L87.9692 47.0181L91.9512 46.0606L90.9937 42.0786Z" fill="#407BFF"/>
<path d="M69.689 52.884L65.707 53.8416L66.6645 57.8235L70.6465 56.866L69.689 52.884Z" fill="#407BFF"/>
<path d="M75.3414 51.5249L71.3594 52.4824L72.3169 56.4644L76.2989 55.5069L75.3414 51.5249Z" fill="#407BFF"/>
<path d="M80.9898 50.1675L77.0078 51.125L77.9653 55.107L81.9473 54.1495L80.9898 50.1675Z" fill="#407BFF"/>
<path d="M86.6382 48.8079L82.6562 49.7654L83.6138 53.7474L87.5957 52.7898L86.6382 48.8079Z" fill="#407BFF"/>
<path d="M92.2867 47.4497L88.3047 48.4072L89.2622 52.3892L93.2442 51.4317L92.2867 47.4497Z" fill="#407BFF"/>
<path d="M70.982 58.2544L67 59.2119L67.9575 63.1939L71.9395 62.2364L70.982 58.2544Z" fill="#407BFF"/>
<path d="M76.6304 56.896L72.6484 57.8535L73.6059 61.8355L77.5879 60.878L76.6304 56.896Z" fill="#407BFF"/>
<path d="M82.2789 55.5383L78.2969 56.4958L79.2544 60.4778L83.2364 59.5203L82.2789 55.5383Z" fill="#407BFF"/>
<path opacity="0.2" d="M74.0484 46.1536L70.0664 47.1111L71.0239 51.0931L75.0059 50.1356L74.0484 46.1536Z" fill="white"/>
<path opacity="0.2" d="M79.6968 44.7954L75.7148 45.7529L76.6724 49.7349L80.6543 48.7774L79.6968 44.7954Z" fill="white"/>
<path opacity="0.2" d="M85.3453 43.4365L81.3633 44.394L82.3208 48.376L86.3028 47.4185L85.3453 43.4365Z" fill="white"/>
<path opacity="0.2" d="M90.9937 42.0786L87.0117 43.0361L87.9692 47.0181L91.9512 46.0606L90.9937 42.0786Z" fill="white"/>
<path opacity="0.2" d="M75.3414 51.5247L71.3594 52.4822L72.3169 56.4642L76.2989 55.5066L75.3414 51.5247Z" fill="white"/>
<path opacity="0.2" d="M80.9898 50.1675L77.0078 51.125L77.9653 55.107L81.9473 54.1495L80.9898 50.1675Z" fill="white"/>
<path opacity="0.2" d="M86.6382 48.8079L82.6562 49.7654L83.6138 53.7474L87.5957 52.7898L86.6382 48.8079Z" fill="white"/>
<path opacity="0.2" d="M92.2867 47.4497L88.3047 48.4072L89.2622 52.3892L93.2442 51.4317L92.2867 47.4497Z" fill="white"/>
<path opacity="0.2" d="M76.6304 56.8958L72.6484 57.8533L73.6059 61.8353L77.5879 60.8777L76.6304 56.8958Z" fill="white"/>
<path opacity="0.2" d="M82.2789 55.5383L78.2969 56.4958L79.2544 60.4778L83.2364 59.5203L82.2789 55.5383Z" fill="white"/>
<path d="M87.9312 54.179L83.9492 55.1365L84.9067 59.1184L88.8887 58.1609L87.9312 54.179Z" fill="white"/>
<path d="M93.5796 52.8211L89.5977 53.7786L90.5552 57.7605L94.5371 56.803L93.5796 52.8211Z" fill="white"/>
<path d="M60.207 38.7463L66.0455 67.2551L96.9238 58.9429L66.8061 66.1858L60.207 38.7463Z" fill="#407BFF"/>
<path opacity="0.5" d="M60.207 38.7463L66.0455 67.2551L96.9238 58.9429L66.8061 66.1858L60.207 38.7463Z" fill="white"/>
<path d="M87.7498 22.142C87.9804 22.5351 87.8485 23.0408 87.4554 23.2718C87.0623 23.5024 86.5566 23.3705 86.326 22.9774C86.2719 22.885 86.0535 22.5129 85.7914 22.0656L82.0727 24.2471C82.3419 24.7057 82.5641 25.0845 82.6074 25.1589C82.8379 25.552 82.7065 26.0577 82.3129 26.2887C81.9198 26.5193 81.4141 26.3874 81.1836 25.9943C81.1294 25.9019 80.911 25.5297 80.6489 25.0824L76.9302 27.2639C77.1994 27.7226 77.4216 28.1014 77.4649 28.1757C77.6955 28.5689 77.564 29.0745 77.1705 29.3055C76.7773 29.5361 76.2717 29.4042 76.0411 29.0111C75.9869 28.9191 75.7685 28.5466 75.5064 28.0993L71.7877 30.2808C72.057 30.7394 72.2791 31.1183 72.3224 31.1926C72.553 31.5857 72.4211 32.0914 72.028 32.3224C71.6349 32.553 71.1292 32.4211 70.8986 32.028C70.8444 31.936 70.626 31.5635 70.3639 31.1162L66.6453 33.2976C66.9145 33.7563 67.1367 34.1351 67.1799 34.2095C67.4105 34.6026 67.279 35.1083 66.8855 35.3393C66.4924 35.5698 65.9867 35.438 65.7561 35.0448C65.7019 34.9524 65.4835 34.5803 65.2215 34.133L62.8594 35.5186L77.139 59.8614L103.858 44.1882L89.5785 19.8455L87.2164 21.231C87.484 21.6888 87.7062 22.0677 87.7498 22.142Z" fill="#407BFF"/>
<path opacity="0.8" d="M87.7498 22.142C87.9804 22.5351 87.8485 23.0408 87.4554 23.2718C87.0623 23.5024 86.5566 23.3705 86.326 22.9774C86.2719 22.885 86.0535 22.5129 85.7914 22.0656L82.0727 24.2471C82.3419 24.7057 82.5641 25.0845 82.6074 25.1589C82.8379 25.552 82.7065 26.0577 82.3129 26.2887C81.9198 26.5193 81.4141 26.3874 81.1836 25.9943C81.1294 25.9019 80.911 25.5297 80.6489 25.0824L76.9302 27.2639C77.1994 27.7226 77.4216 28.1014 77.4649 28.1757C77.6955 28.5689 77.564 29.0745 77.1705 29.3055C76.7773 29.5361 76.2717 29.4042 76.0411 29.0111C75.9869 28.9191 75.7685 28.5466 75.5064 28.0993L71.7877 30.2808C72.057 30.7394 72.2791 31.1183 72.3224 31.1926C72.553 31.5857 72.4211 32.0914 72.028 32.3224C71.6349 32.553 71.1292 32.4211 70.8986 32.028C70.8444 31.936 70.626 31.5635 70.3639 31.1162L66.6453 33.2976C66.9145 33.7563 67.1367 34.1351 67.1799 34.2095C67.4105 34.6026 67.279 35.1083 66.8855 35.3393C66.4924 35.5698 65.9867 35.438 65.7561 35.0448C65.7019 34.9524 65.4835 34.5803 65.2215 34.133L62.8594 35.5186L77.139 59.8614L103.858 44.1882L89.5785 19.8455L87.2164 21.231C87.484 21.6888 87.7062 22.0677 87.7498 22.142Z" fill="white"/>
<path d="M85.4695 26.956L72.2422 34.7151L74.5555 38.6586L87.7827 30.8995L85.4695 26.956Z" fill="#407BFF"/>
<path opacity="0.6" d="M85.4695 26.956L72.2422 34.7151L74.5555 38.6586L87.7827 30.8995L85.4695 26.956Z" fill="white"/>
<path d="M73.2476 41.5261L69.7148 43.5984L71.7871 47.1311L75.3198 45.0588L73.2476 41.5261Z" fill="white"/>
<path d="M78.2593 38.5864L74.7266 40.6587L76.7988 44.1914L80.3316 42.1191L78.2593 38.5864Z" fill="white"/>
<path d="M83.271 35.6452L79.7383 37.7175L81.8106 41.2502L85.3433 39.178L83.271 35.6452Z" fill="#407BFF"/>
<path d="M88.2827 32.7053L84.75 34.7776L86.8223 38.3103L90.355 36.238L88.2827 32.7053Z" fill="#407BFF"/>
<path d="M93.2823 29.7639L89.75 31.8362L91.8223 35.3685L95.3546 33.2962L93.2823 29.7639Z" fill="#407BFF"/>
<path d="M76.0323 46.2866L72.5 48.3589L74.5723 51.8912L78.1046 49.8189L76.0323 46.2866Z" fill="#407BFF"/>
<path d="M81.044 43.3471L77.5117 45.4194L79.584 48.9517L83.1163 46.8794L81.044 43.3471Z" fill="#407BFF"/>
<path d="M86.0557 40.4075L82.5234 42.4797L84.5957 46.012L88.128 43.9398L86.0557 40.4075Z" fill="#407BFF"/>
<path d="M91.0757 37.4707L87.543 39.543L89.6153 43.0757L93.148 41.0034L91.0757 37.4707Z" fill="#407BFF"/>
<path d="M96.0874 34.5305L92.5547 36.6028L94.627 40.1355L98.1597 38.0632L96.0874 34.5305Z" fill="#407BFF"/>
<path d="M78.8374 51.0559L75.3047 53.1282L77.377 56.6609L80.9097 54.5886L78.8374 51.0559Z" fill="#407BFF"/>
<path d="M83.8491 48.1159L80.3164 50.1882L82.3887 53.7209L85.9214 51.6487L83.8491 48.1159Z" fill="#407BFF"/>
<path d="M88.8608 45.176L85.3281 47.2483L87.4004 50.781L90.9331 48.7087L88.8608 45.176Z" fill="#407BFF"/>
<path opacity="0.2" d="M83.2671 35.645L79.7344 37.7173L81.8067 41.25L85.3394 39.1777L83.2671 35.645Z" fill="white"/>
<path opacity="0.2" d="M88.2788 32.7051L84.7461 34.7773L86.8184 38.3101L90.3511 36.2378L88.2788 32.7051Z" fill="white"/>
<path opacity="0.2" d="M93.2823 29.7637L89.75 31.8359L91.8223 35.3682L95.3546 33.296L93.2823 29.7637Z" fill="white"/>
<path opacity="0.2" d="M81.044 43.3469L77.5117 45.4192L79.584 48.9515L83.1163 46.8792L81.044 43.3469Z" fill="white"/>
<path opacity="0.2" d="M86.0557 40.4072L82.5234 42.4795L84.5957 46.0118L88.128 43.9395L86.0557 40.4072Z" fill="white"/>
<path opacity="0.2" d="M91.0757 37.4707L87.543 39.543L89.6153 43.0757L93.148 41.0034L91.0757 37.4707Z" fill="white"/>
<path opacity="0.2" d="M96.0874 34.5303L92.5547 36.6025L94.627 40.1352L98.1597 38.063L96.0874 34.5303Z" fill="white"/>
<path opacity="0.2" d="M83.8491 48.1159L80.3164 50.1882L82.3887 53.7209L85.9214 51.6487L83.8491 48.1159Z" fill="white"/>
<path opacity="0.2" d="M88.8608 45.176L85.3281 47.2483L87.4004 50.781L90.9331 48.7087L88.8608 45.176Z" fill="white"/>
<path d="M93.8726 42.2363L90.3398 44.3086L92.4121 47.8413L95.9448 45.769L93.8726 42.2363Z" fill="white"/>
<path d="M98.8843 39.2954L95.3516 41.3677L97.4238 44.9004L100.957 42.8281L98.8843 39.2954Z" fill="white"/>
<path d="M62.8281 35.5354L76.6898 61.1222L103.826 44.205L77.1077 59.8782L62.8281 35.5354Z" fill="#407BFF"/>
<path opacity="0.5" d="M62.8281 35.5354L76.6898 61.1222L103.826 44.205L77.1077 59.8782L62.8281 35.5354Z" fill="white"/>
<path d="M168.52 121.297L155.833 119.38C151.502 118.725 148.522 114.683 149.176 110.352L151.093 97.6655C151.748 93.334 155.79 90.3537 160.121 91.0081L172.808 92.9254C177.14 93.5801 180.12 97.6218 179.466 101.953L177.548 114.64C176.894 118.971 172.851 121.952 168.52 121.297Z" fill="#407BFF"/>
<path opacity="0.6" d="M168.52 121.297L155.833 119.38C151.502 118.725 148.522 114.683 149.176 110.352L151.093 97.6655C151.748 93.334 155.79 90.3537 160.121 91.0081L172.808 92.9254C177.14 93.5801 180.12 97.6218 179.466 101.953L177.548 114.64C176.894 118.971 172.851 121.952 168.52 121.297Z" fill="white"/>
<path d="M156.171 101.563C156.171 101.563 154.46 98.8406 156.197 97.2056L157.502 98.0666C157.502 98.0666 156.258 99.7226 156.982 101.404L156.171 101.563Z" fill="#407BFF"/>
<path d="M159.115 99.6319C158.094 99.8327 157.176 100.271 156.388 100.878C155.429 100.614 154.414 100.556 153.392 100.757C149.559 101.51 147.123 105.534 147.95 109.745C148.778 113.956 152.556 116.759 156.389 116.005C157.411 115.804 158.329 115.366 159.117 114.759C160.075 115.023 161.091 115.081 162.112 114.88C165.945 114.127 168.382 110.103 167.554 105.892C166.726 101.681 162.948 98.8785 159.115 99.6319Z" fill="#407BFF"/>
<path opacity="0.1" d="M159.115 99.6319C158.094 99.8327 157.176 100.271 156.388 100.878C155.429 100.614 154.414 100.556 153.392 100.757C149.559 101.51 147.123 105.534 147.95 109.745C148.778 113.956 152.556 116.759 156.389 116.005C157.411 115.804 158.329 115.366 159.117 114.759C160.075 115.023 161.091 115.081 162.112 114.88C165.945 114.127 168.382 110.103 167.554 105.892C166.726 101.681 162.948 98.8785 159.115 99.6319Z" fill="white"/>
<path d="M159.114 99.6319C158.092 99.8327 157.174 100.271 156.387 100.878L159.115 114.759C160.074 115.023 161.089 115.081 162.111 114.88C165.944 114.127 168.38 110.103 167.553 105.892C166.725 101.681 162.947 98.8785 159.114 99.6319Z" fill="#407BFF"/>
<path opacity="0.3" d="M159.114 99.6319C158.092 99.8327 157.174 100.271 156.387 100.878L159.115 114.759C160.074 115.023 161.089 115.081 162.111 114.88C165.944 114.127 168.38 110.103 167.553 105.892C166.725 101.681 162.947 98.8785 159.114 99.6319Z" fill="white"/>
<path d="M154.114 106.195L154.744 106.497L156.076 106.235L153.614 103.654L152.312 106.975L153.644 106.713L154.114 106.195Z" fill="white"/>
<path d="M160.797 104.881L161.428 105.183L162.76 104.921L160.298 102.34L158.996 105.661L160.328 105.399L160.797 104.881Z" fill="white"/>
<path d="M156.958 109.732L156.943 110.646L154.95 110.449L155.243 109.771C153.772 109.717 152.801 109.46 152.801 109.46C152.801 109.46 154.494 113.067 158.636 112.312C159.331 112.185 159.916 111.957 160.419 111.675L159.64 110.821L161.32 109.491L161.824 110.529C163.051 109.107 163.25 107.406 163.25 107.406C161.155 108.993 158.862 109.574 156.958 109.732Z" fill="white"/>
<path d="M169.523 99.2724L167.684 100.557L171.326 100.961C172.021 101.039 172.608 100.451 172.531 99.7563L172.127 96.114L170.842 97.9532L169.8 98.2304L169.523 99.2724Z" fill="#407BFF"/>
<path d="M176.766 106.515L175.481 108.354L175.077 104.712C175 104.017 175.587 103.43 176.282 103.507L179.924 103.911L178.085 105.196L177.808 106.238L176.766 106.515Z" fill="#407BFF"/>
<path d="M175.391 103.819C174.515 104.695 173.095 104.695 172.219 103.819C171.344 102.944 171.344 101.524 172.219 100.648C173.095 99.7723 174.515 99.7723 175.391 100.648C176.266 101.524 176.266 102.944 175.391 103.819Z" fill="#407BFF"/>
<g opacity="0.2">
<path d="M169.523 99.2724L167.684 100.557L171.326 100.961C172.021 101.039 172.608 100.451 172.531 99.7563L172.127 96.114L170.842 97.9532L169.8 98.2304L169.523 99.2724Z" fill="white"/>
<path d="M176.766 106.515L175.481 108.354L175.077 104.712C175 104.017 175.587 103.43 176.282 103.507L179.924 103.911L178.085 105.196L177.808 106.238L176.766 106.515Z" fill="white"/>
<path d="M175.391 103.819C174.515 104.695 173.095 104.695 172.219 103.819C171.344 102.944 171.344 101.524 172.219 100.648C173.095 99.7723 174.515 99.7723 175.391 100.648C176.266 101.524 176.266 102.944 175.391 103.819Z" fill="white"/>
</g>
<g opacity="0.7">
<path d="M174.473 100.094C173.702 99.854 172.828 100.038 172.218 100.648C171.874 100.991 171.668 101.419 171.594 101.865L174.473 100.094Z" fill="white"/>
<path d="M172.219 103.819C172.424 104.024 172.659 104.179 172.909 104.288L176.041 102.361C176.061 102.017 176.002 101.671 175.864 101.348L172.086 103.671C172.129 103.722 172.172 103.772 172.219 103.819Z" fill="white"/>
</g>
<path d="M168.573 112.157L168.248 113.985L170.616 112.089C171.068 111.728 171.068 111.04 170.616 110.679L168.248 108.783L168.573 110.611L168.125 111.384L168.573 112.157Z" fill="#407BFF"/>
<path d="M177.051 112.157L177.375 113.985L175.007 112.089C174.555 111.728 174.555 111.04 175.007 110.679L177.375 108.783L177.051 110.611L177.498 111.384L177.051 112.157Z" fill="#407BFF"/>
<path d="M174.669 111.384C174.669 112.41 173.838 113.241 172.813 113.241C171.788 113.241 170.957 112.41 170.957 111.384C170.957 110.359 171.788 109.528 172.813 109.528C173.838 109.528 174.669 110.359 174.669 111.384Z" fill="#407BFF"/>
<g opacity="0.9">
<path d="M168.573 112.157L168.248 113.985L170.616 112.089C171.068 111.728 171.068 111.04 170.616 110.679L168.248 108.783L168.573 110.611L168.125 111.384L168.573 112.157Z" fill="white"/>
<path d="M177.051 112.157L177.375 113.985L175.007 112.089C174.555 111.728 174.555 111.04 175.007 110.679L177.375 108.783L177.051 110.611L177.498 111.384L177.051 112.157Z" fill="white"/>
<path d="M174.669 111.384C174.669 112.41 173.838 113.241 172.813 113.241C171.788 113.241 170.957 112.41 170.957 111.384C170.957 110.359 171.788 109.528 172.813 109.528C173.838 109.528 174.669 110.359 174.669 111.384Z" fill="white"/>
</g>
<path d="M171.953 109.74C171.361 110.051 170.957 110.67 170.957 111.384C170.957 111.786 171.086 112.158 171.304 112.462L171.953 109.74Z" fill="#407BFF"/>
<path d="M172.813 113.241C173.052 113.241 173.28 113.194 173.491 113.111L174.197 110.151C174.007 109.938 173.769 109.769 173.5 109.661L172.648 113.233C172.703 113.237 172.757 113.241 172.813 113.241Z" fill="#407BFF"/>
<path d="M171.471 67.2862L151.802 71.2997C147.51 72.1754 143.32 69.4059 142.445 65.1139L138.431 45.4445C137.555 41.1525 140.325 36.963 144.617 36.0873L164.286 32.0738C168.578 31.1981 172.768 33.9676 173.644 38.2595L177.657 57.929C178.533 62.221 175.763 66.4105 171.471 67.2862Z" fill="#407BFF"/>
<path opacity="0.5" d="M171.471 67.2862L151.802 71.2997C147.51 72.1754 143.32 69.4059 142.445 65.1139L138.431 45.4445C137.555 41.1525 140.325 36.963 144.617 36.0873L164.286 32.0738C168.578 31.1981 172.768 33.9676 173.644 38.2595L177.657 57.929C178.533 62.221 175.763 66.4105 171.471 67.2862Z" fill="white"/>
<path d="M169.8 40.4561C168.965 40.5687 168.131 40.6817 167.296 40.7942C167.746 40.2037 168.196 39.6128 168.646 39.0223C168.818 38.7971 168.469 38.5309 168.297 38.756C167.758 39.4633 167.219 40.1701 166.68 40.8774C165.873 40.9862 165.067 41.0954 164.26 41.2042C164.309 41.1298 164.352 41.0622 164.38 41.0257C164.686 40.6241 164.991 40.223 165.298 39.8215C165.757 39.2192 166.216 38.617 166.674 38.0147C166.846 37.7896 166.497 37.5233 166.325 37.7484C165.425 38.929 164.526 40.1092 163.626 41.2898C163.293 41.3348 162.959 41.3801 162.625 41.4251C162.58 41.0912 162.535 40.7577 162.49 40.4242C163.39 39.2436 164.289 38.0634 165.188 36.8828C165.36 36.6577 165.011 36.3914 164.839 36.6165C164.406 37.1852 163.973 37.7543 163.539 38.323C163.208 38.7577 162.876 39.1928 162.545 39.6275C162.516 39.6657 162.462 39.7249 162.405 39.79C162.296 38.9832 162.187 38.1768 162.078 37.37C162.617 36.6627 163.156 35.9558 163.694 35.2486C163.866 35.0234 163.517 34.7572 163.345 34.9823C162.895 35.5728 162.445 36.1637 161.995 36.7543C161.882 35.9197 161.769 35.0848 161.657 34.2498C161.619 33.9697 161.183 34.028 161.222 34.3086C161.334 35.1436 161.447 35.9781 161.56 36.8131C160.969 36.3628 160.378 35.9126 159.788 35.4628C159.563 35.2914 159.296 35.6404 159.521 35.8122C160.229 36.3511 160.935 36.8899 161.643 37.4288C161.752 38.2356 161.861 39.0424 161.97 39.8492C161.895 39.8005 161.828 39.7573 161.791 39.7295C161.39 39.4238 160.988 39.1176 160.587 38.8118C159.985 38.3528 159.382 37.8937 158.78 37.4351C158.555 37.2637 158.289 37.6127 158.514 37.7845C159.694 38.6842 160.875 39.5838 162.055 40.483C162.1 40.8169 162.145 41.1504 162.19 41.4839C161.857 41.5288 161.523 41.5742 161.19 41.6191C160.009 40.7195 158.829 39.8198 157.649 38.9206C157.423 38.7488 157.157 39.0983 157.382 39.2701C157.951 39.7035 158.52 40.1369 159.089 40.5704C159.523 40.9018 159.958 41.2331 160.393 41.5645C160.431 41.5939 160.49 41.6468 160.555 41.7048C159.749 41.8136 158.942 41.9228 158.135 42.0316C157.428 41.4927 156.721 40.9538 156.014 40.415C155.789 40.2436 155.523 40.5926 155.748 40.7644C156.338 41.2147 156.929 41.6649 157.52 42.1147C156.685 42.2273 155.85 42.3403 155.015 42.4528C154.735 42.4906 154.793 42.9257 155.074 42.8879C155.909 42.7754 156.743 42.6624 157.578 42.5498C157.128 43.1404 156.678 43.7313 156.228 44.3218C156.056 44.5469 156.406 44.8132 156.578 44.5881C157.116 43.8808 157.655 43.174 158.194 42.4667C159.001 42.3579 159.808 42.2487 160.615 42.1399C160.566 42.2143 160.523 42.2819 160.494 42.3184C160.189 42.7199 159.883 43.121 159.577 43.5226C159.118 44.1248 158.659 44.7271 158.2 45.3294C158.028 45.5545 158.378 45.8208 158.549 45.5957C159.449 44.4151 160.349 43.2349 161.248 42.0542C161.582 42.0093 161.916 41.9639 162.249 41.919C162.294 42.2529 162.339 42.5864 162.384 42.9199C161.485 44.1005 160.585 45.2807 159.686 46.4613C159.514 46.6864 159.863 46.9527 160.035 46.7276C160.468 46.1589 160.902 45.5898 161.335 45.0211C161.667 44.5864 161.998 44.1517 162.329 43.7166C162.359 43.6784 162.412 43.6192 162.47 43.5541C162.579 44.3609 162.688 45.1673 162.797 45.9741C162.258 46.681 161.719 47.3882 161.18 48.0955C161.008 48.3206 161.358 48.5869 161.529 48.3618C161.98 47.7713 162.429 47.1803 162.88 46.5898C162.992 47.4244 163.105 48.2593 163.218 49.0943C163.256 49.3744 163.691 49.316 163.653 49.0355C163.54 48.2005 163.427 47.366 163.315 46.531C163.905 46.9813 164.496 47.4315 165.087 47.8813C165.312 48.0527 165.578 47.7037 165.353 47.5319C164.646 46.993 163.939 46.4542 163.232 45.9153C163.123 45.1085 163.014 44.3017 162.905 43.4948C162.979 43.5436 163.047 43.5868 163.083 43.6145C163.485 43.9203 163.886 44.2265 164.288 44.5322C164.89 44.9913 165.492 45.4504 166.094 45.909C166.319 46.0808 166.586 45.7313 166.361 45.5596C165.18 44.6599 164 43.7603 162.82 42.8611C162.775 42.5272 162.729 42.1937 162.684 41.8598C163.018 41.8148 163.352 41.7695 163.685 41.7245C164.866 42.6242 166.046 43.5238 167.227 44.4235C167.452 44.5948 167.718 44.2458 167.493 44.074C166.924 43.6406 166.355 43.2071 165.786 42.7737C165.352 42.4423 164.917 42.1109 164.482 41.7796C164.444 41.7502 164.385 41.6972 164.319 41.6393C165.126 41.5305 165.933 41.4213 166.739 41.3125C167.446 41.8514 168.154 42.3902 168.861 42.9291C169.086 43.1005 169.352 42.7514 169.127 42.5797C168.537 42.1294 167.946 41.6792 167.355 41.2294C168.19 41.1168 169.025 41.0038 169.86 40.8913C170.139 40.8539 170.081 40.4183 169.8 40.4561Z" fill="white"/>
<path d="M175.006 52.5966C174.608 52.2929 174.21 51.9893 173.812 51.686C174.249 51.6268 174.687 51.568 175.124 51.5088C175.291 51.4865 175.256 51.2274 175.089 51.2501C174.565 51.3206 174.041 51.3916 173.518 51.4622C173.132 51.169 172.748 50.8754 172.363 50.5818C172.415 50.5709 172.461 50.5608 172.488 50.5571C172.786 50.5167 173.083 50.4768 173.38 50.4365C173.826 50.3765 174.273 50.316 174.719 50.2559C174.886 50.2337 174.851 49.9745 174.684 49.9972C173.809 50.1152 172.935 50.2332 172.061 50.3513C171.901 50.2299 171.742 50.1085 171.583 49.9871C171.704 49.8279 171.826 49.6688 171.947 49.5096C172.822 49.3916 173.696 49.2735 174.571 49.1555C174.737 49.1328 174.702 48.8741 174.536 48.8968C174.114 48.9535 173.693 49.0106 173.271 49.0673C172.949 49.111 172.627 49.1543 172.305 49.1979C172.276 49.2017 172.229 49.2042 172.178 49.2072C172.471 48.8225 172.765 48.4373 173.058 48.0526C173.581 47.982 174.106 47.9111 174.629 47.8405C174.796 47.8178 174.761 47.5591 174.594 47.5818C174.157 47.641 173.719 47.6998 173.282 47.759C173.586 47.3609 173.889 46.9623 174.193 46.5641C174.294 46.4306 174.087 46.2718 173.985 46.4058C173.681 46.8044 173.377 47.2025 173.074 47.6007C173.014 47.163 172.956 46.7254 172.896 46.2882C172.874 46.1214 172.615 46.1563 172.638 46.323C172.708 46.8468 172.779 47.3705 172.85 47.8947C172.556 48.2798 172.263 48.6645 171.969 49.0497C171.959 48.998 171.948 48.9514 171.945 48.9241C171.904 48.6267 171.864 48.3294 171.824 48.032C171.764 47.586 171.704 47.1395 171.644 46.6935C171.621 46.5267 171.362 46.5616 171.385 46.7283C171.503 47.6028 171.621 48.4772 171.739 49.3517C171.618 49.5108 171.496 49.67 171.375 49.8292C171.216 49.7078 171.056 49.5864 170.897 49.4651C170.779 48.5906 170.661 47.7162 170.543 46.8417C170.52 46.675 170.262 46.7099 170.284 46.8766C170.341 47.2979 170.398 47.7195 170.455 48.1408C170.498 48.4629 170.542 48.7851 170.586 49.1072C170.589 49.1358 170.592 49.1828 170.595 49.2345C170.21 48.9413 169.825 48.6477 169.44 48.3546C169.37 47.8308 169.299 47.3071 169.228 46.7829C169.205 46.6162 168.947 46.6511 168.969 46.8178C169.029 47.2554 169.087 47.6931 169.147 48.1303C168.748 47.8266 168.35 47.523 167.952 47.2197C167.818 47.1177 167.659 47.3256 167.793 47.4272C168.192 47.7309 168.59 48.0345 168.988 48.3378C168.551 48.397 168.113 48.4558 167.675 48.515C167.509 48.5377 167.544 48.7964 167.71 48.7737C168.234 48.7032 168.758 48.6322 169.282 48.5616C169.667 48.8552 170.052 49.1484 170.437 49.442C170.385 49.4529 170.339 49.463 170.311 49.4667C170.014 49.5071 169.717 49.547 169.419 49.5873C168.973 49.6478 168.527 49.7078 168.081 49.7679C167.914 49.7906 167.949 50.0493 168.116 50.0266C168.99 49.9086 169.864 49.7906 170.739 49.6725C170.898 49.7939 171.057 49.9153 171.216 50.0367C171.095 50.1959 170.974 50.355 170.852 50.5142C169.978 50.6322 169.103 50.7503 168.229 50.8683C168.062 50.891 168.097 51.1497 168.264 51.127C168.685 51.0703 169.107 51.0132 169.528 50.9565C169.85 50.9128 170.172 50.8695 170.494 50.8259C170.523 50.8221 170.57 50.8196 170.622 50.8166C170.329 51.2013 170.035 51.5865 169.742 51.9712C169.218 52.0418 168.694 52.1127 168.17 52.1833C168.003 52.206 168.038 52.4647 168.205 52.442C168.643 52.3828 169.08 52.324 169.518 52.2648C169.214 52.6634 168.91 53.0615 168.607 53.4597C168.505 53.5932 168.713 53.752 168.815 53.618C169.119 53.2199 169.422 52.8213 169.725 52.4231C169.785 52.8608 169.843 53.2984 169.903 53.736C169.925 53.9028 170.184 53.8679 170.161 53.7012C170.091 53.1774 170.02 52.6537 169.949 52.1295C170.242 51.7444 170.536 51.3597 170.83 50.9745C170.841 51.0262 170.851 51.0728 170.854 51.1001C170.895 51.3975 170.935 51.6948 170.975 51.9922C171.035 52.4382 171.095 52.8847 171.156 53.3307C171.178 53.4975 171.437 53.4626 171.414 53.2959C171.296 52.4214 171.178 51.547 171.06 50.6726C171.182 50.5134 171.303 50.3542 171.424 50.195C171.583 50.3164 171.743 50.4378 171.902 50.5592C172.02 51.4336 172.138 52.308 172.256 53.1825C172.279 53.3492 172.537 53.3144 172.515 53.1476C172.458 52.7264 172.401 52.3047 172.344 51.8834C172.3 51.5613 172.257 51.2391 172.213 50.917C172.21 50.8884 172.207 50.8414 172.204 50.7893C172.589 51.0829 172.974 51.3761 173.359 51.6692C173.43 52.193 173.501 52.7167 173.571 53.2409C173.594 53.4076 173.853 53.3727 173.83 53.206C173.771 52.7684 173.712 52.3307 173.653 51.8935C174.051 52.1972 174.45 52.5008 174.848 52.8041C174.982 52.9061 175.14 52.6986 175.006 52.5966Z" fill="white"/>
<path d="M163.875 58.2717C163.915 57.9764 163.955 57.6816 163.995 57.3863C163.786 57.5455 163.577 57.7047 163.368 57.8639C163.289 57.9243 163.194 57.8009 163.274 57.7404C163.524 57.5501 163.774 57.3594 164.024 57.1688C164.063 56.8836 164.101 56.5984 164.14 56.3132C164.113 56.3304 164.089 56.3456 164.077 56.3556C163.935 56.4636 163.793 56.5719 163.651 56.6799C163.438 56.842 163.226 57.0045 163.013 57.1667C162.933 57.2276 162.839 57.1037 162.919 57.0432C163.336 56.7252 163.753 56.4073 164.171 56.0894C164.186 55.9714 164.202 55.8533 164.218 55.7353C164.1 55.7194 163.982 55.7034 163.864 55.6874C163.447 56.0054 163.03 56.3233 162.612 56.6412C162.533 56.7021 162.438 56.5782 162.518 56.5178C162.719 56.3645 162.921 56.2112 163.121 56.0579C163.275 55.9407 163.429 55.8235 163.583 55.7063C163.596 55.6958 163.617 55.6774 163.64 55.6568C163.355 55.6181 163.07 55.5799 162.785 55.5413C162.535 55.7319 162.285 55.9222 162.035 56.1129C161.955 56.1734 161.861 56.0499 161.941 55.9894C162.149 55.8302 162.358 55.6711 162.567 55.5119C162.272 55.472 161.977 55.4321 161.682 55.3922C161.583 55.3787 161.603 55.225 161.703 55.2385C161.998 55.2784 162.293 55.3182 162.588 55.3581C162.429 55.1494 162.27 54.9407 162.11 54.7319C162.05 54.6525 162.173 54.558 162.234 54.6378C162.424 54.8877 162.615 55.1376 162.806 55.3875C163.091 55.4262 163.376 55.4644 163.661 55.503C163.644 55.4766 163.628 55.4526 163.619 55.44C163.511 55.2981 163.402 55.1561 163.294 55.0142C163.132 54.8012 162.97 54.5883 162.808 54.3753C162.747 54.296 162.87 54.2015 162.931 54.2813C163.249 54.6987 163.567 55.1158 163.885 55.5333C164.003 55.5492 164.121 55.5652 164.239 55.5812C164.255 55.4631 164.271 55.3451 164.287 55.2271C163.969 54.8096 163.651 54.3926 163.333 53.9751C163.273 53.8957 163.396 53.8016 163.457 53.881C163.61 54.0822 163.763 54.2834 163.916 54.4841C164.034 54.6378 164.151 54.7916 164.268 54.9453C164.278 54.9587 164.297 54.9797 164.318 55.0028C164.356 54.7176 164.394 54.4325 164.433 54.1473C164.242 53.8974 164.052 53.6475 163.861 53.3976C163.801 53.3178 163.924 53.2237 163.985 53.3035C164.144 53.5122 164.303 53.721 164.462 53.9301C164.502 53.6349 164.542 53.34 164.582 53.0448C164.596 52.9457 164.749 52.9662 164.736 53.0658C164.696 53.361 164.656 53.6559 164.616 53.9511C164.825 53.792 165.034 53.6328 165.242 53.4736C165.322 53.4131 165.416 53.5362 165.336 53.5971C165.087 53.7873 164.837 53.978 164.587 54.1687C164.548 54.4539 164.51 54.7391 164.471 55.0242C164.498 55.007 164.522 54.9919 164.534 54.9818C164.676 54.8739 164.818 54.7655 164.96 54.6576C165.173 54.4955 165.386 54.3329 165.599 54.1708C165.678 54.1103 165.772 54.2338 165.693 54.2943C165.276 54.6122 164.858 54.9302 164.441 55.2485C164.425 55.3666 164.409 55.4846 164.393 55.6022C164.511 55.6181 164.629 55.6341 164.747 55.65C165.164 55.3321 165.581 55.0142 165.999 54.6958C166.078 54.6353 166.173 54.7588 166.093 54.8193C165.892 54.9726 165.691 55.1259 165.49 55.2792C165.336 55.3964 165.182 55.5135 165.029 55.6307C165.015 55.6412 164.994 55.6601 164.971 55.6803C165.256 55.7189 165.541 55.7571 165.827 55.7958C166.076 55.6051 166.326 55.4148 166.576 55.2242C166.656 55.1633 166.75 55.2872 166.67 55.3476C166.462 55.5068 166.253 55.666 166.044 55.8252C166.339 55.8651 166.634 55.905 166.93 55.9449C167.029 55.9583 167.008 56.112 166.909 56.0986C166.614 56.0587 166.319 56.0188 166.024 55.9789C166.183 56.1877 166.342 56.3964 166.501 56.6051C166.562 56.6845 166.438 56.779 166.378 56.6992C166.187 56.4493 165.997 56.1994 165.806 55.9491C165.521 55.9105 165.236 55.8722 164.95 55.8336C164.968 55.86 164.983 55.8836 164.993 55.8966C165.101 56.0386 165.209 56.1805 165.317 56.3221C165.479 56.535 165.642 56.7479 165.804 56.9609C165.864 57.0402 165.741 57.1343 165.68 57.0549C165.362 56.6379 165.045 56.2204 164.727 55.8034C164.609 55.7874 164.491 55.7714 164.373 55.7555C164.357 55.8735 164.341 55.9915 164.325 56.1091C164.643 56.5266 164.961 56.9437 165.279 57.3611C165.339 57.4405 165.216 57.535 165.155 57.4552C165.002 57.254 164.849 57.0528 164.696 56.8521C164.578 56.6984 164.461 56.5447 164.344 56.3909C164.333 56.3775 164.315 56.3565 164.294 56.3334C164.256 56.6186 164.218 56.9037 164.179 57.1889C164.369 57.4388 164.56 57.6887 164.751 57.939C164.811 58.0184 164.688 58.1129 164.627 58.0331C164.468 57.8244 164.309 57.6157 164.15 57.4065C164.11 57.7018 164.07 57.9966 164.03 58.2918C164.015 58.3914 163.861 58.3708 163.875 58.2717Z" fill="white"/>
<path d="M155.35 54.0119C155.35 54.2983 155.118 54.5306 154.831 54.5306C154.545 54.5306 154.312 54.2983 154.312 54.0119C154.312 53.7254 154.545 53.4932 154.831 53.4932C155.118 53.4932 155.35 53.7254 155.35 54.0119Z" fill="white"/>
<path d="M151.707 69.1941V62.7471H148.429V69.1941L146.734 71.3113L149.078 70.8955L150.068 71.4692L151.058 70.8955L153.401 71.3113L151.707 69.1941Z" fill="#407BFF"/>
<path d="M153.735 64.0751L162.414 65.6157L150.069 50.1882L137.723 65.6157L146.402 64.0751L150.069 66.2007L153.735 64.0751Z" fill="#407BFF"/>
<path opacity="0.3" d="M153.735 64.0751L162.414 65.6157L150.069 50.1882L137.723 65.6157L146.402 64.0751L150.069 66.2007L153.735 64.0751Z" fill="white"/>
<path d="M153.368 57.1322L161.18 58.5186L150.069 44.6343L138.957 58.5186L146.769 57.1322L150.069 59.0453L153.368 57.1322Z" fill="#407BFF"/>
<path opacity="0.7" d="M153.368 57.1322L161.18 58.5186L150.069 44.6343L138.957 58.5186L146.769 57.1322L150.069 59.0453L153.368 57.1322Z" fill="white"/>
<path d="M152.416 49.7297L157.97 50.7159L150.069 40.8425L142.168 50.7159L147.723 49.7297L150.069 51.0905L152.416 49.7297Z" fill="#407BFF"/>
<path opacity="0.8" d="M152.416 49.7297L157.97 50.7159L150.069 40.8425L142.168 50.7159L147.723 49.7297L150.069 51.0905L152.416 49.7297Z" fill="white"/>
<path d="M150.07 34.9822L151.044 36.9558L153.221 37.272L151.645 38.808L152.017 40.9768L150.07 39.9529L148.122 40.9768L148.494 38.808L146.918 37.272L149.096 36.9558L150.07 34.9822Z" fill="white"/>
<path d="M145.078 47.0791C145.078 47.0791 147.783 53.453 156.723 52.9482C156.723 52.9482 147.296 55.351 145.078 47.0791Z" fill="white"/>
<path d="M146.168 45.7161C146.168 45.7161 150.325 48.0567 153.773 45.4712C153.773 45.4712 150.594 49.8678 146.168 45.7161Z" fill="white"/>
<path d="M157.47 53.8838C157.47 53.8838 152.196 60.1464 144.137 57.5987C144.137 57.5987 151.515 63.2229 157.47 53.8838Z" fill="white"/>
<path d="M148.224 48.1084C148.224 48.441 147.954 48.7107 147.622 48.7107C147.289 48.7107 147.02 48.441 147.02 48.1084C147.02 47.7757 147.289 47.5061 147.622 47.5061C147.954 47.5061 148.224 47.7757 148.224 48.1084Z" fill="white"/>
<path d="M153.822 47.4997C153.822 47.8324 153.552 48.102 153.219 48.102C152.887 48.102 152.617 47.8324 152.617 47.4997C152.617 47.1671 152.887 46.8975 153.219 46.8975C153.552 46.8979 153.822 47.1675 153.822 47.4997Z" fill="white"/>
<path d="M146.771 51.4382C146.771 51.7709 146.501 52.0405 146.169 52.0405C145.836 52.0405 145.566 51.7709 145.566 51.4382C145.566 51.1056 145.836 50.8359 146.169 50.8359C146.501 50.8364 146.771 51.1056 146.771 51.4382Z" fill="white"/>
<path d="M151.173 53.8838C151.173 54.2164 150.904 54.4861 150.571 54.4861C150.238 54.4861 149.969 54.2164 149.969 53.8838C149.969 53.5511 150.238 53.2815 150.571 53.2815C150.904 53.2819 151.173 53.5516 151.173 53.8838Z" fill="white"/>
<path d="M144.74 59.2778C144.74 59.6105 144.47 59.8801 144.137 59.8801C143.805 59.8801 143.535 59.6105 143.535 59.2778C143.535 58.9452 143.805 58.6755 144.137 58.6755C144.47 58.6755 144.74 58.9452 144.74 59.2778Z" fill="white"/>
<path d="M149.935 60.4912C149.935 60.8238 149.665 61.0935 149.333 61.0935C149 61.0935 148.73 60.8238 148.73 60.4912C148.73 60.1586 149 59.8889 149.333 59.8889C149.665 59.8893 149.935 60.1586 149.935 60.4912Z" fill="white"/>
<path d="M154.834 57.9193C154.834 58.2058 154.602 58.438 154.316 58.438C154.029 58.438 153.797 58.2058 153.797 57.9193C153.797 57.6329 154.029 57.4006 154.316 57.4006C154.602 57.4006 154.834 57.6329 154.834 57.9193Z" fill="white"/>
<path d="M73.6075 132.754L58.1721 131.468C53.8066 131.105 50.5625 127.271 50.9263 122.905L52.2123 107.47C52.576 103.105 56.4098 99.8609 60.7753 100.225L76.2103 101.511C80.5757 101.874 83.8198 105.708 83.4561 110.074L82.1701 125.509C81.8068 129.874 77.973 133.118 73.6075 132.754Z" fill="#407BFF"/>
<path opacity="0.5" d="M73.6075 132.754L58.1721 131.468C53.8066 131.105 50.5625 127.271 50.9263 122.905L52.2123 107.47C52.576 103.105 56.4098 99.8609 60.7753 100.225L76.2103 101.511C80.5757 101.874 83.8198 105.708 83.4561 110.074L82.1701 125.509C81.8068 129.874 77.973 133.118 73.6075 132.754Z" fill="white"/>
<path d="M76.5197 129.402H74.754C73.2849 129.402 72.0938 128.211 72.0938 126.742L72.5368 114.638H78.7373L79.18 126.742C79.18 128.211 77.9889 129.402 76.5197 129.402Z" fill="white"/>
<path d="M81.5355 113.536C81.5355 114.965 80.3767 116.124 78.9474 116.124C77.5182 116.124 76.3594 114.965 76.3594 113.536C76.3594 112.107 77.5182 110.948 78.9474 110.948C80.3767 110.948 81.5355 112.107 81.5355 113.536Z" fill="#407BFF"/>
<path opacity="0.8" d="M81.5355 113.536C81.5355 114.965 80.3767 116.124 78.9474 116.124C77.5182 116.124 76.3594 114.965 76.3594 113.536C76.3594 112.107 77.5182 110.948 78.9474 110.948C80.3767 110.948 81.5355 112.107 81.5355 113.536Z" fill="white"/>
<path d="M79.168 111.354V113.209L80.4473 111.93C80.1046 111.61 79.6606 111.404 79.168 111.354Z" fill="#407BFF"/>
<path d="M78.4139 113.522L77.1548 112.263C76.9011 112.62 76.749 113.052 76.7461 113.522H78.4139Z" fill="#407BFF"/>
<path d="M78.7285 111.354C78.2359 111.404 77.7919 111.61 77.4492 111.93L78.7285 113.209V111.354Z" fill="#407BFF"/>
<path d="M78.4153 113.965H76.7891C76.8701 114.376 77.0684 114.742 77.3435 115.036L78.4153 113.965Z" fill="#407BFF"/>
<path d="M79.4844 113.965L80.5558 115.036C80.8309 114.742 81.0291 114.376 81.1102 113.965H79.4844Z" fill="#407BFF"/>
<path d="M79.4844 113.522H81.1526C81.1497 113.052 80.9972 112.62 80.744 112.263L79.4844 113.522Z" fill="#407BFF"/>
<path d="M78.7275 114.278L77.6758 115.33C77.9786 115.545 78.3381 115.678 78.7275 115.717V114.278Z" fill="#407BFF"/>
<path d="M79.168 114.278V115.717C79.5573 115.678 79.9168 115.545 80.2196 115.33L79.168 114.278Z" fill="#407BFF"/>
<g opacity="0.4">
<path d="M79.168 111.354V113.209L80.4473 111.93C80.1046 111.61 79.6606 111.404 79.168 111.354Z" fill="white"/>
<path d="M78.4139 113.522L77.1548 112.263C76.9011 112.62 76.749 113.052 76.7461 113.522H78.4139Z" fill="white"/>
<path d="M78.7285 111.354C78.2359 111.404 77.7919 111.61 77.4492 111.93L78.7285 113.209V111.354Z" fill="white"/>
<path d="M78.4153 113.965H76.7891C76.8701 114.376 77.0684 114.742 77.3435 115.036L78.4153 113.965Z" fill="white"/>
<path d="M79.4844 113.965L80.5558 115.036C80.8309 114.742 81.0291 114.376 81.1102 113.965H79.4844Z" fill="white"/>
<path d="M79.4844 113.522H81.1526C81.1497 113.052 80.9972 112.62 80.744 112.263L79.4844 113.522Z" fill="white"/>
<path d="M78.7275 114.278L77.6758 115.33C77.9786 115.545 78.3381 115.678 78.7275 115.717V114.278Z" fill="white"/>
<path d="M79.168 114.278V115.717C79.5573 115.678 79.9168 115.545 80.2196 115.33L79.168 114.278Z" fill="white"/>
</g>
<path d="M78.3674 116.557H72.9124L72.5391 126.758C72.5395 127.964 73.534 128.959 74.7567 128.959H76.5228C77.7454 128.959 78.7399 127.964 78.7399 126.742L78.3674 116.557Z" fill="#407BFF"/>
<path opacity="0.3" d="M78.3674 116.557H72.9124L72.5391 126.758C72.5395 127.964 73.534 128.959 74.7567 128.959H76.5228C77.7454 128.959 78.7399 127.964 78.7399 126.742L78.3674 116.557Z" fill="white"/>
<path d="M70.1763 111.723C70.8655 111.723 71.5543 111.723 72.2435 111.723C73.1129 111.723 74.0101 111.604 74.3687 112.624C74.8018 113.855 74.8387 115.365 75.0601 116.655C75.1323 117.076 75.7724 116.898 75.7006 116.479C75.5708 115.722 75.441 114.965 75.3112 114.208C75.1932 113.519 75.1865 112.644 74.861 112.008C74.102 110.526 71.5157 111.058 70.1763 111.058C69.7487 111.058 69.7483 111.723 70.1763 111.723Z" fill="#407BFF"/>
<g opacity="0.3">
<path d="M70.1763 111.723C70.8655 111.723 71.5543 111.723 72.2435 111.723C73.1129 111.723 74.0101 111.604 74.3687 112.624C74.8018 113.855 74.8387 115.365 75.0601 116.655C75.1323 117.076 75.7724 116.898 75.7006 116.479C75.5708 115.722 75.441 114.965 75.3112 114.208C75.1932 113.519 75.1865 112.644 74.861 112.008C74.102 110.526 71.5157 111.058 70.1763 111.058C69.7487 111.058 69.7483 111.723 70.1763 111.723Z" fill="white"/>
</g>
<path d="M74.084 118.187L73.3452 117.448C73.1818 117.285 73.1818 117.019 73.3452 116.856L74.084 116.117C74.2474 115.954 74.5128 115.954 74.6762 116.117L75.415 116.856C75.5783 117.019 75.5783 117.285 75.415 117.448L74.6762 118.187C74.5128 118.35 74.2478 118.35 74.084 118.187Z" fill="#407BFF"/>
<path d="M77.4191 119.08L76.4001 118.848C76.1746 118.797 76.0335 118.573 76.0847 118.347L76.3166 117.328C76.3678 117.103 76.5921 116.961 76.8176 117.013L77.8365 117.245C78.0621 117.296 78.2032 117.52 78.152 117.746L77.9201 118.765C77.8689 118.99 77.6446 119.131 77.4191 119.08Z" fill="#407BFF"/>
<path d="M74.9453 120.823L73.9091 120.959C73.6798 120.988 73.4694 120.827 73.4396 120.598L73.3043 119.562C73.2745 119.333 73.4358 119.122 73.6651 119.093L74.7012 118.957C74.9306 118.927 75.141 119.088 75.1708 119.318L75.306 120.354C75.3363 120.583 75.1746 120.793 74.9453 120.823Z" fill="#407BFF"/>
<path d="M76.7664 122.095L75.8618 121.572C75.6614 121.457 75.593 121.201 75.7085 121L76.2309 120.096C76.3464 119.895 76.6026 119.827 76.803 119.942L77.7077 120.465C77.908 120.58 77.9765 120.837 77.861 121.037L77.3385 121.942C77.223 122.142 76.9668 122.21 76.7664 122.095Z" fill="#407BFF"/>
<path opacity="0.8" d="M74.084 118.187L73.3452 117.448C73.1818 117.285 73.1818 117.019 73.3452 116.856L74.084 116.117C74.2474 115.954 74.5128 115.954 74.6762 116.117L75.415 116.856C75.5783 117.019 75.5783 117.285 75.415 117.448L74.6762 118.187C74.5128 118.35 74.2478 118.35 74.084 118.187Z" fill="white"/>
<path opacity="0.8" d="M77.4191 119.08L76.4001 118.848C76.1746 118.797 76.0335 118.573 76.0847 118.347L76.3166 117.328C76.3678 117.103 76.5921 116.961 76.8176 117.013L77.8365 117.245C78.0621 117.296 78.2032 117.52 78.152 117.746L77.9201 118.765C77.8689 118.99 77.6446 119.131 77.4191 119.08Z" fill="white"/>
<path opacity="0.8" d="M74.9453 120.823L73.9091 120.959C73.6798 120.988 73.4694 120.827 73.4396 120.598L73.3043 119.562C73.2745 119.333 73.4358 119.122 73.6651 119.093L74.7012 118.957C74.9306 118.927 75.141 119.088 75.1708 119.318L75.306 120.354C75.3363 120.583 75.1746 120.793 74.9453 120.823Z" fill="white"/>
<path opacity="0.8" d="M76.7664 122.095L75.8618 121.572C75.6614 121.457 75.593 121.201 75.7085 121L76.2309 120.096C76.3464 119.895 76.6026 119.827 76.803 119.942L77.7077 120.465C77.908 120.58 77.9765 120.837 77.861 121.037L77.3385 121.942C77.223 122.142 76.9668 122.21 76.7664 122.095Z" fill="white"/>
<path d="M53.2344 129.402C54.4331 130.535 56.0072 131.288 57.7788 131.436L74.0046 132.788C76.8581 133.025 79.4722 131.64 80.9384 129.402H53.2344Z" fill="#407BFF"/>
<path opacity="0.2" d="M53.2344 129.402C54.4331 130.535 56.0072 131.288 57.7788 131.436L74.0046 132.788C76.8581 133.025 79.4722 131.64 80.9384 129.402H53.2344Z" fill="white"/>
<path d="M63.2021 111.328C64.5542 111.328 65.6503 110.232 65.6503 108.88C65.6503 107.528 64.5542 106.432 63.2021 106.432C61.85 106.432 60.7539 107.528 60.7539 108.88C60.7539 110.232 61.85 111.328 63.2021 111.328Z" fill="white"/>
<path d="M60.9748 106.954C61.0688 106.846 61.1701 106.744 61.2788 106.65C60.7627 106.134 60.2465 105.618 59.7307 105.102C59.5346 104.906 59.2305 105.21 59.4266 105.406C59.9424 105.922 60.4586 106.439 60.9748 106.954Z" fill="white"/>
<path d="M60.2543 108.88C60.2543 108.807 60.2602 108.736 60.2652 108.665C59.5353 108.665 58.8049 108.665 58.0749 108.665C57.7982 108.665 57.7977 109.095 58.0749 109.095C58.8049 109.095 59.5348 109.095 60.2652 109.095C60.2602 109.024 60.2543 108.953 60.2543 108.88Z" fill="white"/>
<path d="M65.433 106.954C65.9492 106.438 66.4653 105.922 66.9811 105.406C67.1772 105.21 66.8732 104.906 66.677 105.102C66.1608 105.618 65.6447 106.134 65.1289 106.65C65.2377 106.744 65.3393 106.846 65.433 106.954Z" fill="white"/>
<path d="M63.2033 105.932C63.276 105.932 63.347 105.937 63.4184 105.942C63.4184 105.213 63.4184 104.482 63.4184 103.752C63.4184 103.475 62.9883 103.475 62.9883 103.752C62.9883 104.482 62.9883 105.213 62.9883 105.942C63.0597 105.937 63.1307 105.932 63.2033 105.932Z" fill="white"/>
<path d="M68.3309 108.665C67.601 108.665 66.871 108.665 66.1406 108.665C66.1457 108.736 66.1515 108.807 66.1515 108.88C66.1515 108.953 66.1457 109.024 66.1406 109.095C66.8706 109.095 67.601 109.095 68.3309 109.095C68.6077 109.095 68.6081 108.665 68.3309 108.665Z" fill="white"/>
<path d="M65.433 110.805C65.3389 110.914 65.2377 111.015 65.1289 111.109C65.6451 111.625 66.1613 112.142 66.677 112.657C66.8727 112.854 67.1772 112.549 66.9811 112.353C66.4653 111.838 65.9492 111.321 65.433 110.805Z" fill="white"/>
<path d="M60.9748 110.805C60.4586 111.321 59.9424 111.838 59.4266 112.353C59.2305 112.549 59.5346 112.854 59.7307 112.657C60.2469 112.141 60.7631 111.625 61.2788 111.109C61.1701 111.016 61.0684 110.914 60.9748 110.805Z" fill="white"/>
<path d="M63.2033 111.828C63.1307 111.828 63.0597 111.822 62.9883 111.817C62.9883 112.547 62.9883 113.277 62.9883 114.007C62.9883 114.284 63.4184 114.284 63.4184 114.007C63.4184 113.277 63.4184 112.547 63.4184 111.817C63.347 111.822 63.276 111.828 63.2033 111.828Z" fill="white"/>
<path d="M62.3395 120.146C62.3349 120.121 62.3298 120.097 62.3298 120.072C62.3298 119.692 62.8867 119.362 63.7066 119.193C63.6864 119.154 63.6755 119.114 63.6755 119.073C63.6755 118.731 64.4034 118.453 65.3013 118.453C66.1993 118.453 66.9271 118.731 66.9271 119.073C66.9271 119.172 66.8646 119.265 66.7566 119.348C67.1766 119.5 67.4635 119.704 67.5475 119.933C68.6626 120.048 69.4837 120.435 69.4837 120.897C69.4837 121.448 68.3094 121.896 66.8604 121.896C66.7629 121.896 66.6672 121.894 66.5727 121.89C66.046 122.346 64.8502 122.666 63.4575 122.666C61.578 122.666 60.0547 122.086 60.0547 121.369C60.0547 120.802 61.0102 120.322 62.3395 120.146Z" fill="#407BFF"/>
<path opacity="0.7" d="M62.3395 120.146C62.3349 120.121 62.3298 120.097 62.3298 120.072C62.3298 119.692 62.8867 119.362 63.7066 119.193C63.6864 119.154 63.6755 119.114 63.6755 119.073C63.6755 118.731 64.4034 118.453 65.3013 118.453C66.1993 118.453 66.9271 118.731 66.9271 119.073C66.9271 119.172 66.8646 119.265 66.7566 119.348C67.1766 119.5 67.4635 119.704 67.5475 119.933C68.6626 120.048 69.4837 120.435 69.4837 120.897C69.4837 121.448 68.3094 121.896 66.8604 121.896C66.7629 121.896 66.6672 121.894 66.5727 121.89C66.046 122.346 64.8502 122.666 63.4575 122.666C61.578 122.666 60.0547 122.086 60.0547 121.369C60.0547 120.802 61.0102 120.322 62.3395 120.146Z" fill="white"/>
<path d="M62.2511 117.597C62.2578 117.563 62.2649 117.529 62.2649 117.494C62.2649 116.959 61.4812 116.495 60.3279 116.256C60.356 116.202 60.3716 116.146 60.3716 116.088C60.3716 115.606 59.3476 115.216 58.0838 115.216C56.8205 115.216 55.7965 115.606 55.7965 116.088C55.7965 116.227 55.8843 116.358 56.0363 116.474C55.4458 116.688 55.0422 116.975 54.9233 117.297C53.3546 117.459 52.1992 118.004 52.1992 118.653C52.1992 119.429 53.8515 120.059 55.8898 120.059C56.0267 120.059 56.1615 120.056 56.2942 120.05C57.0351 120.693 58.7172 121.142 60.6773 121.142C63.3217 121.142 65.4649 120.325 65.4649 119.318C65.4653 118.521 64.1209 117.845 62.2511 117.597Z" fill="#407BFF"/>
<path opacity="0.9" d="M62.2511 117.597C62.2578 117.563 62.2649 117.529 62.2649 117.494C62.2649 116.959 61.4812 116.495 60.3279 116.256C60.356 116.202 60.3716 116.146 60.3716 116.088C60.3716 115.606 59.3476 115.216 58.0838 115.216C56.8205 115.216 55.7965 115.606 55.7965 116.088C55.7965 116.227 55.8843 116.358 56.0363 116.474C55.4458 116.688 55.0422 116.975 54.9233 117.297C53.3546 117.459 52.1992 118.004 52.1992 118.653C52.1992 119.429 53.8515 120.059 55.8898 120.059C56.0267 120.059 56.1615 120.056 56.2942 120.05C57.0351 120.693 58.7172 121.142 60.6773 121.142C63.3217 121.142 65.4649 120.325 65.4649 119.318C65.4653 118.521 64.1209 117.845 62.2511 117.597Z" fill="white"/>
<path d="M125.517 164.393L125.947 167.567L122.934 168.344L122.207 164.912L125.517 164.393Z" fill="#FAB27B"/>
<path d="M121.247 168.981C120.809 169.067 120.34 169.077 120.158 168.917C120.061 168.822 120.035 168.676 120.093 168.553C120.133 168.445 120.213 168.356 120.317 168.305C120.874 168.027 122.242 168.487 122.302 168.507C122.336 168.518 122.359 168.55 122.36 168.586C122.36 168.622 122.338 168.654 122.306 168.668C121.962 168.802 121.608 168.907 121.247 168.981ZM120.551 168.406C120.497 168.416 120.444 168.433 120.396 168.458C120.329 168.484 120.277 168.539 120.255 168.607C120.213 168.723 120.245 168.769 120.275 168.793C120.484 168.99 121.374 168.82 122.013 168.609C121.543 168.45 121.047 168.381 120.551 168.406Z" fill="#407BFF"/>
<path d="M122.293 168.669C122.282 168.674 122.269 168.676 122.258 168.672C121.799 168.569 120.802 167.972 120.798 167.561C120.788 167.464 120.837 167.334 121.062 167.265C121.226 167.214 121.404 167.232 121.555 167.315C122.077 167.596 122.358 168.528 122.372 168.571C122.38 168.601 122.372 168.632 122.349 168.654C122.333 168.666 122.313 168.671 122.293 168.669ZM121.149 167.412L121.1 167.417C120.953 167.46 120.955 167.522 120.953 167.544C120.978 167.788 121.652 168.276 122.14 168.448C122.019 168.056 121.781 167.711 121.458 167.46C121.364 167.407 121.255 167.39 121.149 167.412Z" fill="#407BFF"/>
<path d="M122.568 168.103L126.415 167.343C126.56 167.314 126.706 167.39 126.765 167.525L128.079 170.517C128.198 170.782 128.079 171.092 127.815 171.211C127.781 171.226 127.745 171.237 127.709 171.245C126.317 171.495 125.069 171.663 123.343 172.006C121.306 172.41 121.871 172.551 119.483 173.059C118.043 173.364 117.455 171.775 118.051 171.573C120.782 170.667 120.906 169.764 121.788 168.548C121.985 168.309 122.263 168.15 122.568 168.103Z" fill="#263238"/>
<path opacity="0.2" d="M122.6 166.764L125.77 166.253L125.55 164.635L122.316 165.423L122.6 166.764Z" fill="black"/>
<path d="M91.9505 164.209L91.0244 167.276L87.9609 166.731L88.7241 163.308L91.9505 164.209Z" fill="#FAB27B"/>
<path d="M86.1613 166.61C85.7266 166.507 85.2966 166.32 85.197 166.1C85.1483 165.973 85.1853 165.829 85.289 165.741C85.3701 165.659 85.4801 165.612 85.5956 165.609C86.2172 165.587 87.2714 166.573 87.3176 166.617C87.3436 166.641 87.3516 166.68 87.3373 166.712C87.3226 166.745 87.2899 166.765 87.2542 166.764C86.8863 166.745 86.5204 166.693 86.1613 166.61ZM85.767 165.798C85.7136 165.785 85.6586 165.779 85.6036 165.781C85.5318 165.776 85.462 165.805 85.4137 165.858C85.3276 165.947 85.3377 166.002 85.3545 166.035C85.4625 166.301 86.3428 166.516 87.0123 166.59C86.6511 166.249 86.2285 165.981 85.767 165.798Z" fill="#407BFF"/>
<path d="M87.2394 166.76C87.2272 166.761 87.2151 166.757 87.2054 166.749C86.8316 166.465 86.1714 165.507 86.3394 165.132C86.3704 165.039 86.4691 164.941 86.7027 164.972C86.8732 164.994 87.0277 165.084 87.1302 165.223C87.4885 165.694 87.3579 166.659 87.3524 166.704C87.3474 166.734 87.3264 166.76 87.2974 166.77C87.2772 166.774 87.2566 166.771 87.2394 166.76ZM86.7207 165.142L86.6745 165.126C86.5225 165.104 86.4985 165.161 86.4876 165.181C86.4099 165.413 86.8198 166.137 87.1924 166.496C87.2449 166.09 87.1718 165.677 86.9824 165.314C86.9185 165.227 86.8257 165.166 86.7207 165.142Z" fill="#407BFF"/>
<path d="M87.7257 166.36L91.541 167.265C91.6846 167.3 91.7858 167.429 91.7842 167.577L91.7371 170.844C91.735 171.134 91.4986 171.368 91.2083 171.366C91.1714 171.365 91.134 171.361 91.0979 171.353C89.7283 171.003 88.5233 170.637 86.8105 170.233C84.7899 169.754 85.2452 170.117 82.8613 169.587C81.4253 169.266 81.5496 167.577 82.1754 167.641C85.036 167.951 85.5236 167.181 86.8311 166.441C87.1096 166.305 87.4279 166.276 87.7257 166.36Z" fill="#263238"/>
<path opacity="0.2" d="M91.5191 165.626L91.9236 164.287L89.2725 163.462L88.7207 163.308L88.4141 164.684L91.5191 165.626Z" fill="black"/>
<path d="M118.868 99.5699L104.009 96.1523L101.464 105.846L93.3324 128.89L87.8203 163.506L93.3324 164.94L101.27 130.985L110.862 109.061L118.868 109.853V99.5699Z" fill="#263238"/>
<path opacity="0.3" d="M109.63 111.872L108.86 107.059L108.121 115.321L109.63 111.872Z" fill="black"/>
<path d="M87.8186 162.578L93.6776 164.08L93.4046 165.292L87.5586 163.616L87.8186 162.578Z" fill="#407BFF"/>
<path d="M120.819 129.836L118.494 105.41L117.115 101.44L113.498 101.582L108.348 103.841L112.709 131.105L120.418 165.618L126.479 164.268L120.819 129.836Z" fill="#263238"/>
<path d="M120.152 165.446L126.627 164.026L126.79 164.94L120.316 166.368L120.152 165.446Z" fill="#407BFF"/>
<path d="M118.881 93.2444C119.248 89.065 120.47 77.0026 120.47 77.0026C120.47 77.0026 119.221 76.2726 116.969 75.6279C115.52 76.3344 112.284 77.8464 111.207 77.8098C110.244 77.7775 109.641 75.8678 109.357 74.6699C107.943 74.6955 106.419 74.827 104.79 75.1122L103.46 79.3823C103.46 79.3823 100.8 90.1625 102.13 101.432C102.13 101.432 105.926 104.162 113.503 104.162C116.496 104.162 119.14 103.322 119.14 103.322C119.14 103.322 118.651 95.8631 118.881 93.2444Z" fill="#407BFF"/>
<path d="M115.749 75.3137C114.728 74.1238 115.71 69.4778 115.71 69.4778L112.08 70.8079C112.08 70.8079 111.7 74.0272 110.79 74.6807C110.433 74.9374 109.898 74.6618 109.434 74.669L110.393 77.7308L112.784 77.9656L117.166 75.6862C116.732 75.5573 116.091 75.7123 115.749 75.3137Z" fill="#DD8C6A"/>
<path opacity="0.1" d="M111.637 73.0314C114.147 72.7042 115.188 71.1217 115.606 70.0305C115.666 69.689 115.71 69.4778 115.71 69.4778L112.08 70.8079C112.08 70.8079 111.942 71.9642 111.637 73.0314Z" fill="black"/>
<path d="M109.869 74.4446L111.428 77.8852L108.772 79.4312L108.703 74.4689L109.869 74.4446Z" fill="#407BFF"/>
<path opacity="0.5" d="M109.869 74.4446L111.428 77.8852L108.772 79.4312L108.703 74.4689L109.869 74.4446Z" fill="white"/>
<path d="M116.804 75.2727L110.977 77.7364L112.978 80.3652L117.844 75.7427L116.804 75.2727Z" fill="#407BFF"/>
<path opacity="0.5" d="M116.804 75.2727L110.977 77.7364L112.978 80.3652L117.844 75.7427L116.804 75.2727Z" fill="white"/>
<path d="M99.2587 78.5425L92.3287 82.1125C92.3287 82.1125 89.3887 78.8336 87.0086 74.663C87.0086 74.663 87.4286 72.1724 86.6587 71.4727C85.8889 70.7725 84.6986 68.5129 84.6986 68.5129L82.9484 69.0577L81.8984 70.5625L83.1584 72.8725L85.0484 75.2728C85.0484 75.2728 87.7083 86.2424 91.6983 86.2424C95.6883 86.2424 101.708 82.1823 101.708 82.1823L99.2587 78.5425Z" fill="#DD8C6A"/>
<path d="M106.319 74.8853C106.319 74.8853 104.089 74.4128 97.8594 78.3326L100.729 83.6528L104.579 81.7628L107.519 77.1478L106.319 74.8853Z" fill="#407BFF"/>
<path d="M96.668 78.5426L97.8582 77.9651L101.078 83.6527L100.028 84.2915L96.668 78.5426Z" fill="#407BFF"/>
<path opacity="0.5" d="M96.668 78.5426L97.8582 77.9651L101.078 83.6527L100.028 84.2915L96.668 78.5426Z" fill="white"/>
<path opacity="0.2" d="M103.458 79.3824L103.523 79.1729C102.56 80.2065 101.923 82.4867 101.754 83.1486L102.813 82.629C103.16 80.5966 103.458 79.3824 103.458 79.3824Z" fill="black"/>
<path d="M124.376 80.9953L127.679 84.0504C127.679 84.0504 130.759 79.8832 133.069 77.1477C133.069 77.1477 132.579 75.2527 133.629 74.1325L134.188 72.4L135.798 71.9624L137.898 74.8671L135.098 78.3325C135.098 78.3325 130.058 88.4125 128.378 88.6225C126.698 88.8325 122.039 84.2911 122.039 84.2911L124.376 80.9953Z" fill="#DD8C6A"/>
<path d="M118.138 76.1888C118.138 76.1888 120.416 76.1153 125.86 81.0688L122.1 85.8017L118.642 83.2645L116.559 78.2048L118.138 76.1888Z" fill="#407BFF"/>
<path d="M126.993 81.4847L125.923 80.7073L121.754 85.7401L122.675 86.5537L126.993 81.4847Z" fill="#407BFF"/>
<path opacity="0.5" d="M126.993 81.4847L125.923 80.7073L121.754 85.7401L122.675 86.5537L126.993 81.4847Z" fill="white"/>
<path opacity="0.2" d="M120.061 81.0352C119.968 81.9705 119.864 83.01 119.758 84.0844L120.987 84.9865C120.933 83.5766 120.405 81.955 120.061 81.0352Z" fill="black"/>
<path d="M111.682 59.273C111.682 59.273 107.969 59.2251 110.417 62.8434L113.262 59.8232L111.682 59.273Z" fill="#263238"/>
<path d="M121.997 61.7774C122.073 61.9643 122.106 62.1777 122.096 62.3784C122.067 62.9501 121.627 63.2558 121.11 63.3915C120.992 63.4226 121.042 63.6048 121.16 63.5738C121.69 63.4347 122.163 63.129 122.265 62.5574C122.314 62.2877 122.283 61.982 122.179 61.727C122.134 61.6161 121.951 61.6644 121.997 61.7774Z" fill="#263238"/>
<path d="M118.538 65.3335C117.26 68.4411 116.783 69.7784 114.624 70.8561C111.376 72.4806 107.841 70.2257 108.165 66.8027C108.463 63.7194 110.513 59.1414 114.047 58.9625C116.572 58.8084 118.744 60.7307 118.898 63.2562C118.941 63.9668 118.818 64.6783 118.538 65.3335Z" fill="#DD8C6A"/>
<path d="M113.2 64.4326C113.109 64.6896 112.9 64.853 112.733 64.7976C112.566 64.7426 112.498 64.4809 112.584 64.223C112.671 63.9651 112.884 63.8026 113.051 63.8576C113.219 63.9131 113.27 64.1827 113.2 64.4326Z" fill="#263238"/>
<path d="M110.282 63.4396C110.19 63.7017 109.982 63.86 109.815 63.8046C109.648 63.7496 109.58 63.4879 109.666 63.23C109.753 62.9721 109.966 62.8096 110.133 62.8697C110.299 62.9301 110.368 63.1817 110.282 63.4396Z" fill="#263238"/>
<path d="M111.021 64.2158C110.587 64.7261 110.086 65.1747 109.531 65.5489C109.735 65.829 110.05 66.0071 110.396 66.0369L111.021 64.2158Z" fill="#C13B37"/>
<path d="M114.574 64.2478C114.505 64.2373 114.451 64.1819 114.442 64.1126C114.302 63.6036 113.957 63.176 113.488 62.9328C113.408 62.8925 113.376 62.7955 113.415 62.7153C113.455 62.6371 113.549 62.6056 113.627 62.6447C113.629 62.6455 113.63 62.6464 113.632 62.6476C114.197 62.9357 114.609 63.4557 114.759 64.0719C114.771 64.1584 114.71 64.2378 114.624 64.2491C114.607 64.2533 114.591 64.2529 114.574 64.2478Z" fill="#263238"/>
<path d="M109.866 61.7945C109.809 61.784 109.761 61.7441 109.74 61.6895C109.71 61.6063 109.752 61.5144 109.835 61.4824C110.319 61.2825 110.872 61.3371 111.307 61.6278C111.377 61.6752 111.395 61.7706 111.347 61.8403C111.345 61.8436 111.342 61.847 111.34 61.8504C111.288 61.9205 111.189 61.9356 111.119 61.8844C111.118 61.884 111.118 61.8835 111.117 61.8827C110.769 61.6681 110.34 61.6324 109.962 61.7861C109.932 61.7987 109.898 61.8016 109.866 61.7945Z" fill="#263238"/>
<path d="M110.555 67.4231C110.555 67.4231 111.797 67.7381 112.711 67.4231C112.711 67.4231 112.644 68.8267 110.883 68.5386C110.8 68.5252 110.555 68.4697 110.555 68.4697C110.555 68.4697 110.699 68.0661 110.555 67.4231Z" fill="#263238"/>
<path d="M110.844 67.4815V67.8036C110.844 67.8036 111.652 68.1153 112.604 67.8368C112.701 67.6121 112.711 67.4231 112.711 67.4231C112.068 67.6444 111.265 67.5546 110.844 67.4815Z" fill="white"/>
<path d="M112.403 68.1539C112.263 68.1308 112.11 68.1182 111.949 68.1182C111.351 68.1182 110.862 68.2937 110.789 68.5201C110.827 68.5281 110.862 68.5348 110.884 68.5386C111.703 68.6726 112.153 68.4403 112.403 68.1539Z" fill="#C13B37"/>
<path d="M117.166 63.1416C117.166 63.1416 116.75 63.6078 117.405 64.1026C117.405 64.1026 115.531 65.8557 116.259 67.7541C116.987 69.6525 118.781 67.7961 119.306 67.2312C119.83 66.6663 122.445 63.3865 120.324 61.3314C118.203 59.2764 113.131 57.887 112.93 55.3855C112.93 55.3855 112.094 57.0537 113.043 57.601C113.043 57.601 110.808 58.6245 110.485 56.9924C110.485 56.9924 109.328 58.7468 110.897 58.9101C110.897 58.9101 110.006 60.1525 111.605 60.1785C113.203 60.2054 116.08 61.1836 117.166 63.1416Z" fill="#263238"/>
<path d="M118.568 68.0696C118.174 68.5694 117.599 68.8936 116.967 68.9717C116.127 69.0629 115.84 68.2775 116.187 67.55C116.505 66.8986 117.323 66.0645 118.114 66.2951C118.684 66.4811 118.995 67.0935 118.809 67.663C118.759 67.8146 118.677 67.9532 118.568 68.0696Z" fill="#DD8C6A"/>
</g>
<defs>
<clipPath id="clip0_453_8578">
<rect width="210" height="210" fill="white" transform="translate(0.5)"/>
</clipPath>
</defs>
</svg>
