<?xml version="1.0" standalone="no"?>
<!DOCTYPE svg PUBLIC "-//W3C//DTD SVG 20010904//EN"
 "http://www.w3.org/TR/2001/REC-SVG-20010904/DTD/svg10.dtd">
<svg version="1.0" xmlns="http://www.w3.org/2000/svg"
 width="14775.000000pt" height="3205.000000pt" viewBox="0 0 14775.000000 3205.000000"
 preserveAspectRatio="xMidYMid meet">

<g transform="translate(0.000000,3205.000000) scale(0.100000,-0.100000)"
fill="#000000" stroke="none">
<path d="M47925 23274 c-430 -47 -837 -184 -1150 -388 -204 -133 -492 -400
-663 -614 -104 -130 -239 -335 -319 -482 -211 -391 -374 -954 -438 -1510 -33
-292 -35 -516 -34 -3730 l0 -3215 1825 -960 c1003 -528 1829 -961 1834 -963 7
-3 10 1409 10 4067 0 3294 2 4071 13 4071 7 0 816 -373 1797 -829 l1785 -829
9 211 c10 240 -4 692 -29 927 -45 418 -134 837 -260 1215 -316 950 -930 1777
-1757 2363 -546 387 -1203 620 -1893 672 -192 14 -573 11 -730 -6z"/>
<path d="M104270 23005 l0 -235 355 0 355 0 0 -1075 0 -1075 245 0 245 0 2
1073 3 1072 358 3 357 2 0 235 0 235 -960 0 -960 0 0 -235z"/>
<path d="M106480 21930 l0 -1310 220 0 220 0 0 905 c0 498 3 905 8 905 4 0 99
-294 212 -653 112 -358 220 -700 238 -759 l34 -108 216 0 217 0 229 748 c126
411 235 761 242 777 10 25 13 -136 13 -892 l1 -923 225 0 225 0 0 1310 0 1310
-326 -2 -327 -3 -246 -872 c-135 -479 -249 -874 -251 -877 -3 -3 -75 239 -159
537 -84 298 -196 694 -248 880 l-96 337 -323 0 -324 0 0 -1310z"/>
<path d="M99950 19654 c-857 -34 -1580 -275 -2185 -729 -834 -626 -1343 -1593
-1479 -2810 -29 -261 -36 -439 -36 -1015 0 -708 14 -933 81 -1333 190 -1128
724 -2021 1539 -2573 489 -331 1025 -521 1695 -599 189 -22 709 -31 930 -16
766 52 1372 229 1910 556 813 495 1340 1330 1444 2290 6 55 13 121 16 148 l6
47 -959 0 -959 0 -11 -107 c-27 -246 -90 -479 -183 -672 -229 -482 -651 -748
-1304 -823 -164 -18 -543 -16 -688 6 -231 33 -448 101 -602 188 -588 332 -896
1021 -965 2165 -13 220 -13 1247 0 1463 37 608 134 1042 315 1415 262 541 679
848 1267 935 226 34 610 27 863 -16 447 -74 801 -278 1001 -576 170 -254 261
-546 309 -990 l6 -58 961 0 960 0 -6 58 c-93 809 -427 1537 -940 2047 -463
461 -1048 761 -1761 904 -339 68 -864 109 -1225 95z"/>
<path d="M57158 18687 l-1828 -962 0 -4533 0 -4533 123 65 c67 36 892 470
1832 965 l1710 900 3 4530 c1 2492 -1 4531 -5 4531 -5 0 -830 -434 -1835 -963z"/>
<path d="M62100 15095 l0 -4525 960 0 960 0 0 1318 0 1317 -95 2060 c-52 1132
-92 2061 -90 2063 6 6 -60 180 1286 -3410 l1254 -3348 660 0 660 0 1259 3358
c693 1846 1265 3368 1272 3382 8 16 13 19 14 9 0 -8 -43 -947 -95 -2085 l-95
-2069 0 -1297 0 -1298 965 0 965 0 0 4525 0 4525 -1264 0 -1264 0 -35 -97
c-20 -54 -561 -1542 -1202 -3308 -641 -1765 -1168 -3216 -1170 -3224 -3 -8 -8
-11 -11 -8 -3 3 -547 1496 -1209 3318 l-1204 3314 -1260 3 -1261 2 0 -4525z"/>
<path d="M73600 16613 c0 -1880 4 -3064 10 -3158 40 -600 191 -1082 471 -1500
113 -169 215 -290 381 -451 556 -539 1350 -851 2353 -924 180 -13 610 -13 790
0 793 58 1453 267 1980 628 158 108 243 179 391 326 155 156 226 242 348 424
288 428 440 914 476 1522 6 102 10 1307 10 3153 l0 2987 -965 0 -965 0 -3
-3092 c-2 -2409 -6 -3111 -15 -3173 -48 -303 -128 -544 -240 -719 -52 -81
-152 -204 -204 -251 -208 -187 -476 -304 -833 -362 -140 -22 -571 -25 -710 -5
-504 76 -842 263 -1058 588 -116 174 -186 349 -232 578 -50 253 -48 110 -52
3369 l-4 3067 -964 0 -965 0 0 -3007z"/>
<path d="M82410 15095 l0 -4525 965 0 965 0 0 3032 c0 2125 3 3029 11 3021 5
-5 856 -1369 1889 -3029 l1879 -3019 970 -3 971 -2 0 4525 0 4525 -965 0 -965
0 -2 -3035 -3 -3034 -1890 3034 -1890 3035 -967 0 -968 0 0 -4525z"/>
<path d="M50306 14728 c-4 -1525 -6 -3052 -4 -3393 l3 -619 1830 -963 c1007
-530 1833 -963 1838 -963 4 0 6 1526 5 3392 l-3 3392 -1830 963 c-1006 530
-1830 963 -1831 963 -1 0 -5 -1248 -8 -2772z"/>
<path d="M91520 15110 l0 -910 1635 0 1635 0 0 910 0 910 -1635 0 -1635 0 0
-910z"/>
</g>
</svg>
