<svg width="1602" height="509" viewBox="0 0 1602 509" fill="none" xmlns="http://www.w3.org/2000/svg">
<path d="M242.671 285.333V265.013L154.468 218.588V285.333H154.444V381.598L242.694 428.023V285.333H242.671Z" fill="#007AFF"/>
<path d="M275.023 213.411V222.705V322.408V431.026L363.226 384.601V322.408V222.705V166.985L275.023 213.411Z" fill="#007AFF"/>
<path d="M209.528 193.454C209.226 180.5 207.152 167.648 203.363 155.256C195.372 129.567 178.526 107.546 155.824 93.1109C142.231 84.808 126.696 80.221 110.774 79.8093C95.8122 79.0269 80.2344 81.9907 67.9286 90.7399C54.9185 100.323 45.3275 113.828 40.5667 129.269C38.4958 135.604 36.9961 142.111 36.0854 148.712C35.4139 153.506 35.0259 158.336 34.9236 163.176C34.9236 165.049 34.9236 166.946 34.9236 168.842V318.74L123.127 365.189V169.411L209.291 209.435C209.599 204.1 209.694 198.765 209.528 193.454Z" fill="#007AFF"/>
<path d="M1549.8 327.249H1601.05C1600.02 345.342 1595.39 361.405 1587.17 375.437C1579.05 389.469 1567.68 400.424 1553.05 408.302C1538.54 416.18 1521.06 420.118 1500.6 420.118C1484.6 420.118 1470.26 417.164 1457.58 411.256C1444.89 405.225 1434.03 396.609 1425.01 385.408C1416.09 374.207 1409.29 360.667 1404.61 344.789C1399.92 328.91 1397.58 311.124 1397.58 291.43V272.782C1397.58 253.088 1399.98 235.302 1404.78 219.424C1409.69 203.422 1416.66 189.821 1425.69 178.62C1434.83 167.419 1445.75 158.803 1458.43 152.772C1471.12 146.74 1485.29 143.725 1500.94 143.725C1521.74 143.725 1539.28 147.787 1553.57 155.91C1567.97 164.034 1579.11 175.235 1587 189.513C1594.99 203.791 1599.79 220.039 1601.39 238.256H1549.97C1549.4 227.424 1547.4 218.254 1543.97 210.746C1540.54 203.114 1535.34 197.391 1528.37 193.575C1521.51 189.636 1512.37 187.667 1500.94 187.667C1492.37 187.667 1484.89 189.39 1478.49 192.837C1472.09 196.283 1466.72 201.514 1462.38 208.53C1458.03 215.546 1454.78 224.409 1452.6 235.117C1450.55 245.703 1449.52 258.135 1449.52 272.413V291.43C1449.52 305.339 1450.49 317.586 1452.43 328.172C1454.38 338.634 1457.35 347.497 1461.35 354.759C1465.46 361.898 1470.72 367.314 1477.12 371.006C1483.63 374.576 1491.46 376.361 1500.6 376.361C1511.34 376.361 1520.2 374.514 1527.17 370.822C1534.14 367.129 1539.46 361.652 1543.11 354.389C1546.88 347.127 1549.11 338.08 1549.8 327.249Z" fill="#007AFF"/>
<path d="M1358.76 254.281V309.56H1271.41V254.281H1358.76Z" fill="#007AFF"/>
<path d="M1232.6 144.755V420.119H1180.88L1080.03 235.534V420.119H1028.32V144.755H1080.03L1181.05 329.528V144.755H1232.6Z" fill="#007AFF"/>
<path d="M934.183 144.755H985.727V324.226C985.727 345.121 981.59 362.72 973.315 377.023C965.155 391.326 953.835 402.084 939.354 409.298C924.988 416.512 908.439 420.119 889.706 420.119C870.973 420.119 854.308 416.512 839.713 409.298C825.232 402.084 813.854 391.326 805.58 377.023C797.42 362.72 793.34 345.121 793.34 324.226V144.755H845.057V324.226C845.057 336.415 846.838 346.365 850.401 354.076C853.964 361.787 859.078 367.446 865.744 371.053C872.524 374.66 880.512 376.463 889.706 376.463C899.13 376.463 907.117 374.66 913.668 371.053C920.334 367.446 925.391 361.787 928.838 354.076C932.401 346.365 934.183 336.415 934.183 324.226V144.755Z" fill="#007AFF"/>
<path d="M509.948 144.755H553.735L618.209 346.928L682.683 144.755H726.47L635.793 420.119H600.625L509.948 144.755ZM486.331 144.755H529.946L537.875 341.821V420.119H486.331V144.755ZM706.473 144.755H750.26V420.119H698.543V341.821L706.473 144.755Z" fill="#007AFF"/>
</svg>
