<svg width="719" height="855" viewBox="0 0 719 855" fill="none" xmlns="http://www.w3.org/2000/svg">
<rect y="1.80322" width="716.339" height="852.301" rx="36" transform="rotate(-0.144228 0 1.80322)" fill="#FBFBFB"/>
<path d="M186.684 123.298V105.116H192.828C194.248 105.116 195.414 105.359 196.326 105.844C197.237 106.323 197.912 106.983 198.35 107.824C198.788 108.664 199.007 109.62 199.007 110.691C199.007 111.763 198.788 112.713 198.35 113.541C197.912 114.37 197.24 115.021 196.335 115.494C195.429 115.962 194.272 116.196 192.863 116.196H187.892V114.207H192.792C193.763 114.207 194.544 114.065 195.136 113.781C195.734 113.497 196.166 113.094 196.432 112.573C196.704 112.047 196.841 111.419 196.841 110.691C196.841 109.963 196.704 109.327 196.432 108.783C196.16 108.238 195.725 107.818 195.127 107.522C194.529 107.22 193.739 107.069 192.757 107.069H188.886V123.298H186.684ZM195.243 115.13L199.717 123.298H197.16L192.757 115.13H195.243ZM218.016 114.207C218.016 116.125 217.67 117.782 216.978 119.179C216.285 120.575 215.335 121.652 214.128 122.41C212.921 123.168 211.542 123.546 209.991 123.546C208.44 123.546 207.061 123.168 205.854 122.41C204.646 121.652 203.697 120.575 203.004 119.179C202.312 117.782 201.965 116.125 201.965 114.207C201.965 112.289 202.312 110.632 203.004 109.235C203.697 107.839 204.646 106.761 205.854 106.004C207.061 105.246 208.44 104.867 209.991 104.867C211.542 104.867 212.921 105.246 214.128 106.004C215.335 106.761 216.285 107.839 216.978 109.235C217.67 110.632 218.016 112.289 218.016 114.207ZM215.886 114.207C215.886 112.633 215.622 111.304 215.096 110.221C214.575 109.138 213.868 108.318 212.974 107.762C212.086 107.205 211.092 106.927 209.991 106.927C208.89 106.927 207.893 107.205 206.999 107.762C206.111 108.318 205.404 109.138 204.877 110.221C204.356 111.304 204.096 112.633 204.096 114.207C204.096 115.781 204.356 117.11 204.877 118.193C205.404 119.276 206.111 120.096 206.999 120.652C207.893 121.209 208.89 121.487 209.991 121.487C211.092 121.487 212.086 121.209 212.974 120.652C213.868 120.096 214.575 119.276 215.096 118.193C215.622 117.11 215.886 115.781 215.886 114.207ZM221.719 123.298V105.116H223.92V121.345H232.372V123.298H221.719ZM235.781 123.298V105.116H246.754V107.069H237.983V113.213H246.186V115.166H237.983V121.345H246.896V123.298H235.781ZM258.499 123.298H256.191L262.867 105.116H265.14L271.816 123.298H269.508L264.075 107.992H263.933L258.499 123.298ZM259.352 116.196H268.656V118.149H259.352V116.196ZM288.424 110.798H286.223C286.093 110.165 285.865 109.608 285.539 109.129C285.22 108.649 284.829 108.247 284.367 107.921C283.912 107.59 283.405 107.341 282.849 107.176C282.293 107.01 281.713 106.927 281.109 106.927C280.008 106.927 279.011 107.205 278.117 107.762C277.229 108.318 276.522 109.138 275.995 110.221C275.475 111.304 275.214 112.633 275.214 114.207C275.214 115.781 275.475 117.11 275.995 118.193C276.522 119.276 277.229 120.096 278.117 120.652C279.011 121.209 280.008 121.487 281.109 121.487C281.713 121.487 282.293 121.404 282.849 121.238C283.405 121.072 283.912 120.827 284.367 120.501C284.829 120.17 285.22 119.764 285.539 119.285C285.865 118.8 286.093 118.243 286.223 117.616H288.424C288.259 118.545 287.957 119.377 287.519 120.111C287.081 120.845 286.536 121.469 285.885 121.984C285.234 122.493 284.503 122.881 283.693 123.147C282.888 123.413 282.026 123.546 281.109 123.546C279.558 123.546 278.179 123.168 276.972 122.41C275.765 121.652 274.815 120.575 274.122 119.179C273.43 117.782 273.084 116.125 273.084 114.207C273.084 112.289 273.43 110.632 274.122 109.235C274.815 107.839 275.765 106.761 276.972 106.004C278.179 105.246 279.558 104.867 281.109 104.867C282.026 104.867 282.888 105.001 283.693 105.267C284.503 105.533 285.234 105.924 285.885 106.439C286.536 106.948 287.081 107.569 287.519 108.303C287.957 109.031 288.259 109.863 288.424 110.798ZM306.613 110.798H304.411C304.281 110.165 304.053 109.608 303.728 109.129C303.408 108.649 303.017 108.247 302.556 107.921C302.1 107.59 301.594 107.341 301.038 107.176C300.481 107.01 299.901 106.927 299.298 106.927C298.197 106.927 297.199 107.205 296.306 107.762C295.418 108.318 294.711 109.138 294.184 110.221C293.663 111.304 293.403 112.633 293.403 114.207C293.403 115.781 293.663 117.11 294.184 118.193C294.711 119.276 295.418 120.096 296.306 120.652C297.199 121.209 298.197 121.487 299.298 121.487C299.901 121.487 300.481 121.404 301.038 121.238C301.594 121.072 302.1 120.827 302.556 120.501C303.017 120.17 303.408 119.764 303.728 119.285C304.053 118.8 304.281 118.243 304.411 117.616H306.613C306.447 118.545 306.145 119.377 305.707 120.111C305.269 120.845 304.725 121.469 304.074 121.984C303.423 122.493 302.692 122.881 301.881 123.147C301.076 123.413 300.215 123.546 299.298 123.546C297.747 123.546 296.368 123.168 295.16 122.41C293.953 121.652 293.003 120.575 292.311 119.179C291.618 117.782 291.272 116.125 291.272 114.207C291.272 112.289 291.618 110.632 292.311 109.235C293.003 107.839 293.953 106.761 295.16 106.004C296.368 105.246 297.747 104.867 299.298 104.867C300.215 104.867 301.076 105.001 301.881 105.267C302.692 105.533 303.423 105.924 304.074 106.439C304.725 106.948 305.269 107.569 305.707 108.303C306.145 109.031 306.447 109.863 306.613 110.798ZM310.171 123.298V105.116H321.144V107.069H312.372V113.213H320.576V115.166H312.372V121.345H321.286V123.298H310.171ZM335.055 109.661C334.949 108.762 334.517 108.063 333.759 107.566C333.002 107.069 332.072 106.821 330.971 106.821C330.167 106.821 329.462 106.951 328.859 107.211C328.261 107.472 327.793 107.83 327.456 108.285C327.124 108.741 326.959 109.259 326.959 109.839C326.959 110.324 327.074 110.742 327.305 111.091C327.542 111.434 327.844 111.721 328.21 111.952C328.577 112.177 328.962 112.363 329.365 112.511C329.767 112.653 330.137 112.769 330.474 112.858L332.321 113.355C332.794 113.479 333.321 113.651 333.901 113.87C334.487 114.089 335.046 114.387 335.579 114.766C336.118 115.139 336.562 115.619 336.911 116.204C337.26 116.79 337.435 117.509 337.435 118.362C337.435 119.344 337.177 120.232 336.662 121.025C336.153 121.818 335.407 122.449 334.425 122.916C333.448 123.384 332.262 123.617 330.865 123.617C329.563 123.617 328.435 123.407 327.482 122.987C326.536 122.567 325.79 121.981 325.245 121.229C324.707 120.478 324.402 119.605 324.331 118.61H326.604C326.663 119.297 326.894 119.865 327.296 120.315C327.704 120.759 328.219 121.09 328.841 121.309C329.468 121.522 330.143 121.629 330.865 121.629C331.705 121.629 332.46 121.493 333.129 121.22C333.798 120.942 334.327 120.558 334.718 120.066C335.109 119.569 335.304 118.989 335.304 118.326C335.304 117.723 335.135 117.231 334.798 116.853C334.46 116.474 334.017 116.166 333.466 115.929C332.916 115.693 332.321 115.485 331.682 115.308L329.444 114.669C328.024 114.26 326.9 113.677 326.071 112.92C325.242 112.162 324.828 111.171 324.828 109.946C324.828 108.928 325.103 108.04 325.654 107.282C326.21 106.519 326.956 105.927 327.891 105.507C328.832 105.081 329.882 104.867 331.043 104.867C332.214 104.867 333.256 105.078 334.168 105.498C335.079 105.912 335.801 106.48 336.334 107.202C336.872 107.924 337.156 108.744 337.186 109.661H335.055ZM350.998 109.661C350.891 108.762 350.459 108.063 349.702 107.566C348.944 107.069 348.015 106.821 346.914 106.821C346.109 106.821 345.405 106.951 344.801 107.211C344.203 107.472 343.736 107.83 343.398 108.285C343.067 108.741 342.901 109.259 342.901 109.839C342.901 110.324 343.016 110.742 343.247 111.091C343.484 111.434 343.786 111.721 344.153 111.952C344.52 112.177 344.905 112.363 345.307 112.511C345.709 112.653 346.079 112.769 346.417 112.858L348.263 113.355C348.737 113.479 349.264 113.651 349.844 113.87C350.429 114.089 350.989 114.387 351.521 114.766C352.06 115.139 352.504 115.619 352.853 116.204C353.202 116.79 353.377 117.509 353.377 118.362C353.377 119.344 353.119 120.232 352.605 121.025C352.096 121.818 351.35 122.449 350.367 122.916C349.391 123.384 348.204 123.617 346.807 123.617C345.505 123.617 344.378 123.407 343.425 122.987C342.478 122.567 341.732 121.981 341.188 121.229C340.649 120.478 340.344 119.605 340.273 118.61H342.546C342.605 119.297 342.836 119.865 343.238 120.315C343.647 120.759 344.162 121.09 344.783 121.309C345.411 121.522 346.085 121.629 346.807 121.629C347.648 121.629 348.402 121.493 349.071 121.22C349.74 120.942 350.27 120.558 350.66 120.066C351.051 119.569 351.246 118.989 351.246 118.326C351.246 117.723 351.078 117.231 350.74 116.853C350.403 116.474 349.959 116.166 349.409 115.929C348.858 115.693 348.263 115.485 347.624 115.308L345.387 114.669C343.966 114.26 342.842 113.677 342.013 112.92C341.185 112.162 340.77 111.171 340.77 109.946C340.77 108.928 341.046 108.04 341.596 107.282C342.152 106.519 342.898 105.927 343.833 105.507C344.774 105.081 345.825 104.867 346.985 104.867C348.157 104.867 349.198 105.078 350.11 105.498C351.021 105.912 351.743 106.48 352.276 107.202C352.815 107.924 353.099 108.744 353.128 109.661H350.998ZM378.659 110.798H376.457C376.327 110.165 376.099 109.608 375.774 109.129C375.454 108.649 375.063 108.247 374.602 107.921C374.146 107.59 373.64 107.341 373.084 107.176C372.527 107.01 371.947 106.927 371.343 106.927C370.243 106.927 369.245 107.205 368.352 107.762C367.464 108.318 366.757 109.138 366.23 110.221C365.709 111.304 365.449 112.633 365.449 114.207C365.449 115.781 365.709 117.11 366.23 118.193C366.757 119.276 367.464 120.096 368.352 120.652C369.245 121.209 370.243 121.487 371.343 121.487C371.947 121.487 372.527 121.404 373.084 121.238C373.64 121.072 374.146 120.827 374.602 120.501C375.063 120.17 375.454 119.764 375.774 119.285C376.099 118.8 376.327 118.243 376.457 117.616H378.659C378.493 118.545 378.191 119.377 377.753 120.111C377.315 120.845 376.771 121.469 376.12 121.984C375.469 122.493 374.738 122.881 373.927 123.147C373.122 123.413 372.261 123.546 371.343 123.546C369.793 123.546 368.414 123.168 367.206 122.41C365.999 121.652 365.049 120.575 364.357 119.179C363.664 117.782 363.318 116.125 363.318 114.207C363.318 112.289 363.664 110.632 364.357 109.235C365.049 107.839 365.999 106.761 367.206 106.004C368.414 105.246 369.793 104.867 371.343 104.867C372.261 104.867 373.122 105.001 373.927 105.267C374.738 105.533 375.469 105.924 376.12 106.439C376.771 106.948 377.315 107.569 377.753 108.303C378.191 109.031 378.493 109.863 378.659 110.798ZM397.558 114.207C397.558 116.125 397.211 117.782 396.519 119.179C395.826 120.575 394.876 121.652 393.669 122.41C392.462 123.168 391.083 123.546 389.532 123.546C387.981 123.546 386.602 123.168 385.395 122.41C384.187 121.652 383.238 120.575 382.545 119.179C381.853 117.782 381.506 116.125 381.506 114.207C381.506 112.289 381.853 110.632 382.545 109.235C383.238 107.839 384.187 106.761 385.395 106.004C386.602 105.246 387.981 104.867 389.532 104.867C391.083 104.867 392.462 105.246 393.669 106.004C394.876 106.761 395.826 107.839 396.519 109.235C397.211 110.632 397.558 112.289 397.558 114.207ZM395.427 114.207C395.427 112.633 395.163 111.304 394.637 110.221C394.116 109.138 393.409 108.318 392.515 107.762C391.627 107.205 390.633 106.927 389.532 106.927C388.431 106.927 387.434 107.205 386.54 107.762C385.652 108.318 384.945 109.138 384.418 110.221C383.897 111.304 383.637 112.633 383.637 114.207C383.637 115.781 383.897 117.11 384.418 118.193C384.945 119.276 385.652 120.096 386.54 120.652C387.434 121.209 388.431 121.487 389.532 121.487C390.633 121.487 391.627 121.209 392.515 120.652C393.409 120.096 394.116 119.276 394.637 118.193C395.163 117.11 395.427 115.781 395.427 114.207ZM415.677 105.116V123.298H413.546L403.639 109.022H403.461V123.298H401.26V105.116H403.39L413.333 119.427H413.511V105.116H415.677ZM419.088 107.069V105.116H432.725V107.069H427.008V123.298H424.806V107.069H419.088ZM436.123 123.298V105.116H442.266C443.687 105.116 444.853 105.359 445.764 105.844C446.676 106.323 447.35 106.983 447.788 107.824C448.226 108.664 448.445 109.62 448.445 110.691C448.445 111.763 448.226 112.713 447.788 113.541C447.35 114.37 446.679 115.021 445.773 115.494C444.868 115.962 443.71 116.196 442.302 116.196H437.33V114.207H442.231C443.201 114.207 443.983 114.065 444.575 113.781C445.172 113.497 445.604 113.094 445.871 112.573C446.143 112.047 446.279 111.419 446.279 110.691C446.279 109.963 446.143 109.327 445.871 108.783C445.598 108.238 445.163 107.818 444.566 107.522C443.968 107.22 443.178 107.069 442.195 107.069H438.325V123.298H436.123ZM444.681 115.13L449.156 123.298H446.599L442.195 115.13H444.681ZM467.455 114.207C467.455 116.125 467.109 117.782 466.416 119.179C465.724 120.575 464.774 121.652 463.566 122.41C462.359 123.168 460.98 123.546 459.429 123.546C457.879 123.546 456.5 123.168 455.292 122.41C454.085 121.652 453.135 120.575 452.443 119.179C451.75 117.782 451.404 116.125 451.404 114.207C451.404 112.289 451.75 110.632 452.443 109.235C453.135 107.839 454.085 106.761 455.292 106.004C456.5 105.246 457.879 104.867 459.429 104.867C460.98 104.867 462.359 105.246 463.566 106.004C464.774 106.761 465.724 107.839 466.416 109.235C467.109 110.632 467.455 112.289 467.455 114.207ZM465.324 114.207C465.324 112.633 465.061 111.304 464.534 110.221C464.013 109.138 463.306 108.318 462.412 107.762C461.525 107.205 460.53 106.927 459.429 106.927C458.329 106.927 457.331 107.205 456.438 107.762C455.55 108.318 454.843 109.138 454.316 110.221C453.795 111.304 453.535 112.633 453.535 114.207C453.535 115.781 453.795 117.11 454.316 118.193C454.843 119.276 455.55 120.096 456.438 120.652C457.331 121.209 458.329 121.487 459.429 121.487C460.53 121.487 461.525 121.209 462.412 120.652C463.306 120.096 464.013 119.276 464.534 118.193C465.061 117.11 465.324 115.781 465.324 114.207ZM471.157 123.298V105.116H473.359V121.345H481.81V123.298H471.157Z" fill="black"/>
<g filter="url(#filter0_d_13_837)">
<rect width="67" height="32" rx="16" transform="matrix(0.999997 -0.00224499 0.00282253 0.999996 320.228 217.828)" fill="white" shape-rendering="crispEdges"/>
<rect x="0.50141" y="0.498876" width="66" height="31" rx="15.5" transform="matrix(0.999997 -0.00224499 0.00282253 0.999996 320.227 217.829)" stroke="#CEDAEB" shape-rendering="crispEdges"/>
<path d="M337.656 238.789L336.432 238.792L339.575 230.109L340.883 230.106L344.088 238.775L342.852 238.778L342.065 236.619L338.417 236.628L337.656 238.789ZM340.084 231.98L338.775 235.607L341.715 235.6L340.372 231.979C340.312 231.811 340.251 231.608 340.227 231.476C340.203 231.596 340.144 231.8 340.084 231.98ZM347.179 238.912C345.475 238.916 344.439 237.646 344.434 235.858C344.429 234.058 345.469 232.736 347.209 232.732C348.109 232.73 348.866 233.124 349.264 233.843L349.253 229.931L350.369 229.929L350.394 238.761L349.386 238.763L349.287 237.695C348.905 238.5 348.115 238.91 347.179 238.912ZM347.404 237.891C348.556 237.889 349.261 237.035 349.258 235.811C349.254 234.611 348.544 233.749 347.392 233.751C346.24 233.754 345.57 234.62 345.574 235.82C345.577 237.032 346.252 237.894 347.404 237.891ZM353.149 238.755L352.021 238.757L352.005 232.889L353.013 232.887L353.123 233.655C353.422 233.102 354.044 232.717 354.872 232.715C355.784 232.713 356.434 233.167 356.736 233.899C357.01 233.166 357.716 232.708 358.628 232.706C359.972 232.703 360.791 233.541 360.795 234.897L360.805 238.737L359.701 238.74L359.691 235.176C359.689 234.252 359.171 233.725 358.379 233.727C357.527 233.729 356.965 234.33 356.968 235.266L356.977 238.746L355.861 238.748L355.851 235.172C355.849 234.249 355.343 233.746 354.551 233.747C353.699 233.749 353.137 234.339 353.14 235.275L353.149 238.755ZM362.901 231.473C362.493 231.474 362.156 231.138 362.155 230.73C362.153 230.31 362.488 229.986 362.896 229.985C363.304 229.984 363.641 230.307 363.643 230.727C363.644 231.135 363.309 231.472 362.901 231.473ZM362.369 238.734L362.353 232.866L363.481 232.863L363.497 238.731L362.369 238.734ZM366.263 238.725L365.135 238.728L365.118 232.86L366.138 232.857L366.261 233.757C366.631 233.084 367.374 232.687 368.202 232.685C369.75 232.681 370.46 233.628 370.465 235.128L370.475 238.716L369.347 238.718L369.337 235.382C369.334 234.194 368.781 233.715 367.917 233.717C366.861 233.72 366.251 234.477 366.254 235.617L366.263 238.725Z" fill="#031322"/>
</g>
<path d="M477.132 342.066L472.14 344.964L472.124 339.191L477.132 342.066ZM354.08 342.342L354.081 342.842L353.581 342.844L353.58 342.344L354.08 342.342ZM470.981 342.58L466.879 342.589L466.877 341.589L470.978 341.58L470.981 342.58ZM462.778 342.598L458.676 342.608L458.673 341.608L462.775 341.598L462.778 342.598ZM454.574 342.617L450.472 342.626L450.47 341.626L454.571 341.617L454.574 342.617ZM446.371 342.635L442.269 342.644L442.266 341.644L446.368 341.635L446.371 342.635ZM438.167 342.654L434.065 342.663L434.063 341.663L438.164 341.654L438.167 342.654ZM429.964 342.672L425.862 342.681L425.859 341.681L429.961 341.672L429.964 342.672ZM421.76 342.69L417.658 342.7L417.656 341.7L421.757 341.69L421.76 342.69ZM413.557 342.709L409.455 342.718L409.452 341.718L413.554 341.709L413.557 342.709ZM405.353 342.727L401.251 342.737L401.249 341.737L405.35 341.727L405.353 342.727ZM397.15 342.746L393.048 342.755L393.045 341.755L397.147 341.746L397.15 342.746ZM388.946 342.764L384.844 342.773L384.842 341.773L388.943 341.764L388.946 342.764ZM380.743 342.783L376.641 342.792L376.638 341.792L380.74 341.783L380.743 342.783ZM372.539 342.801L368.437 342.81L368.435 341.81L372.536 341.801L372.539 342.801ZM364.336 342.819L360.234 342.829L360.231 341.829L364.333 341.819L364.336 342.819ZM356.132 342.838L354.081 342.842L354.078 341.842L356.129 341.838L356.132 342.838ZM353.58 342.344L353.574 340.344L354.574 340.341L354.58 342.341L353.58 342.344ZM353.563 336.344L353.552 332.344L354.552 332.341L354.563 336.341L353.563 336.344ZM353.54 328.344L353.529 324.344L354.529 324.341L354.54 328.341L353.54 328.344ZM353.518 320.344L353.506 316.344L354.506 316.341L354.518 320.341L353.518 320.344ZM353.495 312.344L353.484 308.344L354.484 308.341L354.495 312.341L353.495 312.344ZM353.473 304.344L353.461 300.344L354.461 300.341L354.473 304.341L353.473 304.344ZM353.45 296.344L353.439 292.344L354.439 292.341L354.45 296.341L353.45 296.344ZM353.427 288.344L353.416 284.344L354.416 284.342L354.427 288.341L353.427 288.344ZM353.405 280.344L353.399 278.344L354.399 278.342L354.405 280.342L353.405 280.344Z" fill="#006467"/>
<g filter="url(#filter1_d_13_837)">
<rect width="188.425" height="54.8718" rx="16" transform="matrix(0.999997 -0.00224499 0.00282253 0.999996 482.904 343.207)" fill="white" shape-rendering="crispEdges"/>
<rect x="0.50141" y="0.498876" width="187.425" height="53.8718" rx="15.5" transform="matrix(0.999997 -0.00224499 0.00282253 0.999996 482.902 343.208)" stroke="#CEDAEB" shape-rendering="crispEdges"/>
<path d="M499.481 369.27C499.477 367.782 500.674 366.771 502.462 366.767C504.118 366.764 505.189 367.685 505.289 369.185L504.101 369.188C504.039 368.324 503.425 367.821 502.453 367.823C501.361 367.826 500.655 368.379 500.657 369.231C500.659 369.927 501.056 370.346 501.873 370.537L503.302 370.869C504.719 371.19 505.441 371.957 505.444 373.181C505.449 374.741 504.24 375.739 502.392 375.744C500.628 375.747 499.449 374.826 499.373 373.338L500.573 373.336C500.599 374.164 501.297 374.69 502.389 374.688C503.541 374.685 504.271 374.143 504.269 373.279C504.267 372.595 503.893 372.164 503.065 371.974L501.636 371.653C500.219 371.332 499.485 370.518 499.481 369.27ZM510.08 369.666L510.083 370.698L509.579 370.699C508.511 370.702 507.853 371.351 507.856 372.479L507.865 375.587L506.737 375.59L506.72 369.734L507.776 369.731L507.851 370.619C508.089 370.007 508.676 369.597 509.48 369.596C509.684 369.595 509.852 369.619 510.08 369.666ZM511.046 375.724C510.578 375.725 510.181 375.342 510.18 374.886C510.178 374.418 510.573 374.033 511.041 374.032C511.497 374.031 511.894 374.414 511.896 374.882C511.897 375.338 511.502 375.723 511.046 375.724ZM518.147 375.564L516.995 375.567L516.971 366.891L518.123 366.888L521.131 374.177L524.099 366.875L525.275 366.872L525.299 375.548L524.147 375.551L524.138 372.119C524.133 370.499 524.143 369.911 524.202 369.299L521.687 375.556L520.583 375.559L518.046 369.336C518.107 369.756 518.133 370.644 518.137 371.856L518.147 375.564ZM528.844 375.684C527.584 375.687 526.838 374.981 526.835 373.913C526.832 372.833 527.634 372.159 529.014 372.048L530.861 371.9L530.861 371.732C530.858 370.748 530.269 370.401 529.477 370.403C528.529 370.405 527.99 370.826 527.992 371.534L527.008 371.536C527.005 370.312 528.01 369.506 529.522 369.503C530.974 369.499 531.961 370.265 531.965 371.849L531.976 375.533L531.016 375.535L530.893 374.588C530.595 375.26 529.792 375.682 528.844 375.684ZM529.165 374.807C530.233 374.805 530.879 374.108 530.876 373.004L530.875 372.692L529.376 372.815C528.38 372.913 527.973 373.298 527.975 373.874C527.977 374.498 528.433 374.809 529.165 374.807ZM534.666 375.527L533.538 375.53L533.521 369.662L534.541 369.659L534.664 370.559C535.034 369.886 535.777 369.489 536.605 369.487C538.153 369.483 538.863 370.43 538.868 371.93L538.878 375.518L537.75 375.52L537.74 372.184C537.737 370.996 537.184 370.517 536.32 370.519C535.264 370.522 534.654 371.279 534.657 372.419L534.666 375.527ZM542.156 375.654C540.896 375.657 540.15 374.951 540.147 373.883C540.144 372.803 540.946 372.129 542.326 372.018L544.174 371.87L544.173 371.702C544.17 370.718 543.581 370.371 542.789 370.373C541.841 370.375 541.303 370.796 541.305 371.504L540.321 371.506C540.317 370.282 541.323 369.476 542.835 369.473C544.287 369.469 545.273 370.235 545.278 371.819L545.288 375.503L544.328 375.505L544.205 374.558C543.907 375.23 543.104 375.652 542.156 375.654ZM542.478 374.778C543.546 374.775 544.192 374.078 544.189 372.974L544.188 372.662L542.688 372.785C541.693 372.883 541.286 373.268 541.287 373.844C541.289 374.468 541.746 374.779 542.478 374.778ZM546.469 372.417C546.465 370.761 547.529 369.462 549.233 369.458C550.181 369.456 550.914 369.887 551.288 370.618L551.37 369.622L552.378 369.619L552.393 375.247C552.399 377.095 551.262 378.274 549.462 378.278C547.866 378.281 546.771 377.384 546.551 375.896L547.679 375.894C547.826 376.758 548.475 377.26 549.459 377.258C550.563 377.255 551.281 376.534 551.278 375.418L551.275 374.242C550.893 374.927 550.126 375.336 549.202 375.338C547.534 375.342 546.474 374.061 546.469 372.417ZM547.597 372.39C547.6 373.494 548.287 374.356 549.391 374.354C550.531 374.351 551.225 373.534 551.221 372.382C551.218 371.254 550.544 370.439 549.392 370.442C548.264 370.445 547.594 371.31 547.597 372.39ZM556.554 375.622C554.826 375.626 553.635 374.38 553.63 372.556C553.625 370.72 554.785 369.446 556.489 369.442C558.157 369.438 559.252 370.588 559.257 372.328L559.258 372.748L554.722 372.77C554.81 374.006 555.46 374.688 556.576 374.686C557.452 374.684 558.027 374.323 558.217 373.65L559.273 373.648C558.988 374.908 558.006 375.619 556.554 375.622ZM556.492 370.39C555.508 370.392 554.885 370.982 554.744 372.014L558.128 372.006C558.125 371.034 557.488 370.388 556.492 370.39ZM563.869 369.545L563.872 370.577L563.368 370.579C562.3 370.581 561.642 371.23 561.645 372.358L561.654 375.466L560.526 375.469L560.509 369.613L561.565 369.611L561.64 370.498C561.878 369.886 562.465 369.477 563.269 369.475C563.473 369.474 563.641 369.498 563.869 369.545Z" fill="#031322"/>
</g>
<g filter="url(#filter2_d_13_837)">
<rect width="155.739" height="54.8718" rx="16" transform="matrix(0.999997 -0.00224499 0.00282253 0.999996 75.2922 344.122)" fill="white" shape-rendering="crispEdges"/>
<rect x="0.50141" y="0.498876" width="154.739" height="53.8718" rx="15.5" transform="matrix(0.999997 -0.00224499 0.00282253 0.999996 75.2908 344.123)" stroke="#CEDAEB" shape-rendering="crispEdges"/>
<path d="M93.5437 376.517L92.3917 376.519L92.3672 367.843L93.5192 367.841L96.5278 375.13L99.4952 367.827L100.671 367.825L100.696 376.501L99.5437 376.503L99.534 373.071C99.5295 371.451 99.5398 370.863 99.5981 370.251L97.0837 376.509L95.9797 376.511L93.4422 370.289C93.5033 370.709 93.5298 371.597 93.5333 372.809L93.5437 376.517ZM104.24 376.637C102.98 376.64 102.234 375.933 102.231 374.865C102.228 373.785 103.03 373.112 104.41 373L106.258 372.852L106.257 372.684C106.254 371.7 105.665 371.354 104.873 371.355C103.925 371.358 103.387 371.779 103.389 372.487L102.405 372.489C102.401 371.265 103.407 370.459 104.919 370.455C106.371 370.452 107.357 371.218 107.362 372.802L107.372 376.486L106.412 376.488L106.289 375.54C105.991 376.213 105.188 376.635 104.24 376.637ZM104.562 375.76C105.63 375.758 106.276 375.06 106.273 373.956L106.272 373.644L104.772 373.768C103.777 373.866 103.37 374.251 103.371 374.827C103.373 375.451 103.83 375.762 104.562 375.76ZM110.062 376.48L108.934 376.482L108.918 370.614L109.938 370.612L110.06 371.512C110.43 370.839 111.173 370.441 112.001 370.439C113.549 370.436 114.26 371.382 114.264 372.882L114.274 376.47L113.146 376.473L113.137 373.137C113.133 371.949 112.58 371.47 111.716 371.472C110.66 371.474 110.05 372.232 110.053 373.372L110.062 376.48ZM117.553 376.607C116.293 376.61 115.547 375.903 115.544 374.835C115.541 373.755 116.343 373.082 117.723 372.971L119.57 372.822L119.57 372.654C119.567 371.67 118.978 371.324 118.186 371.325C117.238 371.328 116.699 371.749 116.701 372.457L115.717 372.459C115.714 371.235 116.719 370.429 118.231 370.425C119.683 370.422 120.67 371.188 120.674 372.772L120.684 376.456L119.724 376.458L119.602 375.51C119.304 376.183 118.501 376.605 117.553 376.607ZM117.874 375.73C118.942 375.728 119.588 375.03 119.585 373.926L119.584 373.614L118.085 373.738C117.089 373.836 116.682 374.221 116.684 374.797C116.685 375.421 117.142 375.732 117.874 375.73ZM121.866 373.369C121.861 371.713 122.925 370.415 124.629 370.411C125.577 370.409 126.311 370.839 126.685 371.57L126.766 370.574L127.774 370.572L127.79 376.2C127.795 378.048 126.658 379.226 124.858 379.231C123.262 379.234 122.168 378.337 121.948 376.849L123.076 376.847C123.222 377.71 123.872 378.213 124.856 378.211C125.96 378.208 126.677 377.486 126.674 376.37L126.671 375.194C126.289 375.879 125.522 376.289 124.598 376.291C122.93 376.295 121.87 375.013 121.866 373.369ZM122.994 373.343C122.997 374.447 123.683 375.309 124.787 375.307C125.927 375.304 126.621 374.487 126.618 373.335C126.615 372.207 125.94 371.392 124.788 371.395C123.66 371.397 122.991 372.263 122.994 373.343ZM131.951 376.575C130.223 376.578 129.031 375.333 129.026 373.509C129.021 371.673 130.181 370.399 131.885 370.395C133.553 370.391 134.649 371.541 134.654 373.281L134.655 373.701L130.119 373.723C130.206 374.959 130.856 375.641 131.972 375.639C132.848 375.637 133.423 375.275 133.613 374.603L134.669 374.6C134.385 375.861 133.403 376.571 131.951 376.575ZM131.888 371.343C130.904 371.345 130.282 371.934 130.141 372.967L133.525 372.959C133.522 371.987 132.884 371.34 131.888 371.343ZM139.266 370.498L139.268 371.53L138.764 371.531C137.696 371.534 137.038 372.183 137.042 373.311L137.05 376.419L135.922 376.422L135.906 370.566L136.962 370.563L137.036 371.451C137.275 370.839 137.861 370.429 138.665 370.428C138.869 370.427 139.037 370.451 139.266 370.498Z" fill="#031322"/>
</g>
<path d="M354.239 398.665L354.237 398.165L354.737 398.163L354.739 398.663L354.239 398.665ZM231.186 398.941L236.178 396.043L236.194 401.816L231.186 398.941ZM353.919 462.665L353.914 460.665L354.914 460.663L354.919 462.663L353.919 462.665ZM353.902 456.665L353.891 452.665L354.891 452.663L354.902 456.663L353.902 456.665ZM353.88 448.665L353.868 444.665L354.868 444.663L354.88 448.663L353.88 448.665ZM353.857 440.666L353.846 436.666L354.846 436.663L354.857 440.663L353.857 440.666ZM353.835 432.666L353.823 428.666L354.823 428.663L354.835 432.663L353.835 432.666ZM353.812 424.666L353.801 420.666L354.801 420.663L354.812 424.663L353.812 424.666ZM353.789 416.666L353.778 412.666L354.778 412.663L354.789 416.663L353.789 416.666ZM353.767 408.666L353.756 404.666L354.756 404.663L354.767 408.663L353.767 408.666ZM353.744 400.666L353.739 398.666L354.739 398.663L354.744 400.663L353.744 400.666ZM354.24 399.165L352.189 399.169L352.186 398.169L354.237 398.165L354.24 399.165ZM348.087 399.178L343.986 399.188L343.983 398.188L348.085 398.178L348.087 399.178ZM339.884 399.197L335.782 399.206L335.779 398.206L339.881 398.197L339.884 399.197ZM331.68 399.215L327.579 399.224L327.576 398.224L331.678 398.215L331.68 399.215ZM323.477 399.234L319.375 399.243L319.372 398.243L323.474 398.234L323.477 399.234ZM315.273 399.252L311.172 399.261L311.169 398.261L315.271 398.252L315.273 399.252ZM307.07 399.27L302.968 399.28L302.965 398.28L307.067 398.27L307.07 399.27ZM298.866 399.289L294.765 399.298L294.762 398.298L298.864 398.289L298.866 399.289ZM290.663 399.307L286.561 399.316L286.558 398.316L290.66 398.307L290.663 399.307ZM282.459 399.326L278.358 399.335L278.355 398.335L282.457 398.326L282.459 399.326ZM274.256 399.344L270.154 399.353L270.151 398.353L274.253 398.344L274.256 399.344ZM266.052 399.363L261.951 399.372L261.948 398.372L266.05 398.363L266.052 399.363ZM257.849 399.381L253.747 399.39L253.744 398.39L257.846 398.381L257.849 399.381ZM249.645 399.399L245.544 399.409L245.541 398.409L249.643 398.399L249.645 399.399ZM241.442 399.418L237.34 399.427L237.337 398.427L241.439 398.418L241.442 399.418Z" fill="#006467"/>
<g filter="url(#filter3_d_13_837)">
<rect width="91" height="32" rx="16" transform="matrix(0.999997 -0.00224499 0.00282253 0.999996 308.983 485.355)" fill="white" shape-rendering="crispEdges"/>
<rect x="0.50141" y="0.498876" width="90" height="31" rx="15.5" transform="matrix(0.999997 -0.00224499 0.00282253 0.999996 308.982 485.356)" stroke="#CEDAEB" shape-rendering="crispEdges"/>
<path d="M325.189 498.722L325.186 497.642L331.582 497.628L331.585 498.708L328.981 498.714L329.003 506.31L327.827 506.313L327.805 498.717L325.189 498.722ZM334.18 506.442C332.452 506.446 331.26 505.201 331.255 503.377C331.25 501.541 332.411 500.266 334.115 500.262C335.783 500.259 336.878 501.408 336.883 503.148L336.884 503.568L332.348 503.59C332.435 504.826 333.085 505.509 334.201 505.506C335.077 505.504 335.652 505.143 335.842 504.471L336.898 504.468C336.614 505.729 335.632 506.439 334.18 506.442ZM334.117 501.21C333.133 501.213 332.511 501.802 332.37 502.834L335.754 502.827C335.751 501.855 335.113 501.208 334.117 501.21ZM339.809 506.43C338.549 506.432 337.803 505.726 337.8 504.658C337.797 503.578 338.599 502.904 339.979 502.793L341.827 502.645L341.826 502.477C341.823 501.493 341.234 501.146 340.442 501.148C339.494 501.15 338.956 501.572 338.958 502.28L337.974 502.282C337.97 501.058 338.976 500.252 340.488 500.248C341.94 500.245 342.926 501.011 342.93 502.595L342.941 506.279L341.981 506.281L341.858 505.333C341.56 506.006 340.757 506.428 339.809 506.43ZM340.131 505.553C341.199 505.551 341.845 504.853 341.842 503.749L341.841 503.437L340.341 503.56C339.345 503.659 338.939 504.044 338.94 504.62C338.942 505.244 339.399 505.555 340.131 505.553ZM345.631 506.273L344.503 506.275L344.486 500.407L345.494 500.405L345.605 501.173C345.903 500.62 346.526 500.235 347.354 500.233C348.266 500.231 348.915 500.685 349.217 501.417C349.491 500.684 350.198 500.226 351.11 500.224C352.454 500.221 353.272 501.059 353.276 502.415L353.287 506.255L352.183 506.258L352.173 502.694C352.17 501.77 351.653 501.243 350.861 501.245C350.009 501.247 349.447 501.848 349.449 502.784L349.459 506.264L348.343 506.266L348.333 502.691C348.33 501.767 347.825 501.264 347.033 501.265C346.181 501.267 345.619 501.857 345.621 502.793L345.631 506.273ZM359.475 497.565L359.497 505.149L363.313 505.141L363.316 506.233L358.324 506.244L358.299 497.568L359.475 497.565ZM366.817 506.369C365.089 506.373 363.897 505.128 363.892 503.304C363.887 501.468 365.047 500.193 366.751 500.189C368.419 500.185 369.514 501.335 369.519 503.075L369.521 503.495L364.985 503.517C365.072 504.753 365.722 505.435 366.838 505.433C367.714 505.431 368.289 505.07 368.479 504.397L369.535 504.395C369.251 505.656 368.269 506.366 366.817 506.369ZM366.754 501.137C365.77 501.139 365.148 501.729 365.006 502.761L368.39 502.753C368.388 501.781 367.75 501.135 366.754 501.137ZM372.446 506.356C371.186 506.359 370.44 505.653 370.437 504.585C370.434 503.505 371.236 502.831 372.616 502.72L374.463 502.572L374.463 502.404C374.46 501.42 373.871 501.073 373.079 501.075C372.131 501.077 371.592 501.498 371.594 502.206L370.61 502.208C370.607 500.984 371.612 500.178 373.124 500.175C374.576 500.172 375.563 500.937 375.567 502.521L375.578 506.205L374.618 506.208L374.495 505.26C374.197 505.932 373.394 506.354 372.446 506.356ZM372.767 505.48C373.835 505.477 374.481 504.78 374.478 503.676L374.477 503.364L372.978 503.487C371.982 503.585 371.575 503.97 371.577 504.546C371.579 505.17 372.035 505.481 372.767 505.48ZM379.492 506.341C377.788 506.344 376.752 505.075 376.747 503.287C376.742 501.487 377.783 500.164 379.523 500.16C380.423 500.158 381.18 500.553 381.578 501.272L381.567 497.36L382.683 497.357L382.708 506.189L381.7 506.192L381.601 505.124C381.219 505.929 380.428 506.338 379.492 506.341ZM379.717 505.32C380.869 505.317 381.575 504.464 381.571 503.24C381.568 502.04 380.858 501.177 379.706 501.18C378.554 501.183 377.884 502.048 377.887 503.248C377.891 504.46 378.565 505.323 379.717 505.32Z" fill="#031322"/>
</g>
<path d="M480.601 626.146C480.605 627.619 479.414 628.815 477.942 628.819C476.469 628.822 475.272 627.631 475.267 626.158C475.263 624.685 476.454 623.489 477.927 623.485C479.399 623.482 480.597 624.673 480.601 626.146ZM477.936 626.652L475.881 626.657L475.878 625.657L477.933 625.652L477.936 626.652ZM471.772 626.666L467.663 626.675L467.66 625.675L471.769 625.666L471.772 626.666ZM463.554 626.684L459.445 626.694L459.442 625.694L463.551 625.684L463.554 626.684ZM455.336 626.703L451.227 626.712L451.224 625.712L455.333 625.703L455.336 626.703ZM447.118 626.721L443.009 626.73L443.006 625.73L447.115 625.721L447.118 626.721ZM438.9 626.74L434.791 626.749L434.788 625.749L438.897 625.74L438.9 626.74ZM430.682 626.758L426.573 626.767L426.57 625.767L430.679 625.758L430.682 626.758ZM422.464 626.777L418.355 626.786L418.352 625.786L422.461 625.777L422.464 626.777ZM414.246 626.795L410.137 626.804L410.134 625.804L414.243 625.795L414.246 626.795ZM406.028 626.813L401.919 626.823L401.916 625.823L406.025 625.813L406.028 626.813ZM397.81 626.832L393.701 626.841L393.698 625.841L397.807 625.832L397.81 626.832ZM389.592 626.85L385.483 626.86L385.48 625.86L389.589 625.85L389.592 626.85ZM381.374 626.869L377.265 626.878L377.262 625.878L381.371 625.869L381.374 626.869ZM373.156 626.887L369.047 626.896L369.044 625.896L373.153 625.887L373.156 626.887ZM364.938 626.906L362.883 626.91L362.88 625.91L364.935 625.906L364.938 626.906ZM362.883 626.91C362.316 626.912 361.761 626.857 361.224 626.752L361.416 625.771C361.889 625.863 362.379 625.911 362.88 625.91L362.883 626.91ZM358.156 625.489C357.227 624.871 356.427 624.075 355.804 623.149L356.634 622.591C357.184 623.408 357.89 624.111 358.71 624.657L358.156 625.489ZM354.526 620.087C354.418 619.551 354.361 618.996 354.359 618.429L355.359 618.427C355.36 618.929 355.411 619.418 355.506 619.891L354.526 620.087ZM354.359 618.429L354.354 616.484L355.354 616.481L355.359 618.427L354.359 618.429ZM354.343 612.592L354.332 608.701L355.332 608.699L355.343 612.59L354.343 612.592ZM354.321 604.81L354.31 600.918L355.31 600.916L355.321 604.807L354.321 604.81ZM354.299 597.027L354.288 593.135L355.288 593.133L355.299 597.025L354.299 597.027ZM354.277 589.244L354.266 585.353L355.266 585.35L355.277 589.242L354.277 589.244ZM354.255 581.461L354.244 577.57L355.244 577.568L355.255 581.459L354.255 581.461ZM354.233 573.679L354.222 569.787L355.222 569.785L355.233 573.676L354.233 573.679ZM354.211 565.896L354.2 562.004L355.2 562.002L355.211 565.894L354.211 565.896ZM354.189 558.113L354.178 554.222L355.178 554.219L355.189 558.111L354.189 558.113ZM354.167 550.33L354.156 546.439L355.156 546.437L355.167 550.328L354.167 550.33ZM354.145 542.547L354.134 538.656L355.134 538.654L355.145 542.545L354.145 542.547ZM354.123 534.765L354.112 530.873L355.112 530.871L355.123 534.762L354.123 534.765ZM354.101 526.982L354.09 523.09L355.09 523.088L355.101 526.98L354.101 526.982ZM354.079 519.199L354.074 517.253L355.074 517.251L355.079 519.197L354.079 519.199Z" fill="#006467"/>
<path d="M143.036 503.442L143.038 503.942L142.538 503.943L142.537 503.443L143.036 503.442ZM266.089 503.165L261.097 506.063L261.081 500.29L266.089 503.165ZM143.241 398.841L143.247 400.853L142.247 400.855L142.241 398.844L143.241 398.841ZM143.258 404.876L143.27 408.899L142.27 408.901L142.258 404.878L143.258 404.876ZM143.281 412.922L143.292 416.945L142.292 416.947L142.281 412.924L143.281 412.922ZM143.304 420.968L143.315 424.991L142.315 424.993L142.304 420.97L143.304 420.968ZM143.326 429.014L143.338 433.037L142.338 433.04L142.326 429.017L143.326 429.014ZM143.349 437.06L143.36 441.083L142.36 441.086L142.349 437.063L143.349 437.06ZM143.372 445.106L143.383 449.129L142.383 449.132L142.372 445.109L143.372 445.106ZM143.395 453.153L143.406 457.176L142.406 457.178L142.395 453.155L143.395 453.153ZM143.417 461.199L143.429 465.222L142.429 465.224L142.417 461.201L143.417 461.199ZM143.44 469.245L143.451 473.268L142.451 473.27L142.44 469.247L143.44 469.245ZM143.463 477.291L143.474 481.314L142.474 481.316L142.463 477.293L143.463 477.291ZM143.485 485.337L143.497 489.36L142.497 489.362L142.485 485.339L143.485 485.337ZM143.508 493.383L143.519 497.406L142.519 497.408L142.508 493.385L143.508 493.383ZM143.531 501.429L143.536 503.441L142.537 503.443L142.531 501.431L143.531 501.429ZM143.035 502.942L145.086 502.937L145.089 503.937L143.038 503.942L143.035 502.942ZM149.188 502.928L153.289 502.919L153.292 503.919L149.191 503.928L149.188 502.928ZM157.391 502.909L161.493 502.9L161.496 503.9L157.394 503.909L157.391 502.909ZM165.595 502.891L169.696 502.882L169.699 503.882L165.598 503.891L165.595 502.891ZM173.798 502.873L177.9 502.863L177.903 503.863L173.801 503.873L173.798 502.873ZM182.002 502.854L186.103 502.845L186.106 503.845L182.005 503.854L182.002 502.854ZM190.205 502.836L194.307 502.827L194.31 503.827L190.208 503.836L190.205 502.836ZM198.409 502.817L202.51 502.808L202.513 503.808L198.412 503.817L198.409 502.817ZM206.612 502.799L210.714 502.79L210.717 503.79L206.615 503.799L206.612 502.799ZM214.816 502.781L218.917 502.771L218.92 503.771L214.819 503.781L214.816 502.781ZM223.019 502.762L227.121 502.753L227.124 503.753L223.022 503.762L223.019 502.762ZM231.223 502.744L235.324 502.734L235.327 503.734L231.226 503.744L231.223 502.744ZM239.426 502.725L243.528 502.716L243.531 503.716L239.429 503.725L239.426 502.725ZM247.63 502.707L251.731 502.698L251.734 503.698L247.633 503.707L247.63 502.707ZM255.833 502.688L259.935 502.679L259.938 503.679L255.836 503.688L255.833 502.688Z" fill="#006467"/>
<g filter="url(#filter4_d_13_837)">
<rect width="163.43" height="54.8718" rx="16" transform="matrix(0.999997 -0.00224499 0.00282253 0.999996 49.0956 599.679)" fill="white" shape-rendering="crispEdges"/>
<rect x="0.50141" y="0.498876" width="162.43" height="53.8718" rx="15.5" transform="matrix(0.999997 -0.00224499 0.00282253 0.999996 49.0942 599.68)" stroke="#CEDAEB" shape-rendering="crispEdges"/>
<path d="M71.4871 632.065L66.1951 632.077L66.1706 623.401L71.4626 623.389L71.4656 624.469L67.3496 624.478L67.3573 627.19L71.0653 627.182L71.0682 628.226L67.3602 628.234L67.368 630.982L71.484 630.973L71.4871 632.065ZM74.1272 632.059L72.9992 632.061L72.9826 626.193L73.9906 626.191L74.1008 626.959C74.3992 626.406 75.0221 626.021 75.8501 626.019C76.7621 626.017 77.4114 626.471 77.7135 627.203C77.9874 626.47 78.6941 626.012 79.6061 626.01C80.9501 626.007 81.7685 626.846 81.7723 628.202L81.7831 632.042L80.6791 632.044L80.6691 628.48C80.6665 627.556 80.149 627.029 79.357 627.031C78.505 627.033 77.9427 627.634 77.9453 628.57L77.9551 632.05L76.8391 632.053L76.8291 628.477C76.8264 627.553 76.321 627.05 75.529 627.052C74.677 627.053 74.1147 627.643 74.1173 628.579L74.1272 632.059ZM83.3542 634.666L83.3302 626.17L84.3502 626.168L84.4372 627.224C84.8309 626.419 85.6217 625.997 86.5577 625.995C88.2377 625.991 89.2853 627.249 89.2904 629.049C89.2954 630.837 88.3152 632.183 86.5752 632.187C85.6392 632.189 84.8581 631.795 84.4721 631.076L84.4822 634.663L83.3542 634.666ZM84.4785 629.107C84.4819 630.307 85.1803 631.17 86.3323 631.167C87.4843 631.165 88.1659 630.299 88.1625 629.099C88.1591 627.887 87.4727 627.025 86.3207 627.027C85.1687 627.03 84.4751 627.883 84.4785 629.107ZM91.6941 632.019L90.5661 632.022L90.5412 623.19L91.6691 623.187L91.6941 632.019ZM92.9623 629.076C92.9572 627.264 94.2496 625.99 96.0136 625.986C97.7656 625.982 99.0651 627.251 99.0703 629.063C99.0754 630.875 97.783 632.15 96.031 632.154C94.267 632.158 92.9674 630.888 92.9623 629.076ZM94.1023 629.074C94.1057 630.298 94.8881 631.148 96.0281 631.146C97.1561 631.143 97.9457 630.289 97.9423 629.065C97.9388 627.841 97.1444 626.991 96.0164 626.994C94.8764 626.996 94.0988 627.85 94.1023 629.074ZM99.5714 634.63L99.5688 633.706L100.325 633.704C100.865 633.703 101.297 633.618 101.57 632.873L101.773 632.309L99.3914 626.134L100.579 626.131L102.297 630.855L104.023 626.124L105.187 626.121L102.436 633.315C102.043 634.324 101.456 634.745 100.556 634.747C100.184 634.748 99.8716 634.701 99.5714 634.63ZM108.414 632.126C106.686 632.13 105.495 630.884 105.49 629.06C105.484 627.224 106.645 625.95 108.349 625.946C110.017 625.942 111.112 627.092 111.117 628.832L111.118 629.252L106.582 629.274C106.67 630.51 107.32 631.192 108.436 631.19C109.312 631.188 109.887 630.826 110.077 630.154L111.133 630.152C110.848 631.412 109.866 632.123 108.414 632.126ZM108.352 626.894C107.368 626.896 106.745 627.485 106.604 628.518L109.988 628.51C109.985 627.538 109.348 626.892 108.352 626.894ZM114.918 632.111C113.19 632.115 111.999 630.87 111.994 629.046C111.988 627.21 113.149 625.935 114.853 625.931C116.521 625.928 117.616 627.077 117.621 628.817L117.622 629.237L113.086 629.259C113.174 630.495 113.824 631.178 114.94 631.175C115.816 631.173 116.391 630.812 116.581 630.139L117.637 630.137C117.352 631.398 116.37 632.108 114.918 632.111ZM114.855 626.879C113.871 626.881 113.249 627.471 113.108 628.503L116.492 628.496C116.489 627.524 115.851 626.877 114.855 626.879Z" fill="#031322"/>
</g>
<g filter="url(#filter5_d_13_837)">
<rect width="163.43" height="54.8718" rx="16" transform="matrix(0.999997 -0.00245001 0.00258634 0.999997 47.4827 709.426)" fill="white" shape-rendering="crispEdges"/>
<rect x="0.501292" y="0.498773" width="162.43" height="53.8718" rx="15.5" transform="matrix(0.999997 -0.00245001 0.00258634 0.999997 47.4814 709.427)" stroke="#CEDAEB" shape-rendering="crispEdges"/>
<path d="M69.8664 741.808L64.5745 741.82L64.552 733.145L69.844 733.132L69.8468 734.212L65.7308 734.222L65.7378 736.934L69.4458 736.925L69.4485 737.969L65.7405 737.978L65.7476 740.726L69.8636 740.716L69.8664 741.808ZM72.5065 741.801L71.3785 741.804L71.3634 735.936L72.3713 735.933L72.4813 736.701C72.7799 736.148 73.4029 735.763 74.2309 735.761C75.1429 735.759 75.7921 736.213 76.094 736.944C76.3681 736.212 77.0749 735.754 77.9869 735.752C79.3309 735.748 80.1491 736.586 80.1526 737.942L80.1625 741.782L79.0585 741.785L79.0493 738.221C79.0469 737.297 78.5295 736.77 77.7375 736.772C76.8855 736.774 76.3231 737.376 76.3255 738.312L76.3345 741.792L75.2185 741.794L75.2093 738.218C75.2069 737.294 74.7016 736.792 73.9096 736.794C73.0576 736.796 72.4951 737.385 72.4975 738.321L72.5065 741.801ZM81.733 744.406L81.711 735.91L82.731 735.908L82.8177 736.964C83.2116 736.159 84.0025 735.737 84.9385 735.735C86.6185 735.73 87.6658 736.988 87.6704 738.788C87.6751 740.576 86.6945 741.922 84.9545 741.927C84.0186 741.929 83.2375 741.535 82.8517 740.816L82.8609 744.404L81.733 744.406ZM82.8586 738.848C82.8617 740.048 83.5599 740.91 84.7119 740.907C85.8639 740.904 86.5457 740.039 86.5426 738.839C86.5394 737.627 85.8532 736.764 84.7012 736.767C83.5492 736.77 82.8554 737.624 82.8586 738.848ZM90.0734 741.758L88.9454 741.761L88.9226 732.929L90.0506 732.926L90.0734 741.758ZM91.3423 738.815C91.3376 737.003 92.6304 735.728 94.3943 735.723C96.1463 735.719 97.4456 736.988 97.4503 738.8C97.455 740.612 96.1623 741.887 94.4103 741.891C92.6463 741.896 91.347 740.627 91.3423 738.815ZM92.4823 738.812C92.4855 740.036 93.2677 740.886 94.4077 740.883C95.5357 740.881 96.3255 740.027 96.3223 738.803C96.3192 737.579 95.525 736.729 94.397 736.731C93.257 736.734 92.4792 737.588 92.4823 738.812ZM97.9502 744.367L97.9478 743.443L98.7038 743.441C99.2438 743.44 99.6755 743.354 99.9496 742.61L100.152 742.045L97.7722 735.871L98.9602 735.868L100.676 740.592L102.404 735.86L103.568 735.857L100.815 743.052C100.421 744.061 99.8345 744.482 98.9345 744.484C98.5625 744.485 98.2503 744.438 97.9502 744.367ZM106.794 741.861C105.066 741.865 103.874 740.62 103.87 738.796C103.865 736.96 105.026 735.685 106.73 735.681C108.398 735.677 109.493 736.826 109.497 738.566L109.498 738.986L104.962 739.01C105.049 740.245 105.699 740.928 106.815 740.925C107.691 740.923 108.266 740.561 108.457 739.889L109.513 739.886C109.228 741.147 108.246 741.857 106.794 741.861ZM106.732 736.629C105.748 736.632 105.126 737.221 104.984 738.253L108.368 738.245C108.366 737.273 107.728 736.627 106.732 736.629ZM113.297 741.845C111.569 741.849 110.378 740.604 110.374 738.78C110.369 736.944 111.53 735.669 113.234 735.665C114.902 735.661 115.996 736.81 116.001 738.55L116.002 738.97L111.466 738.994C111.553 740.229 112.203 740.912 113.319 740.909C114.195 740.907 114.77 740.546 114.96 739.873L116.016 739.87C115.732 741.131 114.749 741.842 113.297 741.845ZM113.236 736.613C112.252 736.616 111.629 737.205 111.488 738.238L114.872 738.229C114.87 737.257 114.232 736.611 113.236 736.613Z" fill="#031322"/>
</g>
<g filter="url(#filter6_d_13_837)">
<rect width="163.43" height="54.8718" rx="16" transform="matrix(0.999997 -0.00224499 0.00282253 0.999996 483.934 708.447)" fill="white" shape-rendering="crispEdges"/>
<rect x="0.50141" y="0.498876" width="162.43" height="53.8718" rx="15.5" transform="matrix(0.999997 -0.00224499 0.00282253 0.999996 483.933 708.448)" stroke="#CEDAEB" shape-rendering="crispEdges"/>
<path d="M506.326 740.832L501.034 740.844L501.009 732.168L506.301 732.157L506.304 733.237L502.188 733.246L502.196 735.958L505.904 735.949L505.907 736.993L502.199 737.002L502.207 739.75L506.323 739.74L506.326 740.832ZM508.966 740.827L507.838 740.829L507.821 734.961L508.829 734.959L508.94 735.727C509.238 735.174 509.861 734.789 510.689 734.787C511.601 734.785 512.25 735.239 512.552 735.97C512.826 735.238 513.533 734.78 514.445 734.778C515.789 734.775 516.607 735.613 516.611 736.969L516.622 740.809L515.518 740.812L515.508 737.248C515.505 736.324 514.988 735.797 514.196 735.799C513.344 735.801 512.781 736.402 512.784 737.338L512.794 740.818L511.678 740.82L511.668 737.244C511.665 736.32 511.16 735.818 510.368 735.819C509.516 735.821 508.953 736.411 508.956 737.347L508.966 740.827ZM518.193 743.434L518.169 734.938L519.189 734.936L519.276 735.991C519.67 735.187 520.46 734.765 521.396 734.763C523.076 734.759 524.124 736.017 524.129 737.817C524.134 739.605 523.154 740.951 521.414 740.955C520.478 740.957 519.697 740.562 519.311 739.843L519.321 743.431L518.193 743.434ZM519.317 737.875C519.321 739.075 520.019 739.938 521.171 739.935C522.323 739.933 523.005 739.067 523.001 737.867C522.998 736.655 522.311 735.793 521.159 735.795C520.007 735.798 519.314 736.651 519.317 737.875ZM526.533 740.787L525.405 740.79L525.38 731.958L526.508 731.955L526.533 740.787ZM527.801 737.844C527.796 736.032 529.088 734.757 530.852 734.753C532.604 734.749 533.904 736.019 533.909 737.831C533.914 739.643 532.622 740.917 530.87 740.921C529.106 740.925 527.806 739.656 527.801 737.844ZM528.941 737.842C528.944 739.066 529.727 739.916 530.867 739.913C531.995 739.911 532.784 739.057 532.781 737.833C532.778 736.609 531.983 735.759 530.855 735.761C529.715 735.764 528.938 736.618 528.941 737.842ZM534.41 743.397L534.408 742.473L535.164 742.472C535.704 742.471 536.135 742.386 536.409 741.641L536.612 741.076L534.23 734.902L535.418 734.899L537.136 739.623L538.862 734.891L540.026 734.889L537.274 742.083C536.881 743.092 536.294 743.513 535.394 743.515C535.022 743.516 534.71 743.469 534.41 743.397ZM543.253 740.894C541.525 740.897 540.334 739.652 540.328 737.828C540.323 735.992 541.484 734.718 543.188 734.714C544.856 734.71 545.951 735.86 545.956 737.6L545.957 738.02L541.421 738.042C541.508 739.277 542.158 739.96 543.274 739.958C544.15 739.956 544.725 739.594 544.915 738.922L545.971 738.919C545.687 740.18 544.705 740.89 543.253 740.894ZM543.19 735.662C542.206 735.664 541.584 736.253 541.443 737.286L544.827 737.278C544.824 736.306 544.186 735.659 543.19 735.662ZM549.757 740.879C548.029 740.883 546.837 739.638 546.832 737.814C546.827 735.978 547.987 734.703 549.691 734.699C551.359 734.695 552.455 735.845 552.46 737.585L552.461 738.005L547.925 738.027C548.012 739.263 548.662 739.945 549.778 739.943C550.654 739.941 551.229 739.58 551.419 738.907L552.475 738.905C552.191 740.166 551.209 740.876 549.757 740.879ZM549.694 735.647C548.71 735.649 548.088 736.239 547.947 737.271L551.331 737.263C551.328 736.291 550.69 735.645 549.694 735.647Z" fill="#031322"/>
</g>
<g filter="url(#filter7_d_13_837)">
<rect width="163.43" height="54.8718" rx="16" transform="matrix(0.999997 -0.00224499 0.00282253 0.999996 483.625 598.703)" fill="white" shape-rendering="crispEdges"/>
<rect x="0.50141" y="0.498876" width="162.43" height="53.8718" rx="15.5" transform="matrix(0.999997 -0.00224499 0.00282253 0.999996 483.623 598.704)" stroke="#CEDAEB" shape-rendering="crispEdges"/>
<path d="M506.016 631.089L500.724 631.101L500.7 622.425L505.992 622.413L505.995 623.493L501.879 623.502L501.886 626.214L505.594 626.206L505.597 627.25L501.889 627.258L501.897 630.006L506.013 629.997L506.016 631.089ZM508.656 631.083L507.528 631.086L507.512 625.218L508.52 625.215L508.63 625.983C508.928 625.431 509.551 625.045 510.379 625.043C511.291 625.041 511.94 625.496 512.243 626.227C512.516 625.494 513.223 625.037 514.135 625.035C515.479 625.032 516.298 625.87 516.301 627.226L516.312 631.066L515.208 631.068L515.198 627.504C515.196 626.58 514.678 626.054 513.886 626.055C513.034 626.057 512.472 626.659 512.474 627.595L512.484 631.075L511.368 631.077L511.358 627.501C511.355 626.577 510.85 626.074 510.058 626.076C509.206 626.078 508.644 626.667 508.646 627.603L508.656 631.083ZM517.883 633.69L517.859 625.194L518.879 625.192L518.966 626.248C519.36 625.443 520.151 625.021 521.087 625.019C522.767 625.015 523.814 626.273 523.819 628.073C523.824 629.861 522.844 631.207 521.104 631.211C520.168 631.213 519.387 630.819 519.001 630.1L519.011 633.688L517.883 633.69ZM519.008 628.132C519.011 629.332 519.709 630.194 520.861 630.192C522.013 630.189 522.695 629.324 522.692 628.124C522.688 626.912 522.002 626.049 520.85 626.052C519.698 626.054 519.004 626.908 519.008 628.132ZM526.223 631.044L525.095 631.046L525.07 622.214L526.198 622.212L526.223 631.044ZM527.491 628.101C527.486 626.289 528.779 625.014 530.543 625.01C532.295 625.006 533.594 626.275 533.599 628.087C533.604 629.899 532.312 631.174 530.56 631.178C528.796 631.182 527.496 629.913 527.491 628.101ZM528.631 628.098C528.635 629.322 529.417 630.173 530.557 630.17C531.685 630.167 532.475 629.314 532.471 628.09C532.468 626.866 531.673 626.015 530.545 626.018C529.405 626.021 528.628 626.874 528.631 628.098ZM534.1 633.654L534.098 632.73L534.854 632.728C535.394 632.727 535.826 632.642 536.1 631.898L536.302 631.333L533.92 625.158L535.108 625.156L536.826 629.88L538.552 625.148L539.716 625.145L536.965 632.34C536.572 633.348 535.985 633.77 535.085 633.772C534.713 633.773 534.401 633.725 534.1 633.654ZM542.943 631.15C541.215 631.154 540.024 629.909 540.019 628.085C540.013 626.249 541.174 624.974 542.878 624.97C544.546 624.967 545.641 626.116 545.646 627.856L545.647 628.276L541.111 628.298C541.199 629.534 541.849 630.217 542.965 630.214C543.841 630.212 544.416 629.851 544.606 629.178L545.662 629.176C545.377 630.437 544.395 631.147 542.943 631.15ZM542.881 625.918C541.897 625.921 541.274 626.51 541.133 627.542L544.517 627.535C544.514 626.563 543.877 625.916 542.881 625.918ZM549.447 631.136C547.719 631.139 546.528 629.894 546.523 628.07C546.517 626.234 547.678 624.96 549.382 624.956C551.05 624.952 552.145 626.102 552.15 627.841L552.151 628.261L547.615 628.284C547.703 629.519 548.353 630.202 549.469 630.2C550.345 630.198 550.92 629.836 551.11 629.164L552.166 629.161C551.881 630.422 550.899 631.132 549.447 631.136ZM549.384 625.904C548.4 625.906 547.778 626.495 547.637 627.528L551.021 627.52C551.018 626.548 550.38 625.901 549.384 625.904Z" fill="#031322"/>
</g>
<path d="M213.781 626.745C213.785 628.218 214.982 629.409 216.455 629.406C217.928 629.402 219.118 628.206 219.114 626.733C219.11 625.26 217.913 624.069 216.44 624.072C214.967 624.076 213.777 625.272 213.781 626.745ZM216.449 627.239L218.405 627.235L218.403 626.235L216.446 626.239L216.449 627.239ZM222.318 627.226L226.231 627.217L226.229 626.217L222.316 626.226L222.318 627.226ZM230.144 627.208L234.057 627.2L234.055 626.2L230.142 626.208L230.144 627.208ZM237.971 627.191L241.884 627.182L241.881 626.182L237.968 626.191L237.971 627.191ZM245.797 627.173L249.71 627.164L249.707 626.164L245.794 626.173L245.797 627.173ZM253.623 627.156L257.536 627.147L257.533 626.147L253.62 626.156L253.623 627.156ZM261.449 627.138L265.362 627.129L265.359 626.129L261.446 626.138L261.449 627.138ZM269.275 627.12L273.188 627.112L273.185 626.112L269.272 626.121L269.275 627.12ZM277.101 627.103L281.014 627.094L281.011 626.094L277.098 626.103L277.101 627.103ZM284.927 627.085L288.84 627.077L288.837 626.077L284.924 626.085L284.927 627.085ZM292.753 627.068L296.666 627.059L296.663 626.059L292.75 626.068L292.753 627.068ZM300.579 627.05L304.492 627.041L304.489 626.041L300.576 626.05L300.579 627.05ZM308.405 627.033L312.318 627.024L312.315 626.024L308.402 626.033L308.405 627.033ZM316.231 627.015L320.144 627.006L320.141 626.006L316.228 626.015L316.231 627.015ZM324.057 626.998L327.97 626.989L327.967 625.989L324.054 625.998L324.057 626.998ZM331.883 626.98L335.796 626.971L335.793 625.971L331.88 625.98L331.883 626.98ZM339.709 626.962L341.666 626.958L341.663 625.958L339.706 625.962L339.709 626.962ZM341.666 626.958C342.233 626.957 342.787 626.9 343.324 626.792L343.127 625.812C342.654 625.907 342.164 625.957 341.663 625.958L341.666 626.958ZM346.385 625.515C347.31 624.893 348.105 624.093 348.723 623.165L347.891 622.611C347.345 623.43 346.643 624.136 345.826 624.686L346.385 625.515ZM349.985 620.098C350.089 619.561 350.143 619.006 350.142 618.439L349.142 618.441C349.143 618.943 349.095 619.432 349.003 619.906L349.985 620.098ZM350.142 618.439L350.136 616.482L349.136 616.485L349.142 618.441L350.142 618.439ZM350.125 612.569L350.114 608.656L349.114 608.658L349.125 612.571L350.125 612.569ZM350.103 604.743L350.092 600.83L349.092 600.832L349.103 604.745L350.103 604.743ZM350.081 596.916L350.07 593.003L349.07 593.005L349.081 596.919L350.081 596.916ZM350.059 589.09L350.048 585.177L349.048 585.179L349.059 589.092L350.059 589.09ZM350.037 581.264L350.026 577.35L349.026 577.353L349.037 581.266L350.037 581.264ZM350.015 573.437L350.004 569.524L349.004 569.526L349.015 573.439L350.015 573.437ZM349.993 565.611L349.982 561.697L348.982 561.7L348.993 565.613L349.993 565.611ZM349.971 557.784L349.959 553.871L348.959 553.873L348.971 557.787L349.971 557.784ZM349.948 549.958L349.937 546.045L348.937 546.047L348.948 549.96L349.948 549.958ZM349.926 542.131L349.915 538.218L348.915 538.221L348.926 542.134L349.926 542.131ZM349.904 534.305L349.893 530.392L348.893 530.394L348.904 534.307L349.904 534.305ZM349.882 526.479L349.871 522.565L348.871 522.568L348.882 526.481L349.882 526.479ZM349.86 518.652L349.855 516.696L348.855 516.698L348.86 518.655L349.86 518.652Z" fill="#006467"/>
<path d="M214.091 736.488C214.095 737.961 215.292 739.152 216.765 739.149C218.238 739.146 219.428 737.949 219.424 736.476C219.42 735.004 218.222 733.812 216.75 733.816C215.277 733.819 214.086 735.015 214.091 736.488ZM216.759 736.982L218.715 736.978L218.712 735.978L216.756 735.982L216.759 736.982ZM222.628 736.969L226.541 736.96L226.538 735.96L222.625 735.969L222.628 736.969ZM230.454 736.952L234.367 736.943L234.364 735.943L230.451 735.952L230.454 736.952ZM238.28 736.934L242.193 736.925L242.191 735.925L238.278 735.934L238.28 736.934ZM246.106 736.916L250.019 736.908L250.017 735.908L246.104 735.916L246.106 736.916ZM253.932 736.899L257.845 736.89L257.843 735.89L253.93 735.899L253.932 736.899ZM261.758 736.881L265.672 736.872L265.669 735.872L261.756 735.881L261.758 736.881ZM269.585 736.864L273.498 736.855L273.495 735.855L269.582 735.864L269.585 736.864ZM277.411 736.846L281.324 736.837L281.321 735.837L277.408 735.846L277.411 736.846ZM285.237 736.829L289.15 736.82L289.147 735.82L285.234 735.829L285.237 736.829ZM293.063 736.811L296.976 736.802L296.973 735.802L293.06 735.811L293.063 736.811ZM300.889 736.793L304.802 736.785L304.799 735.785L300.886 735.793L300.889 736.793ZM308.715 736.776L312.628 736.767L312.625 735.767L308.712 735.776L308.715 736.776ZM316.541 736.758L320.454 736.749L320.451 735.749L316.538 735.758L316.541 736.758ZM324.367 736.741L328.28 736.732L328.277 735.732L324.364 735.741L324.367 736.741ZM332.193 736.723L336.106 736.714L336.103 735.714L332.19 735.723L332.193 736.723ZM340.019 736.706L341.976 736.701L341.973 735.701L340.016 735.706L340.019 736.706ZM341.976 736.701C342.543 736.7 343.097 736.643 343.633 736.536L343.437 735.555C342.964 735.65 342.474 735.7 341.973 735.701L341.976 736.701ZM346.695 735.259C347.62 734.636 348.415 733.836 349.033 732.908L348.2 732.354C347.655 733.173 346.952 733.879 346.136 734.429L346.695 735.259ZM350.294 729.841C350.399 729.304 350.453 728.749 350.452 728.182L349.452 728.184C349.453 728.686 349.405 729.176 349.313 729.649L350.294 729.841ZM350.452 728.182L350.446 726.225L349.446 726.228L349.452 728.184L350.452 728.182ZM350.435 722.312L350.424 718.399L349.424 718.401L349.435 722.315L350.435 722.312ZM350.413 714.486L350.402 710.573L349.402 710.575L349.413 714.488L350.413 714.486ZM350.391 706.659L350.38 702.746L349.38 702.749L349.391 706.662L350.391 706.659ZM350.369 698.833L350.358 694.92L349.358 694.922L349.369 698.835L350.369 698.833ZM350.347 691.007L350.336 687.093L349.336 687.096L349.347 691.009L350.347 691.007ZM350.325 683.18L350.313 679.267L349.313 679.269L349.325 683.183L350.325 683.18ZM350.302 675.354L350.291 671.441L349.291 671.443L349.302 675.356L350.302 675.354ZM350.28 667.527L350.269 663.614L349.269 663.616L349.28 667.53L350.28 667.527ZM350.258 659.701L350.247 655.788L349.247 655.79L349.258 659.703L350.258 659.701ZM350.236 651.875L350.225 647.961L349.225 647.964L349.236 651.877L350.236 651.875ZM350.214 644.048L350.203 640.135L349.203 640.137L349.214 644.05L350.214 644.048ZM350.192 636.222L350.181 632.309L349.181 632.311L349.192 636.224L350.192 636.222ZM350.17 628.395L350.164 626.439L349.164 626.441L349.17 628.398L350.17 628.395Z" fill="#006467"/>
<path d="M480.91 735.889C480.915 737.362 479.724 738.558 478.251 738.562C476.779 738.565 475.581 737.374 475.577 735.901C475.573 734.428 476.764 733.232 478.236 733.228C479.709 733.225 480.906 734.416 480.91 735.889ZM478.245 736.395L476.191 736.4L476.188 735.4L478.242 735.395L478.245 736.395ZM472.082 736.409L467.973 736.418L467.97 735.418L472.079 735.409L472.082 736.409ZM463.864 736.427L459.755 736.437L459.752 735.437L463.861 735.427L463.864 736.427ZM455.646 736.446L451.537 736.455L451.534 735.455L455.643 735.446L455.646 736.446ZM447.428 736.464L443.319 736.474L443.316 735.474L447.425 735.464L447.428 736.464ZM439.21 736.483L435.101 736.492L435.098 735.492L439.207 735.483L439.21 736.483ZM430.992 736.501L426.883 736.51L426.88 735.51L430.989 735.501L430.992 736.501ZM422.774 736.52L418.664 736.529L418.662 735.529L422.771 735.52L422.774 736.52ZM414.555 736.538L410.446 736.547L410.444 735.547L414.553 735.538L414.555 736.538ZM406.337 736.557L402.228 736.566L402.226 735.566L406.335 735.557L406.337 736.557ZM398.119 736.575L394.01 736.584L394.008 735.584L398.117 735.575L398.119 736.575ZM389.901 736.593L385.792 736.603L385.79 735.603L389.899 735.593L389.901 736.593ZM381.683 736.612L377.574 736.621L377.571 735.621L381.68 735.612L381.683 736.612ZM373.465 736.63L369.356 736.64L369.353 735.64L373.462 735.63L373.465 736.63ZM365.247 736.649L363.193 736.653L363.19 735.653L365.244 735.649L365.247 736.649ZM363.193 736.653C362.626 736.655 362.071 736.6 361.534 736.495L361.725 735.514C362.199 735.606 362.688 735.655 363.19 735.653L363.193 736.653ZM358.466 735.232C357.537 734.614 356.737 733.818 356.114 732.892L356.944 732.334C357.494 733.151 358.2 733.854 359.02 734.4L358.466 735.232ZM354.835 729.83C354.728 729.294 354.67 728.74 354.669 728.173L355.669 728.17C355.67 728.672 355.721 729.161 355.816 729.634L354.835 729.83ZM354.669 728.173L354.663 726.216L355.663 726.214L355.669 728.17L354.669 728.173ZM354.652 722.303L354.641 718.389L355.641 718.387L355.652 722.3L354.652 722.303ZM354.63 714.476L354.619 710.563L355.619 710.561L355.63 714.474L354.63 714.476ZM354.608 706.65L354.597 702.737L355.597 702.734L355.608 706.648L354.608 706.65ZM354.586 698.823L354.575 694.91L355.575 694.908L355.586 698.821L354.586 698.823ZM354.564 690.997L354.553 687.084L355.553 687.082L355.564 690.995L354.564 690.997ZM354.542 683.171L354.531 679.257L355.531 679.255L355.542 683.168L354.542 683.171ZM354.52 675.344L354.509 671.431L355.509 671.429L355.52 675.342L354.52 675.344ZM354.498 667.518L354.487 663.605L355.487 663.602L355.498 667.516L354.498 667.518ZM354.475 659.691L354.464 655.778L355.464 655.776L355.475 659.689L354.475 659.691ZM354.453 651.865L354.442 647.952L355.442 647.95L355.453 651.863L354.453 651.865ZM354.431 644.039L354.42 640.125L355.42 640.123L355.431 644.036L354.431 644.039ZM354.409 636.212L354.398 632.299L355.398 632.297L355.409 636.21L354.409 636.212ZM354.387 628.386L354.382 626.429L355.382 626.427L355.387 628.384L354.387 628.386Z" fill="#006467"/>
<path d="M581.411 502.458L581.413 502.958L581.913 502.956L581.911 502.456L581.411 502.458ZM441.054 502.773L446.063 505.648L446.046 499.875L441.054 502.773ZM580.616 397.86L580.622 399.871L581.622 399.869L581.616 397.857L580.616 397.86ZM580.633 403.894L580.644 407.917L581.644 407.915L581.633 403.892L580.633 403.894ZM580.656 411.94L580.667 415.963L581.667 415.961L581.656 411.938L580.656 411.94ZM580.678 419.986L580.69 424.009L581.69 424.007L581.678 419.984L580.678 419.986ZM580.701 428.032L580.713 432.055L581.713 432.053L581.701 428.03L580.701 428.032ZM580.724 436.078L580.735 440.102L581.735 440.099L581.724 436.076L580.724 436.078ZM580.747 444.125L580.758 448.148L581.758 448.145L581.747 444.122L580.747 444.125ZM580.769 452.171L580.781 456.194L581.781 456.191L581.769 452.168L580.769 452.171ZM580.792 460.217L580.803 464.24L581.803 464.238L581.792 460.214L580.792 460.217ZM580.815 468.263L580.826 472.286L581.826 472.284L581.815 468.261L580.815 468.263ZM580.837 476.309L580.849 480.332L581.849 480.33L581.837 476.307L580.837 476.309ZM580.86 484.355L580.872 488.378L581.872 488.376L581.86 484.353L580.86 484.355ZM580.883 492.401L580.894 496.424L581.894 496.422L581.883 492.399L580.883 492.401ZM580.906 500.447L580.911 502.459L581.911 502.456L581.906 500.445L580.906 500.447ZM581.41 501.958L579.46 501.962L579.463 502.962L581.413 502.958L581.41 501.958ZM575.562 501.971L571.663 501.979L571.666 502.979L575.564 502.971L575.562 501.971ZM567.764 501.988L563.865 501.997L563.868 502.997L567.767 502.988L567.764 501.988ZM559.966 502.006L556.068 502.014L556.07 503.014L559.969 503.006L559.966 502.006ZM552.169 502.023L548.27 502.032L548.273 503.032L552.172 503.023L552.169 502.023ZM544.371 502.041L540.472 502.049L540.475 503.049L544.374 503.041L544.371 502.041ZM536.574 502.058L532.675 502.067L532.678 503.067L536.576 503.058L536.574 502.058ZM528.776 502.076L524.877 502.084L524.88 503.084L528.779 503.076L528.776 502.076ZM520.978 502.093L517.08 502.102L517.082 503.102L520.981 503.093L520.978 502.093ZM513.181 502.111L509.282 502.119L509.285 503.119L513.184 503.111L513.181 502.111ZM505.383 502.128L501.484 502.137L501.487 503.137L505.386 503.128L505.383 502.128ZM497.586 502.146L493.687 502.154L493.69 503.154L497.588 503.146L497.586 502.146ZM489.788 502.163L485.889 502.172L485.892 503.172L489.791 503.163L489.788 502.163ZM481.99 502.181L478.092 502.189L478.094 503.189L481.993 503.181L481.99 502.181ZM474.193 502.198L470.294 502.207L470.297 503.207L474.196 503.198L474.193 502.198ZM466.395 502.216L462.496 502.224L462.499 503.224L466.398 503.216L466.395 502.216ZM458.598 502.233L454.699 502.242L454.702 503.242L458.6 503.233L458.598 502.233ZM450.8 502.251L446.901 502.259L446.904 503.259L450.803 503.251L450.8 502.251Z" fill="#006467"/>
<defs>
<filter id="filter0_d_13_837" x="316.228" y="215.678" width="75.0902" height="40.1501" filterUnits="userSpaceOnUse" color-interpolation-filters="sRGB">
<feFlood flood-opacity="0" result="BackgroundImageFix"/>
<feColorMatrix in="SourceAlpha" type="matrix" values="0 0 0 0 0 0 0 0 0 0 0 0 0 0 0 0 0 0 127 0" result="hardAlpha"/>
<feOffset dy="2"/>
<feGaussianBlur stdDeviation="2"/>
<feComposite in2="hardAlpha" operator="out"/>
<feColorMatrix type="matrix" values="0 0 0 0 0.0117647 0 0 0 0 0.0745098 0 0 0 0 0.133333 0 0 0 0.16 0"/>
<feBlend mode="normal" in2="BackgroundImageFix" result="effect1_dropShadow_13_837"/>
<feBlend mode="normal" in="SourceGraphic" in2="effect1_dropShadow_13_837" result="shape"/>
</filter>
<filter id="filter1_d_13_837" x="478.904" y="340.784" width="196.579" height="63.2947" filterUnits="userSpaceOnUse" color-interpolation-filters="sRGB">
<feFlood flood-opacity="0" result="BackgroundImageFix"/>
<feColorMatrix in="SourceAlpha" type="matrix" values="0 0 0 0 0 0 0 0 0 0 0 0 0 0 0 0 0 0 127 0" result="hardAlpha"/>
<feOffset dy="2"/>
<feGaussianBlur stdDeviation="2"/>
<feComposite in2="hardAlpha" operator="out"/>
<feColorMatrix type="matrix" values="0 0 0 0 0.0117647 0 0 0 0 0.0745098 0 0 0 0 0.133333 0 0 0 0.16 0"/>
<feBlend mode="normal" in2="BackgroundImageFix" result="effect1_dropShadow_13_837"/>
<feBlend mode="normal" in="SourceGraphic" in2="effect1_dropShadow_13_837" result="shape"/>
</filter>
<filter id="filter2_d_13_837" x="71.2922" y="341.772" width="163.893" height="63.2212" filterUnits="userSpaceOnUse" color-interpolation-filters="sRGB">
<feFlood flood-opacity="0" result="BackgroundImageFix"/>
<feColorMatrix in="SourceAlpha" type="matrix" values="0 0 0 0 0 0 0 0 0 0 0 0 0 0 0 0 0 0 127 0" result="hardAlpha"/>
<feOffset dy="2"/>
<feGaussianBlur stdDeviation="2"/>
<feComposite in2="hardAlpha" operator="out"/>
<feColorMatrix type="matrix" values="0 0 0 0 0.0117647 0 0 0 0 0.0745098 0 0 0 0 0.133333 0 0 0 0.16 0"/>
<feBlend mode="normal" in2="BackgroundImageFix" result="effect1_dropShadow_13_837"/>
<feBlend mode="normal" in="SourceGraphic" in2="effect1_dropShadow_13_837" result="shape"/>
</filter>
<filter id="filter3_d_13_837" x="304.983" y="483.15" width="99.0901" height="40.2041" filterUnits="userSpaceOnUse" color-interpolation-filters="sRGB">
<feFlood flood-opacity="0" result="BackgroundImageFix"/>
<feColorMatrix in="SourceAlpha" type="matrix" values="0 0 0 0 0 0 0 0 0 0 0 0 0 0 0 0 0 0 127 0" result="hardAlpha"/>
<feOffset dy="2"/>
<feGaussianBlur stdDeviation="2"/>
<feComposite in2="hardAlpha" operator="out"/>
<feColorMatrix type="matrix" values="0 0 0 0 0.0117647 0 0 0 0 0.0745098 0 0 0 0 0.133333 0 0 0 0.16 0"/>
<feBlend mode="normal" in2="BackgroundImageFix" result="effect1_dropShadow_13_837"/>
<feBlend mode="normal" in="SourceGraphic" in2="effect1_dropShadow_13_837" result="shape"/>
</filter>
<filter id="filter4_d_13_837" x="45.0956" y="597.312" width="171.584" height="63.2385" filterUnits="userSpaceOnUse" color-interpolation-filters="sRGB">
<feFlood flood-opacity="0" result="BackgroundImageFix"/>
<feColorMatrix in="SourceAlpha" type="matrix" values="0 0 0 0 0 0 0 0 0 0 0 0 0 0 0 0 0 0 127 0" result="hardAlpha"/>
<feOffset dy="2"/>
<feGaussianBlur stdDeviation="2"/>
<feComposite in2="hardAlpha" operator="out"/>
<feColorMatrix type="matrix" values="0 0 0 0 0.0117647 0 0 0 0 0.0745098 0 0 0 0 0.133333 0 0 0 0.16 0"/>
<feBlend mode="normal" in2="BackgroundImageFix" result="effect1_dropShadow_13_837"/>
<feBlend mode="normal" in="SourceGraphic" in2="effect1_dropShadow_13_837" result="shape"/>
</filter>
<filter id="filter5_d_13_837" x="43.4827" y="707.026" width="171.571" height="63.272" filterUnits="userSpaceOnUse" color-interpolation-filters="sRGB">
<feFlood flood-opacity="0" result="BackgroundImageFix"/>
<feColorMatrix in="SourceAlpha" type="matrix" values="0 0 0 0 0 0 0 0 0 0 0 0 0 0 0 0 0 0 127 0" result="hardAlpha"/>
<feOffset dy="2"/>
<feGaussianBlur stdDeviation="2"/>
<feComposite in2="hardAlpha" operator="out"/>
<feColorMatrix type="matrix" values="0 0 0 0 0.0117647 0 0 0 0 0.0745098 0 0 0 0 0.133333 0 0 0 0.16 0"/>
<feBlend mode="normal" in2="BackgroundImageFix" result="effect1_dropShadow_13_837"/>
<feBlend mode="normal" in="SourceGraphic" in2="effect1_dropShadow_13_837" result="shape"/>
</filter>
<filter id="filter6_d_13_837" x="479.934" y="706.08" width="171.584" height="63.2385" filterUnits="userSpaceOnUse" color-interpolation-filters="sRGB">
<feFlood flood-opacity="0" result="BackgroundImageFix"/>
<feColorMatrix in="SourceAlpha" type="matrix" values="0 0 0 0 0 0 0 0 0 0 0 0 0 0 0 0 0 0 127 0" result="hardAlpha"/>
<feOffset dy="2"/>
<feGaussianBlur stdDeviation="2"/>
<feComposite in2="hardAlpha" operator="out"/>
<feColorMatrix type="matrix" values="0 0 0 0 0.0117647 0 0 0 0 0.0745098 0 0 0 0 0.133333 0 0 0 0.16 0"/>
<feBlend mode="normal" in2="BackgroundImageFix" result="effect1_dropShadow_13_837"/>
<feBlend mode="normal" in="SourceGraphic" in2="effect1_dropShadow_13_837" result="shape"/>
</filter>
<filter id="filter7_d_13_837" x="479.625" y="596.336" width="171.584" height="63.2385" filterUnits="userSpaceOnUse" color-interpolation-filters="sRGB">
<feFlood flood-opacity="0" result="BackgroundImageFix"/>
<feColorMatrix in="SourceAlpha" type="matrix" values="0 0 0 0 0 0 0 0 0 0 0 0 0 0 0 0 0 0 127 0" result="hardAlpha"/>
<feOffset dy="2"/>
<feGaussianBlur stdDeviation="2"/>
<feComposite in2="hardAlpha" operator="out"/>
<feColorMatrix type="matrix" values="0 0 0 0 0.0117647 0 0 0 0 0.0745098 0 0 0 0 0.133333 0 0 0 0.16 0"/>
<feBlend mode="normal" in2="BackgroundImageFix" result="effect1_dropShadow_13_837"/>
<feBlend mode="normal" in="SourceGraphic" in2="effect1_dropShadow_13_837" result="shape"/>
</filter>
</defs>
</svg>
