<svg width="670" height="590" viewBox="0 0 670 590" fill="none" xmlns="http://www.w3.org/2000/svg">
<g clip-path="url(#clip0_263_2485)">
<path d="M670 -31H0V639H670V-31Z" fill="white"/>
<path opacity="0.29" d="M210.085 563.96C233.843 570.445 258.553 573.34 283.155 575.27C322.835 578.335 362.67 578.846 402.415 576.797C433.074 575.203 463.961 572.027 493.08 562.312C571.175 536.262 614.35 466.26 622.376 386.651C627.589 334.833 618.517 277.669 602.276 228.531C579.014 157.873 523.658 104.996 459.446 68.4547C389.94 28.8443 301.955 24.0605 227.934 54.5857C153.912 85.1109 95.2068 149.9 70.7518 226.186C43.5364 311.075 59.0402 386.718 96.7344 466.046C104.48 482.354 112.814 498.622 124.245 512.558C142.871 535.163 169.135 550.573 196.886 559.94C201.245 561.441 205.645 562.781 210.085 563.96Z" fill="#ECF6FA"/>
<path opacity="0.54" d="M477 507.814H568.924" stroke="black" stroke-miterlimit="10"/>
<path opacity="0.54" d="M370.484 502.36H278.56" stroke="black" stroke-miterlimit="10"/>
<g opacity="0.13">
<path d="M126.001 533.006L289.521 429.906" stroke="black" stroke-miterlimit="10"/>
<path d="M79.583 514.701L256.517 428.62" stroke="black" stroke-miterlimit="10"/>
<path d="M213.355 533.006L319.001 429.906" stroke="black" stroke-miterlimit="10"/>
<path d="M290.834 533.006L350.116 429.906" stroke="black" stroke-miterlimit="10"/>
<path d="M616.883 530.607L469.858 428.62" stroke="black" stroke-miterlimit="10"/>
<path d="M541.535 533.006L435.876 429.906" stroke="black" stroke-miterlimit="10"/>
<path d="M464.056 533.006L404.774 429.906" stroke="black" stroke-miterlimit="10"/>
<path d="M376.647 533.006V431.608" stroke="black" stroke-miterlimit="10"/>
<path d="M105.807 513.053H600.548" stroke="black" stroke-miterlimit="10"/>
<path d="M540.288 484.351H198.856" stroke="black" stroke-miterlimit="10"/>
<path d="M485.228 452.82H167.635" stroke="black" stroke-miterlimit="10"/>
</g>
<g opacity="0.63">
<path d="M464.645 306.412H444.773V288.55C444.761 287.099 445.062 285.663 445.656 284.34C446.251 283.018 447.124 281.839 448.217 280.885C450.499 278.767 451.852 275.834 451.982 272.724H457.597C457.714 275.778 459.022 278.664 461.241 280.764C462.319 281.722 463.18 282.899 463.767 284.216C464.354 285.533 464.653 286.96 464.645 288.402V306.412Z" fill="#A7CFF2"/>
<path d="M457.985 270.151H451.433V274.024H457.985V270.151Z" fill="#98B9FE"/>
<path d="M454.488 301.213C452.662 301.213 450.91 300.487 449.618 299.195C448.326 297.904 447.601 296.152 447.601 294.325C447.601 292.497 448.326 290.744 449.617 289.45C450.908 288.156 452.66 287.428 454.488 287.424C456.316 287.428 458.068 288.156 459.359 289.45C460.651 290.744 461.376 292.497 461.376 294.325C461.376 296.152 460.65 297.904 459.358 299.195C458.067 300.487 456.315 301.213 454.488 301.213Z" fill="#98B9FE"/>
<path d="M489.422 306.412H469.549V288.55C469.535 287.1 469.833 285.665 470.426 284.342C471.018 283.019 471.889 281.839 472.98 280.885C475.262 278.767 476.615 275.834 476.745 272.724H482.4C482.512 275.776 483.816 278.662 486.031 280.764C487.113 281.72 487.977 282.896 488.566 284.213C489.156 285.531 489.457 286.959 489.448 288.402L489.422 306.412Z" fill="#A7CFF2"/>
<path d="M482.762 270.151H476.209V274.024H482.762V270.151Z" fill="#98B9FE"/>
<path d="M479.264 301.213C477.436 301.213 475.683 300.487 474.389 299.196C473.095 297.905 472.367 296.153 472.363 294.325C472.367 292.496 473.095 290.743 474.388 289.449C475.682 288.156 477.435 287.428 479.264 287.424C481.092 287.428 482.844 288.156 484.135 289.45C485.427 290.744 486.152 292.497 486.152 294.325C486.152 296.152 485.426 297.904 484.135 299.195C482.843 300.487 481.091 301.213 479.264 301.213Z" fill="#98B9FE"/>
<path d="M518.956 306.412H499.083V288.55C499.071 287.099 499.373 285.663 499.967 284.34C500.561 283.018 501.435 281.839 502.527 280.885C504.809 278.767 506.162 275.834 506.293 272.724H511.88C511.997 275.778 513.306 278.664 515.525 280.764C516.605 281.721 517.467 282.897 518.054 284.214C518.641 285.532 518.939 286.96 518.929 288.402L518.956 306.412Z" fill="#A7CFF2"/>
<path d="M512.308 270.151H505.756V274.024H512.308V270.151Z" fill="#98B9FE"/>
<path d="M508.798 301.213C506.971 301.213 505.219 300.487 503.927 299.195C502.636 297.904 501.91 296.152 501.91 294.325C501.91 292.497 502.635 290.744 503.927 289.45C505.218 288.156 506.97 287.428 508.798 287.424C510.626 287.428 512.378 288.156 513.669 289.45C514.96 290.744 515.685 292.497 515.685 294.325C515.685 296.152 514.96 297.904 513.668 299.195C512.376 300.487 510.624 301.213 508.798 301.213Z" fill="#98B9FE"/>
<path d="M542.834 306.412H522.961V288.55C522.949 287.099 523.251 285.663 523.845 284.34C524.439 283.018 525.313 281.839 526.405 280.885C528.683 278.766 530.032 275.833 530.157 272.724H535.785C535.902 275.778 537.21 278.664 539.43 280.764C540.508 281.722 541.368 282.899 541.955 284.216C542.542 285.533 542.842 286.96 542.834 288.402V306.412Z" fill="#A7CFF2"/>
<path d="M536.174 270.151H529.621V274.024H536.174V270.151Z" fill="#98B9FE"/>
<path d="M532.677 301.213C530.85 301.213 529.098 300.487 527.806 299.195C526.515 297.904 525.789 296.152 525.789 294.325C525.789 292.497 526.514 290.744 527.806 289.45C529.097 288.156 530.849 287.428 532.677 287.424C534.505 287.428 536.256 288.156 537.548 289.45C538.839 290.744 539.564 292.497 539.564 294.325C539.564 296.152 538.839 297.904 537.547 299.195C536.255 300.487 534.503 301.213 532.677 301.213Z" fill="#98B9FE"/>
<path d="M414.944 305.594H556.167" stroke="black" stroke-miterlimit="10"/>
<path d="M456.699 242.668C456.312 241.633 456.017 240.566 455.815 239.479C455.701 237.862 455.823 236.237 456.176 234.655C457.034 228.839 458.119 221.255 453.121 217.168C452.484 216.668 451.967 216.032 451.607 215.306C451.248 214.58 451.056 213.783 451.044 212.974V208.619H446.22V212.974C446.209 213.783 446.016 214.58 445.657 215.306C445.298 216.032 444.78 216.668 444.143 217.168C439.145 221.282 440.23 228.839 441.088 234.655C441.434 236.238 441.556 237.862 441.45 239.479C441.248 240.566 440.952 241.633 440.565 242.668C439.225 246.983 438.234 253.254 440.297 257.408C440.457 257.759 440.691 258.07 440.982 258.323C441.274 258.575 441.616 258.761 441.986 258.869C443.795 259.311 444.894 257.395 445.51 255.787C445.63 256.612 445.978 257.387 446.516 258.024C447.053 258.661 447.759 259.135 448.552 259.391H448.659H448.766C449.562 259.137 450.27 258.664 450.81 258.027C451.35 257.389 451.701 256.613 451.821 255.787C452.438 257.395 453.537 259.311 455.346 258.869C455.715 258.761 456.058 258.575 456.349 258.323C456.64 258.07 456.874 257.759 457.034 257.408C459.031 253.254 458.052 246.983 456.699 242.668Z" fill="#A7CFF2"/>
<path d="M451.499 208.605H445.697V211.258H451.499V208.605Z" fill="#98B9FE"/>
<mask id="mask0_263_2485" style="mask-type:luminance" maskUnits="userSpaceOnUse" x="439" y="208" width="20" height="52">
<path d="M456.699 242.668C456.312 241.633 456.017 240.566 455.815 239.479C455.701 237.862 455.823 236.237 456.176 234.655C457.034 228.839 458.119 221.255 453.121 217.168C452.484 216.668 451.967 216.032 451.607 215.306C451.248 214.58 451.056 213.783 451.044 212.974V208.619H446.22V212.974C446.209 213.783 446.016 214.58 445.657 215.306C445.298 216.032 444.78 216.668 444.143 217.168C439.145 221.282 440.23 228.839 441.088 234.655C441.434 236.238 441.556 237.862 441.45 239.479C441.248 240.566 440.952 241.633 440.565 242.668C439.225 246.983 438.234 253.254 440.297 257.408C440.457 257.759 440.691 258.07 440.982 258.323C441.274 258.575 441.616 258.761 441.986 258.869C443.795 259.311 444.894 257.395 445.51 255.787C445.63 256.612 445.978 257.387 446.516 258.024C447.053 258.661 447.759 259.135 448.552 259.391H448.659H448.766C449.562 259.137 450.27 258.664 450.81 258.027C451.35 257.389 451.701 256.613 451.821 255.787C452.438 257.395 453.537 259.311 455.346 258.869C455.715 258.761 456.058 258.575 456.349 258.323C456.64 258.07 456.874 257.759 457.034 257.408C459.031 253.254 458.052 246.983 456.699 242.668Z" fill="white"/>
</mask>
<g mask="url(#mask0_263_2485)">
<path d="M458.281 223.318H438.904V233.703H458.281V223.318Z" fill="#98B9FE"/>
</g>
<path d="M478.568 242.668C478.188 241.631 477.892 240.564 477.684 239.479C477.581 237.861 477.708 236.237 478.059 234.655C478.916 228.839 480.002 221.255 475.004 217.168C474.366 216.668 473.849 216.032 473.49 215.306C473.13 214.58 472.938 213.783 472.926 212.974V208.619H468.076V212.974C468.064 213.783 467.872 214.58 467.513 215.306C467.153 216.032 466.636 216.668 465.999 217.168C461.001 221.282 462.099 228.839 462.957 234.655C463.297 236.239 463.419 237.862 463.319 239.479C463.117 240.566 462.821 241.633 462.434 242.668C461.094 246.983 460.103 253.254 462.153 257.408C462.314 257.76 462.55 258.073 462.844 258.325C463.137 258.577 463.482 258.763 463.855 258.869C465.664 259.311 466.749 257.395 467.379 255.787C467.494 256.6 467.832 257.365 468.354 257.999C468.877 258.633 469.564 259.11 470.34 259.378H470.447H470.555C471.35 259.123 472.058 258.65 472.599 258.013C473.139 257.376 473.489 256.6 473.61 255.773C474.226 257.381 475.312 259.297 477.134 258.855C477.504 258.747 477.846 258.561 478.138 258.309C478.429 258.057 478.663 257.745 478.822 257.395C480.899 253.254 479.921 246.983 478.568 242.668Z" fill="#A7CFF2"/>
<path d="M473.381 208.605H467.579V211.258H473.381V208.605Z" fill="#98B9FE"/>
<mask id="mask1_263_2485" style="mask-type:luminance" maskUnits="userSpaceOnUse" x="460" y="208" width="21" height="52">
<path d="M478.568 242.668C478.188 241.631 477.892 240.564 477.684 239.479C477.581 237.861 477.708 236.237 478.059 234.655C478.916 228.839 480.002 221.255 475.004 217.168C474.366 216.668 473.849 216.032 473.49 215.306C473.13 214.58 472.938 213.783 472.926 212.974V208.619H468.076V212.974C468.064 213.783 467.872 214.58 467.513 215.306C467.153 216.032 466.636 216.668 465.999 217.168C461.001 221.282 462.099 228.839 462.957 234.655C463.297 236.239 463.419 237.862 463.319 239.479C463.117 240.566 462.821 241.633 462.434 242.668C461.094 246.983 460.103 253.254 462.153 257.408C462.314 257.76 462.55 258.073 462.844 258.325C463.137 258.577 463.482 258.763 463.855 258.869C465.664 259.311 466.749 257.395 467.379 255.787C467.494 256.6 467.832 257.365 468.354 257.999C468.877 258.633 469.564 259.11 470.34 259.378H470.447H470.555C471.35 259.123 472.058 258.65 472.599 258.013C473.139 257.376 473.489 256.6 473.61 255.773C474.226 257.381 475.312 259.297 477.134 258.855C477.504 258.747 477.846 258.561 478.138 258.309C478.429 258.057 478.663 257.745 478.822 257.395C480.899 253.254 479.921 246.983 478.568 242.668Z" fill="white"/>
</mask>
<g mask="url(#mask1_263_2485)">
<path d="M480.163 223.318H460.786V233.703H480.163V223.318Z" fill="#98B9FE"/>
</g>
<path d="M500.45 242.668C500.063 241.633 499.767 240.566 499.565 239.479C499.465 237.862 499.587 236.239 499.927 234.655C500.785 228.839 501.884 221.255 496.885 217.168C496.248 216.668 495.731 216.032 495.371 215.306C495.012 214.58 494.82 213.783 494.808 212.974V208.619H489.958V212.974C489.946 213.783 489.754 214.58 489.394 215.306C489.035 216.032 488.518 216.668 487.881 217.168C482.882 221.282 483.968 228.839 484.825 234.655C485.176 236.237 485.303 237.861 485.201 239.479C484.992 240.564 484.697 241.631 484.316 242.668C482.976 246.983 481.985 253.254 484.035 257.408C484.195 257.759 484.428 258.07 484.72 258.323C485.011 258.575 485.353 258.761 485.723 258.869C487.546 259.311 488.631 257.395 489.261 255.787C489.376 256.613 489.723 257.39 490.261 258.028C490.799 258.666 491.507 259.139 492.303 259.391H492.41H492.517C493.31 259.135 494.015 258.661 494.553 258.024C495.091 257.387 495.439 256.612 495.559 255.787C496.189 257.395 497.274 259.311 499.083 258.869C499.455 258.763 499.8 258.577 500.094 258.325C500.388 258.073 500.623 257.76 500.785 257.408C502.781 253.254 501.803 246.983 500.45 242.668Z" fill="#A7CFF2"/>
<path d="M495.264 208.605H489.462V211.258H495.264V208.605Z" fill="#98B9FE"/>
<mask id="mask2_263_2485" style="mask-type:luminance" maskUnits="userSpaceOnUse" x="482" y="208" width="20" height="52">
<path d="M500.45 242.668C500.063 241.633 499.767 240.566 499.565 239.479C499.465 237.862 499.587 236.239 499.927 234.655C500.785 228.839 501.884 221.255 496.885 217.168C496.248 216.668 495.731 216.032 495.371 215.306C495.012 214.58 494.82 213.783 494.808 212.974V208.619H489.958V212.974C489.946 213.783 489.754 214.58 489.394 215.306C489.035 216.032 488.518 216.668 487.881 217.168C482.882 221.282 483.968 228.839 484.825 234.655C485.176 236.237 485.303 237.861 485.201 239.479C484.992 240.564 484.697 241.631 484.316 242.668C482.976 246.983 481.985 253.254 484.035 257.408C484.195 257.759 484.428 258.07 484.72 258.323C485.011 258.575 485.353 258.761 485.723 258.869C487.546 259.311 488.631 257.395 489.261 255.787C489.376 256.613 489.723 257.39 490.261 258.028C490.799 258.666 491.507 259.139 492.303 259.391H492.41H492.517C493.31 259.135 494.015 258.661 494.553 258.024C495.091 257.387 495.439 256.612 495.559 255.787C496.189 257.395 497.274 259.311 499.083 258.869C499.455 258.763 499.8 258.577 500.094 258.325C500.388 258.073 500.623 257.76 500.785 257.408C502.781 253.254 501.803 246.983 500.45 242.668Z" fill="white"/>
</mask>
<g mask="url(#mask2_263_2485)">
<path d="M502.044 223.318H482.668V233.703H502.044V223.318Z" fill="#98B9FE"/>
</g>
<path d="M522.332 242.668C521.945 241.633 521.65 240.566 521.448 239.479C521.341 237.862 521.463 236.238 521.809 234.655C522.667 228.839 523.752 221.255 518.754 217.168C518.117 216.668 517.6 216.032 517.24 215.306C516.881 214.58 516.688 213.783 516.677 212.974V208.619H511.813V212.974C511.802 213.783 511.609 214.58 511.25 215.306C510.89 216.032 510.373 216.668 509.736 217.168C504.738 221.282 505.823 228.839 506.681 234.655C507.034 236.237 507.156 237.862 507.043 239.479C506.841 240.566 506.545 241.633 506.158 242.668C504.818 246.983 503.827 253.254 505.89 257.408C506.05 257.759 506.284 258.07 506.575 258.323C506.866 258.575 507.209 258.761 507.579 258.869C509.388 259.311 510.486 257.395 511.103 255.787C511.224 256.613 511.574 257.389 512.114 258.027C512.654 258.664 513.362 259.137 514.158 259.391H514.265H514.372C515.165 259.135 515.871 258.661 516.408 258.024C516.946 257.387 517.294 256.612 517.414 255.787C518.031 257.395 519.129 259.311 520.938 258.869C521.308 258.761 521.651 258.575 521.942 258.323C522.233 258.07 522.467 257.759 522.627 257.408C524.664 253.254 523.685 246.983 522.332 242.668Z" fill="#A7CFF2"/>
<path d="M517.132 208.605H511.33V211.258H517.132V208.605Z" fill="#98B9FE"/>
<mask id="mask3_263_2485" style="mask-type:luminance" maskUnits="userSpaceOnUse" x="504" y="208" width="20" height="52">
<path d="M522.332 242.668C521.945 241.633 521.65 240.566 521.448 239.479C521.341 237.862 521.463 236.238 521.809 234.655C522.667 228.839 523.752 221.255 518.754 217.168C518.117 216.668 517.6 216.032 517.24 215.306C516.881 214.58 516.688 213.783 516.677 212.974V208.619H511.813V212.974C511.802 213.783 511.609 214.58 511.25 215.306C510.89 216.032 510.373 216.668 509.736 217.168C504.738 221.282 505.823 228.839 506.681 234.655C507.034 236.237 507.156 237.862 507.043 239.479C506.841 240.566 506.545 241.633 506.158 242.668C504.818 246.983 503.827 253.254 505.89 257.408C506.05 257.759 506.284 258.07 506.575 258.323C506.866 258.575 507.209 258.761 507.579 258.869C509.388 259.311 510.486 257.395 511.103 255.787C511.224 256.613 511.574 257.389 512.114 258.027C512.654 258.664 513.362 259.137 514.158 259.391H514.265H514.372C515.165 259.135 515.871 258.661 516.408 258.024C516.946 257.387 517.294 256.612 517.414 255.787C518.031 257.395 519.129 259.311 520.938 258.869C521.308 258.761 521.651 258.575 521.942 258.323C522.233 258.07 522.467 257.759 522.627 257.408C524.664 253.254 523.685 246.983 522.332 242.668Z" fill="white"/>
</mask>
<g mask="url(#mask3_263_2485)">
<path d="M523.926 223.318H504.55V233.703H523.926V223.318Z" fill="#98B9FE"/>
</g>
<path d="M544.2 242.668C543.826 241.629 543.531 240.563 543.316 239.479C543.214 237.861 543.34 236.237 543.691 234.655C544.549 228.839 545.634 221.255 540.636 217.168C539.995 216.671 539.475 216.036 539.116 215.309C538.756 214.583 538.566 213.784 538.559 212.974V208.619H533.695V212.974C533.683 213.783 533.491 214.58 533.132 215.306C532.772 216.032 532.255 216.668 531.618 217.168C526.62 221.282 527.705 228.839 528.563 234.655C528.903 236.239 529.024 237.862 528.924 239.479C528.722 240.566 528.427 241.633 528.04 242.668C526.7 246.983 525.708 253.254 527.772 257.408C527.932 257.759 528.166 258.07 528.457 258.323C528.748 258.575 529.091 258.761 529.46 258.869C531.269 259.311 532.368 257.395 532.985 255.787C533.104 256.606 533.45 257.376 533.982 258.01C534.515 258.644 535.213 259.118 536 259.378H536.107H536.214C537.01 259.123 537.718 258.65 538.258 258.013C538.798 257.376 539.148 256.6 539.269 255.773C539.886 257.381 540.984 259.297 542.793 258.855C543.163 258.747 543.506 258.561 543.797 258.309C544.088 258.057 544.322 257.745 544.482 257.395C546.532 253.254 545.567 246.983 544.2 242.668Z" fill="#A7CFF2"/>
<path d="M539.015 208.605H533.213V211.258H539.015V208.605Z" fill="#98B9FE"/>
<mask id="mask4_263_2485" style="mask-type:luminance" maskUnits="userSpaceOnUse" x="526" y="208" width="20" height="52">
<path d="M544.2 242.668C543.826 241.629 543.531 240.563 543.316 239.479C543.214 237.861 543.34 236.237 543.691 234.655C544.549 228.839 545.634 221.255 540.636 217.168C539.995 216.671 539.475 216.036 539.116 215.309C538.756 214.583 538.566 213.784 538.559 212.974V208.619H533.695V212.974C533.683 213.783 533.491 214.58 533.132 215.306C532.772 216.032 532.255 216.668 531.618 217.168C526.62 221.282 527.705 228.839 528.563 234.655C528.903 236.239 529.024 237.862 528.924 239.479C528.722 240.566 528.427 241.633 528.04 242.668C526.7 246.983 525.708 253.254 527.772 257.408C527.932 257.759 528.166 258.07 528.457 258.323C528.748 258.575 529.091 258.761 529.46 258.869C531.269 259.311 532.368 257.395 532.985 255.787C533.104 256.606 533.45 257.376 533.982 258.01C534.515 258.644 535.213 259.118 536 259.378H536.107H536.214C537.01 259.123 537.718 258.65 538.258 258.013C538.798 257.376 539.148 256.6 539.269 255.773C539.886 257.381 540.984 259.297 542.793 258.855C543.163 258.747 543.506 258.561 543.797 258.309C544.088 258.057 544.322 257.745 544.482 257.395C546.532 253.254 545.567 246.983 544.2 242.668Z" fill="white"/>
</mask>
<g mask="url(#mask4_263_2485)">
<path d="M545.795 223.318H526.419V233.703H545.795V223.318Z" fill="#98B9FE"/>
</g>
<path d="M423.387 258.574H548.127" stroke="black" stroke-miterlimit="10"/>
</g>
<path d="M286.975 220.357C291.946 223.975 297.078 227.781 299.986 233.194C302.666 238.327 302.8 245.509 298.324 249.274C293.273 253.442 285.621 251.177 279.926 247.934C270.546 242.574 262.345 234.95 257.722 225.248C255.619 220.853 254.279 215.868 255.324 211.098C259.304 192.78 279.765 215.104 286.975 220.357Z" fill="#B8D9FF"/>
<path d="M218.393 277.481H141.33V282.681H218.393V277.481Z" fill="black"/>
<path d="M129.203 481.202H430.918" stroke="#678FB5" stroke-width="3" stroke-miterlimit="10"/>
<path d="M381.9 237.187C382.946 237.218 383.993 237.137 385.022 236.946C384.526 224.243 389.833 209.838 384.942 197.604C382.262 190.783 380.037 188.304 374.316 183.721C367.053 177.892 347.516 171.661 338.243 172.13C326.464 172.72 310.947 174.81 303.805 185.236C299.972 190.85 298.163 197.564 296.676 204.197C294.397 214.277 292.684 224.477 291.544 234.749C290.351 245.469 291.088 256.524 289.695 267.15C288.033 279.933 283.062 300.194 290.914 311.946C299.088 324.167 320.823 320.616 332.91 318.78C344.996 316.944 371.18 315.886 375.2 301.735C375.737 299.349 375.886 296.892 375.642 294.459C374.883 278.835 374.128 263.201 373.378 247.559C373.244 244.879 373.163 242.065 374.517 239.774C376.111 237.094 379.059 237.201 381.9 237.187Z" fill="#5379F6"/>
<path d="M423.173 282.359H134.229V479.258H423.173V282.359Z" fill="#98B9FE"/>
<path d="M344.139 151.146C344.139 149.967 344.139 148.801 344.139 147.622C344.139 143.535 344.139 139.234 342.25 135.562C340.146 131.542 330.337 131.622 325.848 131.73C316.026 131.998 315.289 140.051 317.527 148.895C318.153 151.169 319.526 153.166 321.426 154.563C323.45 156.225 326.022 156.788 326.558 159.736C326.719 160.806 326.719 161.894 326.558 162.965L325.955 168.07C326.005 168.854 325.893 169.64 325.625 170.379C325.357 171.117 324.94 171.793 324.399 172.362C323.858 172.932 323.205 173.384 322.482 173.69C321.758 173.996 320.979 174.149 320.193 174.141C322.055 176.648 324.538 178.628 327.398 179.882C330.258 181.137 333.395 181.625 336.501 181.296C341.66 180.948 348.427 178.616 351.469 174.208C349.646 173.665 347.909 172.866 346.31 171.836C345.171 170.496 345.117 167.923 344.97 166.315C344.399 161.279 344.122 156.214 344.139 151.146Z" fill="#B8D9FF"/>
<path d="M295.457 265.22H206.038L187.185 200.083H276.589L295.457 265.22Z" fill="black"/>
<path d="M241.321 232.658L225.281 282.359H267.183" stroke="#4F5662" stroke-width="4" stroke-miterlimit="10"/>
<path d="M383.455 271.84C378.323 279.317 368.394 281.635 359.871 282.091C336.569 283.324 312.368 284.302 289.133 281.85C287.886 281.716 286.453 281.421 285.876 280.282C285.166 278.821 286.479 277.213 287.793 276.262C292.737 272.698 299.075 271.639 305.213 271.639C308.252 271.8 311.298 271.72 314.325 271.398C317.876 270.835 320.582 268.878 323.852 267.686C327.122 266.493 330.753 265.689 334.116 264.738C341.955 262.554 349.942 260.959 357.901 259.378C357.553 259.378 355.315 240.524 355.221 239.01C354.819 231.698 355.998 224.385 358.679 217.57C360.394 213.416 362.9 209.396 366.719 207.051C370.538 204.706 375.884 204.371 379.315 207.319C382.745 210.267 383.335 214.649 383.844 218.856C384.987 228.156 385.881 237.473 386.524 246.809C387.06 254.634 388.346 263.72 384.112 270.835C383.884 271.224 383.67 271.545 383.455 271.84Z" fill="#B8D9FF"/>
<path d="M433.061 281.984H124.325V293.655H433.061V281.984Z" fill="#5379F6"/>
<path d="M433.061 310.311H124.325V321.983H433.061V310.311Z" fill="#5379F6"/>
<path d="M360.635 192.244C360.93 191.922 361.251 191.601 361.586 191.293C365.606 187.648 372.521 185.933 377.586 188.304C382.383 190.529 384.862 197.403 386.363 202.214C387.301 205.215 392.567 236.37 392.219 236.518C387.113 238.514 380.025 238.139 374.651 238.635C367.549 239.291 359.442 239.064 352.756 240.591C352.559 240.25 352.47 239.858 352.501 239.466C352.89 230.233 353.506 220.987 354.324 211.781C354.94 204.84 355.972 197.296 360.635 192.244Z" fill="#356CCB"/>
<path d="M318.278 133.646C319.618 134.905 321.306 135.066 323.423 135.361C327.217 135.909 331.048 136.151 334.88 136.084C335.533 136.035 336.189 136.117 336.81 136.326C338.404 137.049 338.15 142.637 338.525 144.366C339.191 147.365 340.175 150.285 341.46 153.076C341.821 153.839 342.317 154.697 343.148 154.844C344.488 155.099 345.332 153.37 345.587 151.99C346.378 147.755 346.711 143.446 346.578 139.14C346.498 136.46 345.131 133.981 344.984 131.354C344.836 128.728 344.341 126.544 342.197 124.869C340.891 123.899 339.377 123.247 337.775 122.966C335.927 122.591 334.033 122.51 332.16 122.725C329.225 123.073 326.867 124.239 324.12 122.564C323.329 122.081 322.298 121.452 321.587 122.055C321.212 122.376 321.145 122.926 320.958 123.395C320.77 123.864 320.314 124.333 319.859 124.145C319.673 124.056 319.515 123.917 319.403 123.743C319.136 123.305 318.77 122.936 318.335 122.664C317.9 122.392 317.408 122.224 316.897 122.175C315.678 122.256 314.887 123.515 314.673 124.735C314.11 127.817 315.825 130.095 317.353 132.547C317.62 132.946 317.93 133.314 318.278 133.646Z" fill="#282F3F"/>
<path d="M316.736 144.406L316.602 144.5C314.82 145.612 316.602 150.128 317.433 151.454C318.823 153.733 320.93 155.486 323.423 156.439C324.601 156.963 325.879 157.224 327.168 157.204C328.457 157.183 329.726 156.881 330.887 156.319C332.87 155.193 334.907 151.709 335.603 149.619C335.953 148.593 335.886 147.472 335.416 146.496C334.762 145.541 333.824 144.814 332.736 144.419C327.684 142.101 321.466 141.512 316.736 144.406Z" fill="#94B9FF"/>
<path d="M327.644 144.647L339.181 140.868C344.648 139.073 341.754 147.273 339.998 149.243C337.493 152.03 333.566 153.183 330.176 154.469" stroke="#94B9FF" stroke-miterlimit="10"/>
<path d="M331.235 280.081C327.591 280.389 321.587 280.577 317.943 280.885C316.315 281.184 314.635 280.973 313.132 280.282C312.332 279.689 311.588 279.026 310.908 278.299C307.986 275.726 303.578 275.753 299.812 276.731C296.047 277.709 292.469 279.491 288.61 279.987C283.317 280.644 277.89 278.821 272.651 279.518C269.528 279.933 266.554 281.206 263.418 281.381" stroke="black" stroke-width="0.5" stroke-miterlimit="10"/>
<path d="M344.38 141.766C344.793 143.113 344.791 144.552 344.375 145.897C343.96 147.242 343.149 148.432 342.049 149.31C341.524 149.755 340.872 150.022 340.186 150.074C337.024 150.155 335.885 144.406 336.809 142.101C338.216 138.698 343.214 137.84 344.38 141.766Z" fill="#B8D9FF"/>
<path d="M339.583 142.463C340.009 142.464 340.419 142.624 340.734 142.912C341.048 143.199 341.245 143.593 341.285 144.017C341.329 144.869 341.154 145.718 340.776 146.483" fill="#282F3F"/>
<path d="M317.91 218.186L302.789 216.321L302.126 221.694L317.248 223.559L317.91 218.186Z" fill="white"/>
<path d="M325.889 133.512C322.278 133.415 318.752 132.39 315.651 130.537C314.374 131.376 313.156 132.303 312.006 133.311C311.315 133.85 310.741 134.525 310.318 135.294C310.103 135.674 309.99 136.103 309.99 136.54C309.99 136.977 310.103 137.406 310.318 137.786C310.819 138.374 311.504 138.775 312.261 138.925C316.575 140.078 321.12 140.05 325.42 138.845C329.698 137.633 333.838 135.981 337.775 133.914L333.674 133.096C331.092 133.419 328.491 133.558 325.889 133.512Z" fill="#356CCB"/>
<path d="M342.598 132.48C340.695 132.574 338.793 132.614 336.89 132.681C335.483 132.895 331.53 132.855 331.315 134.825C331.28 135.055 331.333 135.289 331.463 135.482C333.781 135.281 336.112 135.147 338.431 135.039C340.213 134.959 341.982 134.919 343.791 134.798C344.648 134.798 345.492 134.611 346.337 134.477C346.203 133.726 346.082 132.989 345.895 132.252L342.598 132.48Z" fill="#356CCB"/>
<path d="M265.87 463.165L277.93 500.873C278.067 501.305 278.338 501.683 278.704 501.95C279.071 502.218 279.513 502.361 279.966 502.36H344.621C345.096 502.362 345.557 502.205 345.931 501.913C346.306 501.621 346.571 501.213 346.685 500.752L356.293 463.045C356.375 462.728 356.383 462.396 356.317 462.076C356.251 461.755 356.112 461.454 355.912 461.195C355.711 460.936 355.454 460.727 355.16 460.583C354.866 460.439 354.543 460.364 354.216 460.365H267.906C267.569 460.365 267.236 460.445 266.936 460.599C266.635 460.752 266.375 460.975 266.177 461.247C265.978 461.52 265.847 461.836 265.794 462.17C265.74 462.503 265.766 462.844 265.87 463.165ZM292.308 495.124C292.308 499.01 286.278 499.01 286.278 495.124V471.339C286.278 467.453 292.308 467.453 292.308 471.339V495.124ZM307.704 494.816C307.704 498.702 301.674 498.702 301.674 494.816V471.259C301.674 467.373 307.704 467.386 307.704 471.259V494.816ZM323.034 494.133C323.034 498.019 317.004 498.019 317.004 494.133V471.259C317.004 467.373 323.034 467.386 323.034 471.259V494.133ZM339.275 493.677C339.275 497.563 333.245 497.549 333.245 493.677V471.259C333.245 467.373 339.275 467.386 339.275 471.259V493.677Z" fill="black"/>
<path d="M359.684 458.663H262.225C261.345 458.663 260.631 459.377 260.631 460.257V462.723C260.631 463.604 261.345 464.318 262.225 464.318H359.684C360.564 464.318 361.278 463.604 361.278 462.723V460.257C361.278 459.377 360.564 458.663 359.684 458.663Z" fill="#5379F6"/>
<path d="M368.42 456.144L316.106 460.378" stroke="black" stroke-width="3" stroke-miterlimit="10" stroke-linecap="round"/>
<path d="M200.29 452.07C195.745 452.103 191.206 451.722 186.729 450.931C183.088 450.313 179.557 449.161 176.251 447.514C173.571 446.204 171.236 444.286 169.43 441.913C167.799 439.679 166.943 436.973 166.991 434.208C166.902 431.431 167.826 428.716 169.591 426.57C171.224 424.595 173.209 422.941 175.447 421.692C178.496 423.979 181.758 425.967 185.188 427.628C189.332 429.438 193.829 430.294 198.347 430.134C203.426 430.134 207.057 429.008 209.228 426.73C210.287 425.631 211.118 424.334 211.674 422.913C212.231 421.492 212.501 419.975 212.471 418.449C212.567 415.58 211.549 412.785 209.63 410.65C207.741 408.6 204.458 407.568 199.808 407.568C197.333 407.504 194.863 407.834 192.491 408.547C190.203 409.326 187.965 410.248 185.791 411.307C180.485 411.084 176.291 409.645 173.209 406.992C170.127 404.339 168.586 400.252 168.586 394.731V393.512C168.586 393.029 168.586 392.024 168.747 390.51L170.69 365.827C170.785 361.742 172.339 357.825 175.071 354.786C177.671 352.106 181.302 350.766 185.966 350.766H232.732C233.517 352.275 234.172 353.848 234.688 355.469C235.338 357.464 235.664 359.549 235.653 361.647C235.653 365.76 234.742 368.682 232.892 370.41C231.957 371.281 230.858 371.959 229.66 372.405C228.463 372.851 227.188 373.056 225.911 373.01H194.77L193.63 388.272C195.694 387.736 197.771 387.254 199.888 386.812C202.541 386.336 205.234 386.121 207.928 386.169C212.918 386.058 217.883 386.914 222.548 388.688C226.34 390.143 229.749 392.445 232.517 395.417C235.285 398.389 237.338 401.954 238.52 405.84C239.792 409.889 240.425 414.111 240.396 418.355C240.405 422.731 239.633 427.074 238.118 431.179C236.61 435.286 234.164 438.984 230.976 441.98C227.382 445.265 223.155 447.782 218.555 449.376C212.668 451.324 206.488 452.235 200.29 452.07Z" fill="#5379F6"/>
<path d="M379.944 267.726C379.399 268.984 378.657 270.146 377.746 271.17" stroke="#282F3F" stroke-miterlimit="10"/>
<path d="M352.756 240.591C353.037 235.325 354.9 209.423 355.811 204.237" stroke="#282F3F" stroke-miterlimit="10"/>
<path d="M488.953 420.955L496.404 362.732" stroke="black" stroke-width="2" stroke-miterlimit="10"/>
<path d="M476.652 420.955H405.015L389.94 343.101C389.601 341.35 388.662 339.771 387.286 338.637C385.909 337.502 384.18 336.882 382.396 336.884H364.092" stroke="black" stroke-width="2" stroke-miterlimit="10"/>
<path d="M388.761 362.732H516.262C517.334 362.732 518.391 362.983 519.348 363.465C520.306 363.947 521.137 364.646 521.775 365.507C522.414 366.368 522.842 367.367 523.024 368.423C523.207 369.48 523.14 370.564 522.828 371.59L509.428 416.078C508.998 417.488 508.126 418.723 506.942 419.601C505.757 420.479 504.323 420.953 502.848 420.955H476.651" stroke="black" stroke-width="2" stroke-miterlimit="10"/>
<path d="M507.861 495.62C507.861 495.62 449.852 495.017 428.037 495.62C425.7 495.628 423.429 494.844 421.594 493.396C419.759 491.948 418.469 489.922 417.933 487.647L413.605 464.947C413.475 464.255 413.497 463.542 413.668 462.859C413.84 462.175 414.158 461.537 414.6 460.989C415.041 460.44 415.597 459.993 416.228 459.679C416.859 459.366 417.551 459.193 418.255 459.172L500.625 457.055C502.56 457.009 504.4 456.208 505.752 454.824C507.104 453.439 507.861 451.58 507.861 449.644V448.626C507.861 446.657 507.079 444.769 505.686 443.377C504.294 441.985 502.406 441.202 500.437 441.202H415.481C413.867 441.204 412.3 440.661 411.033 439.662C409.766 438.663 408.874 437.265 408.5 435.695L405.016 420.955" stroke="black" stroke-width="2" stroke-miterlimit="10"/>
<path d="M448.069 500.026C449.362 494.567 445.986 489.094 440.527 487.8C435.069 486.507 429.595 489.884 428.302 495.342C427.008 500.801 430.385 506.274 435.843 507.567C441.302 508.861 446.776 505.484 448.069 500.026Z" fill="#5379F6"/>
<path d="M495.72 497.657C495.72 499.666 495.124 501.629 494.008 503.3C492.892 504.97 491.305 506.272 489.449 507.041C487.593 507.81 485.551 508.011 483.581 507.619C481.611 507.227 479.801 506.259 478.38 504.839C476.96 503.418 475.992 501.609 475.6 499.638C475.209 497.668 475.41 495.626 476.178 493.77C476.947 491.914 478.249 490.327 479.919 489.211C481.59 488.095 483.554 487.5 485.562 487.5C488.256 487.5 490.84 488.57 492.745 490.474C494.65 492.379 495.72 494.963 495.72 497.657Z" fill="#5379F6"/>
<path d="M466.615 362.732L465.945 420.955" stroke="black" stroke-width="2" stroke-miterlimit="10"/>
<path d="M438.181 362.732L442.924 420.955" stroke="black" stroke-width="2" stroke-miterlimit="10"/>
<path d="M409.812 362.357L418.616 419.629" stroke="black" stroke-width="2" stroke-miterlimit="10"/>
<path d="M397.377 381.452H519.853" stroke="black" stroke-width="2" stroke-miterlimit="10"/>
<path d="M399.414 396.178H515.404" stroke="black" stroke-width="2" stroke-miterlimit="10"/>
<path d="M402.858 409.833H511.278" stroke="black" stroke-width="2" stroke-miterlimit="10"/>
<path d="M441.249 497.656C441.252 498.267 441.073 498.865 440.735 499.374C440.397 499.883 439.916 500.28 439.353 500.515C438.789 500.75 438.168 500.812 437.569 500.693C436.97 500.575 436.419 500.281 435.988 499.849C435.556 499.417 435.262 498.867 435.144 498.268C435.025 497.669 435.087 497.048 435.322 496.484C435.557 495.921 435.954 495.439 436.463 495.102C436.972 494.764 437.57 494.585 438.18 494.588C438.994 494.588 439.775 494.911 440.35 495.487C440.926 496.062 441.249 496.843 441.249 497.656Z" stroke="black" stroke-width="2" stroke-miterlimit="10"/>
<path d="M488.631 497.656C488.631 498.263 488.451 498.857 488.114 499.361C487.777 499.866 487.298 500.259 486.737 500.492C486.176 500.724 485.559 500.785 484.964 500.666C484.369 500.548 483.822 500.255 483.393 499.826C482.964 499.397 482.672 498.85 482.553 498.255C482.435 497.66 482.495 497.043 482.728 496.482C482.96 495.921 483.353 495.442 483.858 495.105C484.363 494.768 484.956 494.588 485.563 494.588C485.966 494.586 486.366 494.664 486.739 494.818C487.112 494.971 487.451 495.197 487.737 495.483C488.022 495.768 488.248 496.107 488.401 496.48C488.555 496.853 488.633 497.253 488.631 497.656Z" stroke="black" stroke-width="2" stroke-miterlimit="10"/>
<path d="M356.079 336.884H375.455" stroke="black" stroke-width="5" stroke-miterlimit="10" stroke-linecap="round"/>
<path opacity="0.29" d="M386.738 99.3015H170.65C166.258 99.3086 162.049 101.058 158.946 104.166C155.843 107.274 154.101 111.486 154.101 115.877V282.158H316.093V266.212C316.091 264.888 316.351 263.577 316.857 262.354C317.362 261.13 318.105 260.019 319.041 259.083C319.977 258.147 321.088 257.404 322.312 256.899C323.535 256.393 324.846 256.133 326.17 256.135H358.544C361.217 256.135 363.78 257.197 365.67 259.087C367.56 260.976 368.621 263.539 368.621 266.212V282.158H403.341V115.877C403.341 113.698 402.911 111.541 402.076 109.528C401.242 107.515 400.018 105.687 398.476 104.147C396.934 102.607 395.104 101.387 393.089 100.556C391.075 99.7242 388.917 99.298 386.738 99.3015Z" fill="#CADDFE"/>
<path opacity="0.51" d="M267.183 130.537L179.855 189.792" stroke="white" stroke-width="2" stroke-miterlimit="10"/>
<path opacity="0.51" d="M295.457 120.447L208.116 179.702" stroke="white" stroke-width="2" stroke-miterlimit="10"/>
<path opacity="0.51" d="M261.086 213.121L225.08 237.549" stroke="white" stroke-width="2" stroke-miterlimit="10"/>
<path opacity="0.51" d="M284.148 187.219L179.855 257.984" stroke="white" stroke-width="2" stroke-miterlimit="10"/>
<path d="M343.107 275.029L343.013 275.096C338.993 277.495 333.767 277.923 328.957 277.856C328.693 277.858 328.432 277.912 328.188 278.015C327.945 278.117 327.725 278.267 327.539 278.455C327.354 278.643 327.207 278.865 327.108 279.11C327.008 279.354 326.958 279.616 326.96 279.88V282.077C327.791 282.158 328.742 282.077 329.533 282.077H337.064L356.226 282.252V276.356C356.226 276 356.084 275.659 355.833 275.408C355.582 275.157 355.241 275.016 354.886 275.016L343.107 275.029Z" fill="black"/>
<path opacity="0.54" d="M144.52 177.075V210.535" stroke="black" stroke-miterlimit="10"/>
<path opacity="0.54" d="M242.326 90.9399H172.941C163.936 90.9399 155.333 91.2347 148.821 98.7387C141.665 107.02 143.38 118.611 143.38 128.768V160.781" stroke="black" stroke-miterlimit="10"/>
<path opacity="0.54" d="M586.304 148.56V192.941C586.306 194.614 585.978 196.271 585.339 197.817C584.7 199.363 583.762 200.767 582.58 201.951C581.398 203.135 579.994 204.073 578.449 204.714C576.903 205.355 575.247 205.684 573.574 205.684H564.516" stroke="black" stroke-miterlimit="10"/>
<path opacity="0.54" d="M317.393 90.9399H510.647" stroke="black" stroke-miterlimit="10"/>
<path opacity="0.54" d="M122.034 404.138V482.408C122.038 485.813 123.393 489.079 125.803 491.486C128.212 493.893 131.479 495.245 134.885 495.245H159.46" stroke="black" stroke-miterlimit="10"/>
<path opacity="0.54" d="M518.942 440.224C519.836 445.504 520.729 450.784 521.622 456.063" stroke="black" stroke-miterlimit="10"/>
<path opacity="0.54" d="M540.463 354.92C535.63 370.893 530.797 386.866 525.964 402.838" stroke="black" stroke-miterlimit="10"/>
</g>
<defs>
<clipPath id="clip0_263_2485">
<rect width="670" height="670" fill="white" transform="translate(0 -31)"/>
</clipPath>
</defs>
</svg>
