<svg width="26" height="24" viewBox="0 0 26 24" fill="none" xmlns="http://www.w3.org/2000/svg">
<g clip-path="url(#clip0_570_2136)">
<path d="M8.47659 12.8994C11.2336 12.8994 13.4766 10.6564 13.4766 7.89941C13.4766 5.14241 11.2336 2.89941 8.47659 2.89941C5.71959 2.89941 3.47659 5.14241 3.47659 7.89941C3.47659 10.6564 5.71959 12.8994 8.47659 12.8994ZM8.47659 5.89941C9.57959 5.89941 10.4766 6.79641 10.4766 7.89941C10.4766 9.00241 9.57959 9.89941 8.47659 9.89941C7.37359 9.89941 6.47659 9.00241 6.47659 7.89941C6.47659 6.79641 7.37359 5.89941 8.47659 5.89941ZM17.8646 2.51941C17.3086 1.90541 17.3556 0.957412 17.9696 0.400412C18.5846 -0.155588 19.5316 -0.109588 20.0886 0.505412C20.9646 1.47241 21.7276 2.53841 22.3556 3.67241C22.7566 4.39741 22.4956 5.30941 21.7706 5.71141C21.5406 5.83941 21.2916 5.89941 21.0456 5.89941C20.5176 5.89941 20.0056 5.62041 19.7326 5.12541C19.2156 4.19241 18.5876 3.31541 17.8656 2.51841L17.8646 2.51941ZM22.3556 20.1264C21.6996 21.3104 20.8986 22.4174 19.9756 23.4174C19.4116 24.0264 18.4636 24.0624 17.8556 23.5014C17.2476 22.9394 17.2096 21.9904 17.7716 21.3814C18.5326 20.5584 19.1916 19.6464 19.7316 18.6724C20.1326 17.9474 21.0436 17.6844 21.7706 18.0874C22.4956 18.4884 22.7566 19.4014 22.3556 20.1264ZM24.3506 15.7894C24.0166 16.5564 23.1156 16.8914 22.3746 16.5614L16.9696 14.1924C16.6646 14.3244 16.3296 14.3994 15.9766 14.3994C14.5956 14.3994 13.4766 13.2804 13.4766 11.8994C13.4766 10.5184 14.5956 9.39941 15.9766 9.39941C17.2416 9.39941 18.2766 10.3424 18.4426 11.5614L23.5786 13.8124C24.3376 14.1454 24.6826 15.0294 24.3506 15.7884V15.7894ZM22.2336 7.42341C23.0776 7.16841 23.9706 7.68941 24.1446 8.55341C24.2036 8.84641 24.2546 9.14041 24.2986 9.43641C24.4696 10.6014 23.2826 11.5004 22.2036 11.0274C21.7166 10.8144 21.3966 10.3574 21.3196 9.83141C21.2856 9.59941 21.2456 9.36841 21.2006 9.13841C21.0516 8.38641 21.4986 7.64641 22.2326 7.42441H22.2346L22.2336 7.42341ZM16.4476 22.3874C16.5026 23.2144 15.8766 23.9284 15.0506 23.9834C14.2206 24.0394 13.5096 23.4124 13.4546 22.5864C13.3226 20.5854 12.0136 18.9214 10.2366 18.2384L9.42059 19.4624L10.4176 22.5954C10.6006 23.2614 10.0126 23.9004 9.21659 23.9004H7.68459C6.88859 23.9004 6.30159 23.2614 6.48359 22.5954L7.48059 19.4624L6.66459 18.2394C4.88759 18.9224 3.57859 20.5864 3.44559 22.5874C3.39359 23.4154 2.66659 24.0424 1.84959 23.9844C1.02259 23.9294 0.397587 23.2154 0.452587 22.3884C0.730587 18.1894 4.24359 14.9004 8.44959 14.9004C12.6556 14.9004 16.1686 18.1894 16.4466 22.3884L16.4476 22.3874Z" fill="#007AFF"/>
</g>
<defs>
<clipPath id="clip0_570_2136">
<rect width="25" height="23.9762" fill="white" transform="translate(0.449219 0.0119629)"/>
</clipPath>
</defs>
</svg>
