<svg width="25" height="24" viewBox="0 0 25 24" fill="none" xmlns="http://www.w3.org/2000/svg">
<g clip-path="url(#clip0_570_464)">
<path d="M21.7872 14.0505V13.9995C21.7872 12.8965 20.8902 11.9995 19.7872 11.9995H16.7872C15.6842 11.9995 14.7872 12.8965 14.7872 13.9995V14.0505C13.0952 14.2955 11.7872 15.7415 11.7872 17.4995V20.4995C11.7872 22.4295 13.3572 23.9995 15.2872 23.9995H21.2872C23.2172 23.9995 24.7872 22.4295 24.7872 20.4995V17.4995C24.7872 15.7415 23.4792 14.2955 21.7872 14.0505ZM21.7872 20.4995C21.7872 20.7755 21.5632 20.9995 21.2872 20.9995H15.2872C15.0112 20.9995 14.7872 20.7755 14.7872 20.4995V17.4995C14.7872 17.2235 15.0112 16.9995 15.2872 16.9995H16.7872V17.4995C16.7872 18.3285 17.4582 18.9995 18.2872 18.9995C19.1162 18.9995 19.7872 18.3285 19.7872 17.4995V16.9995H21.2872C21.5632 16.9995 21.7872 17.2235 21.7872 17.4995V20.4995ZM9.78723 11.9995C13.0962 11.9995 15.7872 9.30851 15.7872 5.99951C15.7872 2.69051 13.0962 -0.000488281 9.78723 -0.000488281C6.47823 -0.000488281 3.78723 2.69051 3.78723 5.99951C3.78723 9.30851 6.47823 11.9995 9.78723 11.9995ZM9.78723 2.99951C11.4412 2.99951 12.7872 4.34551 12.7872 5.99951C12.7872 7.65351 11.4412 8.99951 9.78723 8.99951C8.13323 8.99951 6.78723 7.65351 6.78723 5.99951C6.78723 4.34551 8.13323 2.99951 9.78723 2.99951ZM9.75723 15.2005C9.92223 16.0125 9.39823 16.8045 8.58623 16.9695C5.99923 17.4955 3.99023 19.8635 3.80923 22.5985C3.75723 23.3915 3.09723 23.9995 2.31423 23.9995C1.31723 24.0285 0.761229 23.2275 0.816229 22.4005C1.08423 18.3395 4.10023 14.8195 7.98823 14.0295C8.79923 13.8665 9.59223 14.3885 9.75723 15.2005Z" fill="#007AFF"/>
</g>
<defs>
<clipPath id="clip0_570_464">
<rect width="23.9747" height="24.0008" fill="white" transform="translate(0.8125 -0.000488281)"/>
</clipPath>
</defs>
</svg>
