<svg width="25" height="24" viewBox="0 0 25 24" fill="none" xmlns="http://www.w3.org/2000/svg">
<g clip-path="url(#clip0_570_1593)">
<path d="M9.10156 22.5C9.10156 23.328 8.42956 24 7.60156 24H5.60156C2.56956 24 0.101562 21.532 0.101562 18.5V5.5C0.101562 2.468 2.56956 0 5.60156 0H12.6016C15.6336 0 18.1016 2.468 18.1016 5.5V8.5C18.1016 9.328 17.4296 10 16.6016 10C15.7736 10 15.1016 9.328 15.1016 8.5V5.5C15.1016 4.121 13.9806 3 12.6016 3H5.60156C4.22256 3 3.10156 4.121 3.10156 5.5V18.5C3.10156 19.879 4.22256 21 5.60156 21H7.60156C8.42956 21 9.10156 21.672 9.10156 22.5ZM6.60156 5C5.77356 5 5.10156 5.672 5.10156 6.5C5.10156 7.328 5.77356 8 6.60156 8C7.42956 8 8.10156 7.328 8.10156 6.5C8.10156 5.672 7.42956 5 6.60156 5ZM10.1016 6.5C10.1016 7.328 10.7736 8 11.6016 8C12.4296 8 13.1016 7.328 13.1016 6.5C13.1016 5.672 12.4296 5 11.6016 5C10.7736 5 10.1016 5.672 10.1016 6.5ZM6.60156 10C5.77356 10 5.10156 10.672 5.10156 11.5C5.10156 12.328 5.77356 13 6.60156 13C7.42956 13 8.10156 12.328 8.10156 11.5C8.10156 10.672 7.42956 10 6.60156 10ZM13.1016 11.5C13.1016 10.672 12.4296 10 11.6016 10C10.7736 10 10.1016 10.672 10.1016 11.5C10.1016 12.328 10.7736 13 11.6016 13C12.4296 13 13.1016 12.328 13.1016 11.5ZM6.60156 15C5.77356 15 5.10156 15.672 5.10156 16.5C5.10156 17.328 5.77356 18 6.60156 18C7.42956 18 8.10156 17.328 8.10156 16.5C8.10156 15.672 7.42956 15 6.60156 15ZM24.1016 17.5V20.5C24.1016 22.43 22.5316 24 20.6016 24H14.6016C12.6716 24 11.1016 22.43 11.1016 20.5V17.5C11.1016 15.742 12.4096 14.296 14.1016 14.051V14C14.1016 12.897 14.9986 12 16.1016 12H19.1016C20.2046 12 21.1016 12.897 21.1016 14V14.051C22.7936 14.296 24.1016 15.742 24.1016 17.5ZM21.1016 17.5C21.1016 17.225 20.8766 17 20.6016 17H19.1016V17.5C19.1016 18.328 18.4296 19 17.6016 19C16.7736 19 16.1016 18.328 16.1016 17.5V17H14.6016C14.3266 17 14.1016 17.225 14.1016 17.5V20.5C14.1016 20.775 14.3266 21 14.6016 21H20.6016C20.8766 21 21.1016 20.775 21.1016 20.5V17.5Z" fill="#007AFF"/>
</g>
<defs>
<clipPath id="clip0_570_1593">
<rect width="24" height="24" fill="white" transform="translate(0.101562)"/>
</clipPath>
</defs>
</svg>
