<?xml version="1.0" encoding="UTF-8"?>
<svg version="1.1" xmlns="http://www.w3.org/2000/svg" width="6530" height="1708">
<path d="M0 0 C83.82 0 167.64 0 254 0 C264.89 30.195 264.89 30.195 276 61 C286.80348469 90.91734223 297.6481321 120.81293773 308.67700195 150.64703369 C316.49205044 171.79860053 324.14335576 193.00617044 331.75182533 214.23264694 C332.95808152 217.59786605 334.16450052 220.96302673 335.37109375 224.328125 C335.60829258 224.98969856 335.84549141 225.65127213 336.08987808 226.33289337 C341.86947484 242.44947986 347.72356057 258.53880747 353.58447266 274.62597656 C354.40400754 276.87563786 355.22350622 279.12531235 356.04296875 281.375 C356.65129547 283.04499054 356.65129547 283.04499054 357.27191162 284.74871826 C360.25135923 292.93250555 363.21670247 301.12132772 366.17578125 309.3125 C375.25994659 334.45546531 384.40580069 359.57292702 393.67745972 384.6473999 C400.97705779 404.39929364 408.12762424 424.20169732 415.22559738 444.02662277 C422.7893707 465.15196438 430.47578193 486.22706227 438.26367188 507.27099609 C444.27901776 523.53164691 450.17655052 539.82766419 455.9446106 556.17755127 C462.60366146 575.03988678 469.51734432 593.80642064 476.46875 612.5625 C482.43289756 628.66673081 488.25889214 644.8151194 494 661 C496.34662292 658.65337708 496.911116 656.89101985 498.02099609 653.77075195 C498.61584808 652.11199287 498.61584808 652.11199287 499.22271729 650.41972351 C499.65195496 649.20484756 500.08119263 647.98997162 500.5234375 646.73828125 C500.98056783 645.45768059 501.43824197 644.17727394 501.89642334 642.89704895 C502.8792725 640.14774931 503.85871038 637.39726764 504.83551025 634.64581299 C506.38821479 630.27267761 507.94878471 625.90237798 509.51123047 621.53271484 C509.77325068 620.79988407 510.03527088 620.0670533 510.30523109 619.31201553 C510.83716282 617.8243341 511.36912051 616.33666195 511.90110397 614.84899902 C512.70742298 612.59344583 513.513038 610.3376422 514.31851196 608.08178711 C519.20152118 594.41034435 524.15230158 580.76408301 529.125 567.125 C530.7647035 562.62513859 532.40396296 558.12511558 534.04296875 553.625 C534.44861557 552.51139603 534.85426239 551.39779205 535.27220154 550.2504425 C538.25158124 542.06694541 541.21680302 533.87839394 544.17578125 525.6875 C552.83452427 501.72200981 561.53846583 477.7755709 570.375 453.875 C577.87809948 433.57936751 585.26091138 413.2437614 592.5625 392.875 C592.80353958 392.20258774 593.04457916 391.53017548 593.29292297 390.83738708 C593.77923247 389.4807122 594.26553327 388.12403419 594.75182533 386.76735306 C595.95808152 383.40213395 597.16450052 380.03697327 598.37109375 376.671875 C598.60829258 376.01030144 598.84549141 375.34872787 599.08987808 374.66710663 C604.86947484 358.55052014 610.72356057 342.46119253 616.58447266 326.37402344 C617.40400754 324.12436214 618.22350622 321.87468765 619.04296875 319.625 C619.4485199 318.51167297 619.85407104 317.39834595 620.27191162 316.25128174 C623.25135923 308.06749445 626.21670247 299.87867228 629.17578125 291.6875 C637.83452396 267.72201068 646.53835598 243.7755299 655.375 219.875 C662.96298583 199.35081373 670.42733403 178.78531187 677.8125 158.1875 C678.17919548 157.16475731 678.17919548 157.16475731 678.55329895 156.12135315 C679.28915463 154.06887262 680.02495965 152.01637394 680.76074219 149.96386719 C681.48234158 147.95092947 682.20394633 145.93799367 682.92557907 143.9250679 C683.39842543 142.60610452 683.87124712 141.2871323 684.34404373 139.96815109 C689.18431218 126.4667132 694.0774257 112.98488097 698.98974609 99.50952148 C699.62211443 97.7745929 700.2544381 96.03964804 700.88671875 94.3046875 C701.20455322 93.43258133 701.5223877 92.56047516 701.84985352 91.66194153 C704.45442991 84.50985748 707.04505336 77.35275429 709.63214874 70.19433212 C710.33363395 68.25337796 711.03529473 66.31248734 711.73699951 64.37161255 C713.58015329 59.27326563 715.42330041 54.17491867 717.26348877 49.07550049 C721.81127072 36.47324159 726.38497196 23.88145358 731.06640625 11.328125 C731.63958839 9.78387848 731.63958839 9.78387848 732.22434998 8.20843506 C732.57514114 7.27243469 732.92593231 6.33643433 733.28735352 5.37207031 C733.59512222 4.54846008 733.90289093 3.72484985 734.21998596 2.87628174 C735 1 735 1 736 0 C819.82 0 903.64 0 990 0 C990 299.31 990 598.62 990 907 C925.65 907 861.3 907 795 907 C794.24085441 853.77077339 794.24085441 853.77077339 794.0859375 832.34008789 C794.07637527 831.02216881 794.06681305 829.70424973 794.05696106 828.3463937 C793.99135505 819.13639961 793.9359314 809.92636211 793.88657856 800.71626741 C793.87504956 798.57171854 793.86318335 796.42717171 793.85131073 794.28262472 C793.35201918 702.53014508 795.68279613 611.01331911 804 428.5625 C804.05372343 427.45108857 804.10744687 426.33967714 804.16279829 425.19458658 C806.09691998 385.19153546 808.05598377 345.18961859 810.11086191 305.19257028 C810.25393505 302.40695695 810.39671904 299.62132895 810.53942192 296.83569664 C810.93434353 289.13062161 811.33008152 281.42560297 811.73391037 273.72098897 C811.89318403 270.67297384 812.050238 267.62484702 812.20677517 264.57669026 C812.31214948 262.53966071 812.42045196 260.50278327 812.52888501 258.46591425 C812.89497932 251.30253313 813.09078181 244.17271603 813 237 C799.82492002 271.92653021 786.66542967 306.85882969 773.5625 341.8125 C773.28515518 342.55232243 773.00781036 343.29214485 772.72206116 344.05438614 C768.48039002 355.369222 764.24004375 366.68455423 760 378 C755.4799196 390.06278228 750.95935838 402.12538409 746.4375 414.1875 C746.1582732 414.9323679 745.8790464 415.67723579 745.59135818 416.44467545 C736.81602372 439.85323082 728.01269624 463.25112039 719.19203949 486.64263153 C710.62664321 509.3576112 702.08359858 532.08086491 693.5625 554.8125 C693.14355972 555.93010208 693.14355972 555.93010208 692.71615601 557.07028198 C690.17315585 563.85439657 687.63049526 570.63863839 685.08816528 577.42300415 C681.14217824 587.95308968 677.19472021 598.48262268 673.24609375 609.01171875 C672.96777269 609.75386942 672.68945164 610.49602009 672.40269661 611.26066017 C670.99731629 615.0081217 669.59191036 618.75557363 668.18649292 622.50302124 C665.65545422 629.2518967 663.12464273 636.00085737 660.59381294 642.74981117 C659.18755116 646.49987756 657.78127485 650.24993851 656.375 654 C655.81249993 655.49999997 655.24999993 656.99999997 654.6875 658.5 C624.31250002 739.49999994 624.31250002 739.49999994 623.46873379 741.75004292 C622.90628755 743.24989976 622.34384159 744.74975671 621.78139591 746.24961376 C620.37432563 750.0018049 618.96725049 753.75399422 617.56016541 757.50617981 C615.03870549 764.23001313 612.51727764 770.95385846 609.99603558 777.67777348 C608.6028502 781.39326438 607.20963578 785.1087444 605.81640625 788.82421875 C605.54003389 789.56125219 605.26366154 790.29828564 604.97891426 791.05765343 C601.15463971 801.25610996 597.32901815 811.45406036 593.50241089 821.65164185 C591.3644149 827.34923741 589.22679183 833.04697288 587.08924675 838.74473763 C585.64232781 842.60150743 584.19520781 846.45820151 582.74755859 850.31469727 C581.40178625 853.8998149 580.05646707 857.48510219 578.71158218 861.07055283 C578.19683348 862.44278106 577.68197065 863.81496649 577.16698837 865.18710709 C574.43769779 872.46032591 571.72216484 879.73823136 569.03955078 887.02880859 C568.80432866 887.66733481 568.56910654 888.30586103 568.32675648 888.96373653 C567.217491 891.97539083 566.11114489 894.98805186 565.00987244 898.00263977 C564.62642166 899.04550644 564.24297089 900.08837311 563.84790039 901.1628418 C563.51335342 902.07752731 563.17880646 902.99221283 562.8341217 903.93461609 C562 906 562 906 561 907 C559.27907347 907.09624593 557.55416618 907.12187598 555.83055115 907.12025452 C554.71009399 907.12162918 553.58963684 907.12300385 552.43522644 907.12442017 C551.19517349 907.12082489 549.95512054 907.11722961 548.67749023 907.11352539 C546.73143387 907.11374443 546.73143387 907.11374443 544.74606323 907.1139679 C541.17804071 907.11425586 537.61005152 907.10835932 534.04203677 907.10139394 C530.3170938 907.09516021 526.59215014 907.09455659 522.86720276 907.09336853 C515.80882637 907.09025527 508.7504654 907.08204195 501.69209582 907.07201904 C493.65837029 907.06085774 485.62464404 907.05534741 477.5909127 907.05032361 C461.06059943 907.03985934 444.53030168 907.02226 428 907 C414.25374027 871.11287261 414.25374027 871.11287261 409.09924316 857.29589844 C407.57083638 853.19991054 406.03719844 849.10587982 404.50390625 845.01171875 C404.16056244 844.09482269 403.81721863 843.17792664 403.46347046 842.23324585 C400.39092951 834.03310969 397.30425161 825.83832297 394.21484375 817.64453125 C393.95773495 816.96261593 393.70062614 816.28070061 393.43572617 815.57812119 C392.09408845 812.01989908 390.75232242 808.46172538 389.41052246 804.90356445 C379.77076671 779.3404314 370.15205582 753.76950839 360.5625 728.1875 C360.28400711 727.44456696 360.00551422 726.70163391 359.71858215 725.93618774 C357.1747135 719.14975335 354.63118132 712.36319288 352.08798218 705.57650757 C348.14205636 695.04658472 344.19465918 684.51721456 340.24609375 673.98828125 C339.96777269 673.24613058 339.68945164 672.50397991 339.40269661 671.73933983 C337.99731629 667.9918783 336.59191036 664.24442637 335.18649292 660.49697876 C332.65545422 653.7481033 330.12464273 646.99914263 327.59381294 640.25018883 C326.18755116 636.50012244 324.78127485 632.75006149 323.375 629 C322.81249993 627.50000003 322.24999993 626.00000003 321.6875 624.5 C321.4090625 623.7575 321.130625 623.015 320.84375 622.25 C293 548 265.15625 473.75 176 236 C176.56138871 255.94181853 177.37833022 275.8577185 178.43460572 295.77946699 C178.68572814 300.51683295 178.93174078 305.25445714 179.17682552 309.99213886 C179.21967414 310.82041143 179.26252275 311.64868399 179.30666981 312.50205572 C179.39473386 314.20487174 179.48277453 315.90768897 179.57079261 317.61050736 C179.70602693 320.22503394 179.84159108 322.83954326 179.97720581 325.45405012 C181.9147289 362.84052643 183.74762427 400.2323958 185.5625 437.625 C185.61271354 438.65873892 185.66292709 439.69247785 185.71466225 440.75754219 C190.42899383 537.84768349 194.82619679 634.88860195 195.0625 795.6875 C195.05525063 797.15296711 195.04800733 798.61843424 195.04077005 800.08390141 C194.99060785 810.10954244 194.9310202 820.13510557 194.86352539 830.16064453 C194.85517194 831.40976301 194.84681848 832.65888149 194.83821189 833.94585204 C194.66832663 858.29901848 194.31777353 882.64774774 194 907 C129.98 907 65.96 907 0 907 C0 607.69 0 308.38 0 0 Z " fill="#0079FE" transform="translate(1759,517)"/>
<path d="M0 0 C0.71542969 0.61359375 1.43085937 1.2271875 2.16796875 1.859375 C4.12745411 3.55624892 6.06671994 5.27333003 8 7 C8.81984375 7.72703125 9.6396875 8.4540625 10.484375 9.203125 C17.11687299 15.17603756 23.49126274 21.38637272 29.8125 27.6875 C30.61276611 28.48317383 31.41303223 29.27884766 32.23754883 30.09863281 C37.03125111 34.9048148 41.58810219 39.84292728 46 45 C46.94940423 46.08301112 47.89987289 47.16509034 48.8515625 48.24609375 C87.44978137 92.49501478 117.42228514 144.72335997 137 200 C137.33596191 200.93150879 137.67192383 201.86301758 138.01806641 202.82275391 C159.47241907 262.60414126 167.92152792 326.74906997 169 390 C169.02489502 391.27568848 169.02489502 391.27568848 169.05029297 392.57714844 C169.23521732 403.13838382 168.87673309 413.6941971 168.5625 424.25 C168.5429425 424.93674805 168.52338501 425.62349609 168.50323486 426.33105469 C168.44553361 428.30938352 168.38107153 430.28751155 168.31640625 432.265625 C168.27974854 433.41836914 168.24309082 434.57111328 168.20532227 435.75878906 C168.00634499 438.8998382 167.57574861 441.90787582 167 445 C155.12725053 439.81974888 143.37113699 434.40203614 131.64013672 428.90966797 C130.31089203 428.28739295 128.98162723 427.66516089 127.65234375 427.04296875 C126.6305603 426.56470642 126.6305603 426.56470642 125.58813477 426.07678223 C116.57048979 421.85925279 107.53415942 417.6819993 98.5 413.5 C86.38788447 407.89194632 74.28020256 402.27480316 62.1875 396.625 C49.29027759 390.59940422 36.38132833 384.59939194 23.46777344 378.60888672 C17.64459063 375.90719884 11.82235079 373.20348034 6 370.5 C3.64974182 369.40884935 1.29948141 368.31770351 -1.05078125 367.2265625 C-5.54836339 365.13842173 -10.04575441 363.04987027 -14.54296875 360.9609375 C-24.96791621 356.11907367 -35.39399805 351.27971239 -45.82421875 346.44921875 C-62.70743933 338.62985771 -79.58727444 330.80383906 -96.44433594 322.92822266 C-108.13115872 317.46872003 -119.83083482 312.03707818 -131.53222656 306.60888672 C-137.35540937 303.90719883 -143.17764377 301.20346864 -149 298.5 C-153.62 296.355 -158.24 294.21 -163 292 C-172.24 287.71 -181.48 283.42 -191 279 C-191.33 547.95 -191.66 816.9 -192 1094 C-202.06999243 1088.96500379 -212.12569931 1083.92124089 -222.125 1078.75 C-222.74717407 1078.4285199 -223.36934814 1078.10703979 -224.01037598 1077.77581787 C-232.85137013 1073.20388589 -241.61711914 1068.51113933 -250.33056641 1063.70019531 C-259.35324997 1058.74830242 -268.51585038 1054.07591203 -277.6762085 1049.38577271 C-286.13740658 1045.05127049 -294.5569164 1040.66784644 -302.875 1036.0625 C-313.07403693 1030.41745165 -323.44235152 1025.119543 -333.82025146 1019.81375122 C-343.45817308 1014.88367283 -353.02564898 1009.86372498 -362.49609375 1004.6171875 C-371.07149347 999.89749382 -379.7854767 995.45537597 -388.5 991 C-398.95912249 985.6526081 -409.35882346 980.23728048 -419.63671875 974.546875 C-427.83943136 970.03105283 -436.1661404 965.76689314 -444.5 961.5 C-453.68760358 956.79599434 -462.8437762 952.0626799 -471.875 947.0625 C-481.31418898 941.83801866 -490.89533432 936.91074279 -500.5 932 C-512.11724274 926.05966875 -523.65018578 920.00548136 -535.07421875 913.69921875 C-541.09260028 910.381687 -547.18089763 907.19874795 -553.27929688 904.03125 C-558.89824539 901.10175461 -558.89824539 901.10175461 -560 900 C-560.09822251 898.54406428 -560.12674165 897.08337085 -560.1276505 895.62412596 C-560.13066647 894.67137799 -560.13368244 893.71863002 -560.1367898 892.7370109 C-560.13502033 891.67576378 -560.13325086 890.61451666 -560.13142776 889.52111053 C-560.1334804 888.40032138 -560.13553303 887.27953222 -560.13764787 886.12477976 C-560.14336355 882.31783564 -560.14185501 878.51092719 -560.14044189 874.70397949 C-560.14247144 871.96714257 -560.14599631 869.23030803 -560.1494453 866.49347258 C-560.15704675 859.72684519 -560.15921945 852.9602257 -560.15977435 846.19359449 C-560.16068601 838.09235747 -560.16734812 829.9911278 -560.17412117 821.88989393 C-560.19021233 802.29383092 -560.19609007 782.69776865 -560.20086992 763.10170021 C-560.20320494 753.82429988 -560.20680772 744.54690017 -560.2105653 735.26950032 C-560.22340982 703.49545588 -560.23412329 671.72141179 -560.2375679 639.94736481 C-560.23778953 637.95090496 -560.23801132 635.9544451 -560.23823325 633.95798525 C-560.23845389 631.95671056 -560.23867438 629.95543586 -560.2388947 627.95416117 C-560.23933725 623.9393301 -560.23978437 619.92449903 -560.24023438 615.90966797 C-560.24034377 614.91421614 -560.24045316 613.91876432 -560.24056586 612.89314728 C-560.244189 580.68277214 -560.26007623 548.47241962 -560.28342474 516.26205312 C-560.30807702 482.19046651 -560.32174346 448.11889279 -560.32293582 414.047297 C-560.32310726 410.29878902 -560.32332268 406.55028105 -560.32357025 402.80177307 C-560.32362602 401.87881686 -560.32368179 400.95586065 -560.32373925 400.00493607 C-560.32488571 385.20762465 -560.33587423 370.41033655 -560.35045731 355.61303298 C-560.36489722 340.70149447 -560.36801754 325.78998552 -560.36001733 310.87844193 C-560.35598039 302.81375848 -560.35662272 294.74914646 -560.37107468 286.68447304 C-560.47800298 224.28857753 -560.47800298 224.28857753 -557 198 C-556.77137858 196.16221528 -556.5431498 194.32438165 -556.31540298 192.48648834 C-555.78645882 188.28578802 -555.14090004 184.11218049 -554.4375 179.9375 C-554.31572388 179.19837372 -554.19394775 178.45924744 -554.06848145 177.69772339 C-546.92676927 134.81204523 -534.3392059 92.51666626 -514 54 C-513.63326172 53.29842773 -513.26652344 52.59685547 -512.88867188 51.87402344 C-503.6834384 34.37473441 -492.53659458 18.26928023 -480 3 C-479.36288086 2.20843506 -479.36288086 2.20843506 -478.71289062 1.40087891 C-471.95119734 -6.97963126 -464.52451011 -14.68150676 -456.9375 -22.3125 C-456.02766357 -23.23160156 -455.11782715 -24.15070313 -454.18041992 -25.09765625 C-448.09387989 -31.15628893 -441.73982379 -36.68204227 -435 -42 C-434.26837646 -42.58563721 -433.53675293 -43.17127441 -432.78295898 -43.7746582 C-396.05468277 -73.02684149 -351.34689303 -89.11452429 -305 -95 C-304.25153809 -95.10296387 -303.50307617 -95.20592773 -302.73193359 -95.31201172 C-217.36181837 -106.71511004 -125.43881213 -85.37435945 0 0 Z " fill="#007AFE" transform="translate(642,247)"/>
<path d="M0 0 C64.35 0 128.7 0 195 0 C201.4159631 9.91557933 207.79289345 19.79892367 213.9375 29.875 C218.63977581 37.55176454 223.36385879 45.21134113 228.1875 52.8125 C232.26975691 59.24620829 236.308554 65.70474797 240.3125 72.1875 C244.97897624 79.74241364 249.66651833 87.28368783 254.375 94.8125 C255.00196777 95.81514893 255.62893555 96.81779785 256.27490234 97.85083008 C259.42205914 102.88233594 262.57153343 107.91238344 265.72265625 112.94140625 C272.94324622 124.47156332 280.10595082 136.03518038 287.22363281 147.62915039 C291.64387505 154.82042799 296.11798268 161.974528 300.64013672 169.10205078 C304.23563534 174.77397719 307.78361489 180.47391468 311.3125 186.1875 C315.97897624 193.74241364 320.66651833 201.28368783 325.375 208.8125 C326.00196777 209.81514893 326.62893555 210.81779785 327.27490234 211.85083008 C330.42205914 216.88233594 333.57153343 221.91238344 336.72265625 226.94140625 C343.94324622 238.47156332 351.10595082 250.03518038 358.22363281 261.62915039 C362.64387505 268.82042799 367.11798268 275.974528 371.64013672 283.10205078 C375.23563534 288.77397719 378.78361489 294.47391468 382.3125 300.1875 C386.97897624 307.74241364 391.66651833 315.28368783 396.375 322.8125 C397.00196777 323.81514893 397.62893555 324.81779785 398.27490234 325.85083008 C401.42205914 330.88233594 404.57153343 335.91238344 407.72265625 340.94140625 C414.94551224 352.47518181 422.11069489 364.04228921 429.23022461 375.64013672 C433.57433493 382.70799837 437.97431012 389.73688806 442.42260742 396.73950195 C446.67818039 403.45442269 450.84219604 410.22421091 455 417 C460.11412993 425.33248925 465.26666059 433.63682497 470.50097656 441.89428711 C480.53861023 457.72998382 490.42084446 473.66057727 500.22949219 489.63891602 C504.57382303 496.70719953 508.97405559 503.73648737 513.42260742 510.73950195 C517.67817983 517.4544218 521.84225286 524.2241768 526 531 C531.15552655 539.40135127 536.35471848 547.77081066 541.63500977 556.09423828 C546.24694813 563.37066142 550.78242369 570.69344527 555.30859375 578.0234375 C560.86530092 587.02001102 566.43418061 596.00906099 572 605 C572.33 405.35 572.66 205.7 573 0 C637.02 0 701.04 0 767 0 C767 299.31 767 598.62 767 907 C702.65 907 638.3 907 572 907 C564.13076462 895.75823518 564.13076462 895.75823518 561.34375 891.1796875 C560.72169678 890.16245605 560.09964355 889.14522461 559.45874023 888.09716797 C558.81235596 887.03385254 558.16597168 885.97053711 557.5 884.875 C556.0862615 882.56150381 554.67004621 880.24952677 553.25390625 877.9375 C552.89788834 877.35563934 552.54187042 876.77377869 552.17506409 876.17428589 C548.63084363 870.3859788 545.03965288 864.62741518 541.4375 858.875 C540.82253662 857.89241211 540.20757324 856.90982422 539.57397461 855.89746094 C537.71675037 852.93115914 535.85855556 849.9654678 534 847 C525.53182274 833.48837436 517.11207585 819.94962726 508.76977539 806.35986328 C504.42566507 799.29200163 500.02568988 792.26311194 495.57739258 785.26049805 C490.61285185 777.4268884 485.77223066 769.51790222 480.921875 761.61328125 C476.99090406 755.21420069 473.02693009 748.839096 469 742.5 C463.55258311 733.92480803 458.23503592 725.27213561 452.921875 716.61328125 C448.99090406 710.21420069 445.02693009 703.839096 441 697.5 C435.55258311 688.92480803 430.23503592 680.27213561 424.921875 671.61328125 C420.99090406 665.21420069 417.02693009 658.839096 413 652.5 C407.55258311 643.92480803 402.23503592 635.27213561 396.921875 626.61328125 C392.99090406 620.21420069 389.02693009 613.839096 385 607.5 C380.26279824 600.04281152 375.62051905 592.52999621 371 585 C365.84309423 576.59640117 360.64285387 568.22447778 355.3605957 559.89916992 C351.21404028 553.35776004 347.13509119 546.77588077 343.06567383 540.1862793 C338.89947399 533.4434432 334.70512531 526.71862015 330.5 520 C325.2803821 511.65940092 320.08638765 503.30358789 314.9140625 494.93359375 C310.79695103 488.27592325 306.65255421 481.63561213 302.5 475 C297.28044375 466.65936215 292.08638786 458.30358824 286.9140625 449.93359375 C282.79695103 443.27592325 278.65255421 436.63561213 274.5 430 C269.28044375 421.65936215 264.08638786 413.30358824 258.9140625 404.93359375 C254.79695103 398.27592325 250.65255421 391.63561213 246.5 385 C241.28044375 376.65936215 236.08638786 368.30358824 230.9140625 359.93359375 C226.17388885 352.26838612 221.39604542 344.62699785 216.61450195 336.98754883 C211.7288739 329.17753704 206.87284093 321.34955958 202.03515625 313.50976562 C201.53242188 312.69572266 201.0296875 311.88167969 200.51171875 311.04296875 C200.07303467 310.33164795 199.63435059 309.62032715 199.18237305 308.88745117 C198.15031368 307.23994942 197.07837607 305.6175641 196 304 C195.67 502.99 195.34 701.98 195 907 C130.65 907 66.3 907 0 907 C0 607.69 0 308.38 0 0 Z " fill="#0079FE" transform="translate(3790,517)"/>
<path d="M0 0 C64.35 0 128.7 0 195 0 C195.01981934 18.17126953 195.03963867 36.34253906 195.06005859 55.06445312 C195.07358525 67.20088727 195.0871452 79.33732131 195.10116577 91.47375488 C195.10205564 92.24487568 195.1029455 93.01599647 195.10386233 93.81048457 C195.13387195 119.78507737 195.16658678 145.75966603 195.20132446 171.73425293 C195.20245809 172.58242104 195.20359171 173.43058914 195.20475969 174.30445931 C195.22941507 192.74048127 195.25450813 211.1765026 195.28005161 229.61252335 C195.29257671 238.65444254 195.30500517 247.69636186 195.31738281 256.73828125 C195.3192328 258.0879014 195.3192328 258.0879014 195.32112016 259.46478661 C195.36100109 288.59211992 195.39450867 317.7194563 195.42468691 346.84680114 C195.45575058 376.79609349 195.49329253 406.74537098 195.53890612 436.69464487 C195.54535587 440.9314345 195.55173209 445.16822423 195.55806351 449.40501404 C195.55931181 450.23881878 195.56056012 451.07262351 195.56184625 451.93169506 C195.58169631 465.31654944 195.59478161 478.70140217 195.60529328 492.08626678 C195.61602465 505.56503272 195.63398724 519.04377403 195.65916704 532.52252084 C195.67388427 540.51590824 195.68322137 548.50925797 195.68456683 556.50265904 C195.68619025 562.49562617 195.69825334 568.48852711 195.71413441 574.48147529 C195.71894048 576.88834225 195.72050092 579.29521864 195.71827881 581.70208937 C195.6801514 631.15823491 202.51545761 682.08821689 237.671875 719.703125 C258.59739624 740.34776676 285.42497299 751.07708477 313.6875 757.25 C314.37392578 757.40122314 315.06035156 757.55244629 315.76757812 757.70825195 C331.14514089 760.84577081 346.48159526 761.37354903 362.125 761.3125 C363.1188974 761.31034485 364.1127948 761.3081897 365.1368103 761.30596924 C379.59847791 761.25563641 393.7977361 760.99037452 408 758 C408.96518555 757.80132324 409.93037109 757.60264648 410.92480469 757.39794922 C435.87126171 752.09652927 458.02991957 743.0616504 478 727 C478.77859375 726.38769531 479.5571875 725.77539062 480.359375 725.14453125 C510.88538754 699.76031161 522.65246885 657.22279696 526.56656528 619.37225175 C527.49245722 609.1211259 527.28773523 598.80859702 527.2784729 588.52560425 C527.28348373 585.97744004 527.28936182 583.42927741 527.29602563 580.88111699 C527.30847378 575.36933324 527.31487805 569.85759527 527.31578636 564.34579849 C527.31717056 556.15015597 527.33000284 547.95455834 527.3450741 539.75893096 C527.37011556 525.96814616 527.38603164 512.17736519 527.39665604 498.38656235 C527.40719803 484.74185235 527.42185168 471.09715685 527.44193649 457.45245743 C527.44380979 456.17748801 527.44380979 456.17748801 527.44572094 454.87676164 C527.45208513 450.55973523 527.45852221 446.24270894 527.46498732 441.92568268 C527.51058904 411.38812544 527.54706274 380.85056349 527.578125 350.31298828 C527.60831312 320.65542918 527.64266286 290.99787965 527.68261719 261.34033203 C527.68446369 259.96785774 527.68446369 259.96785774 527.6863475 258.5676567 C527.69871489 249.3786022 527.71116657 240.18954781 527.72367998 231.00049351 C527.74916688 212.28313605 527.77409138 193.56577786 527.79867554 174.84841919 C527.79980645 173.98792021 527.80093736 173.12742123 527.80210253 172.24084652 C527.83672026 145.87800475 527.86895543 119.51516081 527.89883423 93.15231323 C527.89968306 92.40418461 527.90053189 91.65605598 527.90140645 90.88525679 C527.93574334 60.5901728 527.96755426 30.29508606 528 0 C592.02 0 656.04 0 722 0 C722.06039235 71.61448167 722.06039235 71.61448167 722.07695007 93.78495789 C722.07783807 94.97098782 722.07783807 94.97098782 722.07874402 96.18097796 C722.09863524 122.82021996 722.11438055 149.45946273 722.12702942 176.09870911 C722.12744359 176.96874273 722.12785776 177.83877635 722.12828448 178.73517463 C722.13726511 197.64748715 722.14557538 216.55979991 722.15319599 235.47211302 C722.1569377 244.74792892 722.1608274 254.02374475 722.16479492 263.29956055 C722.1651872 264.222571 722.16557948 265.14558146 722.16598364 266.09656193 C722.17874692 295.96498932 722.20126526 325.83339958 722.22889166 355.70181661 C722.25725107 386.41882578 722.27567059 417.13582549 722.28174497 447.85284753 C722.28260932 452.20047028 722.28358623 456.548093 722.28463173 460.89571571 C722.284834 461.75131374 722.28503627 462.60691178 722.28524467 463.48843702 C722.28877728 477.21077984 722.30265738 490.93309324 722.3204961 504.65542411 C722.33824567 518.48153225 722.34488211 532.30761149 722.34050413 546.13373061 C722.33823814 554.32828309 722.34416291 562.522729 722.36239263 570.71726205 C722.37513099 576.86883862 722.37179652 583.02031519 722.36269668 589.17189602 C722.3614438 591.63673233 722.36511936 594.10157805 722.37464955 596.56639626 C722.45790188 619.45721967 720.85526043 642.35036605 716.25 664.8125 C715.99395996 666.09108887 715.73791992 667.36967773 715.47412109 668.68701172 C708.17031629 704.41225246 694.5725001 738.82177419 674 769 C673.56445801 769.64501465 673.12891602 770.2900293 672.68017578 770.95458984 C667.08356761 779.19350284 660.96924745 786.88687648 654.41235352 794.38305664 C653.41214474 795.52815304 652.41847345 796.67897496 651.42944336 797.83374023 C639.88021844 811.23603106 627.25324042 823.52070871 613 834 C611.58460938 835.10794922 611.58460938 835.10794922 610.140625 836.23828125 C601.20787704 843.18460321 591.66953556 849.14182863 582 855 C581.29697754 855.42925781 580.59395508 855.85851563 579.86962891 856.30078125 C527.96508474 887.64500634 464.82419168 901.65733718 405 906 C403.26484131 906.13136353 403.26484131 906.13136353 401.49462891 906.26538086 C388.5882079 907.17327818 375.68333618 907.20003107 362.75 907.1875 C361.59770905 907.18689575 360.44541809 907.1862915 359.25820923 907.18566895 C341.75451242 907.16077232 324.41808101 906.87395229 307 905 C305.1744458 904.80664062 305.1744458 904.80664062 303.31201172 904.609375 C250.76006623 898.84660296 198.89956699 885.85654361 152 861 C151.2771582 860.61730957 150.55431641 860.23461914 149.80957031 859.84033203 C134.20685642 851.5155292 119.83232608 842.00177286 106 831 C105.11183594 830.30648437 104.22367188 829.61296875 103.30859375 828.8984375 C85.77514876 814.94484641 70.46794298 798.87111548 57 781 C56.58395508 780.45150391 56.16791016 779.90300781 55.73925781 779.33789062 C24.22885596 737.50726993 7.97629275 687.46099048 2.25 635.8125 C2.13438721 634.78302246 2.01877441 633.75354492 1.8996582 632.69287109 C-0.12830083 612.67813193 -0.14696526 592.50699573 -0.12025452 572.41149902 C-0.12069177 569.92415497 -0.12156949 567.43681095 -0.12284368 564.94946718 C-0.12459885 559.58916336 -0.12331404 554.22887379 -0.11920547 548.86857224 C-0.1131136 540.89828416 -0.11287488 532.928003 -0.11374746 524.95771302 C-0.1150546 511.5435788 -0.11174586 498.12944955 -0.10573006 484.71531677 C-0.09979616 471.44957962 -0.09596072 458.18384455 -0.09487724 444.91810608 C-0.0948085 444.09072046 -0.09473976 443.26333483 -0.09466894 442.41087692 C-0.09433057 438.20834507 -0.0940292 434.00581322 -0.09374207 429.80328137 C-0.09164629 400.1009492 -0.08492191 370.39861972 -0.07543945 340.69628906 C-0.06624282 311.85579442 -0.0591652 283.01530051 -0.05493164 254.17480469 C-0.05480011 253.28451588 -0.05466859 252.39422707 -0.05453308 251.47695982 C-0.05321446 242.53563754 -0.05193866 233.59431526 -0.05069422 224.65299298 C-0.04815857 206.44139144 -0.04533732 188.22978995 -0.04234314 170.01818848 C-0.04220585 169.18100106 -0.04206856 168.34381364 -0.04192711 167.48125691 C-0.03770727 141.84049094 -0.03227787 116.19972542 -0.02565002 90.55895996 C-0.02546247 89.83153987 -0.02527491 89.10411977 -0.02508167 88.35465664 C-0.0174695 58.90310422 -0.00857346 29.45155216 0 0 Z " fill="#007AFE" transform="translate(2909,517)"/>
<path d="M0 0 C0.13706143 86.39997835 0.26426472 172.79996982 0.33874512 259.20002747 C0.33984957 260.47796913 0.34095403 261.7559108 0.34209196 263.07257797 C0.36545 290.16677814 0.38720635 317.26097941 0.40703743 344.35518238 C0.41700072 357.96512946 0.42728051 371.57507629 0.43785953 385.1850229 C0.43945352 387.2380553 0.44103847 389.29108771 0.44262304 391.34412012 C0.46710816 422.96474266 0.49838853 454.58534058 0.54931641 486.20593262 C0.5504116 486.88600606 0.55150679 487.56607951 0.55263516 488.26676124 C0.57033454 499.23183239 0.58860326 510.1969026 0.60694752 521.16197269 C0.68362294 567.00133132 0.73482372 612.84063955 0.75131992 658.6800681 C0.75362529 665.05222338 0.75623039 671.4243785 0.75901794 677.79653358 C0.75982702 679.67780414 0.75982702 679.67780414 0.76065244 681.59708016 C0.77012076 701.81816944 0.80726433 722.03911854 0.85465627 742.26015056 C0.90166855 762.56962728 0.91976543 782.87896449 0.90801102 803.18849375 C0.90190805 815.26748747 0.91831027 827.34597215 0.96638034 839.42487432 C0.99626847 847.48274478 0.99738846 855.54028 0.97465451 863.59817315 C0.96251799 868.19665722 0.96332667 872.79417541 0.99906546 877.39255788 C1.03129723 881.57124453 1.02710514 885.74820642 0.99311981 889.92686469 C0.98737795 891.4337297 0.99522385 892.94071912 1.01788196 894.44742471 C1.17604968 905.67157754 1.17604968 905.67157754 -1.72700697 908.95076356 C-3.78795094 910.26950295 -5.70969137 911.15629626 -8 912 C-9.68536865 912.9137439 -9.68536865 912.9137439 -11.40478516 913.84594727 C-12.52159668 914.41369873 -13.6384082 914.9814502 -14.7890625 915.56640625 C-15.40548615 915.88156693 -16.02190979 916.1967276 -16.65701294 916.5214386 C-17.96736978 917.1913602 -19.27844979 917.85986898 -20.59020996 918.52703857 C-30.38399495 923.5108877 -40.13670482 928.54942625 -49.75 933.875 C-59.9913201 939.53913329 -70.4006434 944.85911177 -80.81970215 950.18597412 C-89.60903676 954.6819728 -98.36313759 959.21525932 -107 964 C-117.15640504 969.62655303 -127.48408419 974.90181456 -137.82080078 980.18652344 C-146.60976784 984.68233946 -155.36349674 989.21545829 -164 994 C-174.15640504 999.62655303 -184.48408419 1004.90181456 -194.82080078 1010.18652344 C-203.60976784 1014.68233946 -212.36349674 1019.21545829 -221 1024 C-231.15640504 1029.62655303 -241.48408419 1034.90181456 -251.82080078 1040.18652344 C-260.60976784 1044.68233946 -269.36349674 1049.21545829 -278 1054 C-287.39655798 1059.20560489 -296.93664032 1064.11049587 -306.5 1069 C-317.22250493 1074.48268321 -327.88728407 1080.03709988 -338.43652344 1085.84863281 C-344.84254164 1089.37705467 -351.28063524 1092.83901062 -357.75 1096.25 C-358.65089355 1096.72880615 -359.55178711 1097.2076123 -360.47998047 1097.70092773 C-361.71965576 1098.35170288 -361.71965576 1098.35170288 -362.984375 1099.015625 C-364.07830566 1099.59231934 -364.07830566 1099.59231934 -365.19433594 1100.18066406 C-367 1101 -367 1101 -369 1101 C-369 801.36 -369 501.72 -369 193 C-344.13531922 179.43744685 -344.13531922 179.43744685 -333.3536377 173.94488525 C-323.91364517 169.13288248 -314.52182494 164.25531427 -305.25 159.125 C-295.00835424 153.46141709 -284.59938187 148.14090115 -274.18029785 142.81402588 C-265.39096324 138.3180272 -256.63686241 133.78474068 -248 129 C-237.84359496 123.37344697 -227.51591581 118.09818544 -217.17919922 112.81347656 C-208.39023216 108.31766054 -199.63650326 103.78454171 -191 99 C-180.84359496 93.37344697 -170.51591581 88.09818544 -160.17919922 82.81347656 C-151.39023216 78.31766054 -142.63650326 73.78454171 -134 69 C-123.84359496 63.37344697 -113.51591581 58.09818544 -103.17919922 52.81347656 C-94.39023216 48.31766054 -85.63650326 43.78454171 -77 39 C-66.85320033 33.37876826 -56.53567382 28.10767388 -46.20840454 22.82858276 C-35.0988596 17.146686 -24.08563011 11.32981266 -13.16796875 5.28515625 C-3.56112972 0 -3.56112972 0 0 0 Z " fill="#007AFE" transform="translate(1451,514)"/>
<path d="M0 0 C0.692146 0.08721313 1.38429199 0.17442627 2.09741211 0.26428223 C71.46319024 9.08048973 137.47893597 32.42619708 192 77 C192.81404297 77.65742187 192.81404297 77.65742187 193.64453125 78.328125 C208.7322308 90.57112702 223.32236056 104.43725681 235 120 C235.89853879 121.14807623 236.79837714 122.29513605 237.69921875 123.44140625 C276.45466097 173.30108042 308 244.63689049 308 309 C243.98 309 179.96 309 114 309 C112.68 298.44 111.36 287.88 110 277 C104.75833778 249.37502343 96.68784643 221.43336621 79 199 C78.54898926 198.42701172 78.09797852 197.85402344 77.63330078 197.26367188 C51.80551201 164.83243558 12.2167826 149.9942415 -27.98608398 145.06689453 C-31.65283669 144.6548643 -35.32377113 144.31486021 -39 144 C-40.25425781 143.88785156 -41.50851562 143.77570313 -42.80078125 143.66015625 C-89.89058299 140.09052434 -142.49320012 145.53697372 -180.2890625 176.63671875 C-181.18367188 177.41660156 -182.07828125 178.19648437 -183 179 C-183.87398437 179.74894531 -184.74796875 180.49789062 -185.6484375 181.26953125 C-188.14820337 183.46547942 -190.58100067 185.71560947 -193 188 C-193.79792969 188.73347656 -194.59585938 189.46695313 -195.41796875 190.22265625 C-208.31185577 202.50157251 -217.649261 217.39840689 -226 233 C-226.38752441 233.71365723 -226.77504883 234.42731445 -227.17431641 235.16259766 C-239.79770437 258.77331246 -247.144806 285.81663237 -252 312 C-252.19142578 313.02432129 -252.38285156 314.04864258 -252.58007812 315.10400391 C-258.44866659 347.26366422 -260.16119484 379.61231928 -260.16725707 412.23103809 C-260.16797651 414.41417752 -260.17012745 416.59731099 -260.17275429 418.78044891 C-260.18196408 426.45194384 -260.18609519 434.1234216 -260.18530273 441.79492188 C-260.18470495 448.85486651 -260.19520913 455.91473402 -260.2110464 462.9746592 C-260.22429582 469.10789212 -260.2294794 475.2411004 -260.22884732 481.37434745 C-260.22859713 485.00519016 -260.23117295 488.63596433 -260.24202538 492.2667923 C-260.30961743 516.56288226 -259.38223341 540.75646846 -256.25 564.875 C-256.08226074 566.1832373 -255.91452148 567.49147461 -255.74169922 568.83935547 C-252.83442204 590.86319267 -248.57113134 612.76503629 -242 634 C-241.72494629 634.90024902 -241.44989258 635.80049805 -241.16650391 636.72802734 C-234.33337746 658.69963133 -224.91067085 680.54658892 -211 699 C-209.96552734 700.3921875 -209.96552734 700.3921875 -208.91015625 701.8125 C-181.79009362 736.55850203 -144.40020369 754.14317084 -101.25 759.875 C-77.65287115 762.63263572 -52.51581446 762.30109469 -29 759 C-28.07654785 758.87109375 -27.1530957 758.7421875 -26.20166016 758.609375 C-6.27885037 755.71199953 12.88821663 750.91081022 31 742 C31.64163086 741.68804688 32.28326172 741.37609375 32.94433594 741.0546875 C66.94954638 724.33248506 88.91523268 695.22218921 101.64428711 660.14770508 C108.28648745 640.62500664 110.63800538 620.47062006 113 600 C177.02 600 241.04 600 307 600 C303.50782661 636.08579174 303.50782661 636.08579174 301.25 646.9375 C300.99395996 648.20779053 300.73791992 649.47808105 300.47412109 650.78686523 C297.98689494 662.73949365 294.7998293 674.40224237 291 686 C290.71463379 686.88848633 290.42926758 687.77697266 290.13525391 688.69238281 C282.72902828 711.44156766 272.00338715 733.91044311 259 754 C258.51208984 754.75394043 258.02417969 755.50788086 257.52148438 756.28466797 C250.02048317 767.7580238 241.88656768 778.56767453 233 789 C232.29101562 789.84046875 231.58203125 790.6809375 230.8515625 791.546875 C219.72366222 804.30217572 207.54389867 816.81833143 194 827 C192.76913164 827.94739771 191.53869596 828.89535773 190.30859375 829.84375 C115.8467734 886.86267078 23.90443015 907.19932769 -68.375 907.25 C-70.04775497 907.25101212 -70.04775497 907.25101212 -71.75430298 907.25204468 C-164.73903605 907.16333382 -256.46405367 881.67191389 -350.3996582 797.7878418 C-354.48316796 793.63473029 -358.22937791 789.28128482 -361.84375 784.7109375 C-364.05606347 781.9295144 -366.36608462 779.25323146 -368.6875 776.5625 C-428.44783174 704.68358706 -452.32326867 607.11497761 -457.16796875 484.078125 C-457.17119447 481.60121645 -457.17455945 479.12430808 -457.17805481 476.6473999 C-457.18400455 471.47700561 -457.18589916 466.30662793 -457.18530273 461.13623047 C-457.18522169 455.90019256 -457.19213477 450.66424255 -457.20581055 445.42822266 C-457.3513818 388.81425386 -457.3513818 388.81425386 -455 364 C-454.88291183 362.69902374 -454.88291183 362.69902374 -454.76345825 361.37176514 C-454.3202397 356.50737913 -453.78719364 351.66051684 -453.1875 346.8125 C-453.10285492 346.118078 -453.01820984 345.42365601 -452.93099976 344.70819092 C-443.1929704 265.27007413 -415.46146486 187.05417828 -363.72753906 125.09228516 C-362.45982429 123.55690986 -361.20891057 122.00762184 -359.96777344 120.45068359 C-354.55057487 113.68934114 -348.77608273 107.47180848 -342.625 101.375 C-341.75617188 100.4984375 -340.88734375 99.621875 -339.9921875 98.71875 C-334.71816075 93.46032688 -329.25421428 88.61697203 -323.44238281 83.9609375 C-321.51510372 82.41356588 -319.6352436 80.84436478 -317.78515625 79.20703125 C-266.31865919 33.94309625 -198.01444069 9.37587358 -131 0 C-129.24236328 -0.24991699 -129.24236328 -0.24991699 -127.44921875 -0.50488281 C-86.12626338 -6.05521303 -41.32837074 -5.27975842 0 0 Z " fill="#007AFE" transform="translate(5631,517)"/>
<path d="M0 0 C4.43923809 1.43556127 8.44604959 3.1266646 12.59375 5.2734375 C13.21300354 5.59284302 13.83225708 5.91224854 14.47027588 6.24133301 C16.4826131 7.28127366 18.4913986 8.32786437 20.5 9.375 C21.91172774 10.10704182 23.32351218 10.8389743 24.73535156 11.57080078 C33.3161029 16.02878944 41.82651291 20.59999512 50.2890625 25.27880859 C59.6967644 30.44649235 69.26370239 35.3003605 78.81970215 40.18597412 C88.45780779 45.11614371 98.02546927 50.13617546 107.49609375 55.3828125 C116.07149252 60.10250566 124.785468 64.5446428 133.5 69 C143.91272213 74.32356717 154.26530622 79.71505227 164.49609375 85.3828125 C173.07149252 90.10250566 181.785468 94.5446428 190.5 99 C200.91272213 104.32356717 211.26530622 109.71505227 221.49609375 115.3828125 C230.07149252 120.10250566 238.785468 124.5446428 247.5 129 C257.91272213 134.32356717 268.26530622 139.71505227 278.49609375 145.3828125 C287.07149821 150.10250879 295.78552029 154.54453003 304.5 159 C315.17562407 164.45860639 325.79782821 169.98104156 336.29370117 175.78051758 C344.0779867 180.07506128 351.95521663 184.18250063 359.85644531 188.25732422 C360.77651367 188.73314941 361.69658203 189.20897461 362.64453125 189.69921875 C363.46284424 190.12033936 364.28115723 190.54145996 365.12426758 190.9753418 C367 192 367 192 368 193 C368.09722042 194.49220227 368.12447343 195.98901244 368.1241985 197.4843784 C368.12756944 198.94983488 368.12756944 198.94983488 368.13100848 200.44489655 C368.12838146 201.53322444 368.12575445 202.62155232 368.12304783 203.74285984 C368.12420167 204.89210779 368.12535552 206.04135574 368.12654433 207.22542939 C368.12875035 210.44394241 368.12642199 213.66241706 368.12226619 216.88092705 C368.11884873 220.37157431 368.12119958 223.86221823 368.12284368 227.35286611 C368.12492333 233.48007622 368.12326362 239.60727664 368.11920547 245.73448563 C368.1131878 254.8455212 368.11286805 263.95655064 368.11374746 273.06758784 C368.11506358 288.39137961 368.11171155 303.71516708 368.10573006 319.0389576 C368.09981987 334.21885258 368.0959655 349.39874577 368.09487724 364.57864189 C368.0948085 365.52128896 368.09473976 366.46393603 368.09466894 367.43514817 C368.09433062 372.22206975 368.09402923 377.00899133 368.09374207 381.79591291 C368.09163976 415.73153756 368.08489713 449.66715987 368.07543945 483.6027832 C368.06626009 516.57771797 368.059174 549.5526521 368.05493164 582.52758789 C368.05480011 583.54341438 368.05466859 584.55924088 368.05453308 585.60584999 C368.05321459 595.80688232 368.05193878 606.00791465 368.05069422 616.20894698 C368.04815777 636.9909775 368.04533652 657.77300799 368.04234314 678.55503845 C368.04220585 679.51063363 368.04206856 680.46622881 368.04192711 681.45078142 C368.03272119 745.30052192 368.01687538 809.15026112 368 873 C363.83598576 871.64896598 360.0569973 870.12556613 356.17578125 868.09375 C355.07500244 867.52019775 353.97422363 866.94664551 352.84008789 866.35571289 C351.67598389 865.74332764 350.51187988 865.13094238 349.3125 864.5 C348.08799239 863.85959436 346.86329963 863.21954261 345.63842773 862.57983398 C343.20090169 861.30572897 340.76480163 860.02896395 338.33007812 858.74951172 C335.55006286 857.28898464 332.76796687 855.83259835 329.984375 854.37890625 C323.20141424 850.82962244 316.44054775 847.24106018 309.69921875 843.61328125 C307.38290486 842.36701536 305.06653244 841.12085949 302.75 839.875 C302.16346649 839.55946167 301.57693298 839.24392334 300.97262573 838.91882324 C290.7500206 833.42427095 280.45237015 828.08504624 270.12670898 822.78723145 C262.1086197 818.67085882 254.13785616 814.48734982 246.25 810.125 C236.00821499 804.46165256 225.59939265 799.14090666 215.18029785 793.81402588 C205.54219221 788.88385629 195.97453073 783.86382454 186.50390625 778.6171875 C177.16706173 773.47841292 167.66552332 768.6633472 158.17718506 763.81246948 C149.43017193 759.33821803 140.7183797 754.82754941 132.125 750.0625 C122.36333161 744.65130744 112.43903054 739.57489864 102.5 734.5 C91.71893496 728.99515603 80.99000472 723.43728935 70.40234375 717.56640625 C61.86226206 712.86091223 53.18075982 708.43835378 44.5 704 C31.22152493 697.20936422 17.96450093 690.37957713 5 683 C4.14578471 682.70779452 3.29156941 682.41558903 2.4114688 682.11452883 C0 680 0 680 -0.46157262 677.89246551 C-0.64196726 674.92182324 -0.65133187 671.98713036 -0.61523914 669.0110445 C-0.62100836 667.85948886 -0.62677759 666.70793323 -0.63272163 665.52148196 C-0.64372803 662.3054872 -0.63214695 659.09045867 -0.61133096 655.87454057 C-0.59420814 652.383487 -0.60600463 648.89251575 -0.61421841 645.40144652 C-0.62460564 639.27657533 -0.61633715 633.15194652 -0.59602737 627.02710342 C-0.5659111 617.91967042 -0.56434283 608.81239095 -0.56873732 599.70491723 C-0.57531452 584.38642593 -0.5585707 569.06804226 -0.52865028 553.74958229 C-0.49909043 538.57691733 -0.47982568 523.40429717 -0.47438622 508.23160362 C-0.47404252 507.28909403 -0.47369882 506.34658444 -0.47334471 505.37551395 C-0.4716531 500.58921033 -0.47014616 495.80290666 -0.46871033 491.01660296 C-0.45820128 457.09315073 -0.42449503 423.1697571 -0.37719727 389.24633789 C-0.33129395 356.28507805 -0.29586666 323.32383422 -0.2746582 290.36254883 C-0.27400057 289.34698539 -0.27334294 288.33142194 -0.27266538 287.28508385 C-0.26607292 277.08661088 -0.25969383 266.88813779 -0.25347109 256.68966459 C-0.24078917 235.91320062 -0.2266829 215.13673771 -0.2117157 194.36027527 C-0.21102925 193.40495467 -0.2103428 192.44963407 -0.20963555 191.46536437 C-0.1636128 127.64355186 -0.08438454 63.82177189 0 0 Z " fill="#007AFE" transform="translate(580,729)"/>
<path d="M0 0 C108.24 0 216.48 0 328 0 C328 60.39 328 120.78 328 183 C219.76 183 111.52 183 0 183 C0 122.61 0 62.22 0 0 Z " fill="#007AFF" transform="translate(4701,877)"/>
<path d="M0 0 C21.78 0 43.56 0 66 0 C69.37500793 9.00002116 69.37500793 9.00002116 70.30262756 12.28979492 C70.51629817 13.04117265 70.72996878 13.79255037 70.95011425 14.56669712 C71.17290711 15.36324176 71.39569998 16.1597864 71.62524414 16.98046875 C71.99267841 18.27818537 71.99267841 18.27818537 72.36753559 19.60211849 C73.176673 22.46300179 73.98093454 25.32523133 74.78515625 28.1875 C75.35986799 30.22343504 75.93487653 32.25928631 76.51016235 34.2950592 C78.04746612 39.73837299 79.58055845 45.18286468 81.11288071 50.62758255 C82.69545008 56.24781859 84.28217911 61.86687999 85.8684082 67.48608398 C91.31087035 86.77141131 96.73954445 106.06061222 102.1552372 125.35347366 C102.80739347 127.67663508 103.4597289 129.99974613 104.11210632 132.32284546 C105.87311176 138.59445531 107.63331063 144.86627898 109.38708115 151.13991642 C110.23975945 154.18871286 111.09475024 157.23686113 111.94921875 160.28515625 C112.24889557 161.36048111 112.54857239 162.43580597 112.85733032 163.54371643 C113.12830536 164.50905807 113.3992804 165.47439972 113.6784668 166.46899414 C113.91156052 167.30290176 114.14465424 168.13680939 114.3848114 168.99598694 C114.95311704 171.04376944 114.95311704 171.04376944 116 173 C116.21788177 172.22710632 116.43576355 171.45421265 116.6602478 170.65789795 C127.95139961 130.60581187 139.24978993 90.55576694 150.56207275 50.50964355 C151.73031853 46.37390963 152.89822866 42.23808115 154.06585693 38.10217285 C155.44809531 33.20616421 156.83101961 28.31034983 158.21447945 23.4146862 C158.72624251 21.60327872 159.23776558 19.79180341 159.74903679 17.98025703 C160.44832831 15.50268424 161.14848935 13.02535883 161.84887695 10.5480957 C162.0538851 9.82098766 162.25889324 9.09387962 162.47011375 8.34473801 C163.26324621 5.54232519 164.07881748 2.76354755 165 0 C186.78 0 208.56 0 231 0 C231 86.79 231 173.58 231 263 C215.82 263 200.64 263 185 263 C184.67 204.92 184.34 146.84 184 87 C161.70551117 159.00694105 161.70551117 159.00694105 139.66661072 231.0912323 C139 233 139 233 138 234 C136.58774954 234.0928726 135.17091066 234.11746772 133.75561523 234.11352539 C132.85475693 234.11344986 131.95389862 234.11337433 131.02574158 234.11329651 C130.04658279 234.10813522 129.06742401 234.10297394 128.05859375 234.09765625 C127.06118668 234.0962413 126.0637796 234.09482635 125.03614807 234.09336853 C121.83656876 234.08775114 118.63705831 234.07519571 115.4375 234.0625 C113.27408955 234.05748724 111.11067801 234.05292395 108.94726562 234.04882812 C103.63148675 234.03777607 98.31574829 234.02102104 93 234 C79.88223905 192.92498837 66.88965659 151.81318858 54.0703125 110.64404297 C51.71789545 103.09467061 49.35857806 95.5474498 47 88 C46.67 145.75 46.34 203.5 46 263 C30.82 263 15.64 263 0 263 C0 176.21 0 89.42 0 0 Z " fill="#007AFE" transform="translate(6197,155)"/>
<path d="M0 0 C63.69 0 127.38 0 193 0 C193 16.17 193 32.34 193 49 C169.57 49 146.14 49 122 49 C122 119.62 122 190.24 122 263 C105.5 263 89 263 72 263 C72 192.38 72 121.76 72 49 C48.24 49 24.48 49 0 49 C0 32.83 0 16.66 0 0 Z " fill="#007AFF" transform="translate(5976,155)"/>
</svg>
