<svg width="26" height="26" viewBox="0 0 26 26" fill="none" xmlns="http://www.w3.org/2000/svg">
<g clip-path="url(#clip0_554_1727)">
<path d="M13.1016 7.79167V0.979167C14.0526 1.33958 14.9276 1.89479 15.6693 2.63542L19.2984 6.26667C20.0401 7.00729 20.5953 7.88229 20.9557 8.83333H14.1432C13.5682 8.83333 13.1016 8.36562 13.1016 7.79167ZM20.9141 19.25C24.0849 19.25 25.3714 18.4052 25.6016 18.126V15.6042C25.6016 14.6844 23.6745 14.0417 20.9141 14.0417C18.1536 14.0417 16.2266 14.6844 16.2266 15.6042V18.126C16.4568 18.4052 17.7432 19.25 20.9141 19.25ZM20.9141 25.5C23.8922 25.5 25.6016 24.6771 25.6016 23.2427V20.524C24.4776 21.0094 22.9245 21.3333 20.9141 21.3333C18.9036 21.3333 17.3505 21.0094 16.2266 20.524V23.2427C16.2266 24.6771 17.9359 25.5 20.9141 25.5ZM14.1432 23.2427V15.6042C14.1432 14.5083 14.8036 11.9583 20.9141 11.9583C21.0964 11.9583 21.2578 11.9677 21.4307 11.9719C21.4255 11.5542 21.4182 11.0229 21.4109 10.9167H14.1443C12.4214 10.9167 11.0193 9.51458 11.0193 7.79167V0.525C10.8516 0.513542 10.6839 0.5 10.5141 0.5H5.8099C2.93802 0.5 0.601562 2.83646 0.601562 5.70833V20.2917C0.601562 23.1635 2.93802 25.5 5.8099 25.5H14.9255C14.2474 24.6229 14.1432 23.701 14.1432 23.2427ZM6.85156 20.2917C6.85156 20.8667 6.38594 21.3333 5.8099 21.3333C5.23385 21.3333 4.76823 20.8667 4.76823 20.2917V17.1667C4.76823 16.5917 5.23385 16.125 5.8099 16.125C6.38594 16.125 6.85156 16.5917 6.85156 17.1667V20.2917ZM11.0182 20.2917C11.0182 20.8667 10.5526 21.3333 9.97656 21.3333C9.40052 21.3333 8.9349 20.8667 8.9349 20.2917V13C8.9349 12.425 9.40052 11.9583 9.97656 11.9583C10.5526 11.9583 11.0182 12.425 11.0182 13V20.2917Z" fill="#007AFF"/>
</g>
<defs>
<clipPath id="clip0_554_1727">
<rect width="25" height="25" fill="white" transform="translate(0.601562 0.5)"/>
</clipPath>
</defs>
</svg>
