<svg width="25" height="26" viewBox="0 0 25 26" fill="none" xmlns="http://www.w3.org/2000/svg">
<path d="M12.4987 23.4166C11.0577 23.4166 9.70356 23.1431 8.4362 22.5963C7.16884 22.0494 6.06641 21.3072 5.12891 20.3697C4.19141 19.4322 3.44922 18.3298 2.90234 17.0624C2.35547 15.7951 2.08203 14.4409 2.08203 12.9999C2.08203 11.5589 2.35547 10.2048 2.90234 8.93742C3.44922 7.67006 4.19141 6.56763 5.12891 5.63013C6.06641 4.69263 7.16884 3.95044 8.4362 3.40356C9.70356 2.85669 11.0577 2.58325 12.4987 2.58325C13.9397 2.58325 15.2938 2.85669 16.5612 3.40356C17.8286 3.95044 18.931 4.69263 19.8685 5.63013C20.806 6.56763 21.5482 7.67006 22.0951 8.93742C22.6419 10.2048 22.9154 11.5589 22.9154 12.9999C22.9154 14.4409 22.6419 15.7951 22.0951 17.0624C21.5482 18.3298 20.806 19.4322 19.8685 20.3697C18.931 21.3072 17.8286 22.0494 16.5612 22.5963C15.2938 23.1431 13.9397 23.4166 12.4987 23.4166ZM12.4987 21.3333C14.8251 21.3333 16.7956 20.526 18.4102 18.9114C20.0247 17.2968 20.832 15.3263 20.832 12.9999C20.832 12.8784 20.8277 12.7525 20.819 12.6223C20.8103 12.4921 20.806 12.3836 20.806 12.2968C20.7192 12.8003 20.4848 13.2169 20.1029 13.5468C19.7209 13.8767 19.2695 14.0416 18.7487 14.0416H16.6654C16.0924 14.0416 15.602 13.8376 15.194 13.4296C14.786 13.0216 14.582 12.5312 14.582 11.9583V10.9166H10.4154V8.83325C10.4154 8.26034 10.6194 7.76988 11.0273 7.3619C11.4353 6.95391 11.9258 6.74992 12.4987 6.74992H13.5404C13.5404 6.35061 13.6489 5.99905 13.8659 5.69523C14.0829 5.39141 14.3477 5.14402 14.6602 4.95304C14.3129 4.86624 13.9614 4.79679 13.6055 4.74471C13.2496 4.69263 12.8806 4.66659 12.4987 4.66659C10.1723 4.66659 8.20182 5.47388 6.58724 7.08846C4.97266 8.70304 4.16536 10.6735 4.16536 12.9999H9.3737C10.5195 12.9999 11.5004 13.4079 12.3164 14.2239C13.1324 15.0399 13.5404 16.0208 13.5404 17.1666V18.2083H10.4154V21.0728C10.7626 21.1596 11.1055 21.2247 11.444 21.2681C11.7826 21.3116 12.1341 21.3333 12.4987 21.3333Z" fill="#007AFF"/>
</svg>
