<svg width="26" height="26" viewBox="0 0 26 26" fill="none" xmlns="http://www.w3.org/2000/svg">
<g clip-path="url(#clip0_554_3074)">
<path d="M6.55078 7.79158H0.300781C0.759115 6.58013 1.97891 5.70825 3.42578 5.70825C4.87266 5.70825 6.09245 6.58013 6.55078 7.79158Z" fill="#007AFF"/>
<path d="M9.67578 5.70825C8.22891 5.70825 7.00911 6.58013 6.55078 7.79158H12.8008C12.3424 6.58013 11.1227 5.70825 9.67578 5.70825Z" fill="#007AFF"/>
<path d="M15.9258 5.70825C14.4789 5.70825 13.2591 6.58013 12.8008 7.79158H19.0508C18.5924 6.58013 17.3727 5.70825 15.9258 5.70825Z" fill="#007AFF"/>
<path d="M15.9271 4.66667C17.0777 4.66667 18.0104 3.73393 18.0104 2.58333C18.0104 1.43274 17.0777 0.5 15.9271 0.5C14.7765 0.5 13.8438 1.43274 13.8438 2.58333C13.8438 3.73393 14.7765 4.66667 15.9271 4.66667Z" fill="#007AFF"/>
<path d="M9.67708 4.66667C10.8277 4.66667 11.7604 3.73393 11.7604 2.58333C11.7604 1.43274 10.8277 0.5 9.67708 0.5C8.52649 0.5 7.59375 1.43274 7.59375 2.58333C7.59375 3.73393 8.52649 4.66667 9.67708 4.66667Z" fill="#007AFF"/>
<path d="M3.42708 4.66667C4.57768 4.66667 5.51042 3.73393 5.51042 2.58333C5.51042 1.43274 4.57768 0.5 3.42708 0.5C2.27649 0.5 1.34375 1.43274 1.34375 2.58333C1.34375 3.73393 2.27649 4.66667 3.42708 4.66667Z" fill="#007AFF"/>
<path d="M22.8877 17.4449L19.72 16.9178C19.3314 16.8532 19.0492 16.5199 19.0492 16.1251C19.0492 15.5501 19.5169 15.0834 20.0908 15.0834H22.4533C22.8242 15.0834 23.17 15.2824 23.3564 15.6053C23.645 16.1042 24.2835 16.2761 24.7794 15.9845C25.2783 15.697 25.4481 15.0595 25.1596 14.5615C24.6023 13.598 23.5648 13.0001 22.4533 13.0001H22.1742V11.9584C22.1742 11.3834 21.7075 10.9167 21.1325 10.9167C20.5575 10.9167 20.0908 11.3834 20.0908 11.9584V13.0001C18.3679 13.0001 16.9658 14.4022 16.9658 16.1251C16.9658 17.5407 17.9804 18.7397 19.3773 18.972L22.545 19.499C22.9335 19.5636 23.2158 19.897 23.2158 20.2917C23.2158 20.8667 22.7481 21.3334 22.1742 21.3334H19.8117C19.4408 21.3334 19.095 21.1345 18.9085 20.8115C18.62 20.3136 17.9814 20.1417 17.4856 20.4324C16.9867 20.7199 16.8169 21.3574 17.1054 21.8553C17.6627 22.8188 18.7002 23.4167 19.8117 23.4167H20.0908V24.4584C20.0908 25.0334 20.5575 25.5001 21.1325 25.5001C21.7075 25.5001 22.1742 25.0334 22.1742 24.4584V23.4167C23.8971 23.4167 25.2992 22.0147 25.2992 20.2917C25.2992 18.8761 24.2846 17.6772 22.8877 17.4449Z" fill="#007AFF"/>
<path d="M14.8841 16.1249C14.8841 13.9687 16.2018 12.1135 18.0737 11.3239C18.1372 11.0187 18.2529 10.7343 18.3977 10.4697C18.0164 10.1031 17.5018 9.87598 16.931 9.87598H2.42057C1.24974 9.87598 0.300781 10.8249 0.300781 11.9958C0.300781 12.6322 0.586198 13.2343 1.07995 13.6374L7.59245 18.9572V22.5687C7.59245 23.1687 7.89036 23.7291 8.38724 24.0645L10.2716 25.3364C10.9049 25.7635 11.7591 25.3104 11.7591 24.5458V18.9572L14.9049 16.3874C14.9008 16.2999 14.8841 16.2156 14.8841 16.126V16.1249Z" fill="#007AFF"/>
<path d="M22.8877 17.4449L19.72 16.9178C19.3314 16.8532 19.0492 16.5199 19.0492 16.1251C19.0492 15.5501 19.5169 15.0834 20.0908 15.0834H22.4533C22.8242 15.0834 23.17 15.2824 23.3564 15.6053C23.645 16.1042 24.2835 16.2761 24.7794 15.9845C25.2783 15.697 25.4481 15.0595 25.1596 14.5615C24.6023 13.598 23.5648 13.0001 22.4533 13.0001H22.1742V11.9584C22.1742 11.3834 21.7075 10.9167 21.1325 10.9167C20.5575 10.9167 20.0908 11.3834 20.0908 11.9584V13.0001C18.3679 13.0001 16.9658 14.4022 16.9658 16.1251C16.9658 17.5407 17.9804 18.7397 19.3773 18.972L22.545 19.499C22.9335 19.5636 23.2158 19.897 23.2158 20.2917C23.2158 20.8667 22.7481 21.3334 22.1742 21.3334H19.8117C19.4408 21.3334 19.095 21.1345 18.9085 20.8115C18.62 20.3136 17.9814 20.1417 17.4856 20.4324C16.9867 20.7199 16.8169 21.3574 17.1054 21.8553C17.6627 22.8188 18.7002 23.4167 19.8117 23.4167H20.0908V24.4584C20.0908 25.0334 20.5575 25.5001 21.1325 25.5001C21.7075 25.5001 22.1742 25.0334 22.1742 24.4584V23.4167C23.8971 23.4167 25.2992 22.0147 25.2992 20.2917C25.2992 18.8761 24.2846 17.6772 22.8877 17.4449Z" fill="#007AFF"/>
</g>
<defs>
<clipPath id="clip0_554_3074">
<rect width="25" height="25" fill="white" transform="translate(0.300781 0.5)"/>
</clipPath>
</defs>
</svg>
