<svg width="26" height="28" viewBox="0 0 26 28" fill="none" xmlns="http://www.w3.org/2000/svg">
<g clip-path="url(#clip0_554_2472)">
<path d="M2.92622 27.8889C2.16233 27.8889 1.50816 27.6171 0.963715 27.0736C0.420197 26.5291 0.148438 25.875 0.148438 25.1111V5.66664C0.148438 4.90275 0.420197 4.24858 0.963715 3.70414C1.50816 3.16062 2.16233 2.88886 2.92622 2.88886H8.75955C9.08362 2.05553 9.59288 1.38423 10.2873 0.874973C10.9818 0.365714 11.7688 0.111084 12.6484 0.111084C13.5281 0.111084 14.3151 0.365714 15.0095 0.874973C15.704 1.38423 16.2133 2.05553 16.5373 2.88886H22.3707C23.1345 2.88886 23.7887 3.16062 24.3332 3.70414C24.8767 4.24858 25.1484 4.90275 25.1484 5.66664V25.1111C25.1484 25.875 24.8767 26.5291 24.3332 27.0736C23.7887 27.6171 23.1345 27.8889 22.3707 27.8889H2.92622ZM12.6484 4.62497C12.9494 4.62497 13.1984 4.52636 13.3957 4.32914C13.592 4.13284 13.6901 3.88423 13.6901 3.58331C13.6901 3.28238 13.592 3.03331 13.3957 2.83608C13.1984 2.63979 12.9494 2.54164 12.6484 2.54164C12.3475 2.54164 12.0989 2.63979 11.9026 2.83608C11.7054 3.03331 11.6068 3.28238 11.6068 3.58331C11.6068 3.88423 11.7054 4.13284 11.9026 4.32914C12.0989 4.52636 12.3475 4.62497 12.6484 4.62497ZM2.92622 23.5139C4.17622 22.287 5.62899 21.3203 7.28455 20.6139C8.93918 19.9083 10.7271 19.5555 12.6484 19.5555C14.5697 19.5555 16.3582 19.9083 18.0137 20.6139C19.6683 21.3203 21.1207 22.287 22.3707 23.5139V5.66664H2.92622V23.5139ZM12.6484 16.7778C11.3058 16.7778 10.16 16.3032 9.21094 15.3541C8.26186 14.4051 7.78733 13.2592 7.78733 11.9166C7.78733 10.574 8.26186 9.42821 9.21094 8.47914C10.16 7.53007 11.3058 7.05553 12.6484 7.05553C13.991 7.05553 15.1369 7.53007 16.0859 8.47914C17.035 9.42821 17.5095 10.574 17.5095 11.9166C17.5095 13.2592 17.035 14.4051 16.0859 15.3541C15.1369 16.3032 13.991 16.7778 12.6484 16.7778Z" fill="#007AFF"/>
</g>
<defs>
<clipPath id="clip0_554_2472">
<rect width="25" height="27.7778" fill="white" transform="translate(0.148438 0.111084)"/>
</clipPath>
</defs>
</svg>
