<svg width="26" height="26" viewBox="0 0 26 26" fill="none" xmlns="http://www.w3.org/2000/svg">
<g clip-path="url(#clip0_570_2304)">
<path d="M22.3242 11.1845V6.22925C22.3228 4.98647 21.8285 3.79499 20.9498 2.91621C20.071 2.03743 18.8795 1.54313 17.6367 1.54175H5.13672C3.89394 1.54313 2.70246 2.03743 1.82368 2.91621C0.9449 3.79499 0.450597 4.98647 0.449219 6.22925L0.449219 17.6876C0.452742 18.5618 0.770242 19.4056 1.34386 20.0652C1.91747 20.7249 2.70901 21.1565 3.57422 21.2813V21.3334C3.57422 22.1622 3.90346 22.9571 4.48951 23.5431C5.07556 24.1292 5.87042 24.4584 6.69922 24.4584C7.52802 24.4584 8.32288 24.1292 8.90893 23.5431C9.49498 22.9571 9.82422 22.1622 9.82422 21.3334H16.0742C16.0742 22.1622 16.4035 22.9571 16.9895 23.5431C17.5756 24.1292 18.3704 24.4584 19.1992 24.4584C20.028 24.4584 20.8229 24.1292 21.4089 23.5431C21.995 22.9571 22.3242 22.1622 22.3242 21.3334C22.3242 21.3157 22.3242 21.299 22.3242 21.2813C23.1894 21.1565 23.981 20.7249 24.5546 20.0652C25.1282 19.4056 25.4457 18.5618 25.4492 17.6876V15.6042C25.4481 14.6351 25.1471 13.6901 24.5876 12.8988C24.0281 12.1075 23.2375 11.5086 22.3242 11.1845ZM3.57422 6.75008H6.69922V10.9167H3.57422V6.75008ZM9.82422 6.75008H12.9492V18.2084H9.82422V6.75008ZM16.0742 6.75008H19.1992V10.9167H16.0742V6.75008ZM3.57422 14.0417H6.69922V18.2084H4.09505C3.95692 18.2084 3.82444 18.1535 3.72677 18.0559C3.62909 17.9582 3.57422 17.8257 3.57422 17.6876V14.0417ZM22.3242 17.6876C22.3242 17.8257 22.2693 17.9582 22.1717 18.0559C22.074 18.1535 21.9415 18.2084 21.8034 18.2084H16.0742V14.0417H20.7617C21.1761 14.0417 21.5735 14.2064 21.8666 14.4994C22.1596 14.7924 22.3242 15.1898 22.3242 15.6042V17.6876Z" fill="#007AFF"/>
</g>
<defs>
<clipPath id="clip0_570_2304">
<rect width="25" height="25" fill="white" transform="translate(0.449219 0.5)"/>
</clipPath>
</defs>
</svg>
