<svg width="26" height="26" viewBox="0 0 26 26" fill="none" xmlns="http://www.w3.org/2000/svg">
<g clip-path="url(#clip0_570_1857)">
<path d="M9.97656 10.9167C8.53802 10.9167 7.3724 9.75104 7.3724 8.3125C7.3724 6.87396 8.53802 5.70833 9.97656 5.70833C11.4151 5.70833 12.5807 6.87396 12.5807 8.3125C12.5807 9.75104 11.4151 10.9167 9.97656 10.9167ZM19.8724 0.5H6.33073C3.17135 0.5 0.601562 3.06979 0.601562 6.22917V15.6042C0.601562 18.7635 3.17135 21.3333 6.33073 21.3333H10.4974C11.3609 21.3333 12.0599 20.6344 12.0599 19.7708C12.0599 18.9073 11.3609 18.2083 10.4974 18.2083H6.33073C4.89531 18.2083 3.72656 17.0396 3.72656 15.6042V6.22917C3.72656 4.79375 4.89531 3.625 6.33073 3.625H19.8724C21.3078 3.625 22.4766 4.79375 22.4766 6.22917V8.83333C22.4766 9.69687 23.1755 10.3958 24.0391 10.3958C24.9026 10.3958 25.6016 9.69687 25.6016 8.83333V6.22917C25.6016 3.06979 23.0318 0.5 19.8724 0.5ZM18.8307 8.83333C19.6943 8.83333 20.3932 8.13437 20.3932 7.27083C20.3932 6.40729 19.6943 5.70833 18.8307 5.70833H16.7474C15.8839 5.70833 15.1849 6.40729 15.1849 7.27083C15.1849 8.13437 15.8839 8.83333 16.7474 8.83333H18.8307ZM25.6016 15.0479V18.8656C25.6016 22.9969 21.8109 24.8427 20.6505 25.3104C20.4078 25.4167 20.1839 25.501 19.8734 25.501C19.563 25.501 19.2589 25.3917 18.988 25.2427C17.8516 24.675 14.1432 22.5354 14.1432 18.8656V15.0479C14.1432 13.975 14.8286 13.0271 15.8474 12.6885L19.3807 11.5167C19.7005 11.4104 20.0453 11.4104 20.3641 11.5167L23.8974 12.6885C24.9172 13.0271 25.6016 13.975 25.6016 15.0479ZM22.4766 15.5094L19.8724 14.6458L17.2682 15.5094V18.8646C17.2682 20.449 19.0266 21.675 19.9391 22.2052C20.8745 21.7417 22.4766 20.6812 22.4766 18.8646V15.5094ZM5.87135 14.7198C5.61406 15.4083 6.20469 16.124 6.96927 16.124H12.0599V15.0469C12.0599 14.2521 12.2724 13.499 12.6391 12.8365C11.9016 12.2896 10.9818 11.9573 9.97656 11.9573C8.0849 11.9573 6.47448 13.1094 5.87135 14.7198Z" fill="#007AFF"/>
</g>
<defs>
<clipPath id="clip0_570_1857">
<rect width="25" height="25" fill="white" transform="translate(0.601562 0.5)"/>
</clipPath>
</defs>
</svg>
