<svg width="26" height="26" viewBox="0 0 26 26" fill="none" xmlns="http://www.w3.org/2000/svg">
<g clip-path="url(#clip0_570_2266)">
<path d="M17.4884 25.5C17.1041 25.4995 16.7335 25.3574 16.4473 25.1009C16.1612 24.8443 15.9796 24.4913 15.9374 24.1094C15.8446 23.3434 15.4745 22.6379 14.897 22.1261C14.3195 21.6144 13.5746 21.3318 12.803 21.3318C12.0314 21.3318 11.2865 21.6144 10.709 22.1261C10.1315 22.6379 9.76141 23.3434 9.66861 24.1094C9.62302 24.5213 9.41567 24.8982 9.09217 25.1573C8.76867 25.4163 8.35552 25.5362 7.94361 25.4906C7.53169 25.445 7.15476 25.2377 6.89572 24.9142C6.63669 24.5907 6.51677 24.1775 6.56236 23.7656C6.73955 22.2348 7.47326 20.8224 8.62392 19.7973C9.77457 18.7721 11.2619 18.2057 12.803 18.2057C14.3441 18.2057 15.8314 18.7721 16.982 19.7973C18.1327 20.8224 18.8664 22.2348 19.0436 23.7656C19.0662 23.9696 19.0484 24.176 18.9912 24.3731C18.934 24.5702 18.8385 24.754 18.7103 24.9142C18.582 25.0744 18.4235 25.2078 18.2437 25.3067C18.0638 25.4056 17.8663 25.4681 17.6624 25.4906C17.6046 25.4969 17.5465 25.5 17.4884 25.5ZM23.9124 16.1156C24.1163 16.0931 24.3138 16.0306 24.4937 15.9317C24.6735 15.8328 24.832 15.6994 24.9603 15.5392C25.0885 15.379 25.184 15.1952 25.2412 14.9981C25.2984 14.801 25.3162 14.5946 25.2936 14.3906C25.1745 12.9285 24.5288 11.5593 23.4765 10.5372C22.4242 9.51516 21.0367 8.90972 19.5717 8.83333C19.1573 8.83333 18.7599 8.99796 18.4669 9.29098C18.1739 9.58401 18.0092 9.98143 18.0092 10.3958C18.0092 10.8102 18.1739 11.2077 18.4669 11.5007C18.7599 11.7937 19.1573 11.9583 19.5717 11.9583C20.2652 12.0376 20.9081 12.3599 21.3865 12.8681C21.865 13.3762 22.1479 14.0374 22.1853 14.7344C22.2276 15.1167 22.4094 15.47 22.696 15.7266C22.9826 15.9832 23.3537 16.125 23.7384 16.125C23.7958 16.1249 23.8532 16.1218 23.9103 16.1156H23.9124ZM3.41652 14.7344C3.45386 14.0374 3.73684 13.3762 4.21526 12.8681C4.69369 12.3599 5.33664 12.0376 6.03007 11.9583C6.44447 11.9583 6.84189 11.7937 7.13492 11.5007C7.42795 11.2077 7.59257 10.8102 7.59257 10.3958C7.59257 9.98143 7.42795 9.58401 7.13492 9.29098C6.84189 8.99796 6.44447 8.83333 6.03007 8.83333C4.56546 8.91021 3.17848 9.51587 2.12658 10.5379C1.07469 11.5599 0.42932 12.9288 0.310274 14.3906C0.287688 14.5946 0.305501 14.801 0.362694 14.9981C0.419888 15.1952 0.515342 15.379 0.643605 15.5392C0.771868 15.6994 0.930429 15.8328 1.11023 15.9317C1.29004 16.0306 1.48756 16.0931 1.69152 16.1156C1.74861 16.1218 1.80598 16.1249 1.8634 16.125C2.24806 16.125 2.61921 15.9832 2.90578 15.7266C3.19236 15.47 3.37421 15.1167 3.41652 14.7344ZM12.8811 17.1667C13.6022 17.1667 14.3071 16.9528 14.9066 16.5522C15.5062 16.1516 15.9735 15.5822 16.2494 14.916C16.5254 14.2498 16.5976 13.5168 16.4569 12.8096C16.3162 12.1023 15.969 11.4527 15.4591 10.9428C14.9492 10.433 14.2996 10.0857 13.5924 9.94506C12.8852 9.80438 12.1521 9.87658 11.4859 10.1525C10.8197 10.4285 10.2503 10.8958 9.84971 11.4953C9.4491 12.0949 9.23527 12.7998 9.23527 13.5208C9.23527 14.4878 9.61939 15.4151 10.3031 16.0988C10.9868 16.7826 11.9142 17.1667 12.8811 17.1667ZM19.1311 7.79167C19.8522 7.79167 20.5571 7.57784 21.1566 7.17723C21.7562 6.77663 22.2235 6.20722 22.4994 5.54103C22.7754 4.87485 22.8476 4.14179 22.7069 3.43457C22.5662 2.72735 22.219 2.07772 21.7091 1.56784C21.1992 1.05796 20.5496 0.710731 19.8424 0.570055C19.1352 0.42938 18.4021 0.50158 17.7359 0.777524C17.0697 1.05347 16.5003 1.52076 16.0997 2.12032C15.6991 2.71987 15.4853 3.42476 15.4853 4.14583C15.4853 4.62461 15.5796 5.0987 15.7628 5.54103C15.946 5.98337 16.2146 6.38528 16.5531 6.72383C16.8917 7.06237 17.2936 7.33092 17.7359 7.51415C18.1782 7.69737 18.6523 7.79167 19.1311 7.79167ZM6.63111 7.79167C7.35219 7.79167 8.05707 7.57784 8.65662 7.17723C9.25618 6.77663 9.72347 6.20722 9.99942 5.54103C10.2754 4.87485 10.3476 4.14179 10.2069 3.43457C10.0662 2.72735 9.71898 2.07772 9.2091 1.56784C8.69922 1.05796 8.0496 0.710731 7.34237 0.570055C6.63515 0.42938 5.9021 0.50158 5.23591 0.777524C4.56972 1.05347 4.00032 1.52076 3.59971 2.12032C3.1991 2.71987 2.98527 3.42476 2.98527 4.14583C2.98527 5.11277 3.36939 6.0401 4.05311 6.72383C4.39166 7.06237 4.79357 7.33092 5.23591 7.51415C5.67824 7.69737 6.15233 7.79167 6.63111 7.79167Z" fill="#007AFF"/>
</g>
<defs>
<clipPath id="clip0_570_2266">
<rect width="25" height="25" fill="white" transform="translate(0.300781 0.5)"/>
</clipPath>
</defs>
</svg>
