<svg width="25" height="24" viewBox="0 0 25 24" fill="none" xmlns="http://www.w3.org/2000/svg">
<path d="M18.5 2H5.5C2.468 2 0 4.467 0 7.5V16.5C0 19.533 2.468 22 5.5 22H18.5C21.532 22 24 19.533 24 16.5V7.5C24 4.467 21.532 2 18.5 2ZM21 16.5C21 17.878 19.879 19 18.5 19H5.5C4.121 19 3 17.878 3 16.5V7.5C3 6.122 4.121 5 5.5 5H18.5C19.879 5 21 6.122 21 7.5V16.5ZM19.27 13.935C19.118 15.015 18.162 15.8 17.072 15.8H16.792V16.2C16.792 16.642 16.434 17 15.992 17C15.55 17 15.192 16.642 15.192 16.2V15.8H14.992C14.28 15.8 13.644 15.475 13.222 14.967C12.804 14.463 13.159 13.701 13.814 13.701H13.89C14.117 13.701 14.324 13.808 14.478 13.975C14.606 14.114 14.79 14.201 14.993 14.201H17.096C17.374 14.201 17.628 14.014 17.682 13.741C17.745 13.423 17.536 13.126 17.231 13.064L14.44 12.505C13.328 12.282 12.552 11.224 12.715 10.066C12.867 8.986 13.823 8.2 14.914 8.2H15.194V7.8C15.194 7.358 15.552 7 15.994 7C16.436 7 16.794 7.358 16.794 7.8V8.2H16.994C17.705 8.2 18.342 8.524 18.764 9.033C19.182 9.537 18.827 10.299 18.172 10.299C17.923 10.299 17.677 10.208 17.508 10.025C17.38 9.886 17.196 9.799 16.993 9.799H14.891C14.613 9.799 14.359 9.985 14.304 10.257C14.24 10.575 14.45 10.874 14.753 10.935L17.545 11.494C18.657 11.716 19.434 12.776 19.27 13.933V13.935ZM11 9.5C11 10.329 10.328 11 9.5 11H6.5C5.672 11 5 10.329 5 9.5C5 8.671 5.672 8 6.5 8H9.5C10.328 8 11 8.671 11 9.5ZM11 14.5C11 15.329 10.328 16 9.5 16H6.5C5.672 16 5 15.329 5 14.5C5 13.671 5.672 13 6.5 13H9.5C10.328 13 11 13.671 11 14.5Z" fill="#007AFF"/>
</svg>
