<svg width="211" height="210" viewBox="0 0 211 210" fill="none" xmlns="http://www.w3.org/2000/svg">
<path d="M24.6081 68.8606C20.6257 77.2637 14.8148 97.2633 17.1034 117.423C20.0393 143.287 35.0718 163.142 49.21 174.6C96.1275 212.623 181.366 187.739 192.74 151.923C194.804 145.425 194.223 139.158 193.509 131.447C191.238 106.921 183.693 99.8408 179.128 72.9869C175.339 50.6944 172.714 44.1891 168.507 36.5531C155.366 12.6961 110.257 11.2786 77.7411 23.9564C66.482 28.3454 38.8053 38.9142 24.6081 68.8606Z" fill="#CADDFF"/>
<path d="M77.5742 188.708C77.5742 188.708 84.4515 160.597 110.899 147.723C111.709 147.329 113.38 150.398 114.202 150.002C115.249 149.498 115.434 145.503 116.534 145.062C120.621 143.424 125.065 142.254 129.883 141.723C129.883 141.723 127.991 151.014 121.037 161.431C120.514 162.216 116.187 161.475 115.604 162.269C115.053 163.02 118.247 165.308 117.642 166.061C109.804 175.802 97.2744 185.481 77.5742 188.708Z" fill="#99B9FF"/>
<path d="M92.0677 158.606C92.0298 157.651 87.8952 157.23 88.0212 156.308C88.1462 155.399 93.0629 152.926 93.1564 152.04C94.9869 134.644 90.9728 121.712 90.9728 121.712C85.1093 125.728 80.7077 128.412 76.7735 133.465C76.1451 134.272 78.1743 138.763 77.59 139.589C76.9491 140.495 73.2902 138.705 72.6997 139.63C63.9802 153.293 60.6198 168.993 59.6406 181.795C66.0841 185.031 72.5885 188.399 78.9793 189.998C89.0688 178.957 92.4733 168.68 92.0677 158.606Z" fill="#99B9FF"/>
<path d="M72.0137 182.407C71.9917 182.407 71.9686 182.404 71.9464 182.4C71.773 182.362 71.6615 182.192 71.6985 182.018C72.8208 176.763 74.1006 171.47 75.5003 166.287C75.5465 166.116 75.7231 166.015 75.8954 166.061C76.0667 166.106 76.1676 166.283 76.1213 166.454C74.7238 171.627 73.4471 176.909 72.3279 182.153C72.2952 182.303 72.1616 182.407 72.0137 182.407Z" fill="#CADDFF"/>
<path d="M77.9032 159.319C77.8727 159.319 77.8424 159.314 77.8119 159.306C77.6417 159.255 77.5449 159.076 77.5954 158.905C80.1782 150.225 83.1877 141.557 86.5418 133.142L88.076 129.295C88.1411 129.131 88.3282 129.051 88.4931 129.116C88.658 129.182 88.739 129.368 88.6727 129.533L87.1397 133.381C83.793 141.778 80.7888 150.427 78.2112 159.089C78.1702 159.229 78.0419 159.319 77.9032 159.319Z" fill="#CADDFF"/>
<path d="M75.9375 189.166C75.9375 189.166 92.8604 165.796 119.885 179.3C119.885 179.3 103.428 197.976 75.9375 189.166Z" fill="white"/>
<path d="M85.2127 187.768C85.0886 187.768 84.971 187.697 84.9173 187.576C84.8469 187.414 84.9204 187.224 85.0822 187.153C94.0012 183.244 111.368 180.813 111.542 180.788C111.716 180.766 111.88 180.888 111.904 181.063C111.929 181.239 111.805 181.402 111.629 181.426C111.456 181.449 94.1777 183.868 85.3406 187.741C85.3 187.76 85.2559 187.768 85.2127 187.768Z" fill="#CADDFF"/>
<path d="M123.155 84.4963C112.765 84.4963 104.342 76.1521 104.342 65.8605C104.342 55.567 112.765 47.2228 123.155 47.2228C133.544 47.2228 141.968 55.567 141.968 65.8605C141.968 76.1519 133.544 84.4963 123.155 84.4963ZM162.885 71.6694L158.029 69.1706C157.244 68.7671 156.755 67.9549 156.788 67.0805C156.824 66.1578 156.823 65.2385 156.782 64.3254C156.742 63.4533 157.226 62.64 158.003 62.2322L162.83 59.6924C163.78 59.1923 164.254 58.1057 163.973 57.0769L162.818 52.8895C162.534 51.8607 161.569 51.1642 160.495 51.2115L155.022 51.4532C154.135 51.4921 153.304 51.0256 152.889 50.25C152.459 49.4483 151.998 48.6633 151.504 47.8972C151.028 47.1585 151.026 46.2117 151.497 45.4678L154.402 40.8653C154.972 39.9617 154.835 38.7869 154.071 38.0365L150.959 34.9808C150.194 34.2306 149.006 34.1045 148.1 34.6783L143.49 37.592C142.745 38.0649 141.791 38.0723 141.039 37.6068C140.265 37.1277 139.466 36.6779 138.646 36.2597C137.856 35.855 137.375 35.0345 137.406 34.156L137.601 28.737C137.638 27.6715 136.926 26.7216 135.885 26.4494L131.649 25.3461C130.607 25.075 129.516 25.5541 129.019 26.4999L126.497 31.3115C126.09 32.0881 125.27 32.5734 124.388 32.5388C123.456 32.5042 122.528 32.5061 121.605 32.5471C120.727 32.5851 119.906 32.1069 119.493 31.3367L116.928 26.5546C116.423 25.6131 115.328 25.1445 114.289 25.4239L110.062 26.5672C109.024 26.8478 108.32 27.8041 108.368 28.8694L108.612 34.2903C108.651 35.1636 108.189 35.9875 107.41 36.3962C106.593 36.8259 105.792 37.2883 105.012 37.7822C104.271 38.252 103.316 38.2467 102.57 37.7822L97.9248 34.9052C97.0127 34.3388 95.8264 34.4755 95.0688 35.232L91.9848 38.315C91.2272 39.0725 91.1 40.2495 91.6789 41.149L94.6201 45.7147C95.097 46.4534 95.1044 47.398 94.6358 48.142C94.1514 48.91 93.6974 49.7003 93.2751 50.5146C92.8673 51.2953 92.0394 51.7725 91.1514 51.7408L85.6811 51.5485C84.6062 51.5117 83.6478 52.2158 83.3736 53.2475L82.2598 57.4454C81.9856 58.4761 82.4688 59.5586 83.4251 60.0492L88.2808 62.548C89.0646 62.9515 89.5554 63.7637 89.5208 64.6381C89.484 65.5617 89.4861 66.4812 89.527 67.3943C89.5668 68.2654 89.0846 69.0788 88.307 69.4875L83.4786 72.0273C82.5287 72.5275 82.0549 73.613 82.3386 74.6407L83.4912 78.829C83.7739 79.8578 84.7396 80.5543 85.8144 80.5071L91.2881 80.2663C92.1687 80.2275 93.0019 80.6867 93.4137 81.4579C93.8477 82.267 94.3132 83.0603 94.8124 83.8317C95.2874 84.5682 95.281 85.5119 94.8124 86.2527L91.908 90.8519C91.3375 91.7566 91.4751 92.9315 92.2389 93.6816L95.3514 96.7364C96.1153 97.4865 97.3038 97.6137 98.2105 97.0401L102.819 94.1263C103.565 93.6535 104.518 93.6461 105.27 94.1116C106.044 94.5907 106.844 95.0416 107.663 95.4596C108.453 95.8631 108.934 96.6827 108.902 97.5622L108.709 102.981C108.671 104.048 109.383 104.997 110.424 105.269L114.661 106.372C115.702 106.644 116.794 106.164 117.29 105.218L119.813 100.408C120.22 99.6291 121.041 99.1446 121.923 99.1794C122.854 99.2151 123.782 99.2109 124.704 99.172C125.583 99.1331 126.405 99.6112 126.817 100.381L129.38 105.164C129.885 106.105 130.981 106.575 132.019 106.293L136.246 105.152C137.284 104.871 137.989 103.915 137.94 102.85L137.697 97.4276C137.658 96.5503 138.129 95.7274 138.911 95.3156C139.722 94.8899 140.514 94.4318 141.286 93.9432C142.032 93.4715 142.987 93.4693 143.739 93.9348L148.384 96.8139C149.296 97.3782 150.483 97.2427 151.241 96.4861L154.325 93.4032C155.082 92.6456 155.209 91.4698 154.63 90.5692L151.688 86.0046C151.213 85.2659 151.203 84.3213 151.673 83.5762C152.157 82.8091 152.611 82.0179 153.034 81.2045C153.441 80.4227 154.271 79.9467 155.157 79.9772L160.628 80.1695C161.703 80.2074 162.662 79.5012 162.935 78.4705L164.05 74.2726C164.324 73.2422 163.84 72.1611 162.885 71.6694Z" fill="#99B9FF"/>
<path d="M110.234 65.7428C110.234 58.4587 116.138 52.5544 123.418 52.5544C130.698 52.5544 136.601 58.4587 136.601 65.7428C136.601 73.0279 130.698 78.9322 123.418 78.9322C116.138 78.9322 110.234 73.0279 110.234 65.7428Z" fill="white"/>
<path d="M114.137 75.3333C116.511 77.5725 119.71 78.9489 123.233 78.9489C126.756 78.9489 129.954 77.5725 132.329 75.3333C129.582 74.4822 126.496 74.004 123.233 74.004C119.971 74.004 116.885 74.4822 114.137 75.3333Z" fill="#99B9FF"/>
<path d="M127.485 58.0374C126.888 57.6528 126.19 57.449 125.48 57.449H121.297C120.363 57.449 119.463 57.8021 118.779 58.4377L118.55 58.6501C117.463 59.6598 117.083 61.2202 117.587 62.6158L118.961 66.4311L127.782 66.3765L129.028 62.2059C129.497 60.6276 128.87 58.9295 127.485 58.0374Z" fill="black"/>
<path d="M125.375 59.7365C125.372 59.7355 125.366 59.7322 125.366 59.7322L118.914 63.8659V66.2659C118.914 67.6844 119.578 68.9465 120.61 69.7649V73.5414C120.61 75.0346 121.82 76.2452 123.314 76.2452C124.808 76.2452 126.018 75.0348 126.018 73.5414V69.8668C127.126 69.0546 127.845 67.7452 127.845 66.2657V63.6366C127.845 61.9148 126.835 60.4279 125.375 59.7365Z" fill="white"/>
<path d="M123.315 76.5658C121.647 76.5658 120.289 75.2082 120.289 73.5407V69.8429H120.932V73.5407C120.932 74.8541 122.001 75.9228 123.315 75.9228C124.629 75.9228 125.697 74.8541 125.697 73.5407V69.9586H126.34V73.5407C126.341 75.2082 124.983 76.5658 123.315 76.5658Z" fill="black"/>
<path d="M123.38 71.0514C123.202 71.0514 123.06 70.9075 123.06 70.7298C123.06 70.5523 123.202 70.4082 123.38 70.4082C125.666 70.4082 127.524 68.5505 127.524 66.266V63.6369C127.524 61.4344 125.733 59.6428 123.53 59.6428H119.236V66.266C119.236 67.8863 120.189 69.3668 121.665 70.0382C121.826 70.1117 121.897 70.303 121.825 70.4638C121.751 70.6256 121.56 70.6971 121.398 70.6225C119.695 69.848 118.594 68.1373 118.594 66.266V59.3223C118.594 59.1448 118.738 59.0007 118.914 59.0007H123.53C126.087 59.0007 128.167 61.0803 128.167 63.6369V66.266C128.167 68.9048 126.021 71.0514 123.38 71.0514Z" fill="black"/>
<path d="M123.211 79.2538C119.635 79.2538 116.065 77.8552 113.402 75.076C108.467 69.9249 108.371 61.7762 113.185 56.5223C113.305 56.392 113.509 56.3836 113.639 56.5034C113.771 56.6232 113.779 56.826 113.658 56.9574C109.074 61.9613 109.165 69.7254 113.865 74.6305C118.801 79.7803 127.008 79.9569 132.16 75.0235C134.655 72.633 136.071 69.4155 136.144 65.9616C136.218 62.5067 134.943 59.2313 132.552 56.7367C129.964 54.0363 126.338 52.5923 122.596 52.7637C122.412 52.7679 122.269 52.6355 122.262 52.4578C122.253 52.2812 122.389 52.1309 122.568 52.1216C126.496 51.9355 130.301 53.4572 133.016 56.2922C135.526 58.9108 136.865 62.349 136.787 65.9752C136.709 69.6004 135.225 72.9787 132.603 75.4868C129.977 78.0033 126.591 79.2538 123.211 79.2538Z" fill="black"/>
<path d="M82.1758 96.8062C82.1758 90.7778 87.0598 85.8916 93.0839 85.8916C99.1092 85.8916 103.993 90.7778 103.993 96.8062C103.993 102.834 99.1092 107.719 93.0839 107.719C87.0598 107.719 82.1758 102.834 82.1758 96.8062Z" fill="white"/>
<path d="M93.0842 108.04C86.892 108.04 81.8555 103.002 81.8555 96.8062C81.8555 95.4812 82.0835 94.1845 82.5321 92.9509C82.5942 92.7839 82.7781 92.6997 82.9451 92.7596C83.1122 92.8204 83.1983 93.0044 83.1365 93.1704C82.713 94.3336 82.4975 95.5557 82.4975 96.8062C82.4975 102.646 87.247 107.398 93.0842 107.398C98.9224 107.398 103.672 102.646 103.672 96.8062C103.672 90.9658 98.9224 86.2132 93.0842 86.2132C89.9078 86.2132 86.9266 87.6233 84.9049 90.0801C84.7925 90.2178 84.5897 90.2378 84.453 90.1253C84.3144 90.0117 84.2954 89.8089 84.4079 89.6724C86.5527 87.0655 89.7143 85.5712 93.0842 85.5712C99.2765 85.5712 104.314 90.6108 104.314 96.8062C104.314 103.002 99.2765 108.04 93.0842 108.04Z" fill="black"/>
<path d="M85.6016 104.743C87.555 106.587 90.1871 107.719 93.0842 107.719C95.9822 107.719 98.6144 106.587 100.567 104.743C98.3075 104.043 95.7689 103.649 93.0842 103.649C90.3995 103.649 87.8608 104.043 85.6016 104.743Z" fill="#99B9FF"/>
<path d="M93.147 105.493C92.196 105.493 91.4258 104.722 91.4258 103.771V94.9861H94.8682V103.771C94.8682 104.722 94.098 105.493 93.147 105.493Z" fill="white"/>
<path d="M99.8145 98.1922C99.598 95.4633 100.801 93.76 98.1049 90.678C95.3129 87.4868 92.9183 89.6263 92.9183 89.6263C92.9183 89.6263 90.9208 87.9681 88.3 91.4358C85.9873 94.4958 88.9495 97.2382 87.9533 99.1443C86.9582 101.05 83.582 102.09 83.582 102.09C83.582 102.09 84.6643 104.254 86.0062 105.207H100.247C100.247 105.207 103.191 102.003 103.191 101.093C103.191 101.093 100.031 100.92 99.8145 98.1922Z" fill="black"/>
<path d="M85.6016 104.743C87.555 106.587 90.1871 107.719 93.0842 107.719C95.9822 107.719 98.6144 106.587 100.567 104.743C98.3075 104.043 95.7689 103.649 93.0842 103.649C90.3995 103.649 87.8608 104.043 85.6016 104.743Z" fill="#99B9FF"/>
<path d="M86.2446 104.888C88.1559 106.51 90.5643 107.398 93.0841 107.398C95.6049 107.398 98.0123 106.51 99.9237 104.888C97.7697 104.278 95.4706 103.969 93.0841 103.969C90.6977 103.969 88.3998 104.278 86.2446 104.888ZM93.0841 108.04C90.2102 108.04 87.474 106.953 85.3808 104.976L84.9805 104.599L85.5059 104.436C87.8806 103.7 90.4298 103.327 93.0841 103.327C95.7385 103.327 98.2886 103.7 100.662 104.436L101.189 104.599L100.788 104.976C98.6954 106.952 95.959 108.04 93.0841 108.04Z" fill="black"/>
<path d="M93.3145 92.1281H93.1957L89.6914 95.6524V97.5848C89.6914 98.8751 90.3891 100.001 91.4262 100.611V103.771C91.4262 104.722 92.1964 105.493 93.1475 105.493C94.0985 105.493 94.8687 104.722 94.8687 103.771V100.67C95.9626 100.076 96.7044 98.9173 96.7044 97.5849V95.519C96.7044 93.6465 95.186 92.1281 93.3145 92.1281Z" fill="white"/>
<path d="M93.1481 105.815C92.0217 105.815 91.1055 104.897 91.1055 103.771V100.707C91.1055 100.529 91.2494 100.386 91.4271 100.386C91.6036 100.386 91.7487 100.529 91.7487 100.707V103.771C91.7487 104.543 92.376 105.172 93.1483 105.172C93.9206 105.172 94.5479 104.543 94.5479 103.771V100.759C94.5479 100.582 94.693 100.438 94.8695 100.438C95.0471 100.438 95.1911 100.581 95.1911 100.759V103.771C95.1909 104.897 94.2757 105.815 93.1481 105.815Z" fill="black"/>
<path d="M93.197 101.415C93.0195 101.415 92.8765 101.271 92.8765 101.093C92.8765 100.916 93.0195 100.772 93.197 100.772C94.955 100.772 96.383 99.3416 96.383 97.5848V95.519C96.383 93.8712 95.0948 92.5241 93.4513 92.4528C93.4492 92.4528 93.447 92.4528 93.4439 92.4528L90.0131 95.8458V97.5849C90.0131 98.8311 90.7456 99.9702 91.8804 100.487C92.0412 100.561 92.1126 100.752 92.0391 100.913C91.9656 101.075 91.7754 101.145 91.6134 101.073C90.2506 100.45 89.3711 99.0833 89.3711 97.5849V95.7124C89.3711 95.6263 89.4047 95.5443 89.4656 95.4834L93.0887 91.9002C93.1486 91.8412 93.2306 91.8066 93.3146 91.8066C93.3702 91.8066 93.426 91.8076 93.4795 91.8109C95.4675 91.8971 97.026 93.5269 97.026 95.5192V97.5849C97.026 99.6968 95.309 101.415 93.197 101.415Z" fill="black"/>
<path d="M97.7656 29.8144C97.7656 23.7734 102.658 18.8767 108.697 18.8767C114.735 18.8767 119.628 23.7734 119.628 29.8144C119.628 35.8554 114.735 40.7521 108.697 40.7521C102.658 40.7521 97.7656 35.8554 97.7656 29.8144Z" fill="white"/>
<path d="M101 37.7678C102.968 39.6267 105.622 40.7657 108.543 40.7657C111.464 40.7657 114.117 39.6267 116.086 37.7678C113.808 37.0627 111.249 36.6666 108.543 36.6666C105.837 36.6666 103.278 37.0627 101 37.7678Z" fill="#5479F7"/>
<path d="M112.066 23.4246C111.57 23.1062 110.995 22.9359 110.404 22.9359H106.934C106.16 22.9359 105.414 23.2291 104.846 23.7555L104.656 23.933C103.755 24.7695 103.441 26.063 103.858 27.2199L104.999 30.3849L112.313 30.3398L113.345 26.8806C113.735 25.5724 113.214 24.1632 112.066 23.4246Z" fill="black"/>
<path d="M110.259 24.8053C110.243 24.7979 110.211 24.7843 110.211 24.7843L104.961 28.1931V30.2484C104.961 31.4254 105.51 32.4709 106.367 33.1497V36.281C106.367 37.5198 107.37 38.5234 108.609 38.5234C109.849 38.5234 110.854 37.5198 110.854 36.281V33.2296C111.77 32.5561 112.368 31.4738 112.368 30.2486V28.0681C112.368 26.6158 111.501 25.3665 110.259 24.8053Z" fill="white"/>
<path d="M108.664 34.2718C108.487 34.2718 108.343 34.1279 108.343 33.9502C108.343 33.7725 108.487 33.6286 108.664 33.6286C110.529 33.6286 112.046 32.1113 112.046 30.2482V28.068C112.046 26.2722 110.585 24.8105 108.789 24.8105H105.283V30.2483C105.283 31.5713 106.061 32.7787 107.266 33.3272C107.426 33.3997 107.498 33.5908 107.424 33.7517C107.352 33.9146 107.161 33.986 106.999 33.9125C105.565 33.2599 104.641 31.8214 104.641 30.2483V24.4901C104.641 24.3125 104.784 24.1685 104.962 24.1685H108.789C110.94 24.1685 112.689 25.9181 112.689 28.0678V30.2482C112.689 32.4666 110.885 34.2718 108.664 34.2718Z" fill="black"/>
<path d="M108.541 41.0725C105.618 41.0725 102.694 39.9502 100.482 37.71C98.3598 35.5581 97.2029 32.7093 97.2229 29.6884C97.2439 26.6663 98.4397 23.8323 100.593 21.7098C104.823 17.536 111.615 17.3585 116.053 21.3042C116.186 21.4218 116.198 21.6246 116.081 21.7582C115.963 21.8896 115.76 21.9011 115.626 21.7835C111.441 18.0637 105.036 18.2329 101.044 22.1681C99.0136 24.1699 97.885 26.8419 97.8661 29.6927C97.8473 32.5434 98.9391 35.2303 100.942 37.2593C105.075 41.4488 111.847 41.4951 116.037 37.3612C118.233 35.1945 119.384 32.1851 119.194 29.1051C119.183 28.9264 119.319 28.7741 119.496 28.7636C119.68 28.7479 119.826 28.8887 119.836 29.0652C120.038 32.3311 118.818 35.5223 116.488 37.8193C114.287 39.9903 111.414 41.0725 108.541 41.0725Z" fill="black"/>
<path d="M108.611 38.8448C107.196 38.8448 106.047 37.6952 106.047 36.2808V33.1485C106.047 32.971 106.191 32.8269 106.367 32.8269C106.545 32.8269 106.689 32.9708 106.689 33.1485V36.2808C106.689 37.34 107.552 38.2017 108.611 38.2017C109.67 38.2017 110.533 37.3402 110.533 36.2808V33.3082C110.533 33.1295 110.676 32.9865 110.854 32.9865C111.031 32.9865 111.176 33.1295 111.176 33.3082V36.2808C111.176 37.6952 110.024 38.8448 108.611 38.8448Z" fill="black"/>
<path d="M139.859 48.9525C141.79 50.7734 144.39 51.8925 147.256 51.8925C150.119 51.8925 152.72 50.7734 154.651 48.9525C152.417 48.261 149.908 47.8723 147.256 47.8723C144.603 47.8721 142.093 48.261 139.859 48.9525Z" fill="#CADDFF"/>
<path d="M140.5 49.0984C142.388 50.6968 144.765 51.571 147.253 51.571C149.74 51.571 152.116 50.6968 154.003 49.0984C151.876 48.4974 149.609 48.1937 147.253 48.1937C144.895 48.1937 142.627 48.4974 140.5 49.0984ZM147.253 52.214C144.411 52.214 141.706 51.1391 139.637 49.1867C139.552 49.108 139.518 48.9913 139.543 48.8809C139.569 48.7685 139.653 48.679 139.762 48.6466C142.107 47.9193 144.627 47.5516 147.253 47.5516C149.876 47.5516 152.397 47.9193 154.742 48.6466C154.851 48.6792 154.935 48.7685 154.961 48.8809C154.987 48.9911 154.951 49.1078 154.868 49.1867C152.799 51.1391 150.093 52.214 147.253 52.214Z" fill="black"/>
<path d="M150.711 34.8887C150.225 34.5756 149.658 34.4095 149.082 34.4095H145.679C144.92 34.4095 144.189 34.6975 143.633 35.2134L143.446 35.3868C142.561 36.2076 142.253 37.4757 142.663 38.6095L143.781 41.7137L150.953 41.6695L151.965 38.2786C152.347 36.9955 151.837 35.6137 150.711 34.8887Z" fill="black"/>
<path d="M148.936 36.2422C148.921 36.236 148.89 36.2212 148.89 36.2212L143.742 39.5637V41.5791C143.742 42.7329 144.281 43.7584 145.12 44.4225V47.4949C145.12 48.7086 146.104 49.6921 147.32 49.6921C148.534 49.6921 149.518 48.7086 149.518 47.4949V44.5022C150.417 43.8422 151.004 42.78 151.004 41.5789V39.4416C151.004 38.0179 150.155 36.7917 148.936 36.2422Z" fill="white"/>
<path d="M147.371 45.5299C147.194 45.5299 147.05 45.386 147.05 45.2095C147.05 45.0319 147.193 44.8879 147.371 44.8879C149.195 44.8879 150.68 43.4043 150.68 41.579V39.4428C150.68 37.6849 149.25 36.2547 147.492 36.2547H144.062V41.579C144.062 42.8736 144.823 44.0568 146 44.5915C146.163 44.665 146.234 44.8564 146.161 45.0181C146.087 45.1789 145.898 45.2515 145.735 45.1768C144.327 44.5369 143.418 43.1237 143.418 41.579V35.9343C143.418 35.7556 143.562 35.6127 143.741 35.6127H147.492C149.605 35.6127 151.323 37.3296 151.323 39.4428V41.579C151.323 43.7583 149.551 45.5299 147.371 45.5299Z" fill="black"/>
<path d="M147.252 52.2045C147.226 52.2045 147.2 52.2045 147.173 52.2045C144.209 52.1835 141.429 51.0108 139.346 48.9008C135.046 44.5431 135.095 37.5029 139.452 33.2043C143.604 29.1105 150.267 28.9349 154.62 32.8049C154.754 32.9237 154.764 33.1254 154.647 33.259C154.528 33.3904 154.326 33.4028 154.192 33.2852C150.091 29.639 143.814 29.805 139.904 33.6615C135.797 37.7111 135.753 44.3448 139.803 48.4492C141.765 50.4372 144.385 51.5437 147.178 51.5616C147.202 51.5616 147.228 51.5626 147.252 51.5626C150.018 51.5626 152.624 50.4939 154.596 48.5501C156.748 46.4263 157.877 43.478 157.69 40.459C157.679 40.2803 157.814 40.1281 157.99 40.1176C158.172 40.1071 158.32 40.2426 158.332 40.4192C158.529 43.624 157.331 46.7544 155.048 49.0072C152.954 51.0718 150.188 52.2045 147.252 52.2045Z" fill="black"/>
<path d="M147.318 50.0158C145.927 50.0158 144.797 48.8841 144.797 47.496V44.4255C144.797 44.2468 144.941 44.1029 145.119 44.1029C145.297 44.1029 145.44 44.2468 145.44 44.4255V47.496C145.44 48.53 146.283 49.3716 147.318 49.3716C148.353 49.3716 149.194 48.5298 149.194 47.496V44.5801C149.194 44.4025 149.34 44.2585 149.517 44.2585C149.695 44.2585 149.839 44.4023 149.839 44.5801V47.496C149.838 48.8839 148.707 50.0158 147.318 50.0158Z" fill="black"/>
<mask id="mask0_424_7838" style="mask-type:luminance" maskUnits="userSpaceOnUse" x="76" y="73" width="23" height="7">
<path d="M98.6997 73.4493H76.4609V79.2739H98.6997V73.4493Z" fill="white"/>
</mask>
<g mask="url(#mask0_424_7838)">
<mask id="mask1_424_7838" style="mask-type:luminance" maskUnits="userSpaceOnUse" x="73" y="50" width="30" height="30">
<path d="M87.8246 79.2172C79.9657 79.2172 73.5938 72.8495 73.5938 64.9928C73.5938 57.136 79.9657 50.7672 87.8246 50.7672C95.6834 50.7672 102.054 57.136 102.054 64.9928C102.054 72.8495 95.6832 79.2172 87.8246 79.2172Z" fill="white"/>
</mask>
<g mask="url(#mask1_424_7838)">
<path d="M76.5 75.0696C79.3782 77.8133 83.2661 79.5092 87.5575 79.5323C91.8489 79.5543 95.7547 77.8984 98.661 75.1863C95.3207 74.1324 91.564 73.5302 87.5899 73.5092C83.6137 73.4882 79.8518 74.0515 76.5 75.0696Z" fill="#CADDFF"/>
</g>
</g>
<mask id="mask2_424_7838" style="mask-type:luminance" maskUnits="userSpaceOnUse" x="76" y="73" width="23" height="7">
<path d="M98.9928 73.1572H76.1719V79.2739H98.9928V73.1572Z" fill="white"/>
</mask>
<g mask="url(#mask2_424_7838)">
<mask id="mask3_424_7838" style="mask-type:luminance" maskUnits="userSpaceOnUse" x="73" y="50" width="30" height="30">
<path d="M87.8246 79.217C79.9657 79.217 73.5938 72.8494 73.5938 64.9926C73.5938 57.1359 79.9657 50.7671 87.8246 50.7671C95.6834 50.7671 102.054 57.1359 102.054 64.9926C102.054 72.8494 95.6832 79.217 87.8246 79.217Z" fill="white"/>
</mask>
<g mask="url(#mask3_424_7838)">
<path d="M77.1323 75.2177C80.0115 77.7764 83.6913 79.1908 87.5561 79.2106C87.5845 79.2106 87.6129 79.2106 87.6401 79.2106C91.4744 79.2106 95.1354 77.8372 98.0207 75.3269C94.7412 74.3518 91.2336 73.8496 87.5843 73.8307C83.9361 73.8054 80.4202 74.2771 77.1323 75.2177ZM87.6401 79.8538C87.6107 79.8538 87.5824 79.8538 87.5518 79.8538C83.3361 79.8318 79.3315 78.2156 76.2748 75.3028C76.1928 75.2229 76.1582 75.1063 76.1844 74.995C76.2107 74.8848 76.2937 74.7953 76.403 74.7629C79.9084 73.6973 83.6701 73.1636 87.5864 73.1877C91.5027 73.2077 95.2592 73.7782 98.7542 74.8795C98.8634 74.9141 98.9465 75.0036 98.9706 75.115C98.9968 75.2264 98.9601 75.3431 98.877 75.4218C95.8122 78.2817 91.8244 79.8538 87.6401 79.8538Z" fill="black"/>
</g>
</g>
<mask id="mask4_424_7838" style="mask-type:luminance" maskUnits="userSpaceOnUse" x="78" y="53" width="20" height="17">
<path d="M97.2459 53.1598H78.3086V69.5656H97.2459V53.1598Z" fill="white"/>
</mask>
<g mask="url(#mask4_424_7838)">
<mask id="mask5_424_7838" style="mask-type:luminance" maskUnits="userSpaceOnUse" x="73" y="50" width="30" height="30">
<path d="M87.8285 79.2172C79.9696 79.2172 73.5977 72.8495 73.5977 64.9928C73.5977 57.136 79.9696 50.7672 87.8285 50.7672C95.6873 50.7672 102.058 57.136 102.058 64.9928C102.058 72.8495 95.6871 79.2172 87.8285 79.2172Z" fill="white"/>
</mask>
<g mask="url(#mask5_424_7838)">
<path d="M97.0142 64.1341C95.6094 59.0756 92.7133 52.4441 87.2819 53.2596C82.071 54.0414 79.6185 59.7565 78.492 64.1846C77.807 66.8798 79.8623 69.4953 82.6448 69.511L92.8448 69.5635C95.6881 69.5793 97.7761 66.8746 97.0142 64.1341Z" fill="black"/>
</g>
</g>
<mask id="mask6_424_7838" style="mask-type:luminance" maskUnits="userSpaceOnUse" x="82" y="58" width="11" height="19">
<path d="M92.6801 58.111H82.9688V76.3609H92.6801V58.111Z" fill="white"/>
</mask>
<g mask="url(#mask6_424_7838)">
<mask id="mask7_424_7838" style="mask-type:luminance" maskUnits="userSpaceOnUse" x="73" y="50" width="30" height="30">
<path d="M87.8246 79.2172C79.9657 79.2172 73.5938 72.8495 73.5938 64.9928C73.5938 57.136 79.9657 50.7672 87.8246 50.7672C95.6834 50.7672 102.054 57.136 102.054 64.9928C102.054 72.8495 95.6832 79.2172 87.8246 79.2172Z" fill="white"/>
</mask>
<g mask="url(#mask7_424_7838)">
<path d="M92.5144 58.2592C92.5113 58.2477 92.507 58.2246 92.507 58.2246L83.2464 58.1532C83.2464 58.1532 83.2421 58.1668 83.2402 58.1742C83.1183 58.6366 83.0522 59.1231 83.05 59.6263L83.0352 62.3363C83.0257 64.151 83.8758 65.7503 85.1695 66.6844L85.1327 73.7593C85.1253 75.1663 86.2603 76.3137 87.6683 76.3201C89.0762 76.3275 90.2248 75.1937 90.231 73.7856L90.2678 66.8157C91.6548 65.9131 92.5879 64.2696 92.5974 62.3866L92.6132 59.33C92.6153 58.9623 92.5805 58.6049 92.5144 58.2592Z" fill="white"/>
</g>
</g>
<mask id="mask8_424_7838" style="mask-type:luminance" maskUnits="userSpaceOnUse" x="84" y="66" width="7" height="11">
<path d="M90.6421 66.5563H84.7188V76.6522H90.6421V66.5563Z" fill="white"/>
</mask>
<g mask="url(#mask8_424_7838)">
<mask id="mask9_424_7838" style="mask-type:luminance" maskUnits="userSpaceOnUse" x="73" y="50" width="30" height="30">
<path d="M87.8285 79.2172C79.9696 79.2172 73.5977 72.8495 73.5977 64.9928C73.5977 57.136 79.9696 50.7672 87.8285 50.7672C95.6873 50.7672 102.058 57.136 102.058 64.9928C102.058 72.8495 95.6871 79.2172 87.8285 79.2172Z" fill="white"/>
</mask>
<g mask="url(#mask9_424_7838)">
<path d="M87.6884 76.6406C87.6831 76.6406 87.6779 76.6406 87.6736 76.6406C86.09 76.6332 84.8092 75.3386 84.8164 73.7562L84.8532 66.8925C84.8542 66.7159 84.9982 66.573 85.1748 66.573C85.1748 66.573 85.1758 66.573 85.1769 66.573C85.3535 66.573 85.4974 66.719 85.4964 66.8956L85.4597 73.7593C85.4544 74.9876 86.4474 75.9923 87.6769 75.9985C87.68 75.9985 87.6843 75.9985 87.6884 75.9985C88.2789 75.9985 88.8348 75.7694 89.255 75.3543C89.6774 74.9361 89.9128 74.3782 89.9159 73.7824L89.9517 66.8925C89.9527 66.7159 90.0956 66.573 90.2733 66.573C90.2743 66.573 90.2755 66.573 90.2755 66.573C90.453 66.573 90.5959 66.719 90.5949 66.8956L90.5592 73.7867C90.5549 74.5528 90.2533 75.2724 89.7081 75.8116C89.1658 76.3473 88.4492 76.6406 87.6884 76.6406Z" fill="black"/>
</g>
</g>
<mask id="mask10_424_7838" style="mask-type:luminance" maskUnits="userSpaceOnUse" x="86" y="63" width="4" height="2">
<path d="M89.5005 63.3082H86.0781V64.6143H89.5005V63.3082Z" fill="white"/>
</mask>
<g mask="url(#mask10_424_7838)">
<mask id="mask11_424_7838" style="mask-type:luminance" maskUnits="userSpaceOnUse" x="73" y="50" width="30" height="30">
<path d="M87.8285 79.217C79.9696 79.217 73.5977 72.8494 73.5977 64.9926C73.5977 57.1359 79.9696 50.7671 87.8285 50.7671C95.6873 50.7671 102.058 57.1359 102.058 64.9926C102.058 72.8494 95.6871 79.217 87.8285 79.217Z" fill="white"/>
</mask>
<g mask="url(#mask11_424_7838)">
<path d="M87.8328 64.5448C87.8297 64.5448 87.8254 64.5448 87.8232 64.5448C87.2244 64.5417 86.6484 64.2895 86.2428 63.8524C86.1209 63.7231 86.1292 63.5203 86.2585 63.3984C86.3888 63.2776 86.5916 63.2848 86.7145 63.4151C87.0035 63.7272 87.3976 63.8994 87.8252 63.9016C88.2518 63.9111 88.6512 63.7334 88.9454 63.4225C89.0673 63.2943 89.2711 63.2891 89.3994 63.411C89.5297 63.5329 89.5349 63.7357 89.412 63.865C88.9959 64.3043 88.4348 64.5448 87.8328 64.5448Z" fill="black"/>
</g>
</g>
<mask id="mask12_424_7838" style="mask-type:luminance" maskUnits="userSpaceOnUse" x="82" y="53" width="11" height="15">
<path d="M92.9693 53.9362H82.6758V67.8811H92.9693V53.9362Z" fill="white"/>
</mask>
<g mask="url(#mask12_424_7838)">
<mask id="mask13_424_7838" style="mask-type:luminance" maskUnits="userSpaceOnUse" x="73" y="50" width="30" height="30">
<path d="M87.8246 79.217C79.9657 79.217 73.5938 72.8494 73.5938 64.9926C73.5938 57.1359 79.9657 50.7671 87.8246 50.7671C95.6834 50.7671 102.054 57.1359 102.054 64.9926C102.054 72.8494 95.6832 79.217 87.8246 79.217Z" fill="white"/>
</mask>
<g mask="url(#mask13_424_7838)">
<path d="M87.8133 67.8737C87.8049 67.8737 87.7965 67.8737 87.7892 67.8737C87.6116 67.8716 87.4675 67.7277 87.4687 67.5502C87.4697 67.3715 87.6116 67.2223 87.7913 67.2307C87.7987 67.2307 87.8061 67.2307 87.8133 67.2307C90.2627 67.2307 92.2633 65.0618 92.2769 62.3845L92.2927 59.3279C92.3001 58.0681 91.8556 56.8837 91.0412 55.9916C90.2353 55.1069 89.1604 54.6161 88.0182 54.6099C88.0099 54.6099 88.0025 54.6099 87.9962 54.6099C85.4585 54.6099 83.3854 56.8565 83.3727 59.6285L83.358 62.3375C83.3475 64.2467 84.3689 65.9942 85.9577 66.7897C86.1163 66.8696 86.1805 67.0629 86.1006 67.2215C86.0219 67.3802 85.8284 67.4432 85.6697 67.3635C83.8633 66.4609 82.7033 64.4853 82.7149 62.3344L82.7297 59.6254C82.7455 56.4909 85.1128 53.9532 88.0203 53.9669C89.3465 53.9742 90.5884 54.5407 91.5163 55.5588C92.4399 56.5707 92.9443 57.9104 92.9359 59.331L92.9192 62.3888C92.9032 65.4171 90.6156 67.8737 87.8133 67.8737Z" fill="black"/>
</g>
</g>
<path d="M87.751 79.6101C85.5285 79.6101 83.3198 79.0931 81.274 78.0707C77.8044 76.338 75.2184 73.3579 73.9911 69.679C72.7647 66.0013 73.0434 62.0661 74.7782 58.5974C76.5121 55.1309 79.4931 52.545 83.1718 51.3186C86.8507 50.0924 90.7878 50.3709 94.2565 52.1046C97.7262 53.8384 100.312 56.8183 101.539 60.4962C102.382 63.0244 102.516 65.726 101.925 68.3097C101.885 68.4832 101.714 68.5913 101.539 68.5514C101.367 68.5126 101.259 68.3403 101.298 68.1668C101.862 65.6976 101.735 63.1146 100.93 60.699C98.509 53.4433 90.6344 49.5081 83.3756 51.928C79.8587 53.1007 77.0098 55.5721 75.3528 58.8852C73.6957 62.1993 73.4288 65.9612 74.6015 69.476C75.7732 72.992 78.2455 75.8384 81.5608 77.4957C84.8761 79.1527 88.6378 79.4197 92.1547 78.247C95.2923 77.2005 97.9571 75.0673 99.6583 72.2354C99.7488 72.0841 99.9473 72.0347 100.1 72.1251C100.25 72.2177 100.3 72.4152 100.209 72.5665C98.43 75.5287 95.6402 77.7627 92.3585 78.8566C90.8496 79.36 89.2966 79.6101 87.751 79.6101Z" fill="black"/>
<path d="M69.1402 154.669C61.5619 162.246 49.2299 162.245 41.6516 154.669C34.0733 147.094 34.0723 134.766 41.6516 127.19L57.6487 111.198L57.2106 89.1722L29.2283 114.77C25.1051 118.892 22.1649 123.753 20.3986 128.931L18.7015 125.294L17.9134 136.823C17.6035 147.562 21.0984 158.961 29.2283 167.088C43.6577 181.512 67.1355 181.512 81.5636 167.088L100.174 148.485L100.901 122.919L69.1402 154.669Z" fill="#5479F7"/>
<path d="M18.9348 126.56L18.2307 136.845C17.8966 148.452 21.9862 159.398 29.4521 166.861C43.7564 181.159 67.0302 181.159 81.3336 166.861L99.8536 148.348L100.553 123.718L69.3651 154.897C65.639 158.622 60.6762 160.673 55.3939 160.673C55.3929 160.673 55.3939 160.673 55.3929 160.673C50.1097 160.673 45.1478 158.622 41.4217 154.897C37.6956 151.172 35.6434 146.212 35.6434 140.93C35.6434 135.647 37.6946 130.688 41.4205 126.963L57.322 111.067L56.9006 89.8888L29.4416 115.008C25.4623 118.988 22.5168 123.709 20.699 129.035C20.657 129.159 20.5434 129.245 20.4122 129.252C20.284 129.259 20.16 129.186 20.1044 129.067L18.9348 126.56ZM55.3939 178.227C55.3929 178.227 55.3939 178.227 55.3929 178.227C45.4115 178.227 36.0375 174.353 28.9982 167.315C21.4073 159.727 17.2484 148.61 17.5898 136.815L18.3779 125.271C18.3884 125.126 18.4955 125.004 18.6406 124.977C18.7845 124.95 18.9285 125.025 18.9906 125.157L20.3544 128.083C22.2195 122.966 25.1239 118.415 28.9982 114.543L56.9913 88.9345C57.0838 88.8493 57.2182 88.8262 57.3348 88.8767C57.4503 88.9271 57.5262 89.0397 57.5293 89.1657L57.9676 111.191C57.9697 111.278 57.9361 111.362 57.874 111.424L41.8759 127.416C38.2717 131.021 36.2858 135.82 36.2868 140.93C36.2868 146.04 38.2717 150.838 41.8759 154.441C45.4811 158.046 50.2812 160.03 55.3933 160.03C60.5054 160.031 65.3053 158.046 68.9107 154.441L100.672 122.692C100.765 122.599 100.905 122.572 101.026 122.624C101.146 122.676 101.223 122.797 101.219 122.928L100.493 148.494C100.49 148.576 100.455 148.654 100.398 148.713L81.7889 167.315C74.7493 174.353 65.3741 178.227 55.3939 178.227Z" fill="black"/>
<path d="M73.7556 84.1274L61.3322 71.7083L45.2227 87.8137L48.0125 96.3449L57.6451 100.232L73.7556 84.1274Z" fill="#99B9FF"/>
<path d="M48.2735 96.1042L57.5697 99.8544L73.3032 84.1274L61.3338 72.162L45.591 87.9008L48.2735 96.1042ZM57.6465 100.553C57.6067 100.553 57.5657 100.546 57.5268 100.53L47.8942 96.6432C47.8059 96.6074 47.7386 96.536 47.7093 96.4456L44.9184 87.9132C44.8805 87.7977 44.911 87.6715 44.9962 87.5854L61.1069 71.4811C61.2319 71.3561 61.4357 71.3561 61.5619 71.4811L73.9843 83.9003C74.0452 83.9602 74.0789 84.0422 74.0789 84.1272C74.0789 84.2123 74.0452 84.2942 73.9843 84.3541L57.8744 100.46C57.8126 100.522 57.7305 100.553 57.6465 100.553Z" fill="black"/>
<path d="M113.671 124.027L101.246 111.608L85.1367 127.712L88.8104 136.46L97.5602 140.131L113.671 124.027Z" fill="#99B9FF"/>
<path d="M89.0558 136.214L97.4863 139.751L113.215 124.027L101.248 112.063L85.5167 127.787L89.0558 136.214ZM97.5609 140.452C97.5189 140.452 97.4758 140.444 97.4359 140.427L88.6861 136.756C88.6083 136.722 88.5475 136.661 88.5138 136.583L84.8414 127.837C84.791 127.716 84.8182 127.576 84.9108 127.485L101.021 111.381C101.146 111.255 101.349 111.255 101.475 111.381L113.899 123.799C114.024 123.925 114.024 124.128 113.899 124.254L97.7883 140.358C97.7258 140.42 97.644 140.452 97.5609 140.452Z" fill="black"/>
<path d="M41.651 143.705C34.0727 136.129 34.0727 123.802 41.651 116.225L57.6481 100.232L45.2256 87.8137L29.2275 103.806C14.7992 118.23 14.7992 141.7 29.2275 156.123C43.6569 170.548 67.1347 170.548 81.5628 156.124L97.5609 140.131L85.1375 127.712L69.1394 143.705C61.5611 151.281 49.2292 151.28 41.651 143.705Z" fill="white"/>
<path d="M45.2228 88.2675L29.4516 104.033C15.1483 118.331 15.1483 141.598 29.4516 155.896C43.7559 170.195 67.0298 170.196 81.3331 155.897L97.1033 140.131L85.1349 128.166L69.3647 143.933C61.6604 151.634 49.1244 151.634 41.4211 143.932C37.6949 140.207 35.6427 135.246 35.6427 129.965C35.6427 124.683 37.6939 119.723 41.4199 115.998L57.1911 100.232L45.2228 88.2675ZM55.3934 167.263C45.8334 167.263 36.2755 163.627 28.9978 156.351C14.4434 141.802 14.4434 118.128 28.9978 103.578L44.9949 87.5853C45.1209 87.4603 45.3237 87.4603 45.4499 87.5853L57.8734 100.005C57.9333 100.065 57.9669 100.146 57.9669 100.231C57.9669 100.318 57.9333 100.4 57.8734 100.46L41.8753 116.451C38.2711 120.056 36.2862 124.855 36.2862 129.965C36.2862 135.075 38.2711 139.873 41.8753 143.477C49.3295 150.928 61.4566 150.929 68.9099 143.478L84.908 127.485C85.0277 127.364 85.242 127.364 85.362 127.485L97.7854 139.904C97.9105 140.03 97.9105 140.233 97.7854 140.358L81.7883 156.351C74.5114 163.624 64.9504 167.262 55.3934 167.263Z" fill="black"/>
<path d="M73.7591 84.1274V95.0924L57.6484 111.198V100.232L73.7591 84.1274Z" fill="#5479F7"/>
<path d="M57.97 100.365V110.421L73.4375 94.9589V84.9029L57.97 100.365ZM57.6486 111.518C57.6075 111.518 57.5655 111.511 57.5267 111.494C57.4059 111.445 57.3281 111.327 57.3281 111.198V100.232C57.3281 100.147 57.3618 100.066 57.4217 100.005L73.5323 83.9005C73.6237 83.8091 73.7626 83.7807 73.8823 83.8311C74.0031 83.8805 74.0809 83.9981 74.0809 84.1274V95.0923C74.0809 95.1775 74.0472 95.2594 73.9864 95.3193L57.8768 111.425C57.8146 111.487 57.7326 111.518 57.6486 111.518Z" fill="black"/>
<path d="M113.669 124.027V134.992L97.5586 151.096V140.131L113.669 124.027Z" fill="#5479F7"/>
<path d="M97.8811 140.263V150.321L113.348 134.858V124.802L97.8811 140.263ZM97.5597 151.418C97.5177 151.418 97.4757 151.409 97.4368 151.392C97.3161 151.343 97.2383 151.226 97.2383 151.096V140.131C97.2383 140.047 97.2719 139.964 97.3328 139.904L113.442 123.799C113.534 123.707 113.673 123.679 113.792 123.729C113.913 123.78 113.992 123.896 113.992 124.027V134.992C113.992 135.076 113.957 135.159 113.898 135.218L97.7868 151.323C97.7256 151.385 97.6427 151.418 97.5597 151.418Z" fill="black"/>
<path d="M138.094 181.623L137.23 187.692L135.018 187.701L134.914 181.733L138.094 181.623Z" fill="white"/>
<path d="M135.241 182.043L135.335 187.377L136.953 187.371L137.723 181.959L135.241 182.043ZM135.019 188.022C134.843 188.022 134.7 187.881 134.698 187.706L134.594 181.738C134.591 181.562 134.728 181.416 134.903 181.411L138.084 181.303C138.179 181.293 138.271 181.337 138.335 181.409C138.399 181.479 138.427 181.575 138.414 181.669L137.55 187.738C137.528 187.894 137.392 188.012 137.232 188.013L135.019 188.022Z" fill="black"/>
<path d="M137.305 193.493C136.437 193.587 135.145 193.622 133.416 193.471C132.8 193.416 132.364 192.845 132.463 192.233C132.731 190.585 133.481 187.681 134.66 186.348L135.243 187.178L135.588 186.32C135.645 186.228 137.111 186.166 137.141 186.34L137.231 187.178L138.063 186.246L138.017 189.307C138.012 189.645 138.044 189.982 138.112 190.313L138.331 191.372C138.462 192.009 138.299 192.685 137.855 193.159C137.68 193.345 137.488 193.474 137.305 193.493Z" fill="white"/>
<path d="M134.646 186.885C133.644 188.296 133.01 190.886 132.781 192.285C132.748 192.494 132.8 192.702 132.931 192.869C133.058 193.033 133.242 193.133 133.446 193.15C135.279 193.311 136.538 193.252 137.272 193.174C137.341 193.166 137.469 193.101 137.621 192.938C137.983 192.553 138.132 191.992 138.017 191.437L137.799 190.379C137.725 190.026 137.692 189.663 137.697 189.303L137.73 187.102L137.471 187.391C137.387 187.487 137.253 187.523 137.133 187.485C137.012 187.445 136.926 187.339 136.912 187.212L136.843 186.566C136.587 186.538 136.073 186.551 135.83 186.584L135.542 187.299C135.498 187.407 135.398 187.485 135.28 187.497C135.165 187.511 135.048 187.458 134.979 187.363L134.646 186.885ZM135.626 193.896C135.001 193.896 134.257 193.867 133.39 193.792C133.004 193.757 132.661 193.57 132.422 193.264C132.186 192.958 132.085 192.564 132.147 192.181C132.217 191.744 132.885 187.869 134.42 186.134C134.485 186.062 134.58 186.025 134.678 186.027C134.777 186.032 134.868 186.083 134.924 186.163L135.167 186.509L135.291 186.199C135.298 186.184 135.306 186.169 135.314 186.154C135.538 185.783 137.025 185.945 137.039 185.947C137.286 185.992 137.428 186.106 137.458 186.283C137.461 186.292 137.462 186.298 137.462 186.307L137.474 186.423L137.823 186.031C137.913 185.931 138.054 185.898 138.18 185.946C138.305 185.994 138.387 186.116 138.385 186.25L138.339 189.312C138.335 189.626 138.364 189.941 138.427 190.249L138.646 191.307C138.803 192.066 138.594 192.839 138.09 193.378C137.848 193.636 137.589 193.786 137.339 193.812C136.929 193.855 136.359 193.896 135.626 193.896Z" fill="black"/>
<path d="M135.721 192.812C135.106 192.812 134.345 192.765 133.484 192.614C133.31 192.583 133.192 192.416 133.224 192.242C133.254 192.067 133.422 191.951 133.596 191.981C135.698 192.351 137.204 192.058 137.218 192.055C137.392 192.02 137.563 192.132 137.597 192.306C137.632 192.48 137.52 192.649 137.346 192.685C137.306 192.694 136.7 192.812 135.721 192.812Z" fill="black"/>
<path d="M136.429 190.486H134.423C134.246 190.486 134.102 190.342 134.102 190.164C134.102 189.987 134.245 189.843 134.423 189.843H136.429C136.608 189.843 136.751 189.986 136.751 190.164C136.751 190.342 136.608 190.486 136.429 190.486Z" fill="black"/>
<path d="M153.973 182.166L154.75 189.238L157.727 189.86L157.545 181.568L153.973 182.166Z" fill="white"/>
<path d="M155.046 188.971L157.397 189.463L157.233 181.947L154.326 182.432L155.046 188.971ZM157.727 190.182C157.705 190.182 157.684 190.18 157.661 190.175L154.686 189.551C154.549 189.524 154.448 189.412 154.431 189.273L153.654 182.201C153.635 182.031 153.752 181.878 153.92 181.848L157.494 181.251C157.584 181.237 157.68 181.262 157.751 181.321C157.823 181.38 157.865 181.469 157.867 181.562L158.049 189.854C158.051 189.952 158.008 190.046 157.932 190.109C157.874 190.157 157.801 190.182 157.727 190.182Z" fill="black"/>
<path d="M153.491 192.61C153.427 191.372 153.424 189.089 154.18 187.989L156.56 188.836V188.327C156.56 188.164 156.677 188.029 156.825 188.022L158.153 187.944C158.648 187.916 159.143 188.018 159.596 188.241C160.931 188.897 164.991 190.579 165.554 192.47C165.72 193.03 165.283 193.588 164.701 193.603C163.366 193.643 160.152 193.684 154.385 193.488C153.905 193.471 153.517 193.091 153.491 192.61Z" fill="white"/>
<path d="M153.813 192.594C153.829 192.909 154.08 193.155 154.397 193.166C160.101 193.361 163.296 193.323 164.693 193.283C164.878 193.278 165.053 193.184 165.162 193.034C165.222 192.952 165.312 192.782 165.246 192.563C164.792 191.036 161.587 189.533 160.045 188.811C159.817 188.702 159.615 188.608 159.454 188.528C159.052 188.331 158.609 188.239 158.172 188.265L156.883 188.339L156.882 188.836C156.882 188.94 156.832 189.039 156.745 189.098C156.659 189.158 156.55 189.173 156.452 189.14L154.32 188.38C153.898 189.193 153.713 190.703 153.813 192.594ZM162.04 193.958C160.267 193.958 157.76 193.924 154.376 193.809C153.723 193.787 153.204 193.279 153.172 192.627C153.102 191.332 153.108 188.982 153.915 187.808C153.998 187.688 154.15 187.637 154.288 187.687L156.239 188.381V188.328C156.239 187.995 156.489 187.718 156.808 187.7L158.136 187.624C158.682 187.591 159.236 187.707 159.737 187.954C159.896 188.032 160.093 188.123 160.319 188.229C162.068 189.05 165.325 190.578 165.862 192.38C165.967 192.733 165.903 193.108 165.682 193.412C165.458 193.723 165.094 193.915 164.71 193.926C164.138 193.942 163.262 193.958 162.04 193.958Z" fill="black"/>
<path d="M161.116 192.783C159.422 192.783 157.134 192.708 154.637 192.418C154.459 192.398 154.333 192.239 154.354 192.062C154.374 191.885 154.534 191.759 154.71 191.78C159.77 192.368 163.944 192.061 163.986 192.059C164.162 192.047 164.317 192.176 164.332 192.354C164.345 192.531 164.212 192.685 164.036 192.699C164.015 192.7 162.892 192.783 161.116 192.783Z" fill="black"/>
<path d="M160.379 190.758C160.314 190.758 160.248 190.739 160.192 190.698L157.901 189.05C157.755 188.946 157.723 188.745 157.826 188.601C157.93 188.457 158.131 188.425 158.275 188.528L160.567 190.176C160.711 190.28 160.744 190.48 160.641 190.624C160.578 190.711 160.479 190.758 160.379 190.758Z" fill="black"/>
<path d="M154.385 133.309C154.385 133.309 159.169 165.53 158.259 185.055L156.929 185.188C156.212 185.259 155.493 185.278 154.775 185.241L153.512 185.177C147.841 152.114 146.404 150.552 145.3 146.91C145.3 146.91 138.978 176.969 138.711 184.115C138.711 184.115 135.641 184.424 134.418 183.983C133.76 177.086 133.57 169.948 133.536 165.468C133.443 152.643 134.669 146.816 135.341 144.052C135.959 141.514 136.622 139.453 137.105 138.057L138.72 133.451L154.385 133.309Z" fill="black"/>
<path d="M145.303 148.26C145.283 148.26 145.262 148.258 145.241 148.254C145.066 148.22 144.953 148.051 144.986 147.876L145.689 144.267C145.691 144.259 145.692 144.251 145.696 144.243C145.918 143.428 146.573 142.816 147.401 142.643L148.065 142.507C148.239 142.471 148.409 142.582 148.444 142.756C148.481 142.929 148.369 143.099 148.195 143.135L147.531 143.274C146.944 143.395 146.48 143.827 146.319 144.401L145.618 147.999C145.589 148.153 145.453 148.26 145.303 148.26Z" fill="#CADDFF"/>
<path d="M136.876 142.421C136.722 142.421 136.585 142.309 136.559 142.152C136.53 141.977 136.648 141.812 136.824 141.783C139.681 141.307 140.73 139.459 141.048 138.685C141.116 138.521 141.302 138.443 141.467 138.511C141.631 138.578 141.71 138.766 141.642 138.93C141.283 139.802 140.105 141.888 136.929 142.417C136.912 142.42 136.893 142.421 136.876 142.421Z" fill="#CADDFF"/>
<path d="M154.334 140.499C154.292 140.499 154.249 140.49 154.207 140.471C151.846 139.447 151.57 137.352 151.561 137.263C151.54 137.087 151.665 136.927 151.841 136.906C152.014 136.882 152.178 137.011 152.198 137.187C152.207 137.265 152.453 139.01 154.463 139.882C154.627 139.953 154.701 140.142 154.629 140.305C154.578 140.426 154.459 140.499 154.334 140.499Z" fill="#CADDFF"/>
<path d="M133.871 110.456C134.703 109.516 136.388 108.515 137.612 108.232C139.934 107.696 142.911 107.387 145.565 107.206L147.073 107.046C147.845 106.991 148.573 106.985 149.263 107.02C149.738 107.004 150.172 106.992 150.548 106.983C151.721 106.956 153.604 107.335 154.604 107.945C155.583 108.541 156.492 109.273 157.337 110.086C160.607 112.715 162.26 116.101 164.3 116.302C165.131 116.384 166.797 111.356 167.437 109.32C167.853 107.995 169.408 107.402 170.59 108.132C170.649 108.169 170.703 108.205 170.753 108.241C172.266 109.32 171.8 111.75 171.8 111.75C171.8 111.75 170.977 125.302 167.188 125.848C162.953 126.456 156.534 121.307 155.21 120.954L156.2 126.765L157.852 134.898C158.093 136.475 156.055 136.975 154.908 136.965C154.874 136.965 154.507 134.118 154.473 134.11C150.803 133.355 146.068 135.538 142.366 137.498C137.617 140.011 133.316 138.324 132.981 137.032C132.648 135.741 133.539 127.879 133.539 127.879L128.556 127.466C127.617 127.388 126.892 126.605 126.895 125.664C126.906 119.216 131.423 113.23 133.871 110.456Z" fill="#5479F7"/>
<path d="M138.387 117.238C137.957 117.82 137.446 118.338 136.871 118.778C134.932 120.263 130.302 123.845 129.199 125.084C127.791 126.662 127.097 127.274 128.855 130.597C131.721 136.017 139.451 120.048 139.451 120.048C139.451 120.048 142.38 120.174 142.679 117.584C142.679 117.584 144.205 117.66 144.789 117.307C145.238 117.036 145.106 116.231 144.46 116.229L140.245 116.023C139.665 116.001 139.112 116.265 138.765 116.73L138.387 117.238Z" fill="white"/>
<path d="M138.649 117.429C138.201 118.035 137.669 118.575 137.07 119.032C135.138 120.511 130.527 124.079 129.442 125.298L129.316 125.437C128.025 126.88 127.543 127.42 129.143 130.446C129.482 131.086 129.884 131.398 130.375 131.398C130.382 131.398 130.388 131.398 130.396 131.398C133.049 131.351 137.624 123.086 139.165 119.908C139.22 119.792 139.336 119.721 139.467 119.727C139.571 119.73 142.102 119.805 142.363 117.545C142.382 117.378 142.539 117.256 142.698 117.262C143.251 117.29 144.264 117.251 144.627 117.031C144.732 116.966 144.752 116.832 144.726 116.734C144.702 116.65 144.636 116.55 144.463 116.549L140.232 116.344C139.763 116.326 139.31 116.54 139.027 116.921L138.649 117.429ZM130.372 132.04C129.633 132.04 129.028 131.605 128.575 130.747C126.838 127.463 127.401 126.615 128.837 125.008L128.961 124.87C130.084 123.611 134.732 120.012 136.679 118.523C137.23 118.1 137.72 117.604 138.133 117.047L138.51 116.539C138.92 115.987 139.573 115.679 140.261 115.702L144.479 115.907C144.888 115.909 145.234 116.166 145.344 116.562C145.453 116.958 145.295 117.379 144.96 117.582C144.457 117.886 143.456 117.915 142.955 117.912C142.573 119.821 140.759 120.349 139.654 120.371C138.754 122.207 133.796 131.98 130.406 132.04C130.396 132.04 130.384 132.04 130.372 132.04Z" fill="black"/>
<path d="M154.909 136.965C158.472 136.732 159.074 134.902 154.473 134.11L154.909 136.965Z" fill="#99B9FF"/>
<path d="M166.895 99.7264L169.53 112.397C169.723 113.325 170.345 113.97 170.918 113.837L171.863 113.621C172.435 113.489 172.745 112.629 172.552 111.701L169.917 99.0306L166.895 99.7264Z" fill="#5479F7"/>
<path d="M167.275 99.9689L169.846 112.331C169.948 112.826 170.197 113.252 170.493 113.442C170.618 113.521 170.738 113.55 170.847 113.524L171.791 113.308C172.139 113.228 172.407 112.575 172.239 111.766L169.67 99.4173L167.275 99.9689ZM170.768 114.177C170.557 114.177 170.347 114.11 170.146 113.982C169.703 113.698 169.355 113.13 169.217 112.463L166.581 99.7924C166.545 99.6211 166.653 99.4541 166.823 99.413L169.845 98.7185C169.93 98.6975 170.019 98.7132 170.091 98.7605C170.165 98.8068 170.215 98.8824 170.233 98.9654L172.868 111.635C173.101 112.751 172.691 113.76 171.937 113.934L170.993 114.151C170.918 114.168 170.842 114.177 170.768 114.177Z" fill="black"/>
<path d="M167.749 112.451C167.279 112.258 167.041 111.734 167.197 111.249C167.672 109.797 168.006 108.426 167.461 107.637C166.988 106.951 166.543 106.271 166.654 105.464L166.813 104.25C166.84 104.06 166.782 103.363 167.306 103.487C167.702 103.581 167.869 103.927 168.097 105.451C168.21 106.218 168.513 106.57 169.03 106.889C169.01 106.776 169.001 106.644 169.008 106.501C169.037 105.844 169.395 105.246 169.94 104.883C170.621 104.43 171.765 103.822 172.443 104.583C172.914 105.112 173.096 106.303 172.271 107.464C172.078 107.739 170.998 108.918 170.998 108.918C170.79 109.197 170.338 112.038 170.338 112.038C170.065 113.526 168.936 112.943 167.749 112.451Z" fill="white"/>
<path d="M167.871 112.155L168.1 112.251C168.728 112.513 169.374 112.786 169.695 112.612C169.85 112.529 169.959 112.317 170.021 111.978C170.193 110.896 170.517 109.022 170.739 108.725C170.746 108.717 170.754 108.707 170.76 108.701C171.19 108.232 171.876 107.466 172.009 107.279C172.787 106.184 172.54 105.175 172.202 104.795C171.819 104.364 171.117 104.484 170.119 105.148C169.648 105.463 169.353 105.973 169.328 106.514C169.322 106.629 169.33 106.738 169.345 106.831C169.369 106.955 169.315 107.082 169.211 107.152C169.106 107.224 168.969 107.227 168.861 107.161C168.309 106.822 167.915 106.41 167.779 105.498C167.553 103.99 167.404 103.839 167.231 103.798C167.218 103.795 167.207 103.794 167.199 103.793C167.158 103.865 167.146 104.077 167.143 104.15C167.138 104.209 167.136 104.26 167.13 104.296L166.973 105.505C166.881 106.168 167.228 106.731 167.726 107.454C168.383 108.407 167.955 109.964 167.503 111.349C167.397 111.672 167.559 112.026 167.871 112.155ZM169.444 113.31C168.965 113.31 168.419 113.081 167.853 112.842L167.627 112.749C167.005 112.492 166.683 111.789 166.892 111.149C167.327 109.819 167.665 108.496 167.198 107.819C166.756 107.176 166.204 106.378 166.336 105.421L166.495 104.209C166.497 104.181 166.498 104.151 166.5 104.114C166.514 103.878 166.535 103.482 166.82 103.271C166.925 103.19 167.109 103.109 167.38 103.174C168.002 103.321 168.184 103.86 168.416 105.403C168.469 105.77 168.569 106.017 168.716 106.207C168.825 105.569 169.202 104.987 169.764 104.615C171.391 103.53 172.249 103.881 172.684 104.37C173.272 105.031 173.42 106.404 172.534 107.65C172.342 107.921 171.424 108.926 171.253 109.114C171.143 109.333 170.856 110.825 170.655 112.088C170.554 112.64 170.341 112.995 170.002 113.178C169.829 113.271 169.642 113.31 169.444 113.31Z" fill="black"/>
<path d="M170.15 100.152L172.553 111.701C172.746 112.629 172.437 113.488 171.864 113.621L170.919 113.837C170.347 113.97 169.725 113.324 169.531 112.396L167.059 100.526L170.15 100.152Z" fill="#5479F7"/>
<path d="M167.446 100.802L169.847 112.331C169.949 112.826 170.198 113.252 170.494 113.442C170.619 113.521 170.739 113.55 170.848 113.524L171.792 113.308C172.14 113.228 172.408 112.575 172.239 111.766L169.897 100.507L167.446 100.802ZM170.768 114.177C170.558 114.177 170.348 114.111 170.146 113.982C169.704 113.699 169.356 113.13 169.217 112.463L166.745 100.591C166.727 100.503 166.746 100.411 166.799 100.339C166.851 100.265 166.932 100.217 167.021 100.206L170.114 99.8323C170.279 99.8134 170.433 99.9237 170.468 100.087L172.869 111.635C173.101 112.751 172.691 113.76 171.938 113.934L170.993 114.151C170.919 114.168 170.843 114.177 170.768 114.177Z" fill="black"/>
<path d="M170.071 107.702C170.543 107.75 171.287 107.645 172.086 107.101C172.925 106.531 172.914 105.111 172.443 104.582C171.771 103.825 170.634 104.423 169.951 104.874C169.4 105.242 168.878 105.968 168.891 106.476C168.91 107.251 169.188 107.612 170.071 107.702Z" fill="white"/>
<path d="M171.62 104.54C171.158 104.54 170.586 104.841 170.131 105.142C169.64 105.468 169.204 106.098 169.214 106.469C169.227 107.05 169.356 107.307 170.106 107.382C170.255 107.397 170.798 107.42 171.507 107.066C171.666 106.987 171.86 107.05 171.938 107.209C171.957 107.25 171.969 107.29 171.972 107.332C172.003 107.293 172.011 107.279 172.011 107.278C172.786 106.182 172.542 105.173 172.204 104.796C172.175 104.762 172.099 104.696 172.098 104.695C171.965 104.586 171.801 104.54 171.62 104.54ZM171.802 108.366C171.731 108.366 171.657 108.342 171.597 108.29C171.46 108.178 171.441 107.974 171.556 107.838C171.599 107.788 171.637 107.741 171.673 107.7C171.116 107.954 170.527 108.072 170.041 108.022C169.034 107.92 168.595 107.46 168.571 106.484C168.555 105.821 169.171 105.009 169.776 104.608C170.957 103.822 171.879 103.688 172.517 104.206C172.528 104.217 172.641 104.319 172.685 104.369C173.271 105.028 173.419 106.4 172.536 107.651C172.517 107.678 172.425 107.802 172.05 108.252C171.986 108.326 171.895 108.366 171.802 108.366Z" fill="black"/>
<path d="M171.49 86.9844L160.281 91.0992L155.59 93.8848L153.462 96.0243L153.448 96.0422C153.045 96.4036 152.928 97.4587 153.179 98.6333C153.426 99.7944 153.967 100.7 154.477 100.884L154.459 100.888L157.134 101.941L162.513 102.532L174.526 101.623L187.484 107.685L187.578 107.714C184.324 106.149 180.97 100.319 179.396 92.9392C177.824 85.5702 178.509 78.9007 180.839 76.1592L180.837 76.1571L171.608 86.8488L171.49 86.9844Z" fill="#99B9FF"/>
<path d="M174.525 101.302C174.574 101.302 174.62 101.312 174.662 101.332L185.115 106.223C182.559 103.529 180.284 98.6523 179.08 93.0074C177.884 87.3995 177.965 82.0551 179.183 78.5645L171.85 87.058C171.829 87.0811 171.806 87.1012 171.781 87.1179C171.746 87.1935 171.683 87.2565 171.598 87.288L160.419 91.3914L155.789 94.1403L153.69 96.2533C153.68 96.2616 153.671 96.2721 153.661 96.2807C153.39 96.5245 153.252 97.445 153.492 98.5662C153.735 99.7084 154.236 100.457 154.585 100.583C154.614 100.592 154.64 100.607 154.666 100.625L157.21 101.626L162.517 102.209L174.502 101.303C174.51 101.302 174.518 101.302 174.525 101.302ZM187.578 108.036C187.546 108.036 187.515 108.032 187.485 108.022L187.389 107.993C187.374 107.988 187.359 107.983 187.347 107.976L174.467 101.95L162.536 102.853C162.515 102.855 162.497 102.854 162.477 102.852L157.096 102.26C157.068 102.258 157.04 102.251 157.013 102.24L154.34 101.187C154.309 101.176 154.282 101.16 154.257 101.14C153.667 100.844 153.117 99.8884 152.862 98.7C152.587 97.4054 152.726 96.2801 153.216 95.8187L153.218 95.8156C153.223 95.8082 153.227 95.8041 153.232 95.7989L155.361 93.6574C155.38 93.6386 155.402 93.6217 155.424 93.6081L160.116 90.8225C160.134 90.8141 160.151 90.8057 160.169 90.7972L171.32 86.7055C171.33 86.6814 171.346 86.6592 171.364 86.6382L180.594 75.9475C180.707 75.815 180.906 75.7983 181.041 75.9107C181.108 75.9663 181.151 76.0462 181.157 76.1314C181.165 76.2166 181.139 76.3027 181.083 76.3678C178.743 79.1219 178.19 85.7544 179.709 92.8736C181.229 100.003 184.448 105.852 187.717 107.425C187.868 107.498 187.939 107.676 187.877 107.831C187.828 107.958 187.705 108.036 187.578 108.036Z" fill="black"/>
<path d="M193.248 90.0391C195.193 99.163 193.665 107.209 189.835 108.012C186.005 108.813 181.32 102.065 179.377 92.9414C177.431 83.8174 178.958 75.7715 182.789 74.9698C186.618 74.1679 191.302 80.9152 193.248 90.0391Z" fill="white"/>
<path d="M183.438 75.2252C183.24 75.2252 183.047 75.2452 182.855 75.285C182.012 75.4604 181.272 76.0333 180.65 76.9853C178.661 80.04 178.285 86.2764 179.692 92.8753C181.597 101.811 186.119 108.459 189.77 107.697C190.612 107.52 191.354 106.948 191.972 105.996C193.963 102.942 194.339 96.7043 192.932 90.1064C191.128 81.6381 186.973 75.2252 183.438 75.2252ZM189.197 108.397C185.301 108.397 180.96 101.909 179.062 93.0087C177.621 86.2521 178.034 79.8255 180.112 76.6343C180.829 75.5332 181.708 74.868 182.722 74.6556C186.789 73.8034 191.548 80.5327 193.562 89.973C195.003 96.7286 194.591 103.156 192.512 106.347C191.795 107.448 190.916 108.113 189.901 108.326C189.669 108.374 189.435 108.397 189.197 108.397Z" fill="black"/>
<path d="M188.764 105.663C185.483 105.664 181.834 100.225 180.244 92.7639C179.037 87.1044 179.383 81.7181 181.127 79.0417C181.734 78.1098 182.478 77.5464 183.339 77.3668C185.629 76.8865 188.217 79.2088 190.27 83.5738C190.346 83.7335 190.276 83.9258 190.116 84.0005C189.954 84.0761 189.764 84.0078 189.688 83.847C187.799 79.831 185.417 77.5896 183.472 77.9952C182.783 78.1391 182.175 78.6089 181.666 79.3917C180.011 81.9316 179.699 87.1287 180.872 92.6295C182.353 99.5731 185.877 105.02 188.773 105.021C188.925 105.021 189.078 105.006 189.227 104.974C191.911 104.412 193.199 98.7767 192.161 92.1399C192.132 91.9655 192.253 91.8006 192.429 91.7732C192.602 91.7491 192.768 91.8657 192.796 92.0421C193.924 99.2463 192.479 104.95 189.359 105.602C189.163 105.644 188.964 105.663 188.764 105.663Z" fill="black"/>
<path d="M185.895 91.589C186.322 93.5866 185.989 95.3488 185.151 95.5232C184.312 95.6986 183.286 94.2212 182.861 92.2237C182.435 90.2262 182.769 88.4651 183.607 88.2895C184.446 88.1151 185.47 89.5925 185.895 91.589Z" fill="#99B9FF"/>
<path d="M183.749 88.5984C183.722 88.5984 183.696 88.6006 183.673 88.6058C183.555 88.6299 183.446 88.7182 183.348 88.8685C183.02 89.3729 182.839 90.5855 183.176 92.1575C183.61 94.2045 184.581 95.3068 185.083 95.2101C185.2 95.1848 185.309 95.0966 185.406 94.9464C185.734 94.4421 185.916 93.2295 185.58 91.6574C185.194 89.8477 184.32 88.5984 183.749 88.5984ZM185.013 95.8594C184.028 95.8594 182.993 94.3882 182.545 92.2919C182.212 90.7272 182.313 89.2803 182.81 88.5185C183.002 88.2231 183.255 88.0363 183.539 87.9774C184.584 87.7588 185.731 89.2825 186.21 91.5227C186.543 93.0883 186.442 94.5333 185.945 95.2982C185.753 95.5914 185.5 95.7785 185.214 95.8384C185.148 95.853 185.081 95.8594 185.013 95.8594Z" fill="black"/>
<path d="M174.525 101.302C174.574 101.302 174.62 101.312 174.662 101.332L185.115 106.223C182.559 103.529 180.284 98.6524 179.08 93.0075C177.884 87.3995 177.965 82.0552 179.183 78.5645L171.732 87.1957C171.696 87.2368 171.65 87.2683 171.598 87.2883L160.419 91.3916L155.789 94.1405L153.689 96.2535C153.68 96.2619 153.671 96.2724 153.661 96.2809C153.39 96.5248 153.252 97.4453 153.492 98.5664C153.734 99.7086 154.236 100.457 154.585 100.583C154.614 100.592 154.64 100.607 154.665 100.625L157.209 101.626L162.517 102.209L174.502 101.304C174.51 101.302 174.518 101.302 174.525 101.302ZM187.578 108.036C187.546 108.036 187.515 108.032 187.485 108.022L187.389 107.993C187.374 107.988 187.359 107.983 187.347 107.976L174.467 101.95L162.536 102.853C162.515 102.855 162.497 102.854 162.477 102.852L157.096 102.26C157.068 102.258 157.04 102.251 157.013 102.24L154.34 101.187C154.309 101.176 154.282 101.16 154.257 101.14C153.667 100.844 153.117 99.8885 152.862 98.7C152.587 97.4054 152.726 96.2802 153.216 95.8188L153.218 95.8156C153.223 95.8082 153.227 95.8042 153.232 95.7989L155.361 93.6575C155.38 93.6386 155.402 93.6217 155.424 93.6081L160.116 90.8225C160.134 90.8141 160.151 90.8058 160.169 90.7972L171.3 86.7129L180.594 75.9477C180.707 75.8153 180.906 75.7986 181.041 75.9109C181.108 75.9666 181.151 76.0465 181.157 76.1316C181.165 76.2168 181.139 76.3029 181.083 76.3681C178.743 79.1222 178.19 85.7547 179.709 92.8739C181.229 100.003 184.448 105.852 187.717 107.425C187.868 107.499 187.939 107.676 187.877 107.832C187.828 107.958 187.705 108.036 187.578 108.036Z" fill="black"/>
<path d="M171.514 86.9519L180.834 76.1571L180.836 76.1592C178.506 78.9007 177.821 85.5702 179.393 92.9392C180.967 100.319 184.321 106.149 187.575 107.714L187.481 107.685L174.547 101.633L174.245 101.494C172.745 100.782 171.2 98.1499 170.496 94.8117C169.773 91.385 170.322 88.3169 171.397 87.0831L171.514 86.9519Z" fill="#5479F7"/>
<path d="M179.181 78.5645L171.758 87.1631C171.757 87.1641 171.755 87.1652 171.754 87.1652L171.639 87.2967C170.68 88.3968 170.086 91.3106 170.811 94.7468C171.467 97.8634 172.938 100.519 174.383 101.204L174.681 101.343L185.114 106.223C182.557 103.529 180.282 98.6526 179.078 93.0077C177.882 87.3995 177.963 82.0552 179.181 78.5645ZM187.577 108.036C187.544 108.036 187.514 108.032 187.483 108.022L187.387 107.993C187.373 107.988 187.357 107.983 187.345 107.976L174.11 101.786C172.468 101.008 170.89 98.2324 170.182 94.8792C169.493 91.6124 169.894 88.3212 171.156 86.8734L171.273 86.74L180.592 75.9473C180.706 75.8149 180.904 75.7982 181.04 75.9106C181.106 75.9662 181.149 76.0461 181.155 76.1313C181.164 76.2164 181.137 76.3026 181.082 76.3677C178.742 79.1218 178.188 85.7543 179.707 92.8735C181.227 100.003 184.446 105.852 187.715 107.425C187.867 107.498 187.937 107.676 187.875 107.831C187.827 107.958 187.704 108.036 187.577 108.036Z" fill="black"/>
<path d="M156.989 102.205C156.948 102.205 156.91 102.199 156.87 102.182L154.341 101.187C154.31 101.174 154.282 101.158 154.259 101.139C153.667 100.843 153.117 99.8869 152.862 98.6996C152.587 97.405 152.726 96.2797 153.216 95.8174L153.219 95.8131C153.223 95.8078 153.228 95.8026 153.232 95.7983L155.361 93.6569C155.487 93.5319 155.69 93.5309 155.815 93.6559C155.942 93.7809 155.942 93.9837 155.818 94.1109L153.688 96.2523C153.68 96.2619 153.671 96.2712 153.661 96.2807C153.39 96.5245 153.253 97.445 153.492 98.5662C153.734 99.7074 154.237 100.455 154.585 100.582C154.614 100.592 154.64 100.607 154.665 100.624L157.105 101.584C157.27 101.65 157.352 101.837 157.287 102.001C157.237 102.128 157.116 102.205 156.989 102.205Z" fill="black"/>
<path d="M157.157 101.932C156.326 101.64 155.472 100.114 155.068 98.2215C154.64 96.2135 154.926 94.3389 155.66 93.844L153.458 96.0255L153.443 96.0422C153.042 96.4037 152.924 97.4597 153.174 98.6334C153.422 99.7944 153.962 100.701 154.473 100.884L154.455 100.889L157.157 101.932Z" fill="#5479F7"/>
<path d="M154.662 100.623L155.818 101.069C155.37 100.359 154.991 99.388 154.758 98.2867C154.527 97.2065 154.49 96.1662 154.624 95.3255L153.689 96.2534C153.68 96.2629 153.67 96.2722 153.661 96.2808C153.39 96.5246 153.253 97.4451 153.492 98.5663C153.734 99.7075 154.237 100.457 154.586 100.582C154.614 100.592 154.639 100.606 154.662 100.623ZM157.161 102.252C157.125 102.252 157.089 102.247 157.053 102.234C157.031 102.227 157.009 102.219 156.987 102.209L154.343 101.189C154.311 101.175 154.284 101.158 154.259 101.14C153.667 100.842 153.117 99.8869 152.862 98.7006C152.587 97.4051 152.726 96.2786 153.216 95.8172L153.219 95.8129C153.224 95.8077 153.229 95.8015 153.234 95.7962L155.159 93.8901C155.257 93.7629 155.365 93.6568 155.484 93.5759C155.622 93.4845 155.808 93.5107 155.913 93.64C156.017 93.7672 156.007 93.9543 155.891 94.0719L155.642 94.3167C155.216 94.9261 155.023 96.4476 155.385 98.1531C155.801 100.102 156.613 101.352 157.223 101.611L157.276 101.632C157.44 101.695 157.522 101.878 157.463 102.043C157.414 102.174 157.291 102.252 157.161 102.252Z" fill="black"/>
<path d="M162.315 102.511L162.545 102.527C161.291 102.449 159.912 100.147 159.291 97.2369C158.658 94.2673 159.115 91.6027 160.281 91.0983L160.124 91.1918L155.676 93.8345C154.932 94.3167 154.641 96.2018 155.071 98.2204C155.486 100.168 156.402 101.723 157.255 101.952L162.315 102.511Z" fill="#CADDFF"/>
<path d="M157.313 101.636L161.105 102.054C160.213 101.112 159.422 99.4037 158.974 97.3022C158.548 95.3037 158.601 93.4417 159.044 92.2058L155.838 94.1109C155.283 94.4703 154.962 96.1841 155.383 98.1532C155.813 100.172 156.692 101.444 157.313 101.636ZM162.542 102.848C162.537 102.848 162.53 102.847 162.523 102.847C162.516 102.847 162.51 102.846 162.502 102.846L162.29 102.831C162.285 102.831 162.281 102.83 162.278 102.83L157.216 102.271C157.2 102.269 157.183 102.266 157.167 102.262C156.189 101.999 155.198 100.364 154.754 98.2878C154.293 96.1273 154.606 94.1424 155.499 93.5655L159.858 90.9744C159.951 90.9049 160.047 90.8484 160.149 90.8042C160.305 90.736 160.487 90.8021 160.563 90.9534C160.641 91.1046 160.586 91.2886 160.44 91.3757L160.215 91.5091C159.435 92.1354 159.014 94.4113 159.604 97.1686C160.256 100.234 161.612 102.13 162.551 102.205L162.566 102.207C162.742 102.219 162.876 102.372 162.863 102.549C162.853 102.718 162.711 102.848 162.542 102.848Z" fill="black"/>
<path d="M183.603 88.2906C182.766 88.466 182.396 90.2366 182.859 92.2248C183.632 95.56 184.976 95.56 185.138 95.5475C185.14 95.5475 185.141 95.5518 185.139 95.5528L181.843 96.9839C181.358 95.6546 180.94 94.2097 180.615 92.6851C180.303 91.2235 180.099 89.7943 179.996 88.4367L183.603 88.2906Z" fill="black"/>
<path d="M180.346 88.7435C180.457 90.0118 180.654 91.3136 180.933 92.6166C181.223 93.9773 181.592 95.2994 182.033 96.5518L184.272 95.5788C183.705 95.1953 183.015 94.3085 182.549 92.2971C182.214 90.8596 182.288 89.4485 182.73 88.6478L180.346 88.7435ZM181.661 97.4134L181.544 97.0917C181.042 95.7184 180.625 94.2577 180.304 92.75C179.996 91.3051 179.785 89.8625 179.679 88.4607L179.652 88.1286L183.595 87.969L183.673 88.6058C183.551 88.6299 183.437 88.7256 183.333 88.8874C182.998 89.4106 182.819 90.6243 183.174 92.1511C183.903 95.2856 185.104 95.2331 185.118 95.2268L185.385 95.2058L185.526 95.7448L185.256 95.851L181.661 97.4134Z" fill="black"/>
<path d="M141.977 107.414L141.242 101.539L146.356 103.119L146.873 106.561C146.997 107.485 146.31 108.134 146.31 108.134C145.473 109.013 144.104 109.118 143.007 108.605L142.754 108.487C142.328 108.288 142.035 107.883 141.977 107.414Z" fill="white"/>
<path d="M142.296 107.375C142.342 107.736 142.563 108.042 142.89 108.196L143.145 108.316C144.183 108.801 145.389 108.635 146.079 107.912C146.094 107.895 146.654 107.348 146.556 106.604L146.068 103.368L141.623 101.994L142.296 107.375ZM144.39 109.241C143.886 109.241 143.366 109.129 142.871 108.898L142.618 108.778C142.091 108.531 141.73 108.036 141.658 107.454L140.924 101.579C140.911 101.471 140.953 101.363 141.036 101.292C141.119 101.223 141.232 101.199 141.337 101.232L146.451 102.814C146.569 102.849 146.656 102.949 146.674 103.072L147.191 106.512C147.336 107.594 146.565 108.335 146.533 108.367C145.986 108.94 145.211 109.241 144.39 109.241Z" fill="black"/>
<path d="M145.849 92.8173C144.604 93.0915 146.5 93.9206 141.595 93.8743C139.642 93.8564 141.146 95.71 140.638 95.7069C138.769 95.6933 138.832 95.6912 138.05 96.1524C137.531 96.4571 137.458 97.594 137.778 98.3348C138.203 99.3152 139.116 99.3405 140.461 101.284C141.406 102.647 141.536 103.601 142.202 103.652C142.876 103.701 143.097 102.752 143.838 102.752C144.795 102.75 145.052 104.34 146.095 104.734C146.753 104.984 148.075 104.812 149.829 103.247C150.113 102.994 150.177 102.571 149.982 102.244C149.729 101.823 149.408 101.295 149.058 100.815C147.393 98.5303 146.323 98.2086 146.467 97.4552C146.687 96.2994 148.763 96.3402 148.848 95.4178C148.934 94.4619 147.555 92.4391 145.849 92.8173Z" fill="black"/>
<path d="M142.805 98.4221L143.338 98.9769C143.591 99.2405 143.823 99.519 144.037 99.8134C144.438 100.366 145.133 101.311 145.561 101.81C146.193 102.543 148.594 100.752 148.594 100.752L148.611 100.184L148.887 99.9689C148.941 99.9269 148.986 99.8733 149.013 99.8103C149.076 99.6526 149.028 99.4803 148.908 99.3784C148.247 98.8184 146.837 97.5405 146.096 96.2461C146.096 96.2461 143.954 96.2933 142.805 98.4221Z" fill="white"/>
<path d="M143.204 98.3728L143.572 98.7553C143.834 99.0275 144.077 99.3205 144.298 99.6254C144.679 100.152 145.382 101.109 145.807 101.601C146.044 101.879 147.277 101.305 148.278 100.587L148.29 100.176C148.293 100.079 148.338 99.99 148.414 99.9313L148.691 99.7158C148.708 99.7022 148.715 99.6917 148.715 99.6896C148.727 99.6602 148.715 99.6359 148.701 99.6223C147.981 99.0139 146.69 97.8319 145.922 96.5824C145.435 96.6444 144.079 96.9407 143.204 98.3728ZM146.017 102.305C145.736 102.305 145.495 102.224 145.318 102.02C144.902 101.535 144.251 100.656 143.777 100.004C143.574 99.7201 143.348 99.451 143.107 99.201L142.574 98.6441C142.478 98.5422 142.456 98.3919 142.523 98.27C143.746 96.0023 145.995 95.9267 146.09 95.9246C146.21 95.9277 146.318 95.9844 146.375 96.0863C147.104 97.3588 148.535 98.6408 149.117 99.1325C149.347 99.3291 149.426 99.6495 149.311 99.9311C149.266 100.043 149.188 100.143 149.084 100.222L148.929 100.344L148.917 100.761C148.914 100.859 148.867 100.951 148.787 101.009C148.31 101.366 146.96 102.305 146.017 102.305Z" fill="black"/>
<path d="M143.938 100.571C143.938 100.571 142.656 99.2315 142.174 99.947C141.693 100.663 143.142 102.102 143.938 100.571Z" fill="white"/>
<path d="M166.819 46.5073C165.196 46.5073 163.875 45.1981 163.875 43.5883C163.875 43.4117 164.02 43.2678 164.197 43.2678C164.374 43.2678 164.518 43.4117 164.518 43.5883C164.518 44.8428 165.55 45.8642 166.819 45.8642C168.088 45.8642 169.121 44.8428 169.121 43.5883C169.121 42.3337 168.088 41.3111 166.819 41.3111C166.642 41.3111 166.498 41.1682 166.498 40.9907C166.498 40.8141 166.642 40.6691 166.819 40.6691C168.442 40.6691 169.763 41.9783 169.763 43.5881C169.763 45.1979 168.442 46.5073 166.819 46.5073Z" fill="black"/>
<path d="M76.6818 112.801C76.5998 112.801 76.5179 112.771 76.4559 112.709L75.8296 112.089C75.7036 111.964 75.7024 111.761 75.8274 111.635C75.9525 111.509 76.1553 111.507 76.2824 111.632L76.9076 112.253C77.0336 112.378 77.0347 112.58 76.9097 112.707C76.8479 112.77 76.7649 112.801 76.6818 112.801Z" fill="black"/>
<path d="M79.6817 115.773C79.6008 115.773 79.5187 115.741 79.4557 115.679L78.8294 115.058C78.7034 114.934 78.7023 114.73 78.8285 114.604C78.9525 114.478 79.1563 114.477 79.2825 114.602L79.9088 115.223C80.0348 115.348 80.036 115.551 79.9098 115.677C79.8475 115.74 79.7645 115.773 79.6817 115.773Z" fill="black"/>
<path d="M76.0556 115.773C75.9726 115.773 75.8907 115.74 75.8275 115.677C75.7025 115.551 75.7035 115.348 75.8297 115.223L76.456 114.602C76.581 114.477 76.7848 114.478 76.91 114.604C77.035 114.73 77.035 114.934 76.9079 115.058L76.2827 115.679C76.2195 115.741 76.1377 115.773 76.0556 115.773Z" fill="black"/>
<path d="M79.0553 112.801C78.9733 112.801 78.8904 112.77 78.8284 112.707C78.7024 112.581 78.7034 112.378 78.8294 112.253L79.4557 111.632C79.5817 111.507 79.7856 111.509 79.9097 111.635C80.0357 111.761 80.0338 111.963 79.9087 112.089L79.2824 112.709C79.2192 112.771 79.1372 112.801 79.0553 112.801Z" fill="black"/>
<path d="M183.973 156.428C183.891 156.428 183.808 156.396 183.745 156.332C183.62 156.206 183.622 156.002 183.748 155.878L184.371 155.261C184.497 155.137 184.702 155.138 184.825 155.264C184.951 155.39 184.949 155.593 184.823 155.718L184.199 156.335C184.136 156.396 184.055 156.428 183.973 156.428Z" fill="black"/>
<path d="M186.962 153.476C186.878 153.476 186.796 153.443 186.734 153.379C186.609 153.253 186.609 153.051 186.736 152.925L187.36 152.309C187.486 152.184 187.69 152.186 187.815 152.312C187.939 152.438 187.938 152.642 187.812 152.767L187.188 153.382C187.126 153.444 187.044 153.476 186.962 153.476Z" fill="black"/>
<path d="M187.579 156.466C187.496 156.466 187.415 156.434 187.352 156.371L186.728 155.741C186.605 155.615 186.606 155.411 186.732 155.287C186.858 155.163 187.062 155.163 187.186 155.29L187.809 155.919C187.934 156.044 187.932 156.249 187.806 156.374C187.743 156.435 187.662 156.466 187.579 156.466Z" fill="black"/>
<path d="M184.599 153.451C184.517 153.451 184.434 153.418 184.37 153.354L183.749 152.725C183.624 152.599 183.626 152.396 183.752 152.271C183.878 152.145 184.081 152.147 184.206 152.273L184.829 152.903C184.953 153.029 184.952 153.233 184.825 153.357C184.764 153.419 184.681 153.451 184.599 153.451Z" fill="black"/>
<path d="M180.376 61.9473C180.295 61.9473 180.213 61.9158 180.15 61.8547L179.524 61.2337C179.399 61.1087 179.398 60.9059 179.523 60.7797C179.647 60.6537 179.852 60.6525 179.977 60.7775L180.603 61.3964C180.729 61.5224 180.73 61.7264 180.604 61.8514C180.543 61.9158 180.459 61.9473 180.376 61.9473Z" fill="black"/>
<path d="M183.372 64.9168C183.292 64.9168 183.21 64.8853 183.148 64.8243L182.521 64.2044C182.395 64.0794 182.393 63.8756 182.519 63.7494C182.643 63.6234 182.847 63.6222 182.973 63.7472L183.6 64.3671C183.726 64.4922 183.727 64.695 183.602 64.8212C183.538 64.8853 183.456 64.9168 183.372 64.9168Z" fill="black"/>
<path d="M179.751 64.918C179.668 64.918 179.585 64.8865 179.523 64.8224C179.398 64.6964 179.399 64.4936 179.524 64.3674L180.15 63.7475C180.276 63.6234 180.48 63.6246 180.604 63.7496C180.73 63.8768 180.729 64.0796 180.603 64.2046L179.977 64.8245C179.914 64.8865 179.833 64.918 179.751 64.918Z" fill="black"/>
<path d="M182.746 61.9463C182.664 61.9463 182.582 61.9148 182.519 61.8507C182.393 61.7256 182.395 61.5218 182.521 61.3966L183.148 60.7767C183.273 60.6517 183.477 60.6527 183.602 60.7798C183.727 60.9058 183.726 61.1087 183.6 61.2339L182.973 61.8538C182.911 61.9158 182.829 61.9463 182.746 61.9463Z" fill="black"/>
<path d="M178.783 163.348C178.529 163.599 178.388 163.936 178.388 164.295C178.388 164.655 178.528 164.996 178.782 165.253C179.307 165.786 180.164 165.796 180.689 165.276C181.216 164.757 181.217 163.902 180.691 163.37C180.166 162.838 179.311 162.829 178.783 163.348ZM179.751 166.302C179.235 166.302 178.718 166.103 178.325 165.706C177.951 165.327 177.744 164.826 177.746 164.294C177.747 163.761 177.954 163.263 178.332 162.891C179.11 162.122 180.373 162.136 181.148 162.919C181.922 163.702 181.92 164.965 181.141 165.735C180.757 166.113 180.255 166.302 179.751 166.302Z" fill="black"/>
<path d="M172.613 170.017C172.371 170.257 172.371 170.651 172.613 170.897C172.857 171.141 173.25 171.147 173.493 170.907C173.735 170.668 173.735 170.274 173.491 170.029C173.249 169.784 172.855 169.778 172.613 170.017ZM173.061 171.725C172.733 171.725 172.404 171.599 172.157 171.348C171.665 170.85 171.667 170.048 172.161 169.559C172.655 169.072 173.458 169.08 173.948 169.577C174.44 170.075 174.438 170.876 173.944 171.364C173.699 171.605 173.381 171.725 173.061 171.725Z" fill="black"/>
<path d="M78.5201 33.7348C77.9799 33.7348 77.4662 34.0511 77.2455 34.5744C77.1047 34.9075 77.1036 35.2763 77.2412 35.6116C77.3811 35.9499 77.6459 36.2137 77.9873 36.3555C78.6893 36.6444 79.4984 36.3156 79.7916 35.6211C79.9314 35.287 79.9335 34.9191 79.7959 34.5839C79.6561 34.2456 79.3912 33.9807 79.0498 33.8409C78.8763 33.7684 78.6967 33.7348 78.5201 33.7348ZM78.516 37.1026C78.2576 37.1026 77.9949 37.0532 77.7416 36.9482C77.2414 36.7422 76.8525 36.3545 76.6466 35.8554C76.4438 35.3625 76.446 34.8172 76.6529 34.3255C77.0816 33.3052 78.2679 32.8228 79.2956 33.2463C79.7957 33.4522 80.1846 33.8411 80.3895 34.3391C80.5933 34.834 80.5913 35.3772 80.3842 35.8702C80.0607 36.6392 79.3072 37.1026 78.516 37.1026Z" fill="white"/>
<path d="M66.4113 62.6882C66.3292 62.6882 66.2473 62.6567 66.1843 62.5937C66.0583 62.4686 66.0583 62.2658 66.1843 62.1396L84.612 43.7172C84.738 43.5922 84.9408 43.5922 85.067 43.7172C85.193 43.8432 85.193 44.0472 85.067 44.1722L66.6384 62.5935C66.5763 62.6567 66.4933 62.6882 66.4113 62.6882Z" fill="black"/>
<path d="M143.341 85.8233C143.258 85.8233 143.176 85.7918 143.113 85.7288C142.988 85.6028 142.988 85.4 143.113 85.2748L160.926 67.4682C161.051 67.3431 161.255 67.3431 161.38 67.4682C161.505 67.5942 161.505 67.797 161.38 67.9232L143.567 85.7286C143.504 85.7918 143.422 85.8233 143.341 85.8233Z" fill="black"/>
<path d="M114.137 117.152C114.055 117.152 113.973 117.122 113.91 117.059C113.785 116.934 113.785 116.729 113.91 116.604L133.361 97.1602C133.486 97.0342 133.69 97.0342 133.815 97.1602C133.94 97.2852 133.94 97.489 133.815 97.6142L114.364 117.059C114.301 117.122 114.22 117.152 114.137 117.152Z" fill="black"/>
<path d="M123.865 95.7649C123.782 95.7649 123.7 95.7334 123.637 95.6704C123.512 95.5454 123.512 95.3416 123.637 95.2164L133.754 85.1016C133.881 84.9766 134.084 84.9766 134.209 85.1016C134.335 85.2288 134.335 85.4316 134.209 85.5566L124.092 95.6704C124.029 95.7332 123.947 95.7649 123.865 95.7649Z" fill="black"/>
<path d="M76.8214 90.7084C76.7384 90.7084 76.6575 90.6757 76.5945 90.6139C76.4685 90.4879 76.4685 90.2851 76.5945 90.1598L82.5451 84.2102C82.6711 84.0842 82.8739 84.0842 82.9991 84.2102C83.1251 84.3353 83.1251 84.5381 82.9991 84.6652L77.0485 90.6137C76.9853 90.6759 76.9033 90.7084 76.8214 90.7084Z" fill="black"/>
<path d="M78.5558 84.1704C78.4737 84.1704 78.3919 84.1388 78.3289 84.0768C78.2029 83.9518 78.2029 83.748 78.3289 83.6228L81.413 80.5387C81.538 80.4127 81.7418 80.4127 81.868 80.5387C81.993 80.6637 81.993 80.8675 81.868 80.9937L78.7839 84.0766C78.7207 84.1389 78.6377 84.1704 78.5558 84.1704Z" fill="black"/>
<path d="M101.142 52.7498C101.056 52.7498 100.97 52.7152 100.905 52.6468C100.786 52.5165 100.793 52.3137 100.923 52.1928L109.245 44.4611C109.375 44.3403 109.579 44.3487 109.7 44.4778C109.82 44.6081 109.812 44.8109 109.683 44.9318L101.361 52.6635C101.297 52.7205 101.221 52.7498 101.142 52.7498Z" fill="black"/>
<path d="M25.0405 75.203C25.0069 75.203 24.9711 75.1977 24.9375 75.1862C24.7693 75.1295 24.6791 74.9467 24.7356 74.7785C29.5009 60.6896 37.6077 50.994 43.5689 45.3398C50.0313 39.2095 55.4491 36.3703 55.5028 36.343C55.6614 36.261 55.8547 36.323 55.9356 36.4797C56.0177 36.6374 55.9566 36.8317 55.7989 36.9137C55.7452 36.9412 50.3926 39.7487 43.9934 45.8222C38.0912 51.424 30.0652 61.0303 25.3452 74.9846C25.3001 75.118 25.1739 75.203 25.0405 75.203Z" fill="black"/>
<path d="M35.938 46.7015C35.876 46.7015 35.813 46.6836 35.7573 46.6447C35.6102 46.545 35.5734 46.3453 35.6733 46.1981C35.7743 46.0521 45.9112 31.4409 62.3202 26.8542C62.4915 26.8058 62.669 26.9067 62.7163 27.077C62.7647 27.2483 62.6648 27.4258 62.4935 27.4731C46.3071 31.9978 36.3026 46.4145 36.2038 46.5605C36.142 46.6521 36.041 46.7015 35.938 46.7015Z" fill="black"/>
</svg>
