<svg width="211" height="210" viewBox="0 0 211 210" fill="none" xmlns="http://www.w3.org/2000/svg">
<g clip-path="url(#clip0_424_8053)">
<path d="M0.453125 16.9659H210.503V193.034H0.453125V16.9659ZM110.126 18.7671C106.587 19.246 103.038 19.7601 99.5726 20.637C98.9388 20.7673 98.113 20.5155 97.664 21.1036C97.4897 21.0314 97.2978 21.1036 97.1217 21.13C91.4682 22.4963 85.8956 24.2235 80.5114 26.4314C80.2913 26.5018 80.066 26.5564 79.8388 26.5934C73.7433 25.7975 67.6479 24.9982 61.5506 24.2217C59.5839 23.9699 57.5169 25.0669 56.7123 26.8944C56.1242 28.0723 56.2668 29.4193 56.2527 30.6922C56.2404 51.1813 56.2615 71.6687 56.2404 92.1577L56.0943 92.1366C56.2439 90.7404 56.1136 89.3318 56.1524 87.9303C56.1629 72.4381 56.1488 56.9476 56.1577 41.4553C56.1488 41.1507 56.1312 40.8461 56.1101 40.5415C48.9459 46.1387 42.7254 52.9279 37.6388 60.4566C34.5118 65.0731 31.8268 69.9784 29.4674 75.0263C29.3777 75.2516 29.3248 75.4911 29.265 75.727C28.4322 75.345 27.3176 75.6883 26.969 76.5651C26.6591 77.3645 27.2543 78.1427 27.8406 78.6286C27.4884 79.8365 26.7665 80.9211 26.5711 82.1711C25.2594 83.8913 24.1414 86.0024 24.453 88.2367C24.0146 88.8072 23.9512 89.5572 23.7135 90.2192C20.995 99.3237 19.3875 108.853 19.8787 118.374C20.2573 124.892 21.7187 131.463 24.9601 137.182C26.6169 140.025 28.5836 142.843 31.4394 144.596C31.6208 144.681 31.8056 144.756 31.9958 144.825C32.9501 149.491 33.9413 154.15 34.8851 158.817C30.2087 161.464 25.5499 164.145 20.8788 166.804C20.4017 167.052 20.0566 167.504 19.9281 168.026C19.9034 169.385 19.8453 170.748 19.8893 172.109C19.9193 172.815 20.5513 173.355 21.238 173.387C26.7155 174.058 32.1789 174.852 37.6617 175.459C37.7004 176.003 37.7092 176.549 37.7092 177.097C38.0384 177.229 38.3783 177.345 38.7093 177.479C38.8748 178.562 39.0614 179.643 39.2287 180.727C38.6512 181.141 38.4047 181.821 38.0825 182.424C36.9503 184.638 35.8006 186.851 34.8763 189.161C34.466 190.129 35.3305 191.284 36.3711 191.205C37.7497 191.184 39.3607 191.277 40.4277 190.238C41.6549 189.106 42.7095 187.802 43.7255 186.483C44.2308 185.84 44.1199 184.983 44.1181 184.222C44.0811 183.18 44.1428 182.134 44.0618 181.097C43.8346 180.695 43.4068 180.482 43.0054 180.299C43.0212 179.5 43.0494 178.699 43.0582 177.901C43.3451 177.859 43.6304 177.81 43.9191 177.771C43.8857 176.334 43.8258 174.899 43.7836 173.464C43.8786 174.405 43.8558 175.352 43.9015 176.297C46.6588 176.651 49.4125 177.069 52.1785 177.333C52.425 177.87 52.2436 178.782 52.9409 178.982C53.1962 180.136 53.4092 181.298 53.6452 182.456C53.3775 182.657 53.1011 182.888 53.0324 183.238C52.7578 184.314 52.7631 185.441 52.8088 186.544C52.8282 187.081 53.3089 187.409 53.7244 187.659C56.7774 189.598 60.371 190.865 64.0226 190.68C64.9206 190.703 65.7569 189.914 65.6918 188.999C65.5175 187.451 64.3219 186.331 63.2109 185.37C61.5277 183.925 59.9238 182.299 57.8972 181.338C57.8391 180.585 57.7898 179.831 57.7352 179.079C57.9588 179.018 58.1842 178.958 58.4078 178.9C58.4254 178.66 58.4395 178.419 58.4536 178.185C64.2621 178.931 70.0688 179.683 75.8756 180.431C81.0643 181.123 86.2654 181.724 91.4435 182.474C92.1566 183.164 93.0651 183.592 93.8997 184.109C97.9845 186.486 102.529 187.948 107.1 189.068C115.621 191.092 124.502 191.61 133.2 190.585C140.533 189.721 147.752 187.712 154.386 184.451C160.017 181.653 165.218 177.958 169.6 173.441C173.65 169.285 176.974 164.448 179.566 159.263C179.879 158.608 180.286 157.977 180.402 157.248C181.886 156.326 183.438 155.519 184.931 154.613C185.74 154.155 185.531 153.13 185.557 152.357C185.512 151.429 185.762 150.472 185.45 149.57C185.26 148.89 184.538 148.665 183.939 148.486C184.193 147.457 184.705 146.48 184.742 145.41C185.019 145.098 185.258 144.753 185.469 144.394C186.859 143.677 188.23 142.415 188.309 140.747C188.353 136.879 188.264 133.007 188.355 129.139C188.63 127.857 188.809 126.556 189.005 125.26C190.139 117.45 191.03 109.604 191.938 101.764C192.963 92.6666 193.738 83.5093 193.366 74.3467C192.977 65.3425 191.311 56.2415 187.242 48.1301C182.73 39.0203 175.28 31.4529 166.361 26.6057C160.216 23.2164 153.46 21.0402 146.581 19.7284C138.878 18.2495 131.011 17.8692 123.183 17.9097C118.815 17.8568 114.457 18.2477 110.126 18.7671ZM84.7758 23.6442C84.7864 23.778 84.8075 24.0421 84.8198 24.1759C85.7882 24.1055 86.7355 23.8273 87.6651 23.5579C87.9679 23.521 87.8552 22.9329 87.5894 22.9928C86.6333 23.109 85.7037 23.396 84.7758 23.6442ZM82.3654 24.2552C81.721 24.426 81.0819 24.6126 80.4428 24.7975C80.2262 24.8749 79.8846 24.9401 79.9005 25.2359C79.9639 25.4049 80.1083 25.595 80.309 25.4982C81.1664 25.2588 82.0503 25.0704 82.8725 24.7323C83.1912 24.4084 82.7017 24.0228 82.3654 24.2552ZM182.915 28.0847C182.818 28.6094 182.867 29.1446 182.878 29.6746C183.073 29.7397 183.346 29.8313 183.462 29.5813C183.51 29.1076 183.51 28.6252 183.464 28.1516C183.309 27.928 183.126 27.9051 182.915 28.0847ZM180.189 30.9123C180.515 31.3877 181.173 31.1518 181.657 31.1958C181.99 31.2574 182.198 30.8067 181.9 30.606C181.399 30.5391 180.89 30.576 180.386 30.5831C180.337 30.6641 180.238 30.8296 180.189 30.9123ZM184.506 30.6112C184.256 30.7239 184.254 30.9951 184.427 31.1747C184.939 31.2645 185.476 31.2697 185.991 31.1764C186.022 31.0972 186.086 30.9405 186.119 30.8613C185.786 30.3489 185.017 30.6658 184.506 30.6112ZM182.908 32.143C182.904 32.6712 182.617 33.4724 183.105 33.8227C183.691 33.7981 183.423 33.0357 183.489 32.6466C183.578 32.2733 183.284 31.7979 182.908 32.143ZM53.6839 37.4374C53.3899 37.6575 52.8335 37.8301 52.9039 38.279C53.0412 38.6576 53.411 38.4005 53.6328 38.2632C53.8353 38.11 54.1082 37.9903 54.191 37.7314C54.2631 37.411 53.9163 37.2684 53.6839 37.4374ZM51.0394 39.3847C50.2559 39.9077 49.5498 40.538 48.8156 41.1243C48.9371 41.2951 49.1008 41.73 49.3684 41.4588C50.0569 40.9658 50.7154 40.4288 51.3721 39.8971C51.6961 39.7034 51.344 39.14 51.0394 39.3847ZM47.1694 42.5399C46.4668 43.0734 45.8101 43.6755 45.1903 44.3023C44.8681 44.5541 45.3594 45.0629 45.634 44.7196C46.2644 44.1738 46.8947 43.6227 47.4968 43.0452C47.7785 42.848 47.4563 42.3444 47.1694 42.5399ZM41.4577 47.9927C41.5774 48.1459 41.7042 48.2973 41.8363 48.4417C42.5264 47.8061 43.1779 47.1265 43.8241 46.4451C44.1075 46.2127 43.7096 45.7302 43.4385 45.9873C42.7131 46.5842 42.1056 47.3131 41.4577 47.9927ZM39.9752 49.6284C39.3537 50.2464 38.7903 50.9278 38.2497 51.618C38.0385 51.8433 38.3166 52.1726 38.5843 52.118C39.0614 51.7113 39.41 51.1796 39.8414 50.7271C40.0527 50.4647 40.3379 50.2394 40.4418 49.9083C40.5421 49.6671 40.1178 49.4435 39.9752 49.6284ZM36.7831 53.4526C36.1932 54.1076 35.6774 54.8312 35.1756 55.5566C34.8939 55.7978 35.3675 56.3084 35.5911 55.9898C36.1633 55.3225 36.6898 54.6094 37.1898 53.8857C37.4117 53.641 37.0243 53.3223 36.7831 53.4526ZM33.7934 57.5339C33.4008 57.9705 33.1261 58.497 32.7863 58.9759C32.5363 59.3932 32.0063 59.902 32.5152 60.3351C33.0363 59.9319 33.3145 59.3227 33.686 58.7963C33.8903 58.4794 34.1385 58.1818 34.2706 57.8244C34.3146 57.5656 34.003 57.3842 33.7934 57.5339ZM31.1366 61.7366C30.5591 62.418 30.1928 63.2614 29.7474 64.0343C29.5414 64.2914 29.8882 64.7316 30.1664 64.4851C30.677 63.7878 31.0556 62.999 31.494 62.2543C31.7106 62.0219 31.4341 61.5993 31.1366 61.7366ZM28.522 66.332C28.1012 67.1613 27.5659 67.9642 27.3634 68.8832C27.4567 68.9308 27.6416 69.0258 27.7332 69.0734C28.3318 68.3304 28.6575 67.4148 29.0871 66.5732C29.3266 66.1964 28.6206 65.8866 28.522 66.332ZM26.425 70.739C26.064 71.3517 25.8351 72.0331 25.5411 72.6793C25.4531 72.9751 25.1679 73.3501 25.5024 73.5984C25.9003 73.6864 26.0042 73.2233 26.1397 72.9539C26.3933 72.2954 26.726 71.6704 26.9408 70.9978C26.9884 70.7144 26.6134 70.4608 26.425 70.739ZM24.6379 75.2921C24.1361 75.852 24.0551 76.6778 23.7399 77.3521C23.6589 77.6673 23.3174 78.2536 23.8738 78.2976C23.9354 78.2589 24.0604 78.1832 24.122 78.1444C24.4583 77.3856 24.7013 76.588 24.9883 75.8098C25.1397 75.5615 24.9284 75.2305 24.6379 75.2921ZM22.8332 80.1886C22.4881 81.032 22.2398 81.9229 22.0426 82.812C22.1131 82.9071 22.2521 83.0972 22.3226 83.1905C22.5532 83.0022 22.717 82.7469 22.7821 82.4546C22.9687 81.7433 23.2434 81.0566 23.3843 80.3347C23.3508 80.0477 22.9776 79.8787 22.8332 80.1886ZM21.4264 84.9477C21.2134 85.8686 20.8911 86.7771 20.8031 87.7226C20.7608 88.0694 21.356 88.0236 21.3771 87.7472C21.6253 86.8158 21.9176 85.8809 21.9881 84.916C21.849 84.9231 21.5672 84.9389 21.4264 84.9477ZM20.3559 89.8671C20.046 90.7069 19.9421 91.6243 19.8189 92.5099C19.6587 92.899 20.3629 93.0733 20.3929 92.6577C20.5865 91.8549 20.7186 91.0362 20.8559 90.2227C21.0162 89.9058 20.583 89.6118 20.3559 89.8671ZM135.832 25.22C138.433 22.9435 141.889 21.6652 145.347 21.7127C148.116 21.7286 150.868 22.5843 153.17 24.1249C155.657 25.7729 157.599 28.2273 158.631 31.0285C159.578 33.5533 159.779 36.3458 159.218 38.9833C159.071 39.3143 159.293 39.5995 159.644 39.6136C159.263 40.9218 158.659 42.1384 158.107 43.3762C157.994 43.3216 157.769 43.2142 157.656 43.1596C157.054 44.04 156.457 44.9291 155.733 45.7179C153.242 44.982 150.675 44.503 148.087 44.2935C148.085 43.0628 148.099 41.8338 148.102 40.6031C149.398 40.5538 150.747 40.7915 151.997 40.3426C154.071 39.6312 155.362 37.235 154.765 35.1116C154.029 32.4582 153.074 29.8225 151.543 27.5142C150.43 25.8504 148.868 24.3168 146.849 23.8837C144.533 23.4171 142.12 24.359 140.426 25.9366C138.294 27.9051 137.056 30.6289 136.177 33.3491C135.859 34.439 135.422 35.55 135.58 36.7085C135.8 38.6276 137.427 40.2739 139.345 40.5098C140.303 40.6102 141.267 40.5521 142.229 40.575C142.222 41.7986 142.215 43.0206 142.211 44.2442C139.612 44.408 137.029 44.8305 134.512 45.4961C131.765 42.355 130.427 38.0061 131.082 33.8703C131.587 30.5496 133.295 27.4244 135.832 25.22ZM140.679 32.1201C140.702 31.0356 140.611 29.9316 140.889 28.8699C143.859 28.8858 146.831 28.9175 149.803 28.9368C149.995 30.3912 149.872 31.8631 149.884 33.3245C149.867 35.2348 148.726 37.1434 146.939 37.8881C146.387 38.147 145.776 38.1804 145.185 38.2579C144.842 38.2491 144.868 38.809 145.176 38.8477C145.977 38.8882 146.766 38.6646 147.491 38.3389C147.469 40.5486 147.468 42.7582 147.451 44.9679C147.477 46.1827 146.386 47.2673 145.173 47.2462C143.935 47.3043 142.804 46.1898 142.836 44.952C142.826 42.7212 142.87 40.4887 142.861 38.2579C143.088 38.3952 143.477 38.4322 143.53 38.0942C143.604 37.8582 143.292 37.7737 143.158 37.6557C141.901 36.9444 141.04 35.6345 140.776 34.2259C140.632 33.534 140.683 32.8227 140.679 32.1201ZM143.655 34.6908C144.479 35.6996 146.273 35.6697 147.005 34.5728C147.023 34.0904 146.493 34.1714 146.278 34.4425C145.562 35.0887 144.505 34.77 143.901 34.1344C143.748 34.2594 143.407 34.4724 143.655 34.6908ZM56.8725 33.1783C72.1218 35.0799 87.3728 36.9779 102.627 38.8389C102.636 39.4217 102.643 40.0027 102.64 40.5855C102.499 49.3766 102.309 58.1659 102.193 66.9588C108.425 68.7036 113.67 74.234 114.301 80.789C122.646 82.1465 131.001 83.4476 139.348 84.7822C139.341 95.8763 139.336 106.97 139.35 118.064C139.447 118.11 139.637 118.205 139.734 118.251C139.563 119.103 139.663 119.977 139.648 120.839C122.243 118.568 104.841 116.288 87.4362 114.022C86.1474 113.825 84.7688 114.471 84.1613 115.636C83.7528 116.355 83.7564 117.203 83.7616 118.006C83.1965 117.927 82.6295 117.857 82.0661 117.77C81.8179 117.628 81.5467 117.522 81.2615 117.496C74.9899 116.645 68.7201 115.779 62.4486 114.932C61.9644 114.864 61.4784 114.809 61.0101 114.679C58.7018 114.027 56.9112 111.796 56.876 109.382C56.8672 107.134 56.8725 104.886 56.8742 102.639C57.3725 102.667 57.869 102.713 58.3656 102.752C58.605 101.794 58.8392 100.834 59.0628 99.8713C62.0964 99.8695 65.1178 99.0667 67.7623 97.5824C70.2519 101.028 73.3631 103.993 76.77 106.521C80.5889 101.255 84.3216 95.9238 88.0877 90.6189C86.1104 88.8793 84.4977 86.7031 83.5346 84.2435C83.244 83.504 83.0398 82.7363 82.7897 81.9845C83.4077 81.2045 84.1314 80.4949 84.6455 79.6375C84.2247 78.9473 83.1578 79.229 82.5151 79.4315C82.5151 78.28 82.7017 77.1426 82.8708 76.0052C75.9795 72.8483 69.1233 69.6139 62.2426 66.4359C59.2829 74.6777 60.3005 84.0463 64.2163 91.7968C64.2938 91.8003 64.4487 91.8109 64.5262 91.8144C63.3342 92.2933 62.0753 92.5944 60.7988 92.737C60.8305 92.6138 60.8921 92.3673 60.9238 92.244C59.5822 92.4905 58.2159 92.4113 56.8707 92.2422C56.8725 72.5543 56.8707 52.8663 56.8725 33.1783ZM76.689 50.4049C71.8049 52.7924 67.5792 56.5496 64.7463 61.1978C64.3889 61.8018 63.9997 62.3951 63.755 63.0554C70.6129 66.244 77.4443 69.4925 84.2934 72.7022C85.1684 71.4046 86.2213 70.2161 87.5013 69.3058C89.88 67.5821 92.8521 66.7968 95.7713 66.8708C95.8963 60.3738 96.0213 53.8752 96.1076 47.3765C89.5279 46.5384 82.6612 47.4504 76.689 50.4049ZM109.533 89.7808C107.642 92.369 104.67 94.061 101.529 94.591C98.1095 95.2037 94.5511 94.4871 91.4717 92.9342C89.0384 96.3482 86.6369 99.785 84.2159 103.208C82.9218 105.085 81.5485 106.905 80.3072 108.814C88.5366 113.568 98.525 115.534 107.862 113.42C113.857 112.076 119.489 108.965 123.638 104.412C127.782 99.8801 130.439 93.9607 130.911 87.83C124.497 86.9127 118.102 85.8421 111.69 84.9143C111.264 86.6432 110.631 88.3547 109.533 89.7808ZM118.167 40.8285C122.701 41.2282 127.201 42.0064 131.737 42.3955C133.314 45.7796 136.23 48.491 139.693 49.8731C139.669 50.6355 139.558 51.4173 139.766 52.1656C139.663 52.2078 139.456 52.2941 139.353 52.3363C139.341 55.5848 139.331 58.835 139.357 62.0835C134.367 53.273 126.932 45.8834 118.167 40.8285ZM83.0679 50.8116C86.3569 49.8485 89.8184 49.5016 93.2359 49.6495C93.6708 49.5826 93.6814 50.2975 93.25 50.2358C90.5403 50.1672 87.8183 50.3274 85.1649 50.9031C84.4624 51.0281 83.7881 51.3134 83.0644 51.294C83.0662 51.1743 83.0679 50.9313 83.0679 50.8116ZM79.8969 51.8838C80.1082 51.7958 80.6277 51.6074 80.5819 52.037C80.5819 52.3416 80.2403 52.3768 80.0325 52.493C77.1925 53.6304 74.5779 55.289 72.2697 57.2891C71.9809 57.6096 71.5214 57.143 71.8718 56.8683C74.2152 54.7414 76.9689 53.0758 79.8969 51.8838ZM152.282 56.9669C154.207 54.9034 156.89 53.6639 159.672 53.3012C160.214 53.5424 160.813 53.4649 161.39 53.5037C164.971 53.6921 168.391 55.6869 170.345 58.6889C172.041 61.2419 172.645 64.4833 171.997 67.4765C171.505 69.8411 170.234 72.0261 168.451 73.6477C167.141 73.1494 165.743 72.9592 164.366 72.7444C164.038 72.7392 163.561 72.5437 163.387 72.9346C163.628 71.6317 163.434 70.2936 163.51 68.9748C164.13 68.4255 164.663 67.7547 164.913 66.9535C165.204 66.1665 165.098 65.3161 165.16 64.4991C165.362 63.3089 165.975 62.205 166.023 60.9866C166.058 59.4284 164.843 57.9635 163.302 57.724C162.309 57.6025 161.306 57.6871 160.311 57.6624C159.464 57.68 158.585 57.5726 157.776 57.879C156.341 58.4494 155.235 59.9566 155.441 61.5394C155.612 62.6381 156.179 63.6241 156.455 64.6963C156.548 65.3777 156.45 66.0855 156.659 66.7528C156.878 67.5909 157.402 68.3075 158.019 68.9026C158.064 70.2566 157.911 71.6246 158.122 72.968C158.075 72.8817 157.98 72.7092 157.932 72.6229C156.226 72.8536 154.513 73.0965 152.87 73.6283C149.879 70.945 148.474 66.6454 149.321 62.7138C149.722 60.5499 150.881 58.629 152.282 56.9669ZM157.121 63.2332C158.837 62.1187 160.572 61.0253 162.29 59.9108C163.551 60.446 164.482 61.7067 164.507 63.0924C164.519 64.0378 164.538 64.9833 164.493 65.927C164.368 67.6983 162.79 69.2072 161.017 69.2636C160.631 69.1544 160.27 69.6439 160.681 69.8921C161.443 69.9449 162.193 69.7125 162.876 69.3921C162.859 70.3429 162.892 71.2954 162.864 72.2461C162.832 73.299 161.887 74.2146 160.834 74.2234C159.73 74.2973 158.698 73.3519 158.652 72.2514C158.614 71.2778 158.658 70.3041 158.635 69.3322C158.915 69.5963 159.645 69.6456 159.441 69.0699C158.649 68.6068 157.865 68.0399 157.487 67.1701C156.888 65.9447 157.203 64.5432 157.121 63.2332ZM140.604 64.4252C143.22 64.758 145.835 65.1013 148.453 65.4235C148.509 66.2933 148.595 67.1666 148.824 68.0099C148.675 67.6032 148.206 67.6085 147.847 67.5522C145.806 67.3303 143.776 67.0116 141.734 66.8056C141.377 66.0028 141.005 65.2052 140.604 64.4252ZM172.398 68.48C174.77 68.7758 177.138 69.098 179.508 69.4026C180.592 69.5629 181.742 69.5664 182.73 70.1052C184.235 70.8623 185.248 72.4962 185.255 74.1829C185.272 96.4873 185.277 118.793 185.274 141.099C185.255 142.04 185.38 143.031 184.976 143.915C184.409 145.272 182.93 146.174 181.462 146.049C180.101 145.925 178.752 145.693 177.395 145.552C177.157 145.505 176.978 145.589 176.854 145.806C175.669 145.616 174.479 145.475 173.287 145.343C173.287 144.494 173.287 143.647 173.287 142.802C175.014 143.036 176.747 143.235 178.472 143.476C179.15 143.568 179.881 143.645 180.513 143.325C181.444 142.922 182.068 141.931 182.01 140.915C182.004 118.968 182.015 97.0207 182.004 75.0738C182.045 73.3695 180.686 71.7849 179.002 71.5489C176.522 71.2073 174.037 70.8992 171.551 70.5999C171.905 69.9238 172.162 69.2037 172.398 68.48ZM77.101 81.8383C77.5922 81.1129 77.9162 80.2942 78.374 79.5495C78.3247 80.1745 78.2525 80.7943 78.1926 81.4176C78.1979 81.6781 78.043 82.1412 78.4356 82.1993C79.8353 81.6095 81.1576 80.8506 82.4975 80.1411C82.8901 79.9263 83.3373 79.8629 83.7722 79.7925C82.4183 81.495 81.0044 83.1624 79.4269 84.6625C78.7983 85.3122 77.8405 85.5076 77.263 86.2172C76.2911 87.3511 75.7682 88.786 74.8174 89.9375C73.0549 92.6754 70.722 95.0681 67.9225 96.7478C65.3114 98.3342 62.276 99.2216 59.2177 99.2357C59.7037 97.2936 60.1702 95.3481 60.6368 93.4008C62.5472 93.2194 64.4241 92.6754 66.1143 91.7634C67.0862 91.2492 67.9648 90.5819 68.8645 89.9569C70.8893 88.529 72.8912 87.0676 74.879 85.5904C75.0973 85.4143 75.3526 85.2664 75.5146 85.034C75.6361 84.4741 75.6449 83.8878 75.8773 83.3578C76.1168 82.7293 76.74 82.3824 77.101 81.8383ZM32.5381 81.4369C33.3392 80.5266 34.5576 80.1675 35.6862 79.8576C36.114 80.4351 36.4873 81.0478 36.8201 81.6852C37.0754 82.2152 37.6176 82.4951 38.0649 82.8367C37.8923 83.1677 37.4204 83.4423 37.593 83.8667C37.7779 84.6326 38.0314 85.6661 37.3078 86.233C36.3799 86.6098 35.1932 86.6926 34.3657 86.0305C34.0998 85.6925 33.6279 86.1837 33.9378 86.4566C34.5136 87.0746 35.4168 87.1785 36.2161 87.1504C36.7972 88.5624 37.6934 89.904 39.0139 90.7175C39.7305 91.17 40.565 91.3777 41.3978 91.4816C38.9681 93.6191 35.4943 94.2952 32.3726 93.6156C32.3955 93.5452 32.4412 93.4043 32.4624 93.3339C33.2512 92.6226 33.6755 91.5961 33.797 90.5573C33.9766 88.9991 33.6896 87.4268 33.2265 85.9425C33.1473 85.5886 32.7705 85.4689 32.5082 85.2823C31.6806 85.77 30.7105 84.6889 30.9253 83.879C31.0573 83.5797 31.4059 83.7575 31.6507 83.7311C31.9905 83.8121 31.9676 83.349 32.0398 83.1465C32.1824 82.5708 32.1173 81.907 32.5381 81.4369ZM152.886 88.0694C155.099 85.5675 158.39 84.0691 161.728 84.0374C164.945 83.9565 168.162 85.2277 170.46 87.4778C172.553 89.478 173.886 92.251 174.146 95.135C174.351 97.1915 173.993 99.285 173.187 101.183C171.771 100.912 170.264 100.12 169.852 98.6335C169.296 96.3781 170.317 93.966 169.378 91.7651C168.646 90.0995 167.445 88.5607 165.841 87.6609C164.57 86.9408 162.945 87.1169 161.781 87.9673C160.665 87.2947 159.23 87.5165 158.232 88.3001C156.849 89.3635 155.585 90.8548 155.434 92.663C155.268 94.3005 156.029 95.8199 156.263 97.4098C156.383 98.1053 156.231 98.8466 155.784 99.4029C154.673 100.852 152.946 101.634 151.286 102.28C149.578 99.2551 149.241 95.5065 150.402 92.2317C150.569 91.9412 150.356 91.5045 149.997 91.6876L149.958 91.6929C150.155 91.589 150.391 91.5063 150.458 91.2651C150.888 90.3284 151.384 89.4128 152.041 88.6117C152.434 88.668 152.647 88.3089 152.886 88.0694ZM127.31 90.5027C127.395 90.2034 127.479 89.6646 127.911 89.9041C128.08 90.3513 127.842 90.8196 127.761 91.2651C126.478 96.4063 123.565 101.109 119.574 104.588C116.956 106.886 113.896 108.671 110.624 109.858C108.524 110.589 106.353 111.222 104.128 111.39C104.133 111.254 104.143 110.985 104.149 110.851C110.057 110.023 115.774 107.47 120.081 103.301C123.673 99.866 126.242 95.3604 127.31 90.5027ZM158.379 95.1315C159.735 93.8409 161.013 92.4606 162.404 91.2105C164.251 91.2633 165.854 92.9342 165.81 94.7847C165.741 96.2091 166.086 97.7796 165.297 99.0649C164.662 100.172 163.433 100.863 162.165 100.907C161.739 100.82 161.626 101.466 162.052 101.533C162.617 101.54 163.172 101.401 163.707 101.227C163.683 102.306 163.73 103.387 163.686 104.467C163.633 105.333 162.788 106.041 161.925 105.956C161.073 105.932 160.358 105.152 160.367 104.308C160.344 103.284 160.362 102.257 160.362 101.232C160.535 101.132 160.976 100.845 160.633 100.655C159.954 100.234 159.263 99.7692 158.878 99.042C158.152 97.8676 158.401 96.4397 158.379 95.1315ZM25.7577 103.727C31.1718 103.729 36.5841 103.722 41.9965 103.729C43.6145 107.729 45.2397 111.724 46.8683 115.719C45.3418 115.768 43.8153 115.832 42.2887 115.867C42.9367 115.323 43.8293 115.059 44.2906 114.305C44.472 114.071 44.4227 113.65 44.1023 113.568C43.7484 113.458 43.3839 113.61 43.0458 113.709C41.632 114.216 40.352 115.02 39.0156 115.695C36.3693 116.3 33.6297 116.629 30.9147 116.406C29.1963 112.178 27.4867 107.949 25.7577 103.727ZM84.3145 107.698C84.5434 107.646 84.7547 107.764 84.9624 107.851C88.5261 109.488 92.3608 110.538 96.2625 110.937C96.7185 111.001 97.2098 110.951 97.6323 111.164C97.7538 111.511 97.4193 111.71 97.1129 111.629C93.051 111.317 89.0525 110.293 85.3163 108.675C84.9378 108.448 83.9201 108.312 84.3145 107.698ZM21.1764 114.126C22.5532 114.251 23.9266 114.379 25.3034 114.504C26.3862 116.01 28.2561 116.647 30.0168 116.929C33.0504 117.381 36.1387 116.959 39.116 116.327C40.6161 115.633 42.0088 114.673 43.6075 114.187C42.9191 114.897 41.5898 115.103 41.4806 116.26C41.5246 116.32 41.6109 116.439 41.6549 116.499C43.4385 116.517 45.222 116.385 47.0056 116.355C46.5602 116.6 46.0373 116.629 45.5812 116.841C45.1604 117.7 44.6181 118.705 43.5899 118.906C42.3011 119.103 40.9911 118.932 39.7093 118.763C39.1494 118.656 38.6424 118.987 38.1142 119.112C34.8076 120.065 31.339 120.364 27.9092 120.258C26.0869 120.223 24.2435 119.557 22.9512 118.246C21.8701 117.159 21.1817 115.668 21.1764 114.126ZM85.4061 115.129C86.0171 114.636 86.8428 114.564 87.5964 114.675C108.193 117.367 128.791 120.056 149.388 122.755C149.74 122.878 150.014 122.676 150.175 122.375C153.103 122.736 156.027 123.128 158.957 123.489C158.996 123.568 159.073 123.729 159.112 123.81C162.205 124.232 165.308 124.604 168.405 125.01C169.232 125.127 170.12 125.142 170.857 125.591C171.97 126.225 172.708 127.475 172.664 128.766C172.664 135.925 172.662 143.086 172.664 150.244C172.657 150.841 172.697 151.445 172.606 152.039C172.456 152.926 171.784 153.697 170.923 153.961C170.113 154.229 169.262 153.996 168.444 153.908C142.857 150.598 117.269 147.297 91.6812 143.992C91.3414 143.88 91.0544 144.024 90.8554 144.3C89.5948 144.103 88.3201 144.015 87.0665 143.781C85.5065 143.448 84.3779 142.059 84.0698 140.534C84.2846 140.374 84.4395 140.152 84.3937 139.874C84.3849 132.416 84.392 124.958 84.3902 117.499C84.3462 116.608 84.6596 115.663 85.4061 115.129ZM94.7114 122.317C93.7817 122.794 93.8363 124.174 94.5705 124.808C95.2343 125.542 96.6552 125.466 97.0337 124.477C97.5602 123.16 95.9984 121.651 94.7114 122.317ZM101.041 123.024C100.485 123.211 100.118 123.792 100.155 124.375C100.184 125.269 100.949 126.051 101.844 126.102C121.69 128.63 141.533 131.183 161.38 133.713C162.04 133.847 162.806 133.492 162.985 132.812C163.306 131.782 162.445 130.659 161.394 130.588C141.764 128.079 122.134 125.568 102.504 123.058C102.022 123.008 101.516 122.868 101.041 123.024ZM94.7131 129.002C93.7483 129.502 93.8328 130.983 94.655 131.581C95.3417 132.271 96.6781 132.116 97.0443 131.166C97.5602 129.836 96.0037 128.38 94.7131 129.002ZM101.037 129.718C100.09 130.032 99.9107 131.335 100.5 132.057C101.023 132.852 102.059 132.835 102.9 132.949C122.4 135.432 141.896 137.939 161.396 140.427C162.061 140.559 162.823 140.184 162.985 139.494C163.301 138.439 162.403 137.319 161.327 137.286C141.646 134.756 121.961 132.252 102.281 129.729C101.869 129.688 101.442 129.604 101.037 129.718ZM94.7149 135.705C93.75 136.207 93.831 137.675 94.6515 138.281C95.3311 138.969 96.6886 138.839 97.0372 137.869C97.5496 136.546 96.0108 135.081 94.7149 135.705ZM101.048 136.421C100.242 136.668 99.9388 137.707 100.312 138.42C100.603 139.112 101.326 139.525 102.062 139.547C120.484 141.89 138.903 144.258 157.321 146.612C158.844 146.764 160.357 147.088 161.887 147.128C163.042 147.061 163.389 145.482 162.679 144.714C162.142 143.948 161.131 143.966 160.302 143.853C140.885 141.371 121.467 138.885 102.048 136.402C101.715 136.372 101.372 136.326 101.048 136.421ZM46.046 117.341C46.4915 117.226 46.9264 117.08 47.3507 116.906C47.9652 118.436 48.5902 119.962 49.2118 121.491C43.7924 121.48 38.373 121.515 32.9554 121.473C32.8673 121.23 32.7758 120.992 32.686 120.753C34.9678 120.566 37.2233 120.102 39.3942 119.376C40.8379 119.531 42.3081 119.778 43.7554 119.513C44.8611 119.283 45.5689 118.288 46.046 117.341ZM77.5095 117.624C78.6997 117.792 79.8899 117.948 81.0801 118.112C81.0766 121.311 81.0801 124.51 81.0766 127.708C80.9903 129.361 82.1577 130.951 83.7652 131.351C83.7617 133.962 83.7775 136.573 83.7599 139.184C80.941 138.698 77.969 139.201 75.46 140.571C69.5424 143.89 63.6582 147.272 57.7264 150.567C57.568 149.313 57.3725 148.065 57.1665 146.818C61.8587 144.151 66.5422 141.467 71.2309 138.791C72.9423 137.833 74.6061 136.724 76.527 136.222C77.0323 136.05 77.682 136.064 77.9866 135.548C79.8547 135.212 81.758 135.346 83.6208 135.64C83.6472 135.059 83.6472 134.478 83.6191 133.897C82.4676 133.735 81.2562 133.706 80.2104 133.145C78.594 132.33 77.5236 130.574 77.5236 128.766C77.4866 125.053 77.5253 121.338 77.5095 117.624ZM173.287 147.22C176.89 147.73 180.506 148.139 184.11 148.641C184.781 148.73 185.098 149.396 185.328 149.952C185.219 150.296 185.087 150.632 184.959 150.97C184.659 150.961 184.355 150.965 184.1 151.13C166.887 160.978 149.659 170.799 132.443 180.641C130.642 181.715 128.617 182.421 126.527 182.632C124.404 182.881 122.296 182.444 120.196 182.199C99.8895 179.574 79.5818 176.949 59.2741 174.331C59.0557 174.283 58.8392 174.236 58.6226 174.186C58.7987 167.871 58.7124 161.545 58.2124 155.245C66.1319 156.333 74.0656 157.315 81.9887 158.365C102.435 161.018 122.879 163.684 143.324 166.342C145.954 166.663 148.676 166.126 151.002 164.863C157.02 161.457 163.066 158.099 169.051 154.632C169.873 154.759 170.759 154.789 171.521 154.398C172.565 153.901 173.259 152.794 173.28 151.641C173.301 150.167 173.28 148.693 173.287 147.22ZM42.905 147.917C43.0881 148.94 42.9208 150.002 43.1726 151.01C44.0089 151.605 44.9791 151.991 45.8365 152.558C44.9263 153.07 44.0213 153.593 43.111 154.104C43.037 152.042 42.9736 149.98 42.905 147.917ZM43.3592 154.692C44.7537 153.924 46.1306 153.125 47.5109 152.333C48.1078 154.202 48.8561 156.032 49.8262 157.743C50.1625 158.231 50.0375 158.845 50.0745 159.402C50.1713 164.061 50.571 168.718 51.351 173.313C48.8156 172.97 46.2784 172.642 43.7378 172.33C43.5441 166.494 43.324 160.657 43.1462 154.82C43.2008 154.789 43.3064 154.724 43.3592 154.692ZM35.7126 154.178C35.9292 153.975 36.1704 154.234 36.3728 154.32C37.1599 154.798 38.1247 154.877 39.0227 154.771C39.3079 154.778 39.6301 154.592 39.8925 154.773C40.1812 155.009 39.8238 155.338 39.572 155.333C38.3431 155.56 36.9856 155.472 35.908 154.782C35.6774 154.657 35.4837 154.41 35.7126 154.178ZM35.0154 159.46C35.8147 163.453 36.607 167.448 37.2074 171.477C31.9993 170.797 26.7894 170.142 21.5831 169.455C20.914 169.436 20.3999 168.718 20.5901 168.08C20.6816 167.702 21.0179 167.467 21.3313 167.281C25.895 164.677 30.464 162.083 35.0154 159.46ZM50.8457 159.9C50.6133 159.664 51.0235 159.497 51.1432 159.358C52.0271 160.448 52.7666 161.65 53.5677 162.802C53.7843 163.024 53.5395 163.316 53.2895 163.34C52.9849 163.138 52.8247 162.791 52.6134 162.508C52.0377 161.629 51.3985 160.793 50.8457 159.9ZM39.3678 177.653C40.3749 177.884 41.4066 177.986 42.4402 177.951C42.4261 178.753 42.3997 179.556 42.375 180.359C42.2218 180.426 42.0704 180.493 41.919 180.563C41.308 180.076 40.4964 180.088 39.7956 180.354C39.6653 179.451 39.5069 178.554 39.3678 177.653ZM53.61 179.088C54.7685 179.29 55.9552 179.338 57.1243 179.197C57.1665 179.917 57.2246 180.636 57.2669 181.356C56.6471 181.814 56.1541 182.41 55.684 183.016C55.2438 182.77 54.7755 182.579 54.2896 182.449C54.0501 181.331 53.8441 180.206 53.61 179.088ZM39.042 181.935C39.4664 181.058 40.7182 180.398 41.5774 181.092C41.595 181.849 41.5229 182.613 41.6179 183.366L41.8222 183.476C41.9049 183.446 42.0704 183.389 42.1532 183.361C42.2676 182.613 42.1215 181.852 42.2342 181.108C42.6233 180.808 43.243 180.937 43.4578 181.377C43.5036 182.562 43.4772 183.752 43.5036 184.939C43.5265 185.397 43.4402 185.875 43.1321 186.231C42.287 187.316 41.4137 188.384 40.4435 189.363C40.021 189.772 39.5843 190.224 38.9875 190.36C38.0666 190.575 37.107 190.603 36.1668 190.552C35.614 190.513 35.2354 189.844 35.4749 189.346C36.5049 186.803 37.7849 184.372 39.042 181.935ZM55.7809 183.81C56.4376 183.204 56.8778 182.388 57.6243 181.873C59.3022 182.741 60.7231 184.009 62.1264 185.254C63.2479 186.291 64.6494 187.249 65.035 188.819C65.2287 189.446 64.6494 190.096 64.0121 190.05C60.3569 190.24 56.7704 188.913 53.7526 186.923C53.3546 186.738 53.4356 186.242 53.3775 185.895C53.4532 185.934 53.6064 186.009 53.6821 186.048C56.6172 188.444 60.6016 189.635 64.3554 188.96C64.8396 188.944 64.6653 188.143 64.204 188.362C60.7953 188.886 57.2123 187.93 54.4639 185.861C54.2244 185.673 53.9674 185.504 53.6804 185.407L53.6117 185.794C53.2983 185.384 53.4409 184.861 53.4638 184.393C53.5237 183.958 53.5272 183.476 53.7948 183.109C54.5255 182.984 55.1681 183.486 55.7809 183.81Z" fill="#FCFEFF"/>
<path d="M110.124 18.7675C114.456 18.2481 118.813 17.8572 123.182 17.9101C131.01 17.8696 138.876 18.2499 146.579 19.7288C153.458 21.0405 160.214 23.2168 166.359 26.6061C175.278 31.4532 182.728 39.0207 187.241 48.1304C191.309 56.2419 192.975 65.3429 193.364 74.347C193.736 83.5096 192.961 92.667 191.936 101.764C191.028 109.605 190.137 117.45 189.003 125.261C188.808 126.557 188.628 127.858 188.353 129.14C188.293 110.885 188.341 92.6282 188.322 74.3735C188.295 72.8557 188.533 71.2271 187.769 69.8362C187.05 68.3695 185.547 67.3624 183.936 67.167C181.235 66.8183 178.536 66.475 175.835 66.1317C174.838 66.0208 173.849 65.8253 172.845 65.8288C173.048 62.7019 172.005 59.5133 169.958 57.1399C167.538 54.2788 163.73 52.6008 159.982 52.8966C159.904 52.9987 159.747 53.2012 159.67 53.3016C156.888 53.6643 154.205 54.9038 152.28 56.9673C152.173 56.8898 151.962 56.7367 151.854 56.661C150.011 58.4568 148.925 60.9359 148.551 63.4625C148.537 63.186 148.516 62.9114 148.495 62.6385C145.648 62.3286 142.819 61.8409 139.961 61.6226C139.964 59.0009 139.957 56.3792 139.964 53.7576C139.952 53.2223 140.047 52.6501 139.764 52.1659C139.556 51.4177 139.667 50.6359 139.692 49.8735C142.407 50.9863 145.458 51.275 148.326 50.6288C151.828 49.8823 155.024 47.8153 157.168 44.9506C157.534 44.4629 157.899 43.9576 158.105 43.3766C158.658 42.1388 159.262 40.9222 159.642 39.614C160.364 37.3427 160.26 34.8584 159.742 32.5519C158.948 29.1784 156.934 26.106 154.143 24.0478C151.902 22.3822 149.192 21.3469 146.405 21.1356C142.692 20.8222 138.878 21.9861 135.962 24.3049C133.091 26.5656 131.119 29.9232 130.511 33.5238C129.724 33.3865 128.935 33.2562 128.138 33.2086C128.078 33.1189 127.96 32.9393 127.902 32.8477C111.883 30.7402 95.8575 28.6855 79.837 26.5938C80.0642 26.5568 80.2895 26.5022 80.5096 26.4318C85.8938 24.2239 91.4664 22.4966 97.1199 21.1304C97.296 21.1039 97.4879 21.0318 97.6622 21.1039C98.6817 21.6269 99.8666 21.2835 100.96 21.3029C100.912 21.1039 100.985 20.8293 100.763 20.7148C100.374 20.6127 99.9687 20.6286 99.5708 20.6374C103.036 19.7605 106.585 19.2464 110.124 18.7675ZM102.89 20.787C102.897 20.9243 102.913 21.1973 102.92 21.3346C103.833 21.3786 104.751 21.4666 105.666 21.4578C106.031 21.4825 105.922 21.0987 105.959 20.8645C104.937 20.787 103.913 20.7289 102.89 20.787ZM108.091 21.6286C109.006 21.78 109.938 21.8135 110.859 21.9244C110.917 21.7396 110.971 21.5547 111.024 21.368C110.096 21.1673 109.145 21.0722 108.196 21.03C107.851 20.9437 107.725 21.6022 108.091 21.6286ZM112.758 21.9438C112.929 22.0688 113.079 22.2519 113.309 22.2678C114.074 22.4156 114.843 22.5495 115.618 22.6252C115.977 22.7203 115.929 22.3118 115.972 22.0917C115.077 21.9086 114.179 21.7096 113.269 21.6374C113.042 21.6057 112.915 21.8311 112.758 21.9438ZM118.107 22.5143C117.767 22.516 117.889 22.8681 117.852 23.0865C118.847 23.2837 119.819 23.6323 120.842 23.6745C120.845 23.5425 120.856 23.2749 120.859 23.1428C119.949 22.9051 119.039 22.6445 118.107 22.5143ZM122.838 23.6745C122.78 23.8876 122.562 24.1622 122.863 24.2908C123.778 24.6042 124.71 24.8947 125.662 25.0848C125.662 24.951 125.662 24.6817 125.662 24.5479C124.771 24.1235 123.791 23.9175 122.838 23.6745ZM127.538 25.2011C127.548 25.3366 127.571 25.6095 127.583 25.7451C128.501 26.1413 129.441 26.555 130.437 26.7117C130.446 26.4934 130.554 26.1465 130.24 26.0796C129.355 25.7433 128.478 25.3454 127.538 25.2011ZM158.078 49.0706C157.92 49.1851 157.855 49.4017 157.994 49.5601C158.406 50.2714 158.769 51.0145 159.214 51.7064C159.357 52.0163 159.857 51.7927 159.751 51.4757C159.466 50.7574 159.029 50.1077 158.659 49.4298C158.531 49.2502 158.348 48.8717 158.078 49.0706ZM61.4573 27.2575C62.5524 26.96 63.7127 28.2488 63.1352 29.2841C62.7355 30.1098 61.4872 29.9813 61.0101 29.2999C60.4185 28.7013 60.5857 27.4882 61.4573 27.2575ZM66.7147 27.9548C67.8204 27.6114 68.9948 28.9601 68.4032 29.9936C67.9683 30.7683 66.7833 30.675 66.2956 29.9989C65.7181 29.4003 65.8467 28.2048 66.7147 27.9548ZM71.9721 28.652C73.0725 28.2717 74.2892 29.6433 73.6623 30.6715C73.2644 31.455 72.0742 31.3617 71.5918 30.7102C70.9967 30.1275 71.1111 28.9108 71.9721 28.652ZM79.1874 30.543C80.9269 30.6116 82.6418 30.9655 84.3708 31.1469C85.0363 31.2737 85.7846 31.1715 86.3621 31.5888C86.3216 31.6786 86.2389 31.8582 86.1966 31.948C83.8444 31.7402 81.5027 31.3987 79.1662 31.0536C79.1715 30.925 79.1821 30.6697 79.1874 30.543ZM93.8098 32.4639C94.5705 32.4251 95.3188 32.573 96.0688 32.6699C104.795 33.7967 113.519 34.9324 122.243 36.068C123.208 36.2018 124.182 36.2758 125.136 36.4853C125.12 36.6173 125.09 36.8814 125.074 37.0135C122.252 36.7371 119.447 36.2986 116.632 35.9535C111.774 35.3285 106.918 34.6876 102.062 34.0573C99.3067 33.684 96.5389 33.3882 93.7957 32.941C93.7993 32.8213 93.8063 32.5836 93.8098 32.4639ZM130.245 37.0681C130.198 36.2212 130.168 35.3655 130.356 34.5327C130.265 35.6085 130.263 36.693 130.404 37.7653C129.58 37.6385 128.752 37.5382 127.93 37.3973C127.935 37.26 127.942 36.9871 127.946 36.8498C128.714 36.9167 129.478 36.9994 130.245 37.0681ZM37.637 60.457C42.7236 52.9283 48.9441 46.1391 56.1083 40.5419C56.1294 40.8465 56.1471 41.1511 56.1559 41.4557C56.1471 56.9479 56.1611 72.4385 56.1506 87.9307C56.1118 89.3322 56.2421 90.7408 56.0925 92.137C51.2524 91.3447 46.3594 90.5119 41.4365 90.7971C39.5068 90.7989 37.9785 89.304 37.1352 87.6912C38.505 87.7405 40.0174 87.7564 41.1865 86.9324C41.9225 86.4253 42.1707 85.4517 41.9595 84.6118C41.5598 82.9709 40.3308 81.6855 38.9962 80.726C38.4064 80.3333 37.9891 79.6713 38.0014 78.9495C37.9592 78.1448 38.674 77.4775 38.4874 76.6658C38.3342 76.0971 37.7338 75.8348 37.2232 75.6693C35.9643 75.3189 34.5646 75.4034 33.3814 75.9739C32.3849 76.4405 31.9394 77.5057 31.2598 78.3015C30.9552 77.2311 30.3002 76.2081 29.2632 75.7274C29.323 75.4915 29.3759 75.252 29.4656 75.0267C31.825 69.9788 34.51 65.0735 37.637 60.457ZM37.8042 65.7338C38.1652 66.1581 38.5173 66.6194 39.0103 66.9029C39.086 66.8289 39.2392 66.681 39.3167 66.6071C39.1283 66.07 38.5701 65.7338 38.1652 65.3482C38.0736 65.445 37.894 65.6369 37.8042 65.7338ZM41.7411 65.489C41.3767 65.769 41.0492 66.0982 40.7569 66.4521C40.6249 66.7391 41.0457 67.0402 41.2429 66.7779C41.5651 66.5014 41.8837 66.2144 42.1514 65.8834C42.3045 65.6281 41.9718 65.2989 41.7411 65.489ZM38.7374 68.4311C38.424 68.785 37.4345 69.3238 38.1177 69.7552C38.6106 69.4682 39.0455 69.0421 39.3378 68.5491C39.1617 68.2375 38.9628 68.1987 38.7374 68.4311ZM40.7992 68.3977C40.6055 68.9241 41.3397 69.2675 41.6425 69.6284C41.8204 69.9207 42.3081 69.5879 42.1443 69.3115C41.845 68.9329 41.4946 68.5914 41.1161 68.2903C41.0369 68.3184 40.8784 68.3713 40.7992 68.3977ZM27.8388 78.629C28.3335 79.0551 28.9216 79.3544 29.5378 79.5692C28.3529 80.1855 27.4074 81.1503 26.5693 82.1715C26.7647 80.9214 27.4866 79.8368 27.8388 78.629ZM27.9022 90.5136C29.7509 89.9484 31.3496 88.8146 33.1191 88.0645C33.2458 89.1702 33.3409 90.3252 32.9817 91.3993C32.7564 92.0419 32.3972 92.6969 31.7757 93.0314C30.4763 93.4786 29.1329 93.8906 28.0096 94.7041C26.1344 96.0281 24.8157 97.979 23.7927 100.002C21.7415 104.199 20.7379 108.832 20.2132 113.45C20.3259 113.455 20.5495 113.466 20.6622 113.471C20.3136 115.339 21.1394 117.264 22.4264 118.602C23.7839 120.044 25.7541 120.801 27.712 120.878C27.7138 121.725 27.7402 122.713 28.4321 123.313C29.0378 123.856 29.9093 123.739 30.6506 123.651C30.0062 125.585 29.6716 127.618 29.6487 129.655C29.5977 131.696 29.9463 133.716 30.2632 135.724C30.7809 138.769 31.3901 141.797 31.994 144.825C31.8038 144.757 31.619 144.681 31.4376 144.597C28.5818 142.843 26.6151 140.026 24.9583 137.182C21.7169 131.464 20.2555 124.893 19.8769 118.375C19.3857 108.853 20.9932 99.3241 23.7117 90.2196C23.9494 89.5576 24.0128 88.8075 24.4512 88.2371C24.5833 89.0135 24.7805 89.8833 25.4636 90.3692C26.1732 90.8781 27.1134 90.746 27.9022 90.5136ZM53.6363 103.076C54.448 102.682 55.3723 102.654 56.2562 102.624C56.265 104.884 56.2544 107.145 56.2597 109.406C56.2826 112.337 58.6807 115.031 61.5752 115.44C66.8855 116.174 72.1992 116.885 77.5077 117.625C77.5235 121.338 77.4848 125.053 77.5218 128.766C77.5218 130.574 78.5923 132.33 80.2086 133.145C81.2544 133.707 82.4658 133.735 83.6173 133.897C83.6454 134.478 83.6454 135.059 83.619 135.64C81.7562 135.346 79.8529 135.212 77.9848 135.548C77.8809 135.483 77.6732 135.355 77.5693 135.291C76.0551 135.636 74.5726 136.152 73.2222 136.931C67.8292 140.003 62.4433 143.089 57.0503 146.162C55.6629 138.441 53.6962 130.839 51.5305 123.305C52.4091 122.875 53.1627 122.144 53.4162 121.178C53.837 119.63 53.5712 118.003 53.4145 116.436C53.1363 113.866 52.9268 111.288 52.756 108.709C52.7331 107.24 52.5746 105.766 52.7313 104.302C52.7489 103.749 53.1609 103.301 53.6363 103.076ZM27.6328 110.001C27.8617 110.564 28.1046 111.121 28.3212 111.689C28.3247 113.052 28.1715 114.408 28.0941 115.769C27.2349 115.436 26.4144 114.936 25.8598 114.184C25.9953 114.153 26.2682 114.089 26.4038 114.057C26.8598 112.721 27.2102 111.35 27.6328 110.001ZM94.7113 129.002C96.0019 128.381 97.5584 129.837 97.0425 131.166C96.6763 132.117 95.3399 132.272 94.6532 131.582C93.831 130.983 93.7465 129.502 94.7113 129.002ZM101.036 129.719C101.441 129.604 101.867 129.689 102.279 129.729C121.96 132.252 141.644 134.756 161.325 137.286C162.401 137.32 163.299 138.439 162.984 139.494C162.822 140.184 162.059 140.559 161.394 140.427C141.894 137.939 122.398 135.432 102.899 132.95C102.057 132.835 101.022 132.853 100.499 132.057C99.9089 131.335 100.088 130.032 101.036 129.719ZM42.4595 135.445C44.3223 140.799 45.9668 146.23 47.3278 151.733C46.826 152 46.3312 152.28 45.8347 152.558C44.9773 151.991 44.0071 151.606 43.1708 151.011C42.919 150.002 43.0863 148.94 42.9032 147.917C42.7342 143.762 42.6215 139.601 42.4595 135.445ZM94.7131 135.705C96.009 135.082 97.5478 136.547 97.0354 137.869C96.6868 138.839 95.3293 138.969 94.6497 138.281C93.8292 137.675 93.7482 136.207 94.7131 135.705ZM101.046 136.422C101.37 136.327 101.714 136.372 102.046 136.402C121.465 138.885 140.883 141.371 160.3 143.854C161.13 143.966 162.14 143.949 162.677 144.715C163.387 145.482 163.04 147.062 161.885 147.128C160.355 147.088 158.842 146.764 157.319 146.613C138.901 144.259 120.482 141.89 102.06 139.547C101.324 139.526 100.601 139.112 100.31 138.42C99.937 137.707 100.24 136.668 101.046 136.422ZM173.285 145.343C174.477 145.475 175.668 145.616 176.852 145.806C176.905 145.891 177.011 146.06 177.062 146.144C178.469 146.292 179.865 146.51 181.27 146.669C182.547 146.811 183.828 146.292 184.74 145.41C184.703 146.48 184.191 147.458 183.937 148.486C184.536 148.666 185.258 148.891 185.448 149.57C185.418 149.666 185.357 149.858 185.327 149.953C185.096 149.396 184.779 148.731 184.108 148.641C180.504 148.139 176.888 147.731 173.285 147.22C173.282 146.593 173.284 145.968 173.285 145.343ZM163.654 166.785C169.239 163.614 174.789 160.376 180.4 157.249C180.284 157.978 179.877 158.608 179.564 159.263C176.972 164.448 173.648 169.285 169.598 173.442C165.216 177.958 160.015 181.654 154.384 184.451C147.75 187.712 140.531 189.721 133.198 190.586C124.5 191.61 115.619 191.093 107.098 189.068C102.527 187.948 97.9827 186.487 93.8979 184.11C93.0633 183.592 92.1548 183.164 91.4417 182.474C93.2112 182.647 94.9684 182.913 96.7326 183.126C105.687 184.282 114.64 185.436 123.594 186.594C126.5 186.892 129.501 186.286 132.048 184.849C142.588 178.837 153.118 172.806 163.654 166.785ZM155.925 173.507C155.865 174.033 155.645 174.847 156.087 175.208C156.172 175.174 156.337 175.104 156.422 175.07C156.481 174.555 156.504 174.023 156.406 173.512C156.335 173.488 156.191 173.44 156.12 173.415L155.925 173.507ZM153.383 176.058C153.073 176.217 153.277 176.692 153.592 176.625C154.002 176.65 154.42 176.664 154.83 176.615C155.09 176.5 155.076 176.113 154.796 176.039C154.328 175.998 153.839 175.953 153.383 176.058ZM157.353 176.146C157.17 176.356 157.376 176.715 157.649 176.655C158.063 176.678 158.483 176.69 158.901 176.643C159.198 176.497 159.078 176.02 158.744 176.062C158.284 176.064 157.775 175.939 157.353 176.146ZM155.916 177.564C155.789 177.947 155.833 178.365 155.833 178.766C155.74 179.122 156.14 179.469 156.42 179.127C156.476 178.611 156.488 178.085 156.409 177.574C156.335 177.548 156.191 177.495 156.119 177.467L155.916 177.564Z" fill="#BEDCFF"/>
<path d="M97.6579 21.1037C98.1069 20.5157 98.9326 20.7674 99.5665 20.6371C99.9644 20.6283 100.369 20.6125 100.758 20.7146C100.98 20.8291 100.908 21.1037 100.956 21.3027C99.8623 21.2833 98.6773 21.6266 97.6579 21.1037ZM102.885 20.7868C103.908 20.7287 104.933 20.7868 105.954 20.8643C105.917 21.0984 106.026 21.4823 105.662 21.4576C104.746 21.4664 103.829 21.3784 102.915 21.3344C102.908 21.197 102.892 20.9241 102.885 20.7868ZM108.086 21.6284C107.72 21.602 107.847 20.9435 108.192 21.0298C109.141 21.072 110.092 21.1671 111.02 21.3678C110.967 21.5545 110.912 21.7393 110.854 21.9242C109.933 21.8133 109.002 21.7798 108.086 21.6284ZM112.754 21.9436C112.911 21.8309 113.037 21.6055 113.265 21.6372C114.175 21.7094 115.073 21.9084 115.967 22.0915C115.925 22.3115 115.973 22.72 115.613 22.625C114.839 22.5492 114.069 22.4154 113.305 22.2675C113.074 22.2517 112.925 22.0686 112.754 21.9436ZM118.103 22.514C119.034 22.6443 119.945 22.9049 120.855 23.1426C120.851 23.2746 120.841 23.5423 120.837 23.6743C119.814 23.6321 118.842 23.2835 117.848 23.0863C117.885 22.8679 117.763 22.5158 118.103 22.514ZM84.7697 23.6444C85.6975 23.3961 86.6272 23.1091 87.5832 22.9929C87.8491 22.9331 87.9618 23.5211 87.659 23.5581C86.7293 23.8275 85.7821 24.1057 84.8137 24.1761C84.8014 24.0423 84.7802 23.7782 84.7697 23.6444ZM122.834 23.6743C123.786 23.9173 124.767 24.1233 125.658 24.5476C125.658 24.6814 125.658 24.9508 125.658 25.0846C124.705 24.8945 123.774 24.604 122.859 24.2906C122.557 24.162 122.776 23.8874 122.834 23.6743ZM82.3593 24.2554C82.6956 24.0229 83.1851 24.4085 82.8664 24.7325C82.0442 25.0705 81.1603 25.2589 80.3028 25.4984C80.1021 25.5952 79.9577 25.4051 79.8943 25.236C79.8785 24.9402 80.2201 24.8751 80.4366 24.7976C81.0758 24.6128 81.7149 24.4261 82.3593 24.2554ZM58.4492 25.6692C59.4105 24.9015 60.7029 24.699 61.8931 24.891C83.7344 27.7292 105.577 30.5639 127.419 33.4003C127.681 33.4708 127.913 33.337 128.134 33.2084C128.931 33.256 129.72 33.3863 130.507 33.5236C130.449 33.8581 130.4 34.1962 130.352 34.5325C130.164 35.3653 130.194 36.221 130.241 37.0679C129.473 36.9992 128.709 36.9164 127.942 36.8495C127.938 36.9869 127.931 37.2598 127.926 37.3971C128.748 37.538 129.576 37.6383 130.4 37.7651C130.595 39.3673 131.058 40.929 131.731 42.3957C127.195 42.0066 122.695 41.2283 118.161 40.8287C113.361 38.0486 108.153 35.9639 102.746 34.7156C102.683 36.6717 102.722 38.6296 102.634 40.5857C102.637 40.0029 102.63 39.4219 102.621 38.8391C87.3667 36.9781 72.1156 35.08 56.8663 33.1785C56.8751 31.7294 56.847 30.2786 56.8769 28.8296C56.9033 27.6112 57.4773 26.4104 58.4492 25.6692ZM61.4529 27.2573C60.5814 27.488 60.4141 28.7011 61.0057 29.2997C61.4829 29.9811 62.7312 30.1096 63.1309 29.2839C63.7084 28.2486 62.5481 26.9598 61.4529 27.2573ZM66.7103 27.9546C65.8423 28.2046 65.7138 29.4001 66.2913 29.9987C66.779 30.6748 67.9639 30.7681 68.3988 29.9934C68.9904 28.9599 67.816 27.6112 66.7103 27.9546ZM71.9677 28.6518C71.1068 28.9106 70.9923 30.1272 71.5874 30.71C72.0699 31.3615 73.2601 31.4548 73.658 30.6713C74.2848 29.643 73.0682 28.2715 71.9677 28.6518ZM79.183 30.5427C79.1777 30.6695 79.1672 30.9248 79.1619 31.0534C81.4983 31.3984 83.84 31.74 86.1923 31.9478C86.2346 31.858 86.3173 31.6784 86.3578 31.5886C85.7803 31.1713 85.032 31.2734 84.3665 31.1467C82.6375 30.9653 80.9226 30.6114 79.183 30.5427ZM93.8055 32.4637C93.802 32.5834 93.7949 32.8211 93.7914 32.9408C96.5346 33.388 99.3024 33.6838 102.058 34.0571C106.914 34.6874 111.77 35.3283 116.628 35.9533C119.443 36.2984 122.248 36.7368 125.07 37.0133C125.086 36.8812 125.116 36.6171 125.132 36.4851C124.177 36.2755 123.204 36.2016 122.239 36.0678C113.515 34.9321 104.79 33.7965 96.0645 32.6696C95.3144 32.5728 94.5661 32.4249 93.8055 32.4637ZM127.533 25.2008C128.473 25.3452 129.35 25.7431 130.236 26.0794C130.549 26.1463 130.442 26.4932 130.433 26.7115C129.436 26.5548 128.496 26.141 127.579 25.7449C127.567 25.6093 127.544 25.3364 127.533 25.2008ZM53.6777 37.4376C53.9101 37.2686 54.257 37.4112 54.1848 37.7316C54.1021 37.9904 53.8292 38.1102 53.6267 38.2633C53.4049 38.4007 53.0351 38.6578 52.8978 38.2792C52.8273 37.8302 53.3837 37.6577 53.6777 37.4376ZM51.0332 39.3849C51.3378 39.1402 51.6899 39.7036 51.366 39.8973C50.7092 40.429 50.0507 40.966 49.3623 41.459C49.0947 41.7301 48.931 41.2952 48.8095 41.1245C49.5437 40.5382 50.2497 39.9078 51.0332 39.3849ZM47.1632 42.5401C47.4502 42.3446 47.7724 42.8482 47.4907 43.0454C46.8885 43.6229 46.2582 44.174 45.6279 44.7198C45.3532 45.0631 44.862 44.5543 45.1842 44.3025C45.804 43.6757 46.4607 43.0735 47.1632 42.5401ZM41.4516 47.9929C42.0995 47.3133 42.7069 46.5843 43.4323 45.9875C43.7035 45.7304 44.1014 46.2129 43.8179 46.4453C43.1717 47.1266 42.5203 47.8063 41.8301 48.4419C41.6981 48.2975 41.5713 48.1461 41.4516 47.9929ZM76.6828 50.405C82.6551 47.4506 89.5218 46.5386 96.1014 47.3766C96.0152 53.8753 95.8902 60.374 95.7652 66.8709C92.846 66.797 89.8739 67.5823 87.4952 69.306C86.2152 70.2163 85.1623 71.4047 84.2872 72.7024C77.4382 69.4926 70.6067 66.2442 63.7489 63.0556C63.9936 62.3953 64.3827 61.8019 64.7401 61.198C67.5731 56.5498 71.7987 52.7925 76.6828 50.405ZM83.0618 50.8117C83.0618 50.9315 83.06 51.1744 83.0583 51.2942C83.7819 51.3135 84.4563 51.0283 85.1588 50.9033C87.8121 50.3276 90.5342 50.1673 93.2439 50.236C93.6752 50.2976 93.6646 49.5828 93.2298 49.6497C89.8123 49.5018 86.3508 49.8487 83.0618 50.8117ZM79.8908 51.884C76.9628 53.076 74.2091 54.7416 71.8656 56.8685C71.5152 57.1432 71.9748 57.6098 72.2635 57.2893C74.5718 55.2892 77.1864 53.6306 80.0264 52.4932C80.2341 52.377 80.5757 52.3418 80.5757 52.0372C80.6215 51.6076 80.1021 51.796 79.8908 51.884ZM158.074 49.0704C158.343 48.8715 158.527 49.25 158.655 49.4296C159.025 50.1075 159.461 50.7572 159.747 51.4755C159.852 51.7924 159.352 52.0161 159.21 51.7062C158.764 51.0142 158.401 50.2712 157.99 49.5599C157.85 49.4014 157.916 49.1849 158.074 49.0704ZM39.9691 49.6286C40.1117 49.4437 40.536 49.6673 40.4356 49.9085C40.3318 50.2395 40.0465 50.4649 39.8352 50.7272C39.4039 51.1797 39.0553 51.7115 38.5781 52.1182C38.3105 52.1728 38.0323 51.8435 38.2436 51.6182C38.7841 50.928 39.3475 50.2466 39.9691 49.6286ZM36.7769 53.4528C37.0181 53.3225 37.4055 53.6412 37.1837 53.8859C36.6836 54.6095 36.1572 55.3226 35.5849 55.9899C35.3613 56.3086 34.8877 55.798 35.1694 55.5568C35.6712 54.8314 36.1871 54.1077 36.7769 53.4528ZM33.7873 57.534C33.9968 57.3844 34.3084 57.5657 34.2644 57.8246C34.1324 58.182 33.8841 58.4795 33.6799 58.7964C33.3084 59.3229 33.0302 59.9321 32.509 60.3353C32.0002 59.9022 32.5302 59.3933 32.7802 58.976C33.12 58.4971 33.3947 57.9707 33.7873 57.534ZM31.1304 61.7368C31.428 61.5995 31.7044 62.022 31.4878 62.2544C31.0494 62.9992 30.6709 63.788 30.1603 64.4852C29.8821 64.7317 29.5352 64.2915 29.7412 64.0345C30.1867 63.2615 30.5529 62.4182 31.1304 61.7368ZM139.957 61.6224C142.814 61.8407 145.644 62.3284 148.491 62.6383C148.512 62.9112 148.533 63.1858 148.547 63.4623C148.513 63.9077 148.484 64.3532 148.455 64.8004C145.719 64.45 142.983 64.0961 140.247 63.751C140.157 63.5873 140.073 63.4235 139.99 63.258C139.946 62.714 139.957 62.1682 139.957 61.6224ZM172.841 65.8286C173.844 65.8251 174.834 66.0205 175.831 66.1315C178.531 66.4748 181.231 66.8181 183.931 67.1667C185.542 67.3622 187.046 68.3693 187.764 69.836C188.529 71.2269 188.291 72.8555 188.317 74.3732C188.337 92.628 188.289 110.885 188.349 129.139C188.257 133.008 188.347 136.879 188.303 140.748C188.224 142.415 186.852 143.677 185.463 144.394C185.747 143.744 185.903 143.042 185.893 142.332C185.884 119.794 185.893 97.2551 185.912 74.7166C185.93 73.7887 185.814 72.8379 185.398 71.9981C184.655 70.38 183.053 69.2056 181.289 68.975C178.378 68.5876 175.461 68.2584 172.55 67.8675C172.681 67.1932 172.804 66.5153 172.841 65.8286ZM28.5158 66.3322C28.6144 65.8867 29.3204 66.1966 29.081 66.5734C28.6514 67.415 28.3256 68.3306 27.727 69.0736C27.6355 69.026 27.4506 68.931 27.3573 68.8834C27.5597 67.9643 28.095 67.1615 28.5158 66.3322ZM62.2364 66.4361C69.1172 69.6141 75.9733 72.8485 82.8646 76.0054C82.6956 77.1428 82.509 78.2802 82.509 79.4317C81.2871 80.0884 80.0686 80.7504 78.8203 81.3526C78.8854 80.4986 79.0475 79.6482 79.0334 78.7925C78.9418 78.3682 78.3608 78.6077 78.1671 78.8313C77.403 79.6606 77.1371 80.8138 76.4293 81.6836C76.1071 82.0657 75.6916 82.3738 75.4486 82.8192C75.1176 83.4161 75.019 84.1028 74.9169 84.7701C72.5558 86.5766 70.1331 88.302 67.7051 90.0169C66.7121 90.7264 65.668 91.385 64.5201 91.8146C64.4426 91.8111 64.2876 91.8005 64.2102 91.797C60.2944 84.0464 59.2767 74.6778 62.2364 66.4361ZM141.728 66.8058C143.77 67.0118 145.8 67.3305 147.841 67.5523C148.2 67.6087 148.668 67.6034 148.818 68.0101C149.786 72.0597 152.982 75.4719 156.959 76.7026C160.129 77.7133 163.713 77.3593 166.613 75.7219C168.716 74.5493 170.448 72.7411 171.545 70.6001C174.031 70.8994 176.515 71.2075 178.996 71.5491C180.679 71.785 182.039 73.3696 181.998 75.074C182.009 97.0209 181.998 118.968 182.003 140.915C182.062 141.931 181.438 142.922 180.507 143.325C179.875 143.646 179.144 143.568 178.466 143.477C176.741 143.235 175.008 143.036 173.281 142.802C173.277 138.062 173.288 133.321 173.276 128.581C173.27 126.59 171.621 124.775 169.65 124.54C166.175 124.091 162.701 123.646 159.225 123.211C159.157 123.282 159.019 123.419 158.951 123.489C156.021 123.128 153.097 122.736 150.169 122.375C149.498 122.051 148.737 122.053 148.015 121.942C145.225 121.568 142.43 121.222 139.641 120.839C139.657 119.977 139.557 119.103 139.728 118.251C139.779 118.184 139.883 118.049 139.935 117.98C140.126 117.684 140.053 117.308 140.075 116.977C140.013 113.221 140.147 109.46 139.992 105.708C140.129 104.125 140.034 102.537 140.066 100.951C139.999 98.5439 140.138 96.1335 140.013 93.7284C140.096 92.1456 140.062 90.561 140.057 88.9781C139.921 87.6189 140.145 86.2596 140.041 84.8986C141.976 85.1821 143.9 85.5236 145.835 85.8036C145.818 79.2715 144.349 72.7798 141.728 66.8058ZM151.929 88.258C151.956 88.346 152.008 88.5238 152.035 88.6119C151.378 89.413 150.882 90.3286 150.452 91.2652C150.385 91.5064 150.149 91.5892 149.952 91.6931L149.991 91.6878C149.591 92.3973 149.464 93.2249 149.292 94.0119C148.646 97.5192 149.556 101.275 151.741 104.094C153.526 106.467 156.167 108.18 159.063 108.833C163.511 109.9 168.473 108.353 171.489 104.909C173.552 102.637 174.771 99.6126 174.813 96.5402C174.878 93.8041 174.035 91.0557 172.439 88.8302C170.67 86.3195 167.969 84.4866 164.985 83.7665C160.254 82.5745 154.894 84.3651 151.929 88.258ZM150.193 111.793C149.612 111.957 149.142 112.43 148.959 113.001C148.596 114.024 149.406 115.225 150.478 115.316C151.528 115.457 152.547 114.529 152.486 113.467C152.491 112.339 151.267 111.436 150.193 111.793ZM26.4188 70.7392C26.6072 70.461 26.9822 70.7145 26.9347 70.998C26.7199 71.6706 26.3871 72.2956 26.1336 72.9541C25.998 73.2235 25.8941 73.6866 25.4962 73.5985C25.1617 73.3503 25.4469 72.9753 25.535 72.6795C25.829 72.0333 26.0579 71.3519 26.4188 70.7392ZM152.864 73.6285C154.507 73.0967 156.22 72.8538 157.926 72.6231C157.974 72.7094 158.069 72.8819 158.116 72.9682C158.486 73.8362 159.201 74.5916 160.152 74.7852C161.509 75.1233 162.948 74.2412 163.381 72.9348C163.555 72.5439 164.032 72.7393 164.36 72.7446C165.736 72.9594 167.134 73.1496 168.444 73.6478C166.09 75.8258 162.787 76.9139 159.601 76.6022C157.109 76.3857 154.699 75.3293 152.864 73.6285ZM24.6317 75.2923C24.9222 75.2307 25.1335 75.5617 24.9821 75.8099C24.6951 76.5882 24.4522 77.3858 24.1159 78.1446C24.0542 78.1833 23.9292 78.2591 23.8676 78.2978C23.3112 78.2538 23.6528 77.6675 23.7338 77.3523C24.049 76.678 24.1299 75.8522 24.6317 75.2923ZM22.827 80.1888C22.9714 79.8789 23.3447 80.0479 23.3781 80.3349C23.2373 81.0568 22.9626 81.7434 22.776 82.4548C22.7108 82.747 22.5471 83.0023 22.3164 83.1907C22.246 83.0974 22.1069 82.9073 22.0365 82.8122C22.2337 81.923 22.4819 81.0322 22.827 80.1888ZM79.4718 85.4233C80.6972 84.4021 81.7254 83.1731 82.7836 81.9847C83.0336 82.7365 83.2379 83.5042 83.5284 84.2436C84.4915 86.7033 86.1043 88.8795 88.0815 90.6191C84.3154 95.924 80.5828 101.255 76.7638 106.522C73.3569 103.993 70.2458 101.028 67.7562 97.5826C69.7422 96.4575 71.5364 94.9979 73.0558 93.2935C74.1545 92.1156 74.9908 90.7353 75.9328 89.4359C76.5543 88.5274 76.9787 87.4886 77.7041 86.6505C78.1706 86.08 78.9225 85.8916 79.4718 85.4233ZM21.4202 84.9479C21.5611 84.9391 21.8428 84.9232 21.9819 84.9162C21.9115 85.8811 21.6192 86.816 21.3709 87.7474C21.3498 88.0238 20.7547 88.0696 20.797 87.7228C20.885 86.7773 21.2072 85.8688 21.4202 84.9479ZM109.527 89.781C110.625 88.3548 111.257 86.6434 111.683 84.9144C118.096 85.8423 124.491 86.9128 130.905 87.8301C130.433 93.9608 127.776 99.8802 123.631 104.412C119.483 108.965 113.851 112.077 107.856 113.42C98.5189 115.535 88.5305 113.568 80.3011 108.814C81.5423 106.905 82.9157 105.085 84.2098 103.208C86.6307 99.7852 89.0323 96.3483 91.4655 92.9344C94.545 94.4873 98.1033 95.2039 101.523 94.5911C104.664 94.0612 107.636 92.3692 109.527 89.781ZM127.304 90.5028C126.236 95.3606 123.667 99.8662 120.075 103.301C115.768 107.471 110.051 110.024 104.142 110.851C104.137 110.985 104.127 111.254 104.121 111.39C106.347 111.223 108.518 110.589 110.618 109.858C113.89 108.671 116.95 106.886 119.568 104.588C123.559 101.109 126.471 96.4064 127.755 91.2652C127.836 90.8198 128.074 90.3514 127.905 89.9042C127.473 89.6648 127.389 90.2035 127.304 90.5028ZM84.3084 107.698C83.914 108.312 84.9317 108.448 85.3102 108.675C89.0464 110.293 93.0449 111.318 97.1068 111.629C97.4131 111.71 97.7477 111.511 97.6262 111.164C97.2036 110.951 96.7124 111.001 96.2564 110.937C92.3547 110.538 88.5199 109.488 84.9563 107.851C84.7485 107.765 84.5373 107.647 84.3084 107.698ZM20.3498 89.8673C20.5769 89.612 21.01 89.906 20.8498 90.2229C20.7125 91.0364 20.5804 91.855 20.3867 92.6579C20.3568 93.0734 19.6525 92.8992 19.8127 92.51C19.936 91.6244 20.0399 90.7071 20.3498 89.8673ZM153.959 105.588C155.822 104.976 157.782 104.701 159.733 104.548C159.886 105.675 160.905 106.645 162.067 106.587C163.205 106.592 164.155 105.654 164.331 104.558C166.231 104.699 168.115 105.034 169.95 105.551C167.624 107.604 164.476 108.675 161.381 108.515C158.662 108.416 156.046 107.312 153.959 105.588ZM150.161 112.459C151.014 111.999 152.116 112.89 151.831 113.816C151.663 114.614 150.6 114.987 149.973 114.469C149.271 113.99 149.387 112.798 150.161 112.459ZM82.06 117.771C82.6234 117.857 83.1903 117.927 83.7555 118.007C83.7661 122.456 83.7608 126.903 83.759 131.351C82.1515 130.951 80.9842 129.361 81.0705 127.708C81.074 124.51 81.0705 121.311 81.074 118.112C81.3046 118.144 81.537 118.174 81.7712 118.205C81.8434 118.096 81.9878 117.88 82.06 117.771ZM75.4539 140.571C77.9629 139.202 80.9349 138.698 83.7537 139.184C83.7731 139.649 83.6446 140.203 84.0636 140.534C84.3717 142.059 85.5003 143.448 87.0603 143.781C88.3139 144.015 89.5887 144.103 90.8493 144.301C91.0412 144.403 91.2226 144.556 91.4497 144.589C117.312 147.95 143.184 151.252 169.045 154.632C163.06 158.099 157.014 161.457 150.996 164.864C148.67 166.126 145.948 166.663 143.318 166.343C122.873 163.684 102.429 161.018 81.9825 158.365C74.0594 157.316 66.1258 156.333 58.2062 155.245C58.0759 153.683 57.914 152.123 57.7203 150.567C63.652 147.273 69.5362 143.89 75.4539 140.571ZM185.322 149.952C185.352 149.857 185.414 149.665 185.444 149.57C185.755 150.472 185.505 151.43 185.551 152.357C185.525 153.13 185.734 154.155 184.924 154.613C183.431 155.52 181.88 156.326 180.396 157.249C174.785 160.376 169.235 163.614 163.65 166.785C153.114 172.806 142.583 178.836 132.044 184.849C129.496 186.286 126.496 186.892 123.589 186.594C114.636 185.435 105.683 184.282 96.7283 183.125C94.9641 182.912 93.2069 182.647 91.4374 182.474C86.2592 181.724 81.0582 181.124 75.8694 180.432C70.0627 179.683 64.2559 178.931 58.4474 178.185C58.5267 176.852 58.5725 175.519 58.6165 174.186C58.833 174.236 59.0496 174.283 59.2679 174.331C59.1112 174.327 58.7978 174.317 58.6411 174.311C58.6446 174.459 58.6517 174.753 58.6552 174.901C80.2253 177.673 101.79 180.47 123.359 183.252C126.445 183.62 129.635 182.958 132.335 181.423C149.813 171.44 167.305 161.476 184.769 151.465C184.815 151.342 184.907 151.093 184.953 150.97C185.081 150.632 185.213 150.296 185.322 149.952ZM19.8832 172.109C19.8392 170.748 19.8973 169.385 19.9219 168.026C19.9413 168.519 19.9466 169.077 20.3022 169.466C20.6808 169.963 21.3269 170.093 21.9132 170.158C27.0421 170.781 32.1604 171.515 37.2928 172.109C37.453 173.22 37.5868 174.338 37.6555 175.459C32.1727 174.852 26.7094 174.058 21.2319 173.387C20.5452 173.355 19.9131 172.815 19.8832 172.109ZM43.7545 172.957C46.3181 173.292 48.8781 173.671 51.4522 173.924C51.6706 175.065 51.903 176.202 52.1724 177.333C49.4063 177.069 46.6526 176.651 43.8954 176.297C43.8496 175.352 43.8725 174.405 43.7774 173.465C43.7721 173.338 43.7598 173.084 43.7545 172.957Z" fill="#89BBFF"/>
<path d="M135.962 24.3041C138.878 21.9853 142.692 20.8215 146.405 21.1349C149.192 21.3461 151.902 22.3814 154.143 24.047C156.934 26.1053 158.948 29.1777 159.742 32.5511C160.26 34.8576 160.364 37.3419 159.642 39.6132C159.291 39.5991 159.07 39.3139 159.216 38.9829C159.777 36.3454 159.577 33.553 158.629 31.0281C157.598 28.2269 155.656 25.7725 153.168 24.1245C150.867 22.5839 148.115 21.7282 145.345 21.7123C141.887 21.6648 138.431 22.9431 135.83 25.2196C133.293 27.424 131.585 30.5492 131.08 33.8699C130.425 38.0057 131.763 42.3546 134.51 45.4957C137.028 44.8301 139.61 44.4076 142.209 44.2438C142.213 43.0202 142.22 41.7982 142.227 40.5746C141.265 40.5517 140.301 40.6098 139.343 40.5094C137.425 40.2735 135.799 38.6272 135.578 36.7081C135.42 35.5496 135.857 34.4386 136.175 33.3487C137.054 30.6285 138.292 27.9047 140.424 25.9362C142.118 24.3586 144.532 23.4167 146.847 23.8833C148.866 24.3164 150.428 25.85 151.541 27.5138C153.073 29.8221 154.027 32.4578 154.763 35.1112C155.36 37.2346 154.069 39.6308 151.995 40.3422C150.745 40.7911 149.396 40.5534 148.1 40.6027C148.097 41.8335 148.083 43.0624 148.085 44.2931C150.673 44.5026 153.24 44.9816 155.731 45.7175C156.455 44.9287 157.052 44.0396 157.654 43.1592C157.767 43.2138 157.992 43.3212 158.105 43.3758C157.899 43.9568 157.534 44.4621 157.168 44.9499C155.023 47.8145 151.828 49.8815 148.326 50.6281C145.458 51.2742 142.406 50.9855 139.691 49.8727C136.228 48.4906 133.312 45.7792 131.735 42.3951C131.062 40.9285 130.599 39.3667 130.404 37.7645C130.263 36.6923 130.265 35.6077 130.356 34.5319C130.404 34.1956 130.453 33.8576 130.511 33.523C131.119 29.9224 133.091 26.5648 135.962 24.3041ZM140.677 32.1197C140.681 32.8223 140.63 33.5336 140.774 34.2255C141.038 35.6341 141.899 36.944 143.156 37.6553C143.29 37.7733 143.602 37.8578 143.528 38.0938C143.475 38.4318 143.086 38.3948 142.859 38.2575C142.868 40.4883 142.824 42.7208 142.834 44.9516C142.803 46.1894 143.933 47.3039 145.171 47.2458C146.384 47.2669 147.475 46.1823 147.449 44.9675C147.467 42.7578 147.467 40.5482 147.49 38.3385C146.764 38.6642 145.975 38.8878 145.174 38.8473C144.866 38.8086 144.84 38.2487 145.183 38.2575C145.775 38.18 146.386 38.1466 146.937 37.8877C148.724 37.143 149.865 35.2344 149.882 33.3241C149.87 31.8627 149.993 30.3908 149.801 28.9364C146.829 28.9171 143.857 28.8854 140.887 28.8695C140.609 29.9312 140.7 31.0352 140.677 32.1197ZM135.202 45.9746C135.2 46.0045 135.196 46.0644 135.195 46.0943C138.052 48.9677 142.163 50.5999 146.224 50.2707C149.56 50.0435 152.8 48.591 155.149 46.2035C152.851 45.5555 150.495 45.1312 148.12 44.9182C148.039 45.7281 147.762 46.5539 147.13 47.1014C146.109 48.0856 144.361 48.1402 143.285 47.2159C142.574 46.656 142.215 45.7651 142.176 44.8777C139.823 45.0256 137.484 45.3883 135.202 45.9746ZM56.7104 26.894C57.515 25.0665 59.5821 23.9695 61.5488 24.2213C67.646 24.9978 73.7415 25.7971 79.837 26.593C95.8574 28.6847 111.883 30.7394 127.902 32.8469C127.96 32.9385 128.078 33.1181 128.138 33.2079C127.918 33.3364 127.685 33.4702 127.423 33.3998C105.582 30.5633 83.7387 27.7286 61.8974 24.8904C60.7071 24.6985 59.4148 24.901 58.4535 25.6686C57.4816 26.4099 56.9076 27.6106 56.8812 28.829C56.8512 30.2781 56.8794 31.7289 56.8706 33.1779C56.8688 52.8659 56.8706 72.5539 56.8689 92.2419C56.7122 92.2207 56.3952 92.1785 56.2385 92.1573C56.2597 71.6683 56.2385 51.1809 56.2509 30.6918C56.2649 29.4189 56.1223 28.0719 56.7104 26.894ZM182.913 28.0843C183.124 27.9047 183.307 27.9276 183.462 28.1512C183.508 28.6248 183.508 29.1072 183.46 29.5809C183.344 29.8309 183.071 29.7393 182.876 29.6742C182.865 29.1442 182.816 28.609 182.913 28.0843ZM180.187 30.9119C180.236 30.8292 180.335 30.6637 180.384 30.5827C180.888 30.5756 181.397 30.5387 181.899 30.6056C182.196 30.8063 181.988 31.257 181.656 31.1954C181.171 31.1514 180.513 31.3873 180.187 30.9119ZM184.504 30.6108C185.015 30.6654 185.784 30.3485 186.117 30.8609C186.084 30.9401 186.02 31.0968 185.989 31.176C185.475 31.2693 184.938 31.2641 184.425 31.1743C184.253 30.9947 184.254 30.7235 184.504 30.6108ZM182.906 32.1426C183.282 31.7975 183.577 32.2729 183.487 32.6462C183.422 33.0353 183.689 33.7977 183.103 33.8223C182.615 33.472 182.902 32.6708 182.906 32.1426ZM143.653 34.6904C143.405 34.472 143.746 34.259 143.899 34.134C144.503 34.7696 145.56 35.0883 146.276 34.4421C146.491 34.171 147.021 34.09 147.004 34.5724C146.271 35.6693 144.477 35.6992 143.653 34.6904ZM139.352 52.3359C139.454 52.2937 139.662 52.2074 139.764 52.1652C140.047 52.6493 139.952 53.2215 139.964 53.7568C139.957 56.3785 139.964 59.0001 139.961 61.6218C139.961 62.1676 139.95 62.7134 139.994 63.2575C139.785 62.8648 139.561 62.4792 139.355 62.0831C139.329 58.8346 139.339 55.5844 139.352 52.3359ZM159.67 53.3008C159.747 53.2004 159.904 52.9979 159.982 52.8958C163.73 52.6 167.538 54.278 169.958 57.1391C172.005 59.5125 173.048 62.7011 172.845 65.8281C172.808 66.5147 172.685 67.1926 172.555 67.8669C175.465 68.2578 178.383 68.5871 181.293 68.9744C183.057 69.2051 184.659 70.3794 185.402 71.9975C185.818 72.8374 185.934 73.7881 185.916 74.716C185.897 97.2545 185.888 119.793 185.897 142.332C185.908 143.041 185.751 143.744 185.467 144.393C185.256 144.752 185.017 145.098 184.74 145.409C183.828 146.291 182.546 146.811 181.27 146.668C179.865 146.51 178.469 146.291 177.062 146.143C177.011 146.059 176.905 145.89 176.852 145.805C176.976 145.589 177.155 145.504 177.393 145.552C178.75 145.693 180.099 145.925 181.46 146.048C182.929 146.173 184.408 145.272 184.974 143.914C185.378 143.031 185.253 142.039 185.272 141.099C185.276 118.793 185.27 96.4869 185.253 74.1825C185.246 72.4958 184.233 70.8619 182.728 70.1048C181.74 69.566 180.59 69.5625 179.506 69.4022C177.136 69.0976 174.768 68.7754 172.396 68.4796C172.16 69.2033 171.903 69.9234 171.549 70.5995C170.452 72.7405 168.72 74.5487 166.618 75.7213C163.718 77.3588 160.133 77.7127 156.964 76.702C152.986 75.4713 149.791 72.0591 148.822 68.0096C148.593 67.1662 148.507 66.2929 148.451 65.4231C145.833 65.1009 143.218 64.7576 140.602 64.4248C140.484 64.1977 140.368 63.974 140.251 63.7504C142.987 64.0955 145.724 64.4495 148.46 64.7998C148.488 64.3526 148.518 63.9071 148.551 63.4617C148.924 60.9351 150.011 58.4561 151.854 56.6602C151.962 56.7359 152.173 56.889 152.28 56.9665C150.879 58.6286 149.72 60.5495 149.319 62.7134C148.472 66.645 149.877 70.9446 152.868 73.6279C154.703 75.3287 157.113 76.3851 159.605 76.6017C162.792 76.9133 166.095 75.8252 168.449 73.6473C170.232 72.0257 171.503 69.8407 171.995 67.4761C172.643 64.4829 172.039 61.2415 170.343 58.6885C168.389 55.6865 164.97 53.6917 161.388 53.5033C160.811 53.4645 160.212 53.542 159.67 53.3008ZM157.774 57.8786C158.584 57.5722 159.462 57.6796 160.309 57.662C161.304 57.6867 162.307 57.6021 163.3 57.7236C164.841 57.9631 166.056 59.428 166.021 60.9862C165.973 62.2046 165.36 63.3085 165.158 64.4987C165.096 65.3157 165.202 66.1661 164.911 66.9531C164.661 67.7543 164.128 68.4251 163.508 68.9744C163.433 70.2932 163.626 71.6313 163.385 72.9342C162.952 74.2406 161.513 75.1227 160.156 74.7847C159.205 74.591 158.49 73.8356 158.121 72.9676C157.909 71.6242 158.062 70.2562 158.017 68.9022C157.4 68.3071 156.876 67.5905 156.657 66.7524C156.448 66.0851 156.546 65.3773 156.453 64.6959C156.177 63.6237 155.61 62.6377 155.439 61.539C155.233 59.9562 156.339 58.449 157.774 57.8786ZM157.119 63.2328C157.201 64.5428 156.886 65.9443 157.485 67.1697C157.863 68.0395 158.647 68.6064 159.439 69.0695C159.644 69.6452 158.913 69.5959 158.633 69.3318C158.656 70.3037 158.612 71.2774 158.65 72.251C158.696 73.3515 159.728 74.2969 160.832 74.223C161.885 74.2142 162.83 73.2986 162.862 72.2457C162.89 71.295 162.857 70.3425 162.874 69.3917C162.191 69.7121 161.441 69.9445 160.679 69.8917C160.269 69.6435 160.63 69.154 161.015 69.2632C162.788 69.2068 164.366 67.6979 164.491 65.9266C164.536 64.9829 164.517 64.0374 164.505 63.0919C164.48 61.7063 163.549 60.4456 162.288 59.9104C160.57 61.0249 158.835 62.1183 157.119 63.2328ZM37.8042 65.733C37.894 65.6361 38.0735 65.4442 38.1651 65.3474C38.5701 65.733 39.1282 66.0693 39.3166 66.6063C39.2391 66.6802 39.0859 66.8281 39.0102 66.9021C38.5172 66.6186 38.1651 66.1573 37.8042 65.733ZM41.7411 65.4882C41.9717 65.2981 42.3045 65.6273 42.1513 65.8826C41.8837 66.2136 41.565 66.5006 41.2428 66.7771C41.0456 67.0394 40.6248 66.7383 40.7568 66.4514C41.0491 66.0975 41.3766 65.7682 41.7411 65.4882ZM38.7373 68.4304C38.9627 68.1979 39.1617 68.2367 39.3377 68.5483C39.0454 69.0413 38.6106 69.4674 38.1176 69.7544C37.4344 69.323 38.4239 68.7843 38.7373 68.4304ZM40.7991 68.3969C40.8783 68.3705 41.0368 68.3177 41.116 68.2895C41.4946 68.5906 41.8449 68.9322 42.1443 69.3107C42.308 69.5871 41.8203 69.9199 41.6425 69.6276C41.3396 69.2667 40.6054 68.9233 40.7991 68.3969ZM33.3813 75.9731C34.5645 75.4027 35.9642 75.3182 37.2231 75.6685C37.7337 75.834 38.3341 76.0964 38.4873 76.6651C38.674 77.4767 37.9591 78.1441 38.0014 78.9487C37.989 79.6706 38.4063 80.3326 38.9962 80.7252C40.3308 81.6848 41.5597 82.9701 41.9594 84.611C42.1707 85.4509 41.9224 86.4245 41.1864 86.9316C40.0173 87.7556 38.5049 87.7398 37.1351 87.6905C37.9785 89.3033 39.5068 90.7981 41.4365 90.7963C41.9453 90.9724 42.2182 91.6749 41.7111 92.0235C39.1335 94.2279 35.4625 94.955 32.1876 94.2015C31.64 94.0853 31.6295 93.4585 31.7756 93.0306C32.3971 92.6961 32.7563 92.0411 32.9817 91.3985C33.3408 90.3245 33.2458 89.1695 33.119 88.0638C31.3495 88.8138 29.7508 89.9477 27.9021 90.5128C27.1133 90.7453 26.1731 90.8773 25.4635 90.3685C24.7804 89.8825 24.5832 89.0128 24.4511 88.2363C24.1395 86.002 25.2575 83.8909 26.5692 82.1707C27.4073 81.1496 28.3528 80.1847 29.5377 79.5685C28.9215 79.3536 28.3335 79.0543 27.8387 78.6282C27.2524 78.1423 26.6573 77.3641 26.9672 76.5647C27.3158 75.6879 28.4303 75.3446 29.2631 75.7266C30.3001 76.2073 30.9551 77.2303 31.2597 78.3008C31.9393 77.5049 32.3848 76.4397 33.3813 75.9731ZM32.5362 81.4365C32.1154 81.9066 32.1805 82.5704 32.0379 83.1461C31.9657 83.3486 31.9886 83.8117 31.6488 83.7307C31.4041 83.7571 31.0555 83.5793 30.9234 83.8786C30.7086 84.6885 31.6788 85.7696 32.5063 85.2819C32.7686 85.4685 33.1454 85.5882 33.2246 85.9421C33.6877 87.4264 33.9747 88.9987 33.7951 90.5569C33.6736 91.5957 33.2493 92.6222 32.4605 93.3335C32.4394 93.4039 32.3936 93.5448 32.3707 93.6152C35.4924 94.2948 38.9662 93.6187 41.396 91.4812C40.5632 91.3773 39.7286 91.1696 39.012 90.7171C37.6915 89.9036 36.7953 88.562 36.2143 87.15C35.4149 87.1781 34.5117 87.0742 33.936 86.4562C33.6261 86.1833 34.0979 85.6921 34.3638 86.0302C35.1913 86.6922 36.378 86.6094 37.3059 86.2326C38.0295 85.6657 37.776 84.6322 37.5911 83.8663C37.4186 83.4419 37.8904 83.1673 38.063 82.8363C37.6158 82.4947 37.0735 82.2148 36.8182 81.6848C36.4854 81.0474 36.1121 80.4347 35.6843 79.8572C34.5557 80.1671 33.3373 80.5262 32.5362 81.4365ZM78.1714 78.8307C78.3651 78.6071 78.9461 78.3676 79.0376 78.792C79.0517 79.6477 78.8897 80.4981 78.8246 81.352C80.0729 80.7498 81.2913 80.0878 82.5132 79.4311C83.1559 79.2286 84.2228 78.9469 84.6436 79.6371C84.1295 80.4946 83.4059 81.2041 82.7879 81.9841C81.7297 83.1726 80.7015 84.4015 79.4761 85.4227C78.9267 85.8911 78.1749 86.0795 77.7083 86.6499C76.9829 87.488 76.5586 88.5268 75.9371 89.4353C74.9951 90.7347 74.1588 92.1151 73.0601 93.293C71.5406 94.9973 69.7465 96.4569 67.7605 97.582C65.1159 99.0663 62.0946 99.8691 59.0609 99.8709C59.1102 99.6579 59.1613 99.4466 59.2158 99.2353C62.2742 99.2212 65.3096 98.3338 67.9207 96.7474C70.7201 95.0677 73.0531 92.675 74.8155 89.9371C75.7663 88.7856 76.2892 87.3507 77.2611 86.2168C77.8386 85.5072 78.7964 85.3118 79.425 84.6621C81.0026 83.162 82.4164 81.4946 83.7703 79.7921C83.3355 79.8625 82.8882 79.9259 82.4956 80.1407C81.1557 80.8502 79.8335 81.6091 78.4337 82.1989C78.0411 82.1408 78.196 81.6777 78.1907 81.4172C78.2506 80.7939 78.3228 80.1741 78.3721 79.5491C77.9143 80.2938 77.5903 81.1126 77.0991 81.838C76.7382 82.382 76.1149 82.7289 75.8754 83.3574C75.643 83.8874 75.6342 84.4737 75.5127 85.0336C75.3507 85.266 75.0955 85.4139 74.8771 85.59C72.8893 87.0672 70.8874 88.5286 68.8626 89.9565C67.9629 90.5815 67.0844 91.2488 66.1125 91.763C64.4222 92.675 62.5453 93.219 60.6349 93.4004C60.6878 93.1768 60.7424 92.9567 60.7969 92.7366C62.0734 92.594 63.3323 92.2929 64.5243 91.814C65.6723 91.3844 66.7164 90.7259 67.7094 90.0163C70.1374 88.3014 72.5601 86.576 74.9211 84.7695C75.0233 84.1022 75.1219 83.4155 75.4529 82.8187C75.6958 82.3732 76.1114 82.0651 76.4336 81.683C77.1414 80.8133 77.4072 79.66 78.1714 78.8307ZM151.934 88.2574C154.898 84.3645 160.258 82.5739 164.989 83.7659C167.973 84.486 170.674 86.3189 172.444 88.8296C174.039 91.0551 174.882 93.8036 174.817 96.5397C174.775 99.6121 173.556 102.637 171.493 104.908C168.477 108.352 163.515 109.9 159.068 108.833C156.171 108.18 153.53 106.466 151.745 104.093C149.56 101.274 148.65 97.5186 149.296 94.0114C149.469 93.2243 149.595 92.3968 149.995 91.6872C150.354 91.5041 150.567 91.9408 150.4 92.2313C149.24 95.5061 149.576 99.2547 151.284 102.28C152.944 101.633 154.671 100.852 155.782 99.4025C156.23 98.8462 156.381 98.1049 156.261 97.4094C156.027 95.8195 155.266 94.3001 155.432 92.6626C155.583 90.8544 156.848 89.3631 158.23 88.2997C159.228 87.5162 160.663 87.2943 161.779 87.9669C162.943 87.1165 164.568 86.9404 165.839 87.6605C167.443 88.5603 168.644 90.0991 169.377 91.7647C170.315 93.9656 169.294 96.3777 169.85 98.6331C170.262 100.119 171.769 100.911 173.185 101.183C173.991 99.2846 174.349 97.1911 174.145 95.1346C173.884 92.2506 172.551 89.4776 170.458 87.4774C168.16 85.2273 164.943 83.9561 161.726 84.037C158.388 84.0687 155.097 85.5671 152.884 88.069C152.645 88.3085 152.432 88.6676 152.039 88.6113C152.013 88.5233 151.96 88.3454 151.934 88.2574ZM158.378 95.1311C158.399 96.4393 158.15 97.8672 158.876 99.0416C159.261 99.7688 159.952 100.234 160.631 100.654C160.975 100.845 160.533 101.132 160.36 101.232C160.36 102.257 160.343 103.283 160.365 104.308C160.357 105.151 161.071 105.931 161.924 105.956C162.786 106.04 163.631 105.333 163.684 104.466C163.728 103.387 163.681 102.306 163.705 101.227C163.17 101.401 162.616 101.54 162.05 101.533C161.624 101.466 161.737 100.82 162.163 100.906C163.431 100.862 164.66 100.172 165.295 99.0645C166.084 97.7792 165.739 96.2087 165.808 94.7843C165.852 92.9338 164.249 91.2629 162.403 91.2101C161.012 92.4602 159.733 93.8405 158.378 95.1311ZM153.964 105.588C156.05 107.312 158.666 108.415 161.385 108.514C164.48 108.674 167.628 107.604 169.954 105.551C168.119 105.033 166.236 104.699 164.336 104.558C164.16 105.653 163.209 106.591 162.071 106.586C160.909 106.644 159.89 105.674 159.737 104.547C157.786 104.7 155.826 104.975 153.964 105.588ZM139.346 84.7818C139.489 84.7906 139.772 84.8065 139.915 84.8135C139.94 88.6078 139.885 92.3985 139.941 96.1928C139.896 98.1313 139.896 100.073 139.947 102.014C139.889 105.297 139.919 108.581 139.919 111.866C140.021 113.904 139.873 115.942 139.94 117.98C139.887 118.048 139.783 118.184 139.732 118.251C139.635 118.205 139.445 118.11 139.348 118.064C139.334 106.97 139.339 95.8759 139.346 84.7818ZM56.2561 102.623C56.4111 102.626 56.7174 102.633 56.8724 102.639C56.8706 104.885 56.8653 107.134 56.8741 109.382C56.9093 111.796 58.7 114.027 61.0082 114.678C61.4766 114.809 61.9625 114.863 62.4467 114.932C68.7183 115.779 74.988 116.645 81.2596 117.495C81.5448 117.522 81.816 117.627 82.0643 117.77C81.9921 117.879 81.8477 118.096 81.7755 118.205C81.5413 118.173 81.3089 118.143 81.0783 118.112C79.888 117.948 78.6978 117.791 77.5076 117.624C72.1991 116.884 66.8854 116.173 61.5752 115.439C58.6806 115.03 56.2825 112.337 56.2597 109.405C56.2544 107.144 56.2649 104.884 56.2561 102.623ZM25.1114 103.135C25.6889 103.059 26.2734 103.098 26.8527 103.095C31.9041 103.1 36.9555 103.093 42.0069 103.096C42.3855 103.008 42.5351 103.369 42.6461 103.655C44.2588 107.646 45.8822 111.632 47.5055 115.62C47.6939 115.685 47.8806 115.761 48.0637 115.844C48.2855 116.097 48.0056 116.363 47.9175 116.61C48.2327 117.448 48.5884 118.27 48.9123 119.106C49.3666 119.122 49.8208 119.129 50.2769 119.143C50.7258 120.52 51.1273 121.911 51.5305 123.304C53.6961 130.838 55.6628 138.44 57.0502 146.161C57.0889 146.378 57.1259 146.596 57.1646 146.818C57.3706 148.064 57.5661 149.313 57.7246 150.566C57.9182 152.123 58.0802 153.683 58.2105 155.244C58.7105 161.544 58.7968 167.87 58.6207 174.186C58.5767 175.519 58.5309 176.852 58.4517 178.184C58.4376 178.419 58.4235 178.66 58.4059 178.899C58.1823 178.957 57.957 179.017 57.7333 179.079C57.7879 179.831 57.8372 180.584 57.8953 181.338C59.9219 182.299 61.5259 183.924 63.2091 185.37C64.3201 186.331 65.5156 187.451 65.6899 188.999C65.755 189.914 64.9187 190.703 64.0208 190.68C60.3691 190.865 56.7755 189.597 53.7225 187.659C53.307 187.409 52.8263 187.081 52.807 186.544C52.7612 185.44 52.7559 184.313 53.0306 183.238C53.0992 182.887 53.3757 182.656 53.6433 182.456C53.4073 181.297 53.1943 180.135 52.939 178.982C52.2418 178.781 52.4231 177.869 52.1766 177.332C51.9073 176.202 51.6748 175.064 51.4565 173.924C51.4301 173.77 51.3755 173.466 51.3491 173.313C50.5691 168.717 50.1694 164.06 50.0726 159.401C50.0356 158.845 50.1607 158.231 49.8244 157.743C48.8542 156.031 48.1059 154.202 47.5091 152.332C47.4457 152.13 47.3858 151.931 47.3277 151.732C45.9667 146.23 44.3222 140.798 42.4594 135.444C42.6214 139.601 42.7341 143.761 42.9031 147.916C42.9718 149.98 43.0352 152.042 43.1091 154.103C43.1162 154.338 43.1267 154.574 43.1373 154.811L43.3574 154.692C43.3045 154.723 43.1989 154.788 43.1443 154.82C43.3221 160.657 43.5422 166.493 43.7359 172.33C43.7429 172.487 43.7535 172.8 43.7588 172.957C43.7641 173.084 43.7764 173.337 43.7817 173.464C43.8239 174.899 43.8838 176.334 43.9173 177.771C43.6285 177.809 43.3433 177.859 43.0563 177.901C43.0475 178.699 43.0193 179.5 43.0035 180.299C43.4049 180.482 43.8328 180.695 44.0599 181.097C44.1409 182.134 44.0792 183.179 44.1162 184.222C44.118 184.982 44.2289 185.84 43.7236 186.482C42.7077 187.801 41.653 189.106 40.4258 190.238C39.3589 191.277 37.7478 191.184 36.3692 191.205C35.3286 191.284 34.4642 190.129 34.8744 189.16C35.7987 186.85 36.9485 184.637 38.0806 182.424C38.4028 181.82 38.6493 181.141 39.2268 180.727C39.0595 179.642 38.8729 178.561 38.7074 177.478C38.3764 177.345 38.0366 177.228 37.7073 177.096C37.7073 176.549 37.6985 176.003 37.6598 175.459C37.5911 174.337 37.4573 173.219 37.2971 172.108C37.2742 171.95 37.2284 171.635 37.2055 171.476C36.6051 167.448 35.8128 163.453 35.0135 159.46C34.9695 159.243 34.9272 159.028 34.8832 158.817C33.9395 154.149 32.9482 149.49 31.9939 144.825C31.39 141.796 30.7808 138.768 30.2631 135.724C29.9462 133.715 29.5976 131.695 29.6487 129.655C29.6716 127.618 30.0061 125.584 30.6505 123.651C30.978 122.672 31.4111 121.728 31.9076 120.823C30.5114 120.904 29.1117 120.927 27.7119 120.878C25.754 120.8 23.7838 120.043 22.4264 118.601C21.1393 117.263 20.3135 115.339 20.6622 113.47C22.3295 113.564 23.9916 113.754 25.6554 113.911C25.7065 113.979 25.8086 114.117 25.8597 114.183C26.4143 114.935 27.2348 115.435 28.094 115.768C28.7736 116.023 29.4849 116.182 30.1962 116.314C29.573 114.772 28.9409 113.233 28.3211 111.689C28.1046 111.12 27.8616 110.564 27.6327 110C26.8193 108.011 26.0199 106.012 25.1977 104.026C25.1132 103.736 24.8561 103.408 25.1114 103.135ZM25.7558 103.727C27.4848 107.949 29.1944 112.178 30.9129 116.405C33.6278 116.629 36.3675 116.3 39.0138 115.694C40.3501 115.02 41.6301 114.215 43.044 113.708C43.382 113.61 43.7465 113.458 44.1004 113.567C44.4208 113.65 44.4701 114.071 44.2888 114.305C43.8275 115.059 42.9348 115.323 42.2869 115.867C43.8134 115.831 45.3399 115.768 46.8664 115.719C45.2378 111.724 43.6127 107.729 41.9946 103.729C36.5822 103.722 31.1699 103.729 25.7558 103.727ZM21.1745 114.125C21.1798 115.668 21.8682 117.159 22.9493 118.245C24.2416 119.557 26.085 120.223 27.9074 120.258C31.3372 120.363 34.8057 120.064 38.1123 119.112C38.6405 118.987 39.1476 118.656 39.7075 118.763C40.9892 118.932 42.2992 119.103 43.588 118.906C44.6163 118.705 45.1586 117.7 45.5794 116.84C46.0354 116.629 46.5583 116.599 47.0037 116.354C45.2202 116.384 43.4366 116.516 41.653 116.499C41.609 116.439 41.5227 116.319 41.4787 116.259C41.5879 115.103 42.9172 114.897 43.6056 114.187C42.0069 114.673 40.6142 115.633 39.1141 116.326C36.1368 116.958 33.0486 117.381 30.0149 116.928C28.2542 116.647 26.3844 116.009 25.3015 114.504C23.9247 114.379 22.5514 114.25 21.1745 114.125ZM46.0442 117.34C45.567 118.288 44.8592 119.282 43.7535 119.513C42.3062 119.777 40.8361 119.531 39.3923 119.376C37.2214 120.101 34.9659 120.566 32.6841 120.753C32.7739 120.992 32.8654 121.23 32.9535 121.473C38.3711 121.515 43.7905 121.48 49.2099 121.49C48.5884 119.962 47.9633 118.436 47.3488 116.906C46.9245 117.08 46.4896 117.226 46.0442 117.34ZM35.7107 154.177C35.4818 154.41 35.6755 154.656 35.9061 154.781C36.9837 155.472 38.3412 155.56 39.5701 155.332C39.8219 155.338 40.1793 155.008 39.8906 154.773C39.6282 154.591 39.306 154.778 39.0208 154.771C38.1229 154.876 37.158 154.797 36.371 154.32C36.1685 154.234 35.9273 153.975 35.7107 154.177ZM50.8438 159.9C51.3966 160.792 52.0358 161.629 52.6115 162.507C52.8228 162.791 52.983 163.138 53.2876 163.34C53.5376 163.315 53.7824 163.023 53.5658 162.801C52.7647 161.65 52.0252 160.447 51.1414 159.357C51.0216 159.496 50.6114 159.664 50.8438 159.9ZM39.3659 177.653C39.505 178.554 39.6634 179.45 39.7937 180.354C40.4945 180.088 41.3062 180.075 41.9171 180.563C42.0685 180.493 42.22 180.426 42.3731 180.359C42.3978 179.556 42.4242 178.753 42.4383 177.95C41.4048 177.985 40.373 177.883 39.3659 177.653ZM53.6081 179.088C53.8422 180.206 54.0482 181.331 54.2877 182.449C54.7736 182.579 55.242 182.769 55.6821 183.016C56.1522 182.41 56.6453 181.813 57.265 181.355C57.2228 180.635 57.1646 179.917 57.1224 179.197C55.9533 179.338 54.7666 179.29 53.6081 179.088ZM39.0402 181.935C37.783 184.371 36.503 186.803 35.473 189.345C35.2336 189.844 35.6121 190.513 36.165 190.551C37.1052 190.602 38.0647 190.574 38.9856 190.36C39.5825 190.224 40.0191 189.771 40.4417 189.363C41.4118 188.384 42.2851 187.315 43.1302 186.231C43.4384 185.875 43.5246 185.396 43.5017 184.938C43.4753 183.752 43.5017 182.561 43.456 181.376C43.2412 180.936 42.6214 180.808 42.2323 181.107C42.1196 181.852 42.2657 182.613 42.1513 183.361C42.0685 183.389 41.903 183.445 41.8203 183.475L41.6161 183.366C41.521 182.613 41.5932 181.848 41.5755 181.091C40.7163 180.398 39.4645 181.058 39.0402 181.935ZM55.779 183.81C55.1663 183.486 54.5236 182.984 53.7929 183.109C53.5253 183.475 53.5218 183.958 53.4619 184.393C53.439 184.861 53.2964 185.384 53.6098 185.794L53.6785 185.407C53.9655 185.504 54.2225 185.673 54.462 185.861C57.2104 187.93 60.7934 188.886 64.2021 188.361C64.6634 188.143 64.8377 188.944 64.3535 188.96C60.5997 189.634 56.6153 188.444 53.6802 186.048C53.6045 186.009 53.4514 185.933 53.3757 185.894C53.4338 186.241 53.3528 186.738 53.7507 186.923C56.7685 188.912 60.355 190.24 64.0102 190.05C64.6476 190.095 65.2268 189.446 65.0332 188.819C64.6476 187.248 63.2461 186.291 62.1245 185.254C60.7212 184.009 59.3004 182.741 57.6224 181.873C56.8759 182.387 56.4357 183.204 55.779 183.81ZM150.197 111.793C151.271 111.435 152.495 112.338 152.49 113.467C152.551 114.529 151.532 115.456 150.483 115.316C149.41 115.224 148.601 114.023 148.963 113C149.146 112.43 149.616 111.956 150.197 111.793ZM150.166 112.458C149.391 112.798 149.275 113.99 149.977 114.469C150.604 114.986 151.668 114.613 151.835 113.816C152.12 112.889 151.018 111.999 150.166 112.458ZM84.1595 115.636C84.7669 114.47 86.1455 113.824 87.4343 114.022C104.839 116.288 122.241 118.568 139.646 120.839C142.435 121.221 145.229 121.568 148.019 121.941C148.741 122.052 149.502 122.05 150.173 122.374C150.013 122.675 149.738 122.878 149.386 122.755C128.789 120.055 108.191 117.367 87.5945 114.675C86.841 114.564 86.0152 114.636 85.4043 115.129C84.6577 115.662 84.3443 116.608 84.3883 117.499C84.3901 124.957 84.3831 132.415 84.3919 139.874C84.4376 140.152 84.2827 140.374 84.0679 140.534C83.6488 140.203 83.7774 139.648 83.758 139.183C83.7756 136.572 83.7598 133.961 83.7633 131.35C83.7651 126.903 83.7703 122.455 83.7598 118.006C83.7545 117.203 83.751 116.354 84.1595 115.636ZM158.955 123.489C159.024 123.418 159.161 123.281 159.23 123.211C162.705 123.645 166.179 124.091 169.655 124.54C171.625 124.774 173.275 126.589 173.28 128.581C173.292 133.32 173.282 138.062 173.285 142.802C173.285 143.647 173.285 144.494 173.285 145.342C173.284 145.967 173.282 146.592 173.285 147.219C173.278 148.693 173.299 150.167 173.278 151.64C173.257 152.794 172.563 153.901 171.519 154.398C170.757 154.788 169.871 154.758 169.049 154.632C143.188 151.251 117.317 147.95 91.454 144.589C91.2269 144.555 91.0455 144.402 90.8536 144.3C91.0525 144.024 91.3395 143.879 91.6793 143.992C117.267 147.297 142.855 150.598 168.442 153.908C169.26 153.996 170.111 154.229 170.921 153.961C171.782 153.697 172.454 152.926 172.604 152.038C172.695 151.445 172.655 150.841 172.662 150.244C172.66 143.085 172.662 135.924 172.662 128.765C172.706 127.475 171.968 126.225 170.856 125.591C170.118 125.142 169.23 125.126 168.403 125.01C165.306 124.603 162.204 124.232 159.11 123.809C159.071 123.728 158.994 123.568 158.955 123.489ZM155.925 173.506L156.12 173.415C156.191 173.439 156.335 173.487 156.406 173.512C156.504 174.022 156.481 174.554 156.421 175.07C156.337 175.103 156.171 175.174 156.087 175.207C155.645 174.846 155.865 174.033 155.925 173.506ZM153.383 176.057C153.839 175.952 154.328 175.998 154.796 176.038C155.076 176.112 155.09 176.499 154.83 176.614C154.42 176.663 154.002 176.649 153.592 176.624C153.277 176.691 153.073 176.216 153.383 176.057ZM157.353 176.146C157.775 175.938 158.284 176.063 158.744 176.061C159.078 176.019 159.198 176.496 158.9 176.642C158.483 176.69 158.062 176.677 157.649 176.654C157.376 176.714 157.17 176.355 157.353 176.146ZM155.916 177.563L156.119 177.466C156.191 177.494 156.335 177.547 156.409 177.573C156.488 178.084 156.476 178.61 156.42 179.126C156.14 179.468 155.74 179.121 155.833 178.765C155.833 178.364 155.789 177.947 155.916 177.563Z" fill="black"/>
<path d="M102.754 34.715C108.161 35.9633 113.369 38.0479 118.169 40.8281C126.934 45.883 134.369 53.2726 139.359 62.083C139.565 62.4792 139.788 62.8648 139.998 63.2574C140.081 63.4229 140.165 63.5867 140.255 63.7504C140.371 63.974 140.487 64.1976 140.605 64.4248C141.007 65.2047 141.378 66.0023 141.736 66.8052C144.357 72.7792 145.826 79.2708 145.843 85.803C143.908 85.523 141.984 85.1815 140.049 84.898C140.153 86.259 139.929 87.6182 140.065 88.9775C140.07 90.5603 140.103 92.145 140.021 93.7278C140.146 96.1329 140.007 98.5433 140.074 100.95C140.042 102.537 140.137 104.125 140 105.708C140.155 109.46 140.021 113.22 140.082 116.976C140.061 117.307 140.133 117.684 139.943 117.979C139.876 115.942 140.024 113.903 139.922 111.866C139.922 108.581 139.892 105.297 139.95 102.014C139.899 100.073 139.899 98.1313 139.945 96.1928C139.889 92.3985 139.943 88.6078 139.919 84.8135C139.776 84.8064 139.493 84.7906 139.35 84.7818C131.002 83.4472 122.648 82.146 114.302 80.7885C113.672 74.2335 108.427 68.7032 102.194 66.9584C102.31 58.1655 102.5 49.3762 102.641 40.5851C102.729 38.629 102.691 36.6711 102.754 34.715ZM135.205 45.9745C137.487 45.3882 139.827 45.0255 142.179 44.8776C142.218 45.765 142.577 46.6559 143.289 47.2158C144.364 48.1402 146.113 48.0856 147.134 47.1014C147.766 46.5538 148.042 45.728 148.123 44.9181C150.499 45.1312 152.854 45.5555 155.152 46.2034C152.803 48.5909 149.564 50.0435 146.227 50.2706C142.167 50.5999 138.056 48.9677 135.198 46.0942C135.2 46.0643 135.203 46.0045 135.205 45.9745ZM41.44 90.7963C46.3629 90.5111 51.2558 91.3438 56.0959 92.1361L56.242 92.1573C56.3987 92.1784 56.7157 92.2207 56.8724 92.2418C58.2175 92.4108 59.5838 92.4901 60.9255 92.2436C60.8938 92.3668 60.8321 92.6133 60.8005 92.7366C60.7459 92.9567 60.6913 93.1767 60.6385 93.4003C60.1719 95.3477 59.7053 97.2932 59.2194 99.2352C59.1648 99.4465 59.1137 99.6578 59.0644 99.8709C58.8408 100.834 58.6067 101.794 58.3672 102.751C57.8707 102.713 57.3742 102.667 56.8759 102.639C56.7209 102.633 56.4146 102.626 56.2596 102.623C55.3758 102.653 54.4514 102.681 53.6397 103.075C53.1644 103.301 52.7524 103.748 52.7348 104.301C52.5781 105.766 52.7365 107.239 52.7594 108.708C52.9302 111.287 53.1397 113.865 53.4179 116.435C53.5746 118.002 53.8405 119.629 53.4197 121.177C53.1661 122.143 52.4126 122.874 51.534 123.304C51.1308 121.911 50.7293 120.52 50.2804 119.143C49.8243 119.129 49.3701 119.122 48.9158 119.106C48.5919 118.27 48.2362 117.448 47.921 116.61C48.0091 116.363 48.289 116.097 48.0672 115.844C47.8841 115.761 47.6974 115.685 47.5091 115.62C45.8857 111.632 44.2624 107.646 42.6496 103.655C42.5386 103.369 42.389 103.008 42.0104 103.096C36.959 103.093 31.9076 103.1 26.8562 103.095C26.2769 103.098 25.6924 103.059 25.1149 103.135C24.8596 103.408 25.1167 103.736 25.2012 104.026C26.0234 106.012 26.8228 108.01 27.6362 110C27.2136 111.349 26.8633 112.72 26.4073 114.057C26.2717 114.088 25.9988 114.152 25.8632 114.183C25.8121 114.117 25.71 113.979 25.659 113.911C23.9951 113.754 22.333 113.564 20.6657 113.47C20.553 113.465 20.3294 113.455 20.2167 113.449C20.7414 108.831 21.7449 104.199 23.7961 100.001C24.8191 97.9781 26.1379 96.0273 28.013 94.7032C29.1363 93.8898 30.4797 93.4778 31.7791 93.0306C31.633 93.4584 31.6435 94.0852 32.1911 94.2014C35.466 94.955 39.137 94.2279 41.7146 92.0235C42.2217 91.6749 41.9488 90.9724 41.44 90.7963ZM28.3246 111.689C28.9444 113.233 29.5765 114.772 30.1998 116.314C29.4884 116.182 28.7771 116.023 28.0975 115.768C28.175 114.407 28.3282 113.051 28.3246 111.689ZM27.7154 120.878C29.1152 120.927 30.5149 120.904 31.9112 120.823C31.4146 121.728 30.9815 122.672 30.654 123.651C29.9128 123.739 29.0412 123.855 28.4356 123.313C27.7436 122.712 27.7172 121.724 27.7154 120.878ZM94.713 122.316C96.0001 121.651 97.5618 123.159 97.0353 124.476C96.6568 125.466 95.2359 125.542 94.5722 124.807C93.8379 124.174 93.7834 122.793 94.713 122.316ZM101.043 123.024C101.518 122.867 102.023 123.008 102.506 123.057C122.136 125.568 141.766 128.079 161.395 130.588C162.447 130.658 163.308 131.781 162.987 132.811C162.807 133.491 162.042 133.847 161.381 133.713C141.535 131.183 121.692 128.63 101.846 126.102C100.951 126.05 100.185 125.269 100.157 124.374C100.12 123.792 100.486 123.21 101.043 123.024ZM73.2256 136.93C74.5761 136.152 76.0585 135.636 77.5727 135.291C77.6766 135.354 77.8844 135.482 77.9883 135.548C77.6837 136.063 77.034 136.049 76.5286 136.222C74.6077 136.724 72.9439 137.833 71.2325 138.791C66.5438 141.467 61.8604 144.15 57.1682 146.818C57.1294 146.596 57.0924 146.378 57.0537 146.161C62.4467 143.089 67.8326 140.002 73.2256 136.93ZM184.101 151.13C184.356 150.964 184.661 150.961 184.96 150.969C184.915 151.093 184.823 151.341 184.777 151.464C167.313 161.475 149.821 171.439 132.342 181.422C129.643 182.958 126.453 183.62 123.366 183.252C101.798 180.47 80.2331 177.672 58.663 174.901C58.6595 174.753 58.6524 174.459 58.6489 174.311C58.8056 174.316 59.119 174.327 59.2757 174.33C79.5834 176.948 99.8912 179.574 120.197 182.199C122.298 182.443 124.405 182.88 126.529 182.632C128.619 182.421 130.643 181.715 132.444 180.641C149.66 170.798 166.889 160.977 184.101 151.13ZM45.8382 152.558C46.3347 152.279 46.8294 151.999 47.3312 151.732C47.3893 151.931 47.4492 152.13 47.5126 152.332C46.1322 153.125 44.7553 153.924 43.3609 154.692L43.1408 154.811C43.1302 154.574 43.1197 154.338 43.1126 154.103C44.0229 153.593 44.9279 153.07 45.8382 152.558ZM20.8805 166.803C25.5516 164.145 30.2103 161.463 34.8867 158.817C34.9307 159.028 34.973 159.243 35.017 159.459C30.4656 162.083 25.8966 164.676 21.3329 167.28C21.0195 167.467 20.6833 167.701 20.5917 168.08C20.4016 168.717 20.9157 169.436 21.5847 169.455C26.7911 170.142 32.0009 170.797 37.209 171.476C37.2319 171.635 37.2777 171.95 37.3006 172.108C32.1682 171.515 27.0499 170.781 21.921 170.157C21.3347 170.092 20.6885 169.962 20.31 169.465C19.9543 169.076 19.9491 168.518 19.9297 168.025C20.0582 167.504 20.4033 167.052 20.8805 166.803ZM43.7394 172.33C46.2801 172.642 48.8172 172.969 51.3526 173.313C51.379 173.466 51.4336 173.77 51.46 173.923C48.8859 173.67 46.3259 173.291 43.7623 172.957C43.757 172.8 43.7465 172.487 43.7394 172.33Z" fill="#2A7FFF"/>
</g>
<defs>
<clipPath id="clip0_424_8053">
<rect width="210" height="210" fill="white" transform="translate(0.5)"/>
</clipPath>
</defs>
</svg>
